M48
; DRILL file {KiCad 7.0.6} date Mon Apr 22 22:59:52 2024
; FORMAT={-:-/ absolute / metric / decimal}
; #@! TF.CreationDate,2024-04-22T22:59:52-04:00
; #@! TF.GenerationSoftware,Kicad,Pcbnew,7.0.6
; #@! TF.FileFunction,Plated,1,2,PTH
FMAT,2
METRIC
; #@! TA.AperFunction,Plated,PTH,ComponentDrill
T1C0.330
; #@! TA.AperFunction,Plated,PTH,ViaDrill
T2C0.400
; #@! TA.AperFunction,Plated,PTH,ViaDrill
T3C0.600
; #@! TA.AperFunction,Plated,PTH,ComponentDrill
T4C0.600
; #@! TA.AperFunction,Plated,PTH,ComponentDrill
T5C0.710
; #@! TA.AperFunction,Plated,PTH,ComponentDrill
T6C0.760
; #@! TA.AperFunction,Plated,PTH,ComponentDrill
T7C0.850
; #@! TA.AperFunction,Plated,PTH,ComponentDrill
T8C1.000
; #@! TA.AperFunction,Plated,PTH,ComponentDrill
T9C1.100
; #@! TA.AperFunction,Plated,PTH,ComponentDrill
T10C1.200
; #@! TA.AperFunction,Plated,PTH,ComponentDrill
T11C1.400
; #@! TA.AperFunction,Plated,PTH,ComponentDrill
T12C1.800
; #@! TA.AperFunction,Plated,PTH,ComponentDrill
T13C4.300
%
G90
G05
T1
X44.2Y-69.35
X44.2Y-70.65
X45.5Y-69.35
X45.5Y-70.65
X46.8Y-69.35
X46.8Y-70.65
X77.2Y-79.95
X77.2Y-81.25
X78.5Y-79.95
X78.5Y-81.25
X79.8Y-79.95
X79.8Y-81.25
T2
X22.0Y-40.0
X22.0Y-48.75
X22.0Y-70.0
X25.0Y-40.0
X25.0Y-48.75
X25.0Y-70.0
X25.0Y-82.5
X27.5Y-85.0
X29.75Y-80.5
X30.5Y-26.75
X31.0Y-22.75
X32.0Y-46.0
X35.25Y-27.5
X35.25Y-87.25
X35.25Y-89.5
X37.0Y-70.0
X37.5Y-40.5
X37.5Y-45.0
X37.5Y-49.5
X38.25Y-84.25
X39.0Y-21.0
X39.0Y-24.5
X39.0Y-32.0
X39.5Y-87.0
X39.5Y-89.5
X40.25Y-38.5
X40.5Y-35.25
X40.5Y-40.5
X40.5Y-45.0
X40.5Y-49.5
X40.5Y-61.35
X41.0Y-56.25
X41.25Y-68.5
X41.25Y-71.5
X41.25Y-85.25
X42.5Y-68.5
X42.5Y-71.5
X43.5Y-93.75
X44.75Y-62.75
X44.75Y-64.1
X44.75Y-81.5
X45.0Y-61.35
X46.25Y-34.75
X48.0Y-59.5
X48.5Y-21.0
X48.5Y-68.5
X48.5Y-71.5
X48.75Y-65.5
X49.0Y-58.25
X49.25Y-35.5
X49.25Y-64.1
X49.5Y-33.0
X49.75Y-68.5
X49.75Y-71.5
X50.0Y-54.0
X51.25Y-65.0
X51.25Y-73.0
X51.25Y-77.75
X51.5Y-59.5
X51.75Y-86.25
X52.0Y-50.0
X52.0Y-51.4
X52.0Y-58.25
X52.25Y-60.5
X52.5Y-30.25
X52.5Y-87.0
X53.3Y-32.9
X53.5Y-38.75
X54.0Y-43.25
X54.0Y-44.5
X55.0Y-75.5
X55.25Y-28.0
X55.75Y-56.5
X56.0Y-33.0
X56.0Y-50.0
X56.0Y-51.25
X56.25Y-36.0
X56.4Y-82.8
X57.0Y-34.0
X57.0Y-54.0
X57.5Y-42.25
X57.5Y-44.0
X58.0Y-52.25
X58.25Y-75.5
X58.5Y-70.75
X59.0Y-34.45
X59.0Y-45.75
X59.0Y-47.0
X60.0Y-65.5
X60.2Y-79.0
X60.25Y-45.25
X60.75Y-40.5
X61.25Y-41.5
X61.6Y-83.6
X61.75Y-52.5
X62.0Y-30.0
X62.0Y-50.25
X62.165Y-78.0
X62.165Y-81.25
X62.5Y-68.25
X62.75Y-63.5
X63.5Y-42.5
X63.5Y-45.25
X63.5Y-46.5
X64.5Y-40.0
X65.25Y-42.75
X66.165Y-81.25
X66.5Y-23.5
X66.5Y-25.75
X66.5Y-29.75
X66.665Y-78.0
X67.0Y-35.25
X67.0Y-45.5
X67.75Y-54.25
X67.75Y-55.65
X67.75Y-57.05
X67.85Y-67.25
X68.75Y-72.75
X68.75Y-94.25
X68.9Y-53.1
X68.9Y-58.2
X69.15Y-67.25
X69.8Y-41.5
X70.0Y-45.5
X70.3Y-53.1
X70.3Y-58.2
X70.4Y-67.25
X70.665Y-81.25
X70.75Y-35.25
X71.65Y-67.25
X71.7Y-53.1
X71.7Y-58.2
X72.0Y-78.0
X72.0Y-84.0
X72.85Y-54.25
X72.85Y-55.65
X72.85Y-57.05
X73.0Y-68.05
X73.25Y-22.75
X73.25Y-32.0
X74.0Y-79.95
X74.0Y-81.25
X75.325Y-79.95
X75.325Y-81.25
X76.0Y-63.0
X78.0Y-50.25
X78.0Y-68.0
X78.25Y-72.75
X79.1Y-34.75
X79.75Y-25.75
X79.75Y-29.8
X80.0Y-68.0
X80.375Y-47.5
X80.6Y-34.75
X81.5Y-91.75
X81.675Y-79.95
X81.675Y-81.25
X81.75Y-47.5
X82.25Y-44.0
X83.0Y-79.95
X83.0Y-81.25
X84.0Y-32.25
X84.25Y-60.0
X85.15Y-64.625
X85.15Y-68.225
X85.5Y-49.0
X85.5Y-54.0
X85.5Y-56.0
X85.75Y-52.75
X86.0Y-83.25
X86.5Y-55.0
X86.5Y-57.0
X86.75Y-26.5
X86.75Y-59.25
X86.95Y-64.625
X86.95Y-68.225
X87.0Y-79.25
X88.25Y-85.25
X88.25Y-87.25
X88.25Y-89.0
X88.25Y-91.5
X88.5Y-57.25
X88.75Y-64.625
X88.75Y-68.225
X89.5Y-74.75
X89.75Y-29.25
X90.0Y-37.5
X90.75Y-85.25
X90.75Y-87.25
X90.75Y-89.0
X90.75Y-91.5
X91.0Y-78.5
X91.5Y-41.0
X91.75Y-37.75
X92.75Y-36.75
X92.75Y-40.25
X93.0Y-74.75
X93.75Y-37.75
X93.75Y-39.5
X94.0Y-49.25
X94.25Y-84.25
X94.25Y-88.25
X94.5Y-32.5
X95.0Y-44.25
X95.0Y-49.75
X95.25Y-27.0
X96.0Y-43.25
X96.0Y-48.75
X96.0Y-85.25
X96.0Y-87.25
X96.5Y-27.0
X97.0Y-44.25
X97.0Y-49.75
X97.0Y-77.5
X97.0Y-82.0
X97.0Y-92.75
X97.75Y-27.0
X98.0Y-43.25
X98.0Y-48.75
X98.25Y-89.25
X98.25Y-90.25
X98.5Y-35.5
X98.5Y-85.25
X98.5Y-87.25
X99.0Y-27.0
X99.0Y-49.75
X99.5Y-43.0
X99.5Y-46.25
X99.75Y-77.5
X99.75Y-82.0
X102.5Y-45.25
X102.5Y-47.75
X104.0Y-77.5
X104.0Y-82.0
X104.5Y-43.0
X104.5Y-50.5
T3
X27.25Y-87.0
X31.0Y-54.0
X31.0Y-58.0
X31.0Y-70.0
X39.0Y-56.0
X39.25Y-28.75
X52.75Y-46.75
X53.0Y-26.5
X55.5Y-46.75
X62.5Y-28.0
X75.0Y-76.5
X75.5Y-28.0
X82.5Y-64.0
X82.5Y-70.0
X82.75Y-73.75
X84.75Y-75.5
X91.5Y-72.75
X92.25Y-64.0
X92.25Y-70.0
T5
X71.9Y-93.4
X73.1Y-88.3
T6
X34.3Y-33.35
X34.3Y-35.89
X34.3Y-38.43
X34.35Y-60.6
X34.35Y-63.14
X34.35Y-65.68
X34.35Y-75.6
X34.35Y-78.14
X34.35Y-80.68
X36.84Y-32.08
X36.84Y-34.62
X36.84Y-37.16
X36.89Y-59.33
X36.89Y-61.87
X36.89Y-64.41
X36.89Y-74.33
X36.89Y-76.87
X36.89Y-79.41
T7
X53.75Y-24.212
X58.75Y-24.212
T8
X41.735Y-32.0
X41.945Y-76.75
X41.945Y-79.29
X44.275Y-32.0
X44.485Y-76.75
X44.485Y-79.29
X47.025Y-76.75
X47.025Y-79.29
X49.39Y-90.0
X49.39Y-92.54
X51.93Y-90.0
X51.93Y-92.54
X54.47Y-90.0
X54.47Y-92.54
X57.01Y-90.0
X57.01Y-92.54
X59.55Y-90.0
X59.55Y-92.54
X62.68Y-21.825
X65.22Y-21.825
X67.76Y-21.825
X70.3Y-21.825
X75.93Y-21.825
X78.47Y-21.825
X81.01Y-21.825
X83.55Y-21.825
X86.0Y-87.75
X86.0Y-90.29
X88.71Y-22.0
X88.71Y-24.54
X91.25Y-22.0
X91.25Y-24.54
X93.79Y-22.0
X93.79Y-24.54
X96.33Y-22.0
X96.33Y-24.54
X98.87Y-22.0
X98.87Y-24.54
T9
X32.46Y-92.5
X35.0Y-92.5
X37.54Y-92.5
T10
X41.06Y-23.0
X46.14Y-23.0
X77.555Y-87.667
X81.055Y-87.667
T11
X98.248Y-61.5
X98.248Y-66.5
T12
X101.0Y-59.25
X101.0Y-68.75
T13
X24.0Y-24.0
X24.0Y-92.0
X104.8Y-24.0
X104.8Y-92.0
T4
G00X52.75Y-21.863
M15
G01X52.75Y-21.162
M16
G05
G00X59.75Y-21.162
M15
G01X59.75Y-21.863
M16
G05
T0
M30
