%TF.GenerationSoftware,KiCad,Pcbnew,7.0.6*%
%TF.CreationDate,2023-12-17T15:55:11-05:00*%
%TF.ProjectId,Arch_Bridge,41726368-5f42-4726-9964-67652e6b6963,rev?*%
%TF.SameCoordinates,Original*%
%TF.FileFunction,Soldermask,Bot*%
%TF.FilePolarity,Negative*%
%FSLAX46Y46*%
G04 Gerber Fmt 4.6, Leading zero omitted, Abs format (unit mm)*
G04 Created by KiCad (PCBNEW 7.0.6) date 2023-12-17 15:55:11*
%MOMM*%
%LPD*%
G01*
G04 APERTURE LIST*
%ADD10C,0.800000*%
%ADD11R,1.700000X1.700000*%
%ADD12O,1.700000X1.700000*%
%ADD13O,1.200000X1.900000*%
%ADD14C,1.450000*%
%ADD15C,3.000000*%
%ADD16C,0.770000*%
%ADD17C,3.250000*%
%ADD18R,1.520000X1.520000*%
%ADD19C,1.520000*%
%ADD20R,1.600000X1.600000*%
%ADD21C,1.600000*%
%ADD22C,2.400000*%
%ADD23O,2.400000X2.400000*%
%ADD24R,1.500000X1.050000*%
%ADD25O,1.500000X1.050000*%
%ADD26R,1.905000X2.000000*%
%ADD27O,1.905000X2.000000*%
%ADD28O,1.600000X1.600000*%
%ADD29O,6.000000X3.000000*%
%ADD30C,1.710000*%
G04 APERTURE END LIST*
D10*
%TO.C,BOOT1*%
X106600000Y-50475000D03*
%TD*%
D11*
%TO.C,JP3*%
X31950000Y-86550000D03*
D12*
X31950000Y-89090000D03*
X31950000Y-91630000D03*
%TD*%
D13*
%TO.C,USB1*%
X59750000Y-21512500D03*
D14*
X58750000Y-24212500D03*
X53750000Y-24212500D03*
D13*
X52750000Y-21512500D03*
%TD*%
D15*
%TO.C,J1*%
X66300000Y-88250000D03*
X70100000Y-88250000D03*
%TD*%
D16*
%TO.C,U7*%
X43625000Y-89035000D03*
X43625000Y-87735000D03*
X43625000Y-86435000D03*
X42325000Y-89035000D03*
X42325000Y-87735000D03*
X42325000Y-86435000D03*
%TD*%
D17*
%TO.C,LOCONET_T1*%
X27950000Y-29920000D03*
X27950000Y-40080000D03*
D18*
X36840000Y-31830000D03*
D19*
X34300000Y-33100000D03*
X36840000Y-34370000D03*
X34300000Y-35640000D03*
X36840000Y-36910000D03*
X34300000Y-38180000D03*
%TD*%
D11*
%TO.C,JP2*%
X35750000Y-91630000D03*
D12*
X35750000Y-89090000D03*
X35750000Y-86550000D03*
%TD*%
D11*
%TO.C,J3*%
X107025000Y-29835000D03*
D12*
X107025000Y-32375000D03*
X107025000Y-34915000D03*
X107025000Y-37455000D03*
%TD*%
D11*
%TO.C,JP1*%
X29900000Y-21810000D03*
D12*
X29900000Y-24350000D03*
%TD*%
D20*
%TO.C,CB1*%
X97500000Y-56625000D03*
D21*
X95000000Y-56625000D03*
%TD*%
D22*
%TO.C,R14*%
X75555000Y-88545000D03*
D23*
X83175000Y-88545000D03*
%TD*%
D10*
%TO.C,RESET1*%
X106600000Y-45600000D03*
%TD*%
D17*
%TO.C,LOCONET_B2*%
X28000000Y-57420000D03*
X28000000Y-67580000D03*
D18*
X36890000Y-59330000D03*
D19*
X34350000Y-60600000D03*
X36890000Y-61870000D03*
X34350000Y-63140000D03*
X36890000Y-64410000D03*
X34350000Y-65680000D03*
%TD*%
D11*
%TO.C,DCC_1*%
X50370000Y-92750000D03*
D12*
X47830000Y-92750000D03*
X45290000Y-92750000D03*
X42750000Y-92750000D03*
%TD*%
D24*
%TO.C,Q1*%
X40600000Y-35550000D03*
D25*
X40600000Y-36820000D03*
X40600000Y-38090000D03*
%TD*%
D26*
%TO.C,Q3*%
X80830000Y-92625000D03*
D27*
X78290000Y-92625000D03*
X75750000Y-92625000D03*
%TD*%
D16*
%TO.C,U13*%
X70475000Y-80975000D03*
X69175000Y-80975000D03*
X67875000Y-80975000D03*
X70475000Y-82275000D03*
X69175000Y-82275000D03*
X67875000Y-82275000D03*
%TD*%
D22*
%TO.C,R9*%
X48750000Y-22500000D03*
D23*
X48750000Y-30120000D03*
%TD*%
D20*
%TO.C,D5*%
X81710000Y-84695000D03*
D28*
X74090000Y-84695000D03*
%TD*%
D29*
%TO.C,V12*%
X101225000Y-76250000D03*
X101225000Y-66750000D03*
%TD*%
D11*
%TO.C,J4*%
X98990000Y-21775000D03*
D12*
X96450000Y-21775000D03*
X93910000Y-21775000D03*
X91370000Y-21775000D03*
%TD*%
D11*
%TO.C,COM2*%
X70300000Y-21825000D03*
D12*
X67760000Y-21825000D03*
X65220000Y-21825000D03*
X62680000Y-21825000D03*
%TD*%
D20*
%TO.C,D3*%
X44832500Y-26450000D03*
D28*
X37212500Y-26450000D03*
%TD*%
D17*
%TO.C,LOCONET_B1*%
X28000000Y-72420000D03*
X28000000Y-82580000D03*
D18*
X36890000Y-74330000D03*
D19*
X34350000Y-75600000D03*
X36890000Y-76870000D03*
X34350000Y-78140000D03*
X36890000Y-79410000D03*
X34350000Y-80680000D03*
%TD*%
D26*
%TO.C,Q2*%
X37210000Y-23395000D03*
D27*
X39750000Y-23395000D03*
X42290000Y-23395000D03*
%TD*%
D30*
%TO.C,F4*%
X61350000Y-87625000D03*
X62550000Y-82525000D03*
%TD*%
D11*
%TO.C,DCC_2*%
X61730000Y-92750000D03*
D12*
X59190000Y-92750000D03*
X56650000Y-92750000D03*
X54110000Y-92750000D03*
%TD*%
D11*
%TO.C,CONSOLE1*%
X83550000Y-21825000D03*
D12*
X81010000Y-21825000D03*
X78470000Y-21825000D03*
X75930000Y-21825000D03*
%TD*%
M02*
