%TF.GenerationSoftware,KiCad,Pcbnew,7.0.6*%
%TF.CreationDate,2024-04-22T22:59:48-04:00*%
%TF.ProjectId,Arch_Bridge,41726368-5f42-4726-9964-67652e6b6963,rev?*%
%TF.SameCoordinates,Original*%
%TF.FileFunction,Paste,Top*%
%TF.FilePolarity,Positive*%
%FSLAX46Y46*%
G04 Gerber Fmt 4.6, Leading zero omitted, Abs format (unit mm)*
G04 Created by KiCad (PCBNEW 7.0.6) date 2024-04-22 22:59:48*
%MOMM*%
%LPD*%
G01*
G04 APERTURE LIST*
G04 Aperture macros list*
%AMRoundRect*
0 Rectangle with rounded corners*
0 $1 Rounding radius*
0 $2 $3 $4 $5 $6 $7 $8 $9 X,Y pos of 4 corners*
0 Add a 4 corners polygon primitive as box body*
4,1,4,$2,$3,$4,$5,$6,$7,$8,$9,$2,$3,0*
0 Add four circle primitives for the rounded corners*
1,1,$1+$1,$2,$3*
1,1,$1+$1,$4,$5*
1,1,$1+$1,$6,$7*
1,1,$1+$1,$8,$9*
0 Add four rect primitives between the rounded corners*
20,1,$1+$1,$2,$3,$4,$5,0*
20,1,$1+$1,$4,$5,$6,$7,0*
20,1,$1+$1,$6,$7,$8,$9,0*
20,1,$1+$1,$8,$9,$2,$3,0*%
G04 Aperture macros list end*
%ADD10RoundRect,0.250000X1.100000X-0.325000X1.100000X0.325000X-1.100000X0.325000X-1.100000X-0.325000X0*%
%ADD11RoundRect,0.250000X0.600000X-0.400000X0.600000X0.400000X-0.600000X0.400000X-0.600000X-0.400000X0*%
%ADD12RoundRect,0.250000X0.312500X0.625000X-0.312500X0.625000X-0.312500X-0.625000X0.312500X-0.625000X0*%
%ADD13RoundRect,0.250000X-0.312500X-0.625000X0.312500X-0.625000X0.312500X0.625000X-0.312500X0.625000X0*%
%ADD14RoundRect,0.250000X0.625000X-0.312500X0.625000X0.312500X-0.625000X0.312500X-0.625000X-0.312500X0*%
%ADD15RoundRect,0.250000X-0.375000X-0.625000X0.375000X-0.625000X0.375000X0.625000X-0.375000X0.625000X0*%
%ADD16R,1.700000X0.900000*%
%ADD17RoundRect,0.250000X-0.625000X0.375000X-0.625000X-0.375000X0.625000X-0.375000X0.625000X0.375000X0*%
%ADD18RoundRect,0.250000X-0.650000X0.325000X-0.650000X-0.325000X0.650000X-0.325000X0.650000X0.325000X0*%
%ADD19RoundRect,0.250000X-0.625000X0.312500X-0.625000X-0.312500X0.625000X-0.312500X0.625000X0.312500X0*%
%ADD20RoundRect,0.250000X-1.100000X0.325000X-1.100000X-0.325000X1.100000X-0.325000X1.100000X0.325000X0*%
%ADD21RoundRect,0.250000X0.625000X-0.375000X0.625000X0.375000X-0.625000X0.375000X-0.625000X-0.375000X0*%
%ADD22R,1.300000X0.800000*%
%ADD23RoundRect,0.100000X0.100000X-0.637500X0.100000X0.637500X-0.100000X0.637500X-0.100000X-0.637500X0*%
%ADD24R,0.400000X1.350000*%
%ADD25R,1.500000X1.900000*%
%ADD26R,1.560000X0.650000*%
%ADD27RoundRect,0.150000X0.512500X0.150000X-0.512500X0.150000X-0.512500X-0.150000X0.512500X-0.150000X0*%
%ADD28R,0.650000X1.560000*%
%ADD29R,1.600000X0.300000*%
%ADD30RoundRect,0.150000X-0.150000X0.825000X-0.150000X-0.825000X0.150000X-0.825000X0.150000X0.825000X0*%
%ADD31R,0.900000X1.500000*%
%ADD32R,1.500000X0.900000*%
%ADD33R,1.000000X1.000000*%
%ADD34RoundRect,0.250000X0.400000X0.600000X-0.400000X0.600000X-0.400000X-0.600000X0.400000X-0.600000X0*%
%ADD35RoundRect,0.250000X0.412500X0.650000X-0.412500X0.650000X-0.412500X-0.650000X0.412500X-0.650000X0*%
%ADD36RoundRect,0.250000X-0.412500X-0.650000X0.412500X-0.650000X0.412500X0.650000X-0.412500X0.650000X0*%
%ADD37R,1.500000X2.000000*%
%ADD38R,3.800000X2.000000*%
%ADD39RoundRect,0.250000X1.500000X1.000000X-1.500000X1.000000X-1.500000X-1.000000X1.500000X-1.000000X0*%
%ADD40RoundRect,0.250000X0.325000X1.100000X-0.325000X1.100000X-0.325000X-1.100000X0.325000X-1.100000X0*%
%ADD41RoundRect,0.250000X-0.362500X-1.425000X0.362500X-1.425000X0.362500X1.425000X-0.362500X1.425000X0*%
%ADD42RoundRect,0.250000X0.362500X1.425000X-0.362500X1.425000X-0.362500X-1.425000X0.362500X-1.425000X0*%
%ADD43RoundRect,0.250000X-0.325000X-1.100000X0.325000X-1.100000X0.325000X1.100000X-0.325000X1.100000X0*%
%ADD44R,1.200000X3.300000*%
%ADD45RoundRect,0.100000X-0.100000X0.637500X-0.100000X-0.637500X0.100000X-0.637500X0.100000X0.637500X0*%
%ADD46RoundRect,0.250000X-1.000000X-0.650000X1.000000X-0.650000X1.000000X0.650000X-1.000000X0.650000X0*%
%ADD47RoundRect,0.225000X-0.225000X-0.375000X0.225000X-0.375000X0.225000X0.375000X-0.225000X0.375000X0*%
%ADD48RoundRect,0.150000X-0.150000X0.587500X-0.150000X-0.587500X0.150000X-0.587500X0.150000X0.587500X0*%
%ADD49RoundRect,0.250000X0.650000X-0.325000X0.650000X0.325000X-0.650000X0.325000X-0.650000X-0.325000X0*%
%ADD50R,3.100000X2.400000*%
%ADD51R,0.500000X2.200000*%
%ADD52RoundRect,0.250000X-1.250000X-0.550000X1.250000X-0.550000X1.250000X0.550000X-1.250000X0.550000X0*%
%ADD53RoundRect,0.250000X-0.600000X0.400000X-0.600000X-0.400000X0.600000X-0.400000X0.600000X0.400000X0*%
%ADD54RoundRect,0.150000X0.150000X-0.587500X0.150000X0.587500X-0.150000X0.587500X-0.150000X-0.587500X0*%
%ADD55RoundRect,0.250000X0.325000X0.650000X-0.325000X0.650000X-0.325000X-0.650000X0.325000X-0.650000X0*%
G04 APERTURE END LIST*
D10*
%TO.C,C15*%
X40750000Y-73225000D03*
X40750000Y-70275000D03*
%TD*%
D11*
%TO.C,D11*%
X54000000Y-54750000D03*
X54000000Y-51250000D03*
%TD*%
D12*
%TO.C,R27*%
X41037500Y-83250000D03*
X43962500Y-83250000D03*
%TD*%
D13*
%TO.C,R26*%
X45787500Y-83250000D03*
X48712500Y-83250000D03*
%TD*%
D12*
%TO.C,R22*%
X47462500Y-54750000D03*
X44537500Y-54750000D03*
%TD*%
D14*
%TO.C,R23*%
X59800000Y-77262500D03*
X59800000Y-74337500D03*
%TD*%
D15*
%TO.C,F1*%
X40600000Y-27000000D03*
X43400000Y-27000000D03*
%TD*%
D12*
%TO.C,R3*%
X47462500Y-39250000D03*
X44537500Y-39250000D03*
%TD*%
D16*
%TO.C,BOOT1*%
X106600000Y-46550000D03*
X106600000Y-49950000D03*
%TD*%
D17*
%TO.C,D4*%
X22000000Y-51200000D03*
X22000000Y-54000000D03*
%TD*%
D18*
%TO.C,CU6*%
X41150000Y-51475000D03*
X41150000Y-54425000D03*
%TD*%
D19*
%TO.C,R21*%
X84000000Y-30800000D03*
X84000000Y-33725000D03*
%TD*%
%TO.C,R6*%
X42525000Y-45287500D03*
X42525000Y-48212500D03*
%TD*%
D20*
%TO.C,C4*%
X87000000Y-75025000D03*
X87000000Y-77975000D03*
%TD*%
D19*
%TO.C,R5*%
X42500000Y-40537500D03*
X42500000Y-43462500D03*
%TD*%
D21*
%TO.C,D1*%
X29400000Y-46375000D03*
X29400000Y-43575000D03*
%TD*%
D19*
%TO.C,R4*%
X54750000Y-37037500D03*
X54750000Y-39962500D03*
%TD*%
D22*
%TO.C,U6*%
X29500000Y-51460000D03*
X29500000Y-52730000D03*
X29500000Y-54000000D03*
X39000000Y-54000000D03*
X39000000Y-52730000D03*
X39000000Y-51460000D03*
%TD*%
D21*
%TO.C,D8*%
X70900000Y-28700000D03*
X70900000Y-25900000D03*
%TD*%
D23*
%TO.C,U20*%
X91575000Y-35362500D03*
X92225000Y-35362500D03*
X92875000Y-35362500D03*
X93525000Y-35362500D03*
X94175000Y-35362500D03*
X94825000Y-35362500D03*
X95475000Y-35362500D03*
X96125000Y-35362500D03*
X96775000Y-35362500D03*
X97425000Y-35362500D03*
X97425000Y-29637500D03*
X96775000Y-29637500D03*
X96125000Y-29637500D03*
X95475000Y-29637500D03*
X94825000Y-29637500D03*
X94175000Y-29637500D03*
X93525000Y-29637500D03*
X92875000Y-29637500D03*
X92225000Y-29637500D03*
X91575000Y-29637500D03*
%TD*%
D24*
%TO.C,USB1*%
X57550000Y-24212500D03*
X56900000Y-24212500D03*
X56250000Y-24212500D03*
X55600000Y-24212500D03*
X54950000Y-24212500D03*
D25*
X57250000Y-21512500D03*
X55250000Y-21512500D03*
%TD*%
D12*
%TO.C,R17*%
X103962500Y-45250000D03*
X101037500Y-45250000D03*
%TD*%
D26*
%TO.C,U10*%
X46350000Y-58950000D03*
X46350000Y-58000000D03*
X46350000Y-57050000D03*
X43650000Y-57050000D03*
X43650000Y-58950000D03*
%TD*%
D27*
%TO.C,U1*%
X96887500Y-91200000D03*
X96887500Y-90250000D03*
X96887500Y-89300000D03*
X94612500Y-89300000D03*
X94612500Y-90250000D03*
X94612500Y-91200000D03*
%TD*%
D28*
%TO.C,U14*%
X67715000Y-80850000D03*
X68665000Y-80850000D03*
X69615000Y-80850000D03*
X69615000Y-78150000D03*
X68665000Y-78150000D03*
X67715000Y-78150000D03*
%TD*%
D18*
%TO.C,CU11*%
X78400000Y-43325000D03*
X78400000Y-46275000D03*
%TD*%
D29*
%TO.C,U12*%
X64800000Y-26775000D03*
X64800000Y-27425000D03*
X64800000Y-28075000D03*
X64800000Y-28725000D03*
X68200000Y-28725000D03*
X68200000Y-28075000D03*
X68200000Y-27425000D03*
X68200000Y-26775000D03*
%TD*%
D30*
%TO.C,U3*%
X50060000Y-42000000D03*
X48790000Y-42000000D03*
X47520000Y-42000000D03*
X46250000Y-42000000D03*
X46250000Y-46950000D03*
X47520000Y-46950000D03*
X48790000Y-46950000D03*
X50060000Y-46950000D03*
%TD*%
D31*
%TO.C,U11*%
X78010000Y-48395000D03*
X76740000Y-48395000D03*
X75470000Y-48395000D03*
X74200000Y-48395000D03*
X72930000Y-48395000D03*
X71660000Y-48395000D03*
X70390000Y-48395000D03*
X69120000Y-48395000D03*
X67850000Y-48395000D03*
X66580000Y-48395000D03*
X65310000Y-48395000D03*
X64040000Y-48395000D03*
X62770000Y-48395000D03*
X61500000Y-48395000D03*
D32*
X60250000Y-50160000D03*
X60250000Y-51430000D03*
X60250000Y-52700000D03*
X60250000Y-53970000D03*
X60250000Y-55240000D03*
X60250000Y-56510000D03*
X60250000Y-57780000D03*
X60250000Y-59050000D03*
X60250000Y-60320000D03*
X60250000Y-61590000D03*
X60250000Y-62860000D03*
X60250000Y-64130000D03*
D31*
X61500000Y-65895000D03*
X62770000Y-65895000D03*
X64040000Y-65895000D03*
X65310000Y-65895000D03*
X66580000Y-65895000D03*
X67850000Y-65895000D03*
X69120000Y-65895000D03*
X70390000Y-65895000D03*
X71660000Y-65895000D03*
X72930000Y-65895000D03*
X74200000Y-65895000D03*
X75470000Y-65895000D03*
X76740000Y-65895000D03*
X78010000Y-65895000D03*
D33*
X71690000Y-54245000D03*
X70290000Y-54245000D03*
X68890000Y-54245000D03*
X71690000Y-55645000D03*
X70290000Y-55645000D03*
X68890000Y-55645000D03*
X71690000Y-57045000D03*
X70290000Y-57045000D03*
X68890000Y-57045000D03*
%TD*%
D34*
%TO.C,D10*%
X37250000Y-26750000D03*
X33750000Y-26750000D03*
%TD*%
D28*
%TO.C,U8*%
X43350000Y-61400000D03*
X42400000Y-61400000D03*
X41450000Y-61400000D03*
X41450000Y-64100000D03*
X42400000Y-64100000D03*
X43350000Y-64100000D03*
%TD*%
%TO.C,U4*%
X50400000Y-38100000D03*
X51350000Y-38100000D03*
X52300000Y-38100000D03*
X52300000Y-35400000D03*
X50400000Y-35400000D03*
%TD*%
D35*
%TO.C,C12*%
X75062500Y-70250000D03*
X71937500Y-70250000D03*
%TD*%
D36*
%TO.C,C13*%
X76937500Y-70250000D03*
X80062500Y-70250000D03*
%TD*%
D37*
%TO.C,U2*%
X84700000Y-72650000D03*
X87000000Y-72650000D03*
D38*
X87000000Y-66350000D03*
D37*
X89300000Y-72650000D03*
%TD*%
D19*
%TO.C,R10*%
X37050000Y-21687500D03*
X37050000Y-24612500D03*
%TD*%
D39*
%TO.C,CB1*%
X104250000Y-79750000D03*
X97750000Y-79750000D03*
%TD*%
D13*
%TO.C,R18*%
X72137500Y-72750000D03*
X75062500Y-72750000D03*
%TD*%
D12*
%TO.C,R25*%
X70000000Y-39750000D03*
X67075000Y-39750000D03*
%TD*%
D40*
%TO.C,C1*%
X97225000Y-86250000D03*
X94275000Y-86250000D03*
%TD*%
D14*
%TO.C,R8*%
X24500000Y-46425000D03*
X24500000Y-43500000D03*
%TD*%
D29*
%TO.C,U18*%
X55800000Y-42525000D03*
X55800000Y-43175000D03*
X55800000Y-43825000D03*
X55800000Y-44475000D03*
X59200000Y-44475000D03*
X59200000Y-43825000D03*
X59200000Y-43175000D03*
X59200000Y-42525000D03*
%TD*%
D13*
%TO.C,R2*%
X44537500Y-36500000D03*
X47462500Y-36500000D03*
%TD*%
D19*
%TO.C,R1*%
X26925000Y-43475000D03*
X26925000Y-46400000D03*
%TD*%
D41*
%TO.C,R15*%
X38287500Y-88250000D03*
X44212500Y-88250000D03*
%TD*%
D42*
%TO.C,R14*%
X36462500Y-88250000D03*
X30537500Y-88250000D03*
%TD*%
D28*
%TO.C,U5*%
X59400000Y-37750000D03*
X58450000Y-37750000D03*
X57500000Y-37750000D03*
X57500000Y-40450000D03*
X59400000Y-40450000D03*
%TD*%
D43*
%TO.C,C3*%
X89525000Y-86250000D03*
X92475000Y-86250000D03*
%TD*%
D14*
%TO.C,R7*%
X52400000Y-44525000D03*
X52400000Y-41600000D03*
%TD*%
D12*
%TO.C,R16*%
X81212500Y-33150000D03*
X78287500Y-33150000D03*
%TD*%
D44*
%TO.C,L1*%
X92550000Y-90250000D03*
X89450000Y-90250000D03*
%TD*%
D45*
%TO.C,U19*%
X57925000Y-79137500D03*
X57275000Y-79137500D03*
X56625000Y-79137500D03*
X55975000Y-79137500D03*
X55325000Y-79137500D03*
X54675000Y-79137500D03*
X54025000Y-79137500D03*
X53375000Y-79137500D03*
X52725000Y-79137500D03*
X52075000Y-79137500D03*
X52075000Y-84862500D03*
X52725000Y-84862500D03*
X53375000Y-84862500D03*
X54025000Y-84862500D03*
X54675000Y-84862500D03*
X55325000Y-84862500D03*
X55975000Y-84862500D03*
X56625000Y-84862500D03*
X57275000Y-84862500D03*
X57925000Y-84862500D03*
%TD*%
D46*
%TO.C,D6*%
X103000000Y-86000000D03*
X107000000Y-86000000D03*
%TD*%
D26*
%TO.C,U16*%
X64565000Y-83050000D03*
X64565000Y-84000000D03*
X64565000Y-84950000D03*
X67265000Y-84950000D03*
X67265000Y-83050000D03*
%TD*%
D16*
%TO.C,RESET1*%
X106600000Y-41550000D03*
X106600000Y-44950000D03*
%TD*%
D12*
%TO.C,R11*%
X31962500Y-26750000D03*
X29037500Y-26750000D03*
%TD*%
D47*
%TO.C,D9*%
X54600000Y-26500000D03*
X57900000Y-26500000D03*
%TD*%
D13*
%TO.C,R19*%
X51837500Y-32900000D03*
X54762500Y-32900000D03*
%TD*%
D48*
%TO.C,Q1*%
X42450000Y-36562500D03*
X40550000Y-36562500D03*
X41500000Y-38437500D03*
%TD*%
D49*
%TO.C,C14*%
X89000000Y-33725000D03*
X89000000Y-30775000D03*
%TD*%
D18*
%TO.C,C6*%
X27000000Y-51050000D03*
X27000000Y-54000000D03*
%TD*%
D28*
%TO.C,U9*%
X47950000Y-61400000D03*
X47000000Y-61400000D03*
X46050000Y-61400000D03*
X46050000Y-64100000D03*
X47000000Y-64100000D03*
X47950000Y-64100000D03*
%TD*%
D18*
%TO.C,C7*%
X76000000Y-43325000D03*
X76000000Y-46275000D03*
%TD*%
D19*
%TO.C,R24*%
X70900000Y-30600000D03*
X70900000Y-33525000D03*
%TD*%
D13*
%TO.C,R20*%
X101100000Y-47750000D03*
X104025000Y-47750000D03*
%TD*%
D50*
%TO.C,U13*%
X78500000Y-80600000D03*
D51*
X80405000Y-77725000D03*
X79135000Y-77725000D03*
X77865000Y-77725000D03*
X76595000Y-77725000D03*
X76595000Y-83475000D03*
X77865000Y-83475000D03*
X79135000Y-83475000D03*
X80405000Y-83475000D03*
%TD*%
D11*
%TO.C,D5*%
X41500000Y-94750000D03*
X41500000Y-91250000D03*
%TD*%
D50*
%TO.C,U7*%
X45500000Y-70000000D03*
D51*
X47405000Y-67125000D03*
X46135000Y-67125000D03*
X44865000Y-67125000D03*
X43595000Y-67125000D03*
X43595000Y-72875000D03*
X44865000Y-72875000D03*
X46135000Y-72875000D03*
X47405000Y-72875000D03*
%TD*%
D52*
%TO.C,C2*%
X89300000Y-81500000D03*
X93700000Y-81500000D03*
%TD*%
D18*
%TO.C,C11*%
X75650000Y-30575000D03*
X75650000Y-33525000D03*
%TD*%
D21*
%TO.C,D7*%
X84000000Y-28950000D03*
X84000000Y-26150000D03*
%TD*%
D18*
%TO.C,C9*%
X86450000Y-30775000D03*
X86450000Y-33725000D03*
%TD*%
D53*
%TO.C,D3*%
X31000000Y-21000000D03*
X31000000Y-24500000D03*
%TD*%
D49*
%TO.C,C10*%
X59750000Y-85475000D03*
X59750000Y-82525000D03*
%TD*%
D12*
%TO.C,R13*%
X79862500Y-72750000D03*
X76937500Y-72750000D03*
%TD*%
D54*
%TO.C,Q2*%
X33050000Y-24437500D03*
X34950000Y-24437500D03*
X34000000Y-22562500D03*
%TD*%
D28*
%TO.C,U15*%
X63215000Y-80850000D03*
X64165000Y-80850000D03*
X65115000Y-80850000D03*
X65115000Y-78150000D03*
X64165000Y-78150000D03*
X63215000Y-78150000D03*
%TD*%
D29*
%TO.C,U17*%
X78050000Y-26775000D03*
X78050000Y-27425000D03*
X78050000Y-28075000D03*
X78050000Y-28725000D03*
X81450000Y-28725000D03*
X81450000Y-28075000D03*
X81450000Y-27425000D03*
X81450000Y-26775000D03*
%TD*%
D18*
%TO.C,C8*%
X73250000Y-30525000D03*
X73250000Y-33475000D03*
%TD*%
D21*
%TO.C,D2*%
X22000000Y-46400000D03*
X22000000Y-43600000D03*
%TD*%
D55*
%TO.C,C5*%
X95475000Y-93750000D03*
X92525000Y-93750000D03*
%TD*%
D19*
%TO.C,R12*%
X24500000Y-51075000D03*
X24500000Y-54000000D03*
%TD*%
M02*
