%TF.GenerationSoftware,KiCad,Pcbnew,7.0.6*%
%TF.CreationDate,2023-08-20T15:31:47-04:00*%
%TF.ProjectId,Arch_Bridge,41726368-5f42-4726-9964-67652e6b6963,rev?*%
%TF.SameCoordinates,Original*%
%TF.FileFunction,Paste,Top*%
%TF.FilePolarity,Positive*%
%FSLAX46Y46*%
G04 Gerber Fmt 4.6, Leading zero omitted, Abs format (unit mm)*
G04 Created by KiCad (PCBNEW 7.0.6) date 2023-08-20 15:31:47*
%MOMM*%
%LPD*%
G01*
G04 APERTURE LIST*
G04 Aperture macros list*
%AMRoundRect*
0 Rectangle with rounded corners*
0 $1 Rounding radius*
0 $2 $3 $4 $5 $6 $7 $8 $9 X,Y pos of 4 corners*
0 Add a 4 corners polygon primitive as box body*
4,1,4,$2,$3,$4,$5,$6,$7,$8,$9,$2,$3,0*
0 Add four circle primitives for the rounded corners*
1,1,$1+$1,$2,$3*
1,1,$1+$1,$4,$5*
1,1,$1+$1,$6,$7*
1,1,$1+$1,$8,$9*
0 Add four rect primitives between the rounded corners*
20,1,$1+$1,$2,$3,$4,$5,0*
20,1,$1+$1,$4,$5,$6,$7,0*
20,1,$1+$1,$6,$7,$8,$9,0*
20,1,$1+$1,$8,$9,$2,$3,0*%
G04 Aperture macros list end*
%ADD10RoundRect,0.250000X0.625000X-0.375000X0.625000X0.375000X-0.625000X0.375000X-0.625000X-0.375000X0*%
%ADD11RoundRect,0.250000X0.312500X0.625000X-0.312500X0.625000X-0.312500X-0.625000X0.312500X-0.625000X0*%
%ADD12R,1.700000X0.900000*%
%ADD13RoundRect,0.250000X-0.625000X0.375000X-0.625000X-0.375000X0.625000X-0.375000X0.625000X0.375000X0*%
%ADD14R,1.560000X0.650000*%
%ADD15RoundRect,0.250000X-0.625000X0.312500X-0.625000X-0.312500X0.625000X-0.312500X0.625000X0.312500X0*%
%ADD16RoundRect,0.250000X1.250000X0.550000X-1.250000X0.550000X-1.250000X-0.550000X1.250000X-0.550000X0*%
%ADD17RoundRect,0.250000X-0.312500X-0.625000X0.312500X-0.625000X0.312500X0.625000X-0.312500X0.625000X0*%
%ADD18RoundRect,0.250000X-0.650000X0.325000X-0.650000X-0.325000X0.650000X-0.325000X0.650000X0.325000X0*%
%ADD19R,1.300000X0.800000*%
%ADD20R,0.400000X1.350000*%
%ADD21R,1.500000X1.900000*%
%ADD22R,2.400000X3.100000*%
%ADD23R,2.200000X0.500000*%
%ADD24RoundRect,0.150000X-0.512500X-0.150000X0.512500X-0.150000X0.512500X0.150000X-0.512500X0.150000X0*%
%ADD25RoundRect,0.250000X0.650000X-0.325000X0.650000X0.325000X-0.650000X0.325000X-0.650000X-0.325000X0*%
%ADD26R,1.600000X0.300000*%
%ADD27RoundRect,0.150000X0.825000X0.150000X-0.825000X0.150000X-0.825000X-0.150000X0.825000X-0.150000X0*%
%ADD28R,0.900000X1.500000*%
%ADD29R,1.500000X0.900000*%
%ADD30R,0.900000X0.900000*%
%ADD31R,0.650000X1.560000*%
%ADD32R,1.500000X2.000000*%
%ADD33R,3.800000X2.000000*%
%ADD34RoundRect,0.250000X1.500000X0.550000X-1.500000X0.550000X-1.500000X-0.550000X1.500000X-0.550000X0*%
%ADD35RoundRect,0.250000X0.625000X-0.312500X0.625000X0.312500X-0.625000X0.312500X-0.625000X-0.312500X0*%
%ADD36RoundRect,0.100000X-0.100000X0.637500X-0.100000X-0.637500X0.100000X-0.637500X0.100000X0.637500X0*%
%ADD37R,1.200000X3.300000*%
%ADD38RoundRect,0.250000X0.650000X-1.000000X0.650000X1.000000X-0.650000X1.000000X-0.650000X-1.000000X0*%
%ADD39R,3.100000X2.400000*%
%ADD40R,0.500000X2.200000*%
%ADD41RoundRect,0.100000X-0.637500X-0.100000X0.637500X-0.100000X0.637500X0.100000X-0.637500X0.100000X0*%
%ADD42RoundRect,0.250000X-0.325000X-0.650000X0.325000X-0.650000X0.325000X0.650000X-0.325000X0.650000X0*%
G04 APERTURE END LIST*
D10*
%TO.C,F2*%
X32950000Y-25300000D03*
X32950000Y-22500000D03*
%TD*%
D11*
%TO.C,R3*%
X47162500Y-37550000D03*
X44237500Y-37550000D03*
%TD*%
D12*
%TO.C,BOOT1*%
X106600000Y-48775000D03*
X106600000Y-52175000D03*
%TD*%
D13*
%TO.C,D4*%
X22000000Y-51200000D03*
X22000000Y-54000000D03*
%TD*%
D14*
%TO.C,U16*%
X56050000Y-73925000D03*
X56050000Y-74875000D03*
X56050000Y-75825000D03*
X58750000Y-75825000D03*
X58750000Y-73925000D03*
%TD*%
D15*
%TO.C,R6*%
X42600000Y-44937500D03*
X42600000Y-47862500D03*
%TD*%
D16*
%TO.C,C4*%
X91200000Y-74530000D03*
X86800000Y-74530000D03*
%TD*%
D11*
%TO.C,R23*%
X59012500Y-71800000D03*
X56087500Y-71800000D03*
%TD*%
D17*
%TO.C,R5*%
X39925000Y-40750000D03*
X42850000Y-40750000D03*
%TD*%
D18*
%TO.C,C10*%
X55200000Y-65475000D03*
X55200000Y-68425000D03*
%TD*%
D10*
%TO.C,D1*%
X29400000Y-46375000D03*
X29400000Y-43575000D03*
%TD*%
D15*
%TO.C,R4*%
X54450000Y-35187500D03*
X54450000Y-38112500D03*
%TD*%
D19*
%TO.C,U6*%
X29500000Y-51460000D03*
X29500000Y-52730000D03*
X29500000Y-54000000D03*
X39000000Y-54000000D03*
X39000000Y-52730000D03*
X39000000Y-51460000D03*
%TD*%
D20*
%TO.C,USB1*%
X61550000Y-24175000D03*
X60900000Y-24175000D03*
X60250000Y-24175000D03*
X59600000Y-24175000D03*
X58950000Y-24175000D03*
D21*
X61250000Y-21475000D03*
X59250000Y-21475000D03*
%TD*%
D22*
%TO.C,U7*%
X42975000Y-87735000D03*
D23*
X45850000Y-89640000D03*
X45850000Y-88370000D03*
X45850000Y-87100000D03*
X45850000Y-85830000D03*
X40100000Y-85830000D03*
X40100000Y-87100000D03*
X40100000Y-88370000D03*
X40100000Y-89640000D03*
%TD*%
D11*
%TO.C,R17*%
X103962500Y-47350000D03*
X101037500Y-47350000D03*
%TD*%
D24*
%TO.C,U1*%
X94112500Y-90800000D03*
X94112500Y-91750000D03*
X94112500Y-92700000D03*
X96387500Y-92700000D03*
X96387500Y-91750000D03*
X96387500Y-90800000D03*
%TD*%
D25*
%TO.C,CU11*%
X77290000Y-46370000D03*
X77290000Y-43420000D03*
%TD*%
D14*
%TO.C,U10*%
X42022500Y-69800000D03*
X42022500Y-70750000D03*
X42022500Y-71700000D03*
X44722500Y-71700000D03*
X44722500Y-69800000D03*
%TD*%
D26*
%TO.C,U12*%
X68875000Y-24425000D03*
X68875000Y-25075000D03*
X68875000Y-25725000D03*
X68875000Y-26375000D03*
X72275000Y-26375000D03*
X72275000Y-25725000D03*
X72275000Y-25075000D03*
X72275000Y-24425000D03*
%TD*%
D27*
%TO.C,U3*%
X49900000Y-45350000D03*
X49900000Y-44080000D03*
X49900000Y-42810000D03*
X49900000Y-41540000D03*
X44950000Y-41540000D03*
X44950000Y-42810000D03*
X44950000Y-44080000D03*
X44950000Y-45350000D03*
%TD*%
D28*
%TO.C,U11*%
X78010000Y-48395000D03*
X76740000Y-48395000D03*
X75470000Y-48395000D03*
X74200000Y-48395000D03*
X72930000Y-48395000D03*
X71660000Y-48395000D03*
X70390000Y-48395000D03*
X69120000Y-48395000D03*
X67850000Y-48395000D03*
X66580000Y-48395000D03*
X65310000Y-48395000D03*
X64040000Y-48395000D03*
X62770000Y-48395000D03*
X61500000Y-48395000D03*
D29*
X60250000Y-50160000D03*
X60250000Y-51430000D03*
X60250000Y-52700000D03*
X60250000Y-53970000D03*
X60250000Y-55240000D03*
X60250000Y-56510000D03*
X60250000Y-57780000D03*
X60250000Y-59050000D03*
X60250000Y-60320000D03*
X60250000Y-61590000D03*
X60250000Y-62860000D03*
X60250000Y-64130000D03*
D28*
X61500000Y-65895000D03*
X62770000Y-65895000D03*
X64040000Y-65895000D03*
X65310000Y-65895000D03*
X66580000Y-65895000D03*
X67850000Y-65895000D03*
X69120000Y-65895000D03*
X70390000Y-65895000D03*
X71660000Y-65895000D03*
X72930000Y-65895000D03*
X74200000Y-65895000D03*
X75470000Y-65895000D03*
X76740000Y-65895000D03*
X78010000Y-65895000D03*
D30*
X71690000Y-54245000D03*
X70290000Y-54245000D03*
X68890000Y-54245000D03*
X71690000Y-55645000D03*
X70290000Y-55645000D03*
X68890000Y-55645000D03*
X71690000Y-57045000D03*
X70290000Y-57045000D03*
X68890000Y-57045000D03*
%TD*%
D31*
%TO.C,U4*%
X50400000Y-38100000D03*
X51350000Y-38100000D03*
X52300000Y-38100000D03*
X52300000Y-35400000D03*
X50400000Y-35400000D03*
%TD*%
D32*
%TO.C,U2*%
X87450000Y-70150000D03*
X89750000Y-70150000D03*
D33*
X89750000Y-63850000D03*
D32*
X92050000Y-70150000D03*
%TD*%
D14*
%TO.C,U9*%
X42022500Y-75300000D03*
X42022500Y-76250000D03*
X42022500Y-77200000D03*
X44722500Y-77200000D03*
X44722500Y-76250000D03*
X44722500Y-75300000D03*
%TD*%
D11*
%TO.C,R10*%
X45075000Y-28900000D03*
X42150000Y-28900000D03*
%TD*%
D34*
%TO.C,CB1*%
X100450000Y-56625000D03*
X95050000Y-56625000D03*
%TD*%
D15*
%TO.C,R18*%
X71875000Y-73575000D03*
X71875000Y-76500000D03*
%TD*%
D16*
%TO.C,C1*%
X91225000Y-92500000D03*
X86825000Y-92500000D03*
%TD*%
D35*
%TO.C,R8*%
X24500000Y-46425000D03*
X24500000Y-43500000D03*
%TD*%
D17*
%TO.C,R2*%
X44237500Y-35200000D03*
X47162500Y-35200000D03*
%TD*%
D15*
%TO.C,R1*%
X26925000Y-43475000D03*
X26925000Y-46400000D03*
%TD*%
D11*
%TO.C,R15*%
X78562500Y-82275000D03*
X75637500Y-82275000D03*
%TD*%
D14*
%TO.C,U5*%
X36350000Y-45200000D03*
X36350000Y-44250000D03*
X36350000Y-43300000D03*
X33650000Y-43300000D03*
X33650000Y-45200000D03*
%TD*%
D16*
%TO.C,C3*%
X91200000Y-80500000D03*
X86800000Y-80500000D03*
%TD*%
D35*
%TO.C,R7*%
X52400000Y-44525000D03*
X52400000Y-41600000D03*
%TD*%
D36*
%TO.C,U19*%
X53425000Y-57887500D03*
X52775000Y-57887500D03*
X52125000Y-57887500D03*
X51475000Y-57887500D03*
X50825000Y-57887500D03*
X50175000Y-57887500D03*
X49525000Y-57887500D03*
X48875000Y-57887500D03*
X48225000Y-57887500D03*
X47575000Y-57887500D03*
X47575000Y-63612500D03*
X48225000Y-63612500D03*
X48875000Y-63612500D03*
X49525000Y-63612500D03*
X50175000Y-63612500D03*
X50825000Y-63612500D03*
X51475000Y-63612500D03*
X52125000Y-63612500D03*
X52775000Y-63612500D03*
X53425000Y-63612500D03*
%TD*%
D11*
%TO.C,R16*%
X80762500Y-28300000D03*
X77837500Y-28300000D03*
%TD*%
D37*
%TO.C,L1*%
X97625000Y-85125000D03*
X94525000Y-85125000D03*
%TD*%
D38*
%TO.C,D6*%
X106775000Y-58625000D03*
X106775000Y-54625000D03*
%TD*%
D14*
%TO.C,U8*%
X42022500Y-80800000D03*
X42022500Y-81750000D03*
X42022500Y-82700000D03*
X44722500Y-82700000D03*
X44722500Y-81750000D03*
X44722500Y-80800000D03*
%TD*%
D12*
%TO.C,RESET1*%
X106600000Y-43900000D03*
X106600000Y-47300000D03*
%TD*%
D10*
%TO.C,F3*%
X83900000Y-85100000D03*
X83900000Y-82300000D03*
%TD*%
D11*
%TO.C,R11*%
X45075000Y-31300000D03*
X42150000Y-31300000D03*
%TD*%
D18*
%TO.C,CU6*%
X41200000Y-51475000D03*
X41200000Y-54425000D03*
%TD*%
D26*
%TO.C,U18*%
X59200000Y-44225000D03*
X59200000Y-43575000D03*
X59200000Y-42925000D03*
X59200000Y-42275000D03*
X55800000Y-42275000D03*
X55800000Y-42925000D03*
X55800000Y-43575000D03*
X55800000Y-44225000D03*
%TD*%
D18*
%TO.C,C6*%
X27000000Y-51050000D03*
X27000000Y-54000000D03*
%TD*%
D11*
%TO.C,R22*%
X46112500Y-65375000D03*
X43187500Y-65375000D03*
%TD*%
D25*
%TO.C,C7*%
X74930000Y-46370000D03*
X74930000Y-43420000D03*
%TD*%
D14*
%TO.C,U14*%
X56050000Y-84900000D03*
X56050000Y-85850000D03*
X56050000Y-86800000D03*
X58750000Y-86800000D03*
X58750000Y-85850000D03*
X58750000Y-84900000D03*
%TD*%
D11*
%TO.C,R19*%
X71850000Y-28250000D03*
X68925000Y-28250000D03*
%TD*%
D17*
%TO.C,R20*%
X101100000Y-51750000D03*
X104025000Y-51750000D03*
%TD*%
D39*
%TO.C,U13*%
X69175000Y-81625000D03*
D40*
X71080000Y-78750000D03*
X69810000Y-78750000D03*
X68540000Y-78750000D03*
X67270000Y-78750000D03*
X67270000Y-84500000D03*
X68540000Y-84500000D03*
X69810000Y-84500000D03*
X71080000Y-84500000D03*
%TD*%
D16*
%TO.C,C2*%
X91230000Y-86500000D03*
X86830000Y-86500000D03*
%TD*%
D18*
%TO.C,C11*%
X74575000Y-26850000D03*
X74575000Y-29800000D03*
%TD*%
%TO.C,C9*%
X83275000Y-26175000D03*
X83275000Y-29125000D03*
%TD*%
D15*
%TO.C,R13*%
X62725000Y-71550000D03*
X62725000Y-74475000D03*
%TD*%
D14*
%TO.C,U15*%
X56050000Y-79400000D03*
X56050000Y-80350000D03*
X56050000Y-81300000D03*
X58750000Y-81300000D03*
X58750000Y-80350000D03*
X58750000Y-79400000D03*
%TD*%
D26*
%TO.C,U17*%
X77600000Y-24425000D03*
X77600000Y-25075000D03*
X77600000Y-25725000D03*
X77600000Y-26375000D03*
X81000000Y-26375000D03*
X81000000Y-25725000D03*
X81000000Y-25075000D03*
X81000000Y-24425000D03*
%TD*%
D11*
%TO.C,R21*%
X58512500Y-40225000D03*
X55587500Y-40225000D03*
%TD*%
D41*
%TO.C,U20*%
X97637500Y-30125000D03*
X97637500Y-30775000D03*
X97637500Y-31425000D03*
X97637500Y-32075000D03*
X97637500Y-32725000D03*
X97637500Y-33375000D03*
X97637500Y-34025000D03*
X97637500Y-34675000D03*
X97637500Y-35325000D03*
X97637500Y-35975000D03*
X103362500Y-35975000D03*
X103362500Y-35325000D03*
X103362500Y-34675000D03*
X103362500Y-34025000D03*
X103362500Y-33375000D03*
X103362500Y-32725000D03*
X103362500Y-32075000D03*
X103362500Y-31425000D03*
X103362500Y-30775000D03*
X103362500Y-30125000D03*
%TD*%
D25*
%TO.C,C8*%
X38775000Y-47925000D03*
X38775000Y-44975000D03*
%TD*%
D10*
%TO.C,D2*%
X22000000Y-46400000D03*
X22000000Y-43600000D03*
%TD*%
D42*
%TO.C,C5*%
X94150000Y-88750000D03*
X97100000Y-88750000D03*
%TD*%
D15*
%TO.C,R12*%
X24500000Y-51075000D03*
X24500000Y-54000000D03*
%TD*%
M02*
