%TF.GenerationSoftware,KiCad,Pcbnew,7.0.6*%
%TF.CreationDate,2024-04-22T22:59:48-04:00*%
%TF.ProjectId,Arch_Bridge,41726368-5f42-4726-9964-67652e6b6963,rev?*%
%TF.SameCoordinates,Original*%
%TF.FileFunction,Soldermask,Bot*%
%TF.FilePolarity,Negative*%
%FSLAX46Y46*%
G04 Gerber Fmt 4.6, Leading zero omitted, Abs format (unit mm)*
G04 Created by KiCad (PCBNEW 7.0.6) date 2024-04-22 22:59:48*
%MOMM*%
%LPD*%
G01*
G04 APERTURE LIST*
G04 Aperture macros list*
%AMRoundRect*
0 Rectangle with rounded corners*
0 $1 Rounding radius*
0 $2 $3 $4 $5 $6 $7 $8 $9 X,Y pos of 4 corners*
0 Add a 4 corners polygon primitive as box body*
4,1,4,$2,$3,$4,$5,$6,$7,$8,$9,$2,$3,0*
0 Add four circle primitives for the rounded corners*
1,1,$1+$1,$2,$3*
1,1,$1+$1,$4,$5*
1,1,$1+$1,$6,$7*
1,1,$1+$1,$8,$9*
0 Add four rect primitives between the rounded corners*
20,1,$1+$1,$2,$3,$4,$5,0*
20,1,$1+$1,$4,$5,$6,$7,0*
20,1,$1+$1,$6,$7,$8,$9,0*
20,1,$1+$1,$8,$9,$2,$3,0*%
G04 Aperture macros list end*
%ADD10C,7.500000*%
%ADD11R,1.700000X1.700000*%
%ADD12O,1.700000X1.700000*%
%ADD13C,0.800000*%
%ADD14O,1.200000X1.900000*%
%ADD15C,1.450000*%
%ADD16RoundRect,0.250000X-0.650000X-1.550000X0.650000X-1.550000X0.650000X1.550000X-0.650000X1.550000X0*%
%ADD17O,1.800000X3.600000*%
%ADD18C,3.250000*%
%ADD19R,1.520000X1.520000*%
%ADD20C,1.520000*%
%ADD21RoundRect,0.250000X1.550000X-0.750000X1.550000X0.750000X-1.550000X0.750000X-1.550000X-0.750000X0*%
%ADD22O,3.600000X2.000000*%
%ADD23R,1.905000X2.000000*%
%ADD24O,1.905000X2.000000*%
%ADD25C,0.770000*%
%ADD26C,2.400000*%
%ADD27O,2.400000X2.400000*%
%ADD28O,6.000000X3.000000*%
%ADD29C,1.710000*%
G04 APERTURE END LIST*
D10*
%TO.C,*%
X104800000Y-92000000D03*
%TD*%
D11*
%TO.C,DCC2*%
X88710000Y-22000000D03*
D12*
X88710000Y-24540000D03*
X91250000Y-22000000D03*
X91250000Y-24540000D03*
X93790000Y-22000000D03*
X93790000Y-24540000D03*
X96330000Y-22000000D03*
X96330000Y-24540000D03*
X98870000Y-22000000D03*
X98870000Y-24540000D03*
%TD*%
D10*
%TO.C,H4*%
X24000000Y-92000000D03*
%TD*%
%TO.C,H2*%
X104800000Y-24000000D03*
%TD*%
D13*
%TO.C,BOOT1*%
X106600000Y-48250000D03*
%TD*%
D10*
%TO.C,H1*%
X24000000Y-24000000D03*
%TD*%
D14*
%TO.C,USB1*%
X59750000Y-21512500D03*
D15*
X58750000Y-24212500D03*
X53750000Y-24212500D03*
D14*
X52750000Y-21512500D03*
%TD*%
D16*
%TO.C,J1*%
X77555000Y-87667500D03*
D17*
X81055000Y-87667500D03*
%TD*%
D18*
%TO.C,LOCONET_T1*%
X27950000Y-30170000D03*
X27950000Y-40330000D03*
D19*
X36840000Y-32080000D03*
D20*
X34300000Y-33350000D03*
X36840000Y-34620000D03*
X34300000Y-35890000D03*
X36840000Y-37160000D03*
X34300000Y-38430000D03*
%TD*%
D11*
%TO.C,JP2*%
X47025000Y-79290000D03*
D12*
X47025000Y-76750000D03*
X44485000Y-79290000D03*
X44485000Y-76750000D03*
X41945000Y-79290000D03*
X41945000Y-76750000D03*
%TD*%
D11*
%TO.C,JP1*%
X44275000Y-32000000D03*
D12*
X41735000Y-32000000D03*
%TD*%
D21*
%TO.C,V12*%
X98247500Y-66500000D03*
D22*
X98247500Y-61500000D03*
%TD*%
D11*
%TO.C,J5V1*%
X86000000Y-90290000D03*
D12*
X86000000Y-87750000D03*
%TD*%
D13*
%TO.C,RESET1*%
X106600000Y-43250000D03*
%TD*%
D18*
%TO.C,LOCONET_B2*%
X28000000Y-57420000D03*
X28000000Y-67580000D03*
D19*
X36890000Y-59330000D03*
D20*
X34350000Y-60600000D03*
X36890000Y-61870000D03*
X34350000Y-63140000D03*
X36890000Y-64410000D03*
X34350000Y-65680000D03*
%TD*%
D23*
%TO.C,Q3*%
X37540000Y-92500000D03*
D24*
X35000000Y-92500000D03*
X32460000Y-92500000D03*
%TD*%
D25*
%TO.C,U13*%
X79800000Y-79950000D03*
X78500000Y-79950000D03*
X77200000Y-79950000D03*
X79800000Y-81250000D03*
X78500000Y-81250000D03*
X77200000Y-81250000D03*
%TD*%
D26*
%TO.C,R9*%
X46140000Y-23000000D03*
D27*
X41060000Y-23000000D03*
%TD*%
D25*
%TO.C,U7*%
X46800000Y-69350000D03*
X45500000Y-69350000D03*
X44200000Y-69350000D03*
X46800000Y-70650000D03*
X45500000Y-70650000D03*
X44200000Y-70650000D03*
%TD*%
D28*
%TO.C,V12A1*%
X101000000Y-68750000D03*
X101000000Y-59250000D03*
%TD*%
D11*
%TO.C,DCC1*%
X59550000Y-92540000D03*
D12*
X59550000Y-90000000D03*
X57010000Y-92540000D03*
X57010000Y-90000000D03*
X54470000Y-92540000D03*
X54470000Y-90000000D03*
X51930000Y-92540000D03*
X51930000Y-90000000D03*
X49390000Y-92540000D03*
X49390000Y-90000000D03*
%TD*%
D11*
%TO.C,COM2*%
X70300000Y-21825000D03*
D12*
X67760000Y-21825000D03*
X65220000Y-21825000D03*
X62680000Y-21825000D03*
%TD*%
D18*
%TO.C,LOCONET_B1*%
X28000000Y-72420000D03*
X28000000Y-82580000D03*
D19*
X36890000Y-74330000D03*
D20*
X34350000Y-75600000D03*
X36890000Y-76870000D03*
X34350000Y-78140000D03*
X36890000Y-79410000D03*
X34350000Y-80680000D03*
%TD*%
D29*
%TO.C,F2*%
X71900000Y-93400000D03*
X73100000Y-88300000D03*
%TD*%
D11*
%TO.C,CONSOLE1*%
X83550000Y-21825000D03*
D12*
X81010000Y-21825000D03*
X78470000Y-21825000D03*
X75930000Y-21825000D03*
%TD*%
M02*
