%TF.GenerationSoftware,KiCad,Pcbnew,7.0.6*%
%TF.CreationDate,2024-01-13T22:26:51-05:00*%
%TF.ProjectId,Arch_Bridge,41726368-5f42-4726-9964-67652e6b6963,rev?*%
%TF.SameCoordinates,Original*%
%TF.FileFunction,Soldermask,Top*%
%TF.FilePolarity,Negative*%
%FSLAX46Y46*%
G04 Gerber Fmt 4.6, Leading zero omitted, Abs format (unit mm)*
G04 Created by KiCad (PCBNEW 7.0.6) date 2024-01-13 22:26:51*
%MOMM*%
%LPD*%
G01*
G04 APERTURE LIST*
G04 Aperture macros list*
%AMRoundRect*
0 Rectangle with rounded corners*
0 $1 Rounding radius*
0 $2 $3 $4 $5 $6 $7 $8 $9 X,Y pos of 4 corners*
0 Add a 4 corners polygon primitive as box body*
4,1,4,$2,$3,$4,$5,$6,$7,$8,$9,$2,$3,0*
0 Add four circle primitives for the rounded corners*
1,1,$1+$1,$2,$3*
1,1,$1+$1,$4,$5*
1,1,$1+$1,$6,$7*
1,1,$1+$1,$8,$9*
0 Add four rect primitives between the rounded corners*
20,1,$1+$1,$2,$3,$4,$5,0*
20,1,$1+$1,$4,$5,$6,$7,0*
20,1,$1+$1,$6,$7,$8,$9,0*
20,1,$1+$1,$8,$9,$2,$3,0*%
G04 Aperture macros list end*
%ADD10R,0.900000X1.500000*%
%ADD11R,1.500000X0.900000*%
%ADD12R,1.000000X1.000000*%
%ADD13C,7.500000*%
%ADD14RoundRect,0.250000X0.625000X-0.375000X0.625000X0.375000X-0.625000X0.375000X-0.625000X-0.375000X0*%
%ADD15RoundRect,0.250000X0.312500X0.625000X-0.312500X0.625000X-0.312500X-0.625000X0.312500X-0.625000X0*%
%ADD16C,0.800000*%
%ADD17R,1.700000X0.900000*%
%ADD18RoundRect,0.250000X-0.625000X0.375000X-0.625000X-0.375000X0.625000X-0.375000X0.625000X0.375000X0*%
%ADD19RoundRect,0.250000X-0.650000X0.325000X-0.650000X-0.325000X0.650000X-0.325000X0.650000X0.325000X0*%
%ADD20R,1.560000X0.650000*%
%ADD21RoundRect,0.250000X-0.625000X0.312500X-0.625000X-0.312500X0.625000X-0.312500X0.625000X0.312500X0*%
%ADD22RoundRect,0.250000X0.325000X1.100000X-0.325000X1.100000X-0.325000X-1.100000X0.325000X-1.100000X0*%
%ADD23R,1.700000X1.700000*%
%ADD24O,1.700000X1.700000*%
%ADD25RoundRect,0.250000X-0.312500X-0.625000X0.312500X-0.625000X0.312500X0.625000X-0.312500X0.625000X0*%
%ADD26RoundRect,0.250000X-0.325000X-0.650000X0.325000X-0.650000X0.325000X0.650000X-0.325000X0.650000X0*%
%ADD27R,1.300000X0.800000*%
%ADD28R,0.400000X1.350000*%
%ADD29O,1.200000X1.900000*%
%ADD30R,1.200000X1.900000*%
%ADD31C,1.450000*%
%ADD32R,1.500000X1.900000*%
%ADD33RoundRect,0.250000X-0.650000X-1.550000X0.650000X-1.550000X0.650000X1.550000X-0.650000X1.550000X0*%
%ADD34O,1.800000X3.600000*%
%ADD35R,2.400000X3.100000*%
%ADD36RoundRect,0.070000X1.100000X0.250000X-1.100000X0.250000X-1.100000X-0.250000X1.100000X-0.250000X0*%
%ADD37C,0.770000*%
%ADD38C,3.250000*%
%ADD39R,1.520000X1.520000*%
%ADD40C,1.520000*%
%ADD41RoundRect,0.150000X0.150000X-0.512500X0.150000X0.512500X-0.150000X0.512500X-0.150000X-0.512500X0*%
%ADD42R,1.600000X0.300000*%
%ADD43RoundRect,0.150000X0.825000X0.150000X-0.825000X0.150000X-0.825000X-0.150000X0.825000X-0.150000X0*%
%ADD44R,1.600000X1.600000*%
%ADD45C,1.600000*%
%ADD46R,0.650000X1.560000*%
%ADD47RoundRect,0.250000X0.412500X0.650000X-0.412500X0.650000X-0.412500X-0.650000X0.412500X-0.650000X0*%
%ADD48RoundRect,0.250000X-0.412500X-0.650000X0.412500X-0.650000X0.412500X0.650000X-0.412500X0.650000X0*%
%ADD49R,1.500000X2.000000*%
%ADD50R,3.800000X2.000000*%
%ADD51RoundRect,0.250000X1.100000X-0.325000X1.100000X0.325000X-1.100000X0.325000X-1.100000X-0.325000X0*%
%ADD52RoundRect,0.250000X1.550000X-0.750000X1.550000X0.750000X-1.550000X0.750000X-1.550000X-0.750000X0*%
%ADD53O,3.600000X2.000000*%
%ADD54RoundRect,0.250000X0.625000X-0.312500X0.625000X0.312500X-0.625000X0.312500X-0.625000X-0.312500X0*%
%ADD55C,2.400000*%
%ADD56O,2.400000X2.400000*%
%ADD57RoundRect,0.250000X-1.100000X0.325000X-1.100000X-0.325000X1.100000X-0.325000X1.100000X0.325000X0*%
%ADD58RoundRect,0.100000X-0.100000X0.637500X-0.100000X-0.637500X0.100000X-0.637500X0.100000X0.637500X0*%
%ADD59R,3.300000X1.200000*%
%ADD60RoundRect,0.250000X0.650000X-1.000000X0.650000X1.000000X-0.650000X1.000000X-0.650000X-1.000000X0*%
%ADD61RoundRect,0.250000X-0.375000X-0.625000X0.375000X-0.625000X0.375000X0.625000X-0.375000X0.625000X0*%
%ADD62RoundRect,0.225000X-0.225000X-0.375000X0.225000X-0.375000X0.225000X0.375000X-0.225000X0.375000X0*%
%ADD63R,1.500000X1.050000*%
%ADD64O,1.500000X1.050000*%
%ADD65O,1.905000X2.000000*%
%ADD66R,1.905000X2.000000*%
%ADD67RoundRect,0.250000X0.650000X-0.325000X0.650000X0.325000X-0.650000X0.325000X-0.650000X-0.325000X0*%
%ADD68R,3.100000X2.400000*%
%ADD69RoundRect,0.070000X-0.250000X1.100000X-0.250000X-1.100000X0.250000X-1.100000X0.250000X1.100000X0*%
%ADD70O,1.600000X1.600000*%
%ADD71O,6.000000X3.000000*%
%ADD72RoundRect,0.250000X1.250000X0.550000X-1.250000X0.550000X-1.250000X-0.550000X1.250000X-0.550000X0*%
%ADD73C,1.710000*%
%ADD74RoundRect,0.100000X-0.637500X-0.100000X0.637500X-0.100000X0.637500X0.100000X-0.637500X0.100000X0*%
G04 APERTURE END LIST*
D10*
%TO.C,U11*%
X78010000Y-48395000D03*
X76740000Y-48395000D03*
X75470000Y-48395000D03*
X74200000Y-48395000D03*
X72930000Y-48395000D03*
X71660000Y-48395000D03*
X70390000Y-48395000D03*
X69120000Y-48395000D03*
X67850000Y-48395000D03*
X66580000Y-48395000D03*
X65310000Y-48395000D03*
X64040000Y-48395000D03*
X62770000Y-48395000D03*
X61500000Y-48395000D03*
D11*
X60250000Y-50160000D03*
X60250000Y-51430000D03*
X60250000Y-52700000D03*
X60250000Y-53970000D03*
X60250000Y-55240000D03*
X60250000Y-56510000D03*
X60250000Y-57780000D03*
X60250000Y-59050000D03*
X60250000Y-60320000D03*
X60250000Y-61590000D03*
X60250000Y-62860000D03*
X60250000Y-64130000D03*
D10*
X61500000Y-65895000D03*
X62770000Y-65895000D03*
X64040000Y-65895000D03*
X65310000Y-65895000D03*
X66580000Y-65895000D03*
X67850000Y-65895000D03*
X69120000Y-65895000D03*
X70390000Y-65895000D03*
X71660000Y-65895000D03*
X72930000Y-65895000D03*
X74200000Y-65895000D03*
X75470000Y-65895000D03*
X76740000Y-65895000D03*
X78010000Y-65895000D03*
D12*
X71690000Y-54245000D03*
X70290000Y-54245000D03*
X68890000Y-54245000D03*
X71690000Y-55645000D03*
X70290000Y-55645000D03*
X68890000Y-55645000D03*
X71690000Y-57045000D03*
X70290000Y-57045000D03*
X68890000Y-57045000D03*
%TD*%
D13*
%TO.C,*%
X104800000Y-92000000D03*
%TD*%
%TO.C,H4*%
X24000000Y-92000000D03*
%TD*%
D14*
%TO.C,F2*%
X32950000Y-25300000D03*
X32950000Y-22500000D03*
%TD*%
D15*
%TO.C,R3*%
X47162500Y-37550000D03*
X44237500Y-37550000D03*
%TD*%
D13*
%TO.C,H2*%
X104800000Y-24000000D03*
%TD*%
D16*
%TO.C,BOOT1*%
X106600000Y-50475000D03*
D17*
X106600000Y-48775000D03*
X106600000Y-52175000D03*
%TD*%
D18*
%TO.C,D4*%
X22000000Y-51200000D03*
X22000000Y-54000000D03*
%TD*%
D19*
%TO.C,CU6*%
X41150000Y-51475000D03*
X41150000Y-54425000D03*
%TD*%
D20*
%TO.C,U16*%
X56050000Y-73925000D03*
X56050000Y-74875000D03*
X56050000Y-75825000D03*
X58750000Y-75825000D03*
X58750000Y-73925000D03*
%TD*%
D21*
%TO.C,R21*%
X83800000Y-30800000D03*
X83800000Y-33725000D03*
%TD*%
%TO.C,R6*%
X42525000Y-44575000D03*
X42525000Y-47500000D03*
%TD*%
D22*
%TO.C,C4*%
X86975000Y-73150000D03*
X89925000Y-73150000D03*
%TD*%
D15*
%TO.C,R23*%
X59012500Y-71800000D03*
X56087500Y-71800000D03*
%TD*%
D23*
%TO.C,JP3*%
X31250000Y-86975000D03*
D24*
X31250000Y-89515000D03*
X31250000Y-92055000D03*
%TD*%
D25*
%TO.C,R5*%
X39925000Y-40750000D03*
X42850000Y-40750000D03*
%TD*%
D26*
%TO.C,C10*%
X55000000Y-65250000D03*
X57950000Y-65250000D03*
%TD*%
D14*
%TO.C,D1*%
X29400000Y-46375000D03*
X29400000Y-43575000D03*
%TD*%
D21*
%TO.C,R4*%
X54450000Y-35187500D03*
X54450000Y-38112500D03*
%TD*%
D27*
%TO.C,U6*%
X29500000Y-51460000D03*
X29500000Y-52730000D03*
X29500000Y-54000000D03*
X39000000Y-54000000D03*
X39000000Y-52730000D03*
X39000000Y-51460000D03*
%TD*%
D13*
%TO.C,H1*%
X24000000Y-24000000D03*
%TD*%
D14*
%TO.C,D8*%
X70900000Y-28700000D03*
X70900000Y-25900000D03*
%TD*%
D28*
%TO.C,USB1*%
X57550000Y-24212500D03*
X56900000Y-24212500D03*
X56250000Y-24212500D03*
X55600000Y-24212500D03*
X54950000Y-24212500D03*
D29*
X59750000Y-21512500D03*
D30*
X59150000Y-21512500D03*
D31*
X58750000Y-24212500D03*
D32*
X57250000Y-21512500D03*
X55250000Y-21512500D03*
D31*
X53750000Y-24212500D03*
D30*
X53350000Y-21512500D03*
D29*
X52750000Y-21512500D03*
%TD*%
D33*
%TO.C,J1*%
X79805000Y-87817500D03*
D34*
X83305000Y-87817500D03*
%TD*%
D35*
%TO.C,U7*%
X43250000Y-87000000D03*
D36*
X46125000Y-88905000D03*
X46125000Y-87635000D03*
X46125000Y-86365000D03*
X46125000Y-85095000D03*
X40375000Y-85095000D03*
X40375000Y-86365000D03*
X40375000Y-87635000D03*
X40375000Y-88905000D03*
D37*
X43900000Y-88300000D03*
X43900000Y-87000000D03*
X43900000Y-85700000D03*
X42600000Y-88300000D03*
X42600000Y-87000000D03*
X42600000Y-85700000D03*
%TD*%
D15*
%TO.C,R17*%
X103962500Y-47350000D03*
X101037500Y-47350000D03*
%TD*%
D38*
%TO.C,LOCONET_T1*%
X27950000Y-30170000D03*
X27950000Y-40330000D03*
D39*
X36840000Y-32080000D03*
D40*
X34300000Y-33350000D03*
X36840000Y-34620000D03*
X34300000Y-35890000D03*
X36840000Y-37160000D03*
X34300000Y-38430000D03*
%TD*%
D41*
%TO.C,U1*%
X90050000Y-92887500D03*
X91000000Y-92887500D03*
X91950000Y-92887500D03*
X91950000Y-90612500D03*
X91000000Y-90612500D03*
X90050000Y-90612500D03*
%TD*%
D19*
%TO.C,CU11*%
X77300000Y-43425000D03*
X77300000Y-46375000D03*
%TD*%
D23*
%TO.C,JP2*%
X34925000Y-92040000D03*
D24*
X34925000Y-89500000D03*
X34925000Y-86960000D03*
%TD*%
D20*
%TO.C,U10*%
X42022500Y-69800000D03*
X42022500Y-70750000D03*
X42022500Y-71700000D03*
X44722500Y-71700000D03*
X44722500Y-69800000D03*
%TD*%
D42*
%TO.C,U12*%
X64800000Y-26775000D03*
X64800000Y-27425000D03*
X64800000Y-28075000D03*
X64800000Y-28725000D03*
X68200000Y-28725000D03*
X68200000Y-28075000D03*
X68200000Y-27425000D03*
X68200000Y-26775000D03*
%TD*%
D43*
%TO.C,U3*%
X49900000Y-45350000D03*
X49900000Y-44080000D03*
X49900000Y-42810000D03*
X49900000Y-41540000D03*
X44950000Y-41540000D03*
X44950000Y-42810000D03*
X44950000Y-44080000D03*
X44950000Y-45350000D03*
%TD*%
D23*
%TO.C,J3*%
X107025000Y-29835000D03*
D24*
X107025000Y-32375000D03*
X107025000Y-34915000D03*
X107025000Y-37455000D03*
%TD*%
D44*
%TO.C,CB2*%
X94000000Y-57807380D03*
D45*
X94000000Y-55307380D03*
%TD*%
D46*
%TO.C,U4*%
X50400000Y-38100000D03*
X51350000Y-38100000D03*
X52300000Y-38100000D03*
X52300000Y-35400000D03*
X50400000Y-35400000D03*
%TD*%
D47*
%TO.C,C12*%
X71937500Y-70250000D03*
X75062500Y-70250000D03*
%TD*%
D48*
%TO.C,C13*%
X76937500Y-70250000D03*
X80062500Y-70250000D03*
%TD*%
D49*
%TO.C,U2*%
X87450000Y-70150000D03*
X89750000Y-70150000D03*
D50*
X89750000Y-63850000D03*
D49*
X92050000Y-70150000D03*
%TD*%
D20*
%TO.C,U9*%
X42022500Y-75300000D03*
X42022500Y-76250000D03*
X42022500Y-77200000D03*
X44722500Y-77200000D03*
X44722500Y-76250000D03*
X44722500Y-75300000D03*
%TD*%
D23*
%TO.C,JP1*%
X29900000Y-21810000D03*
D24*
X29900000Y-24350000D03*
%TD*%
D15*
%TO.C,R10*%
X45075000Y-28900000D03*
X42150000Y-28900000D03*
%TD*%
D44*
%TO.C,CB1*%
X101000000Y-57807380D03*
D45*
X101000000Y-55307380D03*
%TD*%
D25*
%TO.C,R18*%
X72137500Y-72750000D03*
X75062500Y-72750000D03*
%TD*%
D51*
%TO.C,C1*%
X95000000Y-93225000D03*
X95000000Y-90275000D03*
%TD*%
D52*
%TO.C,V12A1*%
X98472500Y-74000000D03*
D53*
X98472500Y-69000000D03*
%TD*%
D54*
%TO.C,R8*%
X24500000Y-46425000D03*
X24500000Y-43500000D03*
%TD*%
D25*
%TO.C,R2*%
X44237500Y-35200000D03*
X47162500Y-35200000D03*
%TD*%
D21*
%TO.C,R1*%
X26925000Y-43475000D03*
X26925000Y-46400000D03*
%TD*%
D25*
%TO.C,R15*%
X62337500Y-81800000D03*
X65262500Y-81800000D03*
%TD*%
D55*
%TO.C,R14*%
X63715000Y-88250000D03*
D56*
X71335000Y-88250000D03*
%TD*%
D46*
%TO.C,U5*%
X59400000Y-37750000D03*
X58450000Y-37750000D03*
X57500000Y-37750000D03*
X57500000Y-40450000D03*
X59400000Y-40450000D03*
%TD*%
D57*
%TO.C,C3*%
X95000000Y-85525000D03*
X95000000Y-88475000D03*
%TD*%
D54*
%TO.C,R7*%
X52400000Y-44525000D03*
X52400000Y-41600000D03*
%TD*%
D58*
%TO.C,U19*%
X53425000Y-57887500D03*
X52775000Y-57887500D03*
X52125000Y-57887500D03*
X51475000Y-57887500D03*
X50825000Y-57887500D03*
X50175000Y-57887500D03*
X49525000Y-57887500D03*
X48875000Y-57887500D03*
X48225000Y-57887500D03*
X47575000Y-57887500D03*
X47575000Y-63612500D03*
X48225000Y-63612500D03*
X48875000Y-63612500D03*
X49525000Y-63612500D03*
X50175000Y-63612500D03*
X50825000Y-63612500D03*
X51475000Y-63612500D03*
X52125000Y-63612500D03*
X52775000Y-63612500D03*
X53425000Y-63612500D03*
%TD*%
D15*
%TO.C,R16*%
X81212500Y-30650000D03*
X78287500Y-30650000D03*
%TD*%
D59*
%TO.C,L1*%
X91000000Y-88550000D03*
X91000000Y-85450000D03*
%TD*%
D60*
%TO.C,D6*%
X106500000Y-58750000D03*
X106500000Y-54750000D03*
%TD*%
D20*
%TO.C,U8*%
X42022500Y-80800000D03*
X42022500Y-81750000D03*
X42022500Y-82700000D03*
X44722500Y-82700000D03*
X44722500Y-81750000D03*
X44722500Y-80800000D03*
%TD*%
D16*
%TO.C,RESET1*%
X106600000Y-45600000D03*
D17*
X106600000Y-43900000D03*
X106600000Y-47300000D03*
%TD*%
D38*
%TO.C,LOCONET_B2*%
X28000000Y-57420000D03*
X28000000Y-67580000D03*
D39*
X36890000Y-59330000D03*
D40*
X34350000Y-60600000D03*
X36890000Y-61870000D03*
X34350000Y-63140000D03*
X36890000Y-64410000D03*
X34350000Y-65680000D03*
%TD*%
D61*
%TO.C,F3*%
X70200000Y-81800000D03*
X67400000Y-81800000D03*
%TD*%
D15*
%TO.C,R11*%
X45075000Y-31300000D03*
X42150000Y-31300000D03*
%TD*%
D62*
%TO.C,D9*%
X55350000Y-26500000D03*
X58650000Y-26500000D03*
%TD*%
D23*
%TO.C,DCC_1*%
X50370000Y-92750000D03*
D24*
X47830000Y-92750000D03*
X45290000Y-92750000D03*
X42750000Y-92750000D03*
%TD*%
D42*
%TO.C,U18*%
X55800000Y-42275000D03*
X55800000Y-42925000D03*
X55800000Y-43575000D03*
X55800000Y-44225000D03*
X59200000Y-44225000D03*
X59200000Y-43575000D03*
X59200000Y-42925000D03*
X59200000Y-42275000D03*
%TD*%
D25*
%TO.C,R19*%
X51837500Y-32900000D03*
X54762500Y-32900000D03*
%TD*%
D63*
%TO.C,Q1*%
X40600000Y-35550000D03*
D64*
X40600000Y-36820000D03*
X40600000Y-38090000D03*
%TD*%
D19*
%TO.C,C6*%
X27000000Y-51050000D03*
X27000000Y-54000000D03*
%TD*%
D65*
%TO.C,Q3*%
X67460000Y-92625000D03*
X70000000Y-92625000D03*
D66*
X72540000Y-92625000D03*
%TD*%
D15*
%TO.C,R22*%
X45962500Y-65250000D03*
X43037500Y-65250000D03*
%TD*%
D67*
%TO.C,C7*%
X74930000Y-46370000D03*
X74930000Y-43420000D03*
%TD*%
D20*
%TO.C,U14*%
X56050000Y-84900000D03*
X56050000Y-85850000D03*
X56050000Y-86800000D03*
X58750000Y-86800000D03*
X58750000Y-85850000D03*
X58750000Y-84900000D03*
%TD*%
D21*
%TO.C,R24*%
X70900000Y-30600000D03*
X70900000Y-33525000D03*
%TD*%
D25*
%TO.C,R20*%
X101100000Y-51750000D03*
X104025000Y-51750000D03*
%TD*%
D68*
%TO.C,U13*%
X80750000Y-80750000D03*
D69*
X82655000Y-77875000D03*
X81385000Y-77875000D03*
X80115000Y-77875000D03*
X78845000Y-77875000D03*
X78845000Y-83625000D03*
X80115000Y-83625000D03*
X81385000Y-83625000D03*
X82655000Y-83625000D03*
D37*
X82050000Y-80100000D03*
X80750000Y-80100000D03*
X79450000Y-80100000D03*
X82050000Y-81400000D03*
X80750000Y-81400000D03*
X79450000Y-81400000D03*
%TD*%
D55*
%TO.C,R9*%
X48750000Y-22500000D03*
D56*
X48750000Y-30120000D03*
%TD*%
D44*
%TO.C,D5*%
X71810000Y-84400000D03*
D70*
X64190000Y-84400000D03*
%TD*%
D71*
%TO.C,V12*%
X101225000Y-76250000D03*
X101225000Y-66750000D03*
%TD*%
D72*
%TO.C,C2*%
X91700000Y-81500000D03*
X87300000Y-81500000D03*
%TD*%
D19*
%TO.C,C11*%
X75650000Y-30575000D03*
X75650000Y-33525000D03*
%TD*%
D23*
%TO.C,J4*%
X98990000Y-21775000D03*
D24*
X96450000Y-21775000D03*
X93910000Y-21775000D03*
X91370000Y-21775000D03*
%TD*%
D23*
%TO.C,COM2*%
X70300000Y-21825000D03*
D24*
X67760000Y-21825000D03*
X65220000Y-21825000D03*
X62680000Y-21825000D03*
%TD*%
D14*
%TO.C,D7*%
X83800000Y-28950000D03*
X83800000Y-26150000D03*
%TD*%
D19*
%TO.C,C9*%
X73250000Y-30575000D03*
X73250000Y-33525000D03*
%TD*%
D44*
%TO.C,D3*%
X44832500Y-26450000D03*
D70*
X37212500Y-26450000D03*
%TD*%
D15*
%TO.C,R13*%
X79862500Y-72750000D03*
X76937500Y-72750000D03*
%TD*%
D38*
%TO.C,LOCONET_B1*%
X28000000Y-72420000D03*
X28000000Y-82580000D03*
D39*
X36890000Y-74330000D03*
D40*
X34350000Y-75600000D03*
X36890000Y-76870000D03*
X34350000Y-78140000D03*
X36890000Y-79410000D03*
X34350000Y-80680000D03*
%TD*%
D20*
%TO.C,U15*%
X56050000Y-79400000D03*
X56050000Y-80350000D03*
X56050000Y-81300000D03*
X58750000Y-81300000D03*
X58750000Y-80350000D03*
X58750000Y-79400000D03*
%TD*%
D66*
%TO.C,Q2*%
X37210000Y-23395000D03*
D65*
X39750000Y-23395000D03*
X42290000Y-23395000D03*
%TD*%
D73*
%TO.C,F4*%
X74150000Y-88550000D03*
X75350000Y-83450000D03*
%TD*%
D42*
%TO.C,U17*%
X78050000Y-26775000D03*
X78050000Y-27425000D03*
X78050000Y-28075000D03*
X78050000Y-28725000D03*
X81450000Y-28725000D03*
X81450000Y-28075000D03*
X81450000Y-27425000D03*
X81450000Y-26775000D03*
%TD*%
D23*
%TO.C,DCC_2*%
X61730000Y-92750000D03*
D24*
X59190000Y-92750000D03*
X56650000Y-92750000D03*
X54110000Y-92750000D03*
%TD*%
D74*
%TO.C,U20*%
X97637500Y-30125000D03*
X97637500Y-30775000D03*
X97637500Y-31425000D03*
X97637500Y-32075000D03*
X97637500Y-32725000D03*
X97637500Y-33375000D03*
X97637500Y-34025000D03*
X97637500Y-34675000D03*
X97637500Y-35325000D03*
X97637500Y-35975000D03*
X103362500Y-35975000D03*
X103362500Y-35325000D03*
X103362500Y-34675000D03*
X103362500Y-34025000D03*
X103362500Y-33375000D03*
X103362500Y-32725000D03*
X103362500Y-32075000D03*
X103362500Y-31425000D03*
X103362500Y-30775000D03*
X103362500Y-30125000D03*
%TD*%
D23*
%TO.C,CONSOLE1*%
X83550000Y-21825000D03*
D24*
X81010000Y-21825000D03*
X78470000Y-21825000D03*
X75930000Y-21825000D03*
%TD*%
D67*
%TO.C,C8*%
X38700000Y-47500000D03*
X38700000Y-44550000D03*
%TD*%
D14*
%TO.C,D2*%
X22000000Y-46400000D03*
X22000000Y-43600000D03*
%TD*%
D67*
%TO.C,C5*%
X87500000Y-91475000D03*
X87500000Y-88525000D03*
%TD*%
D21*
%TO.C,R12*%
X24500000Y-51075000D03*
X24500000Y-54000000D03*
%TD*%
M02*
