%TF.GenerationSoftware,KiCad,Pcbnew,7.0.6*%
%TF.CreationDate,2024-04-15T23:13:44-04:00*%
%TF.ProjectId,Arch_Bridge,41726368-5f42-4726-9964-67652e6b6963,rev?*%
%TF.SameCoordinates,Original*%
%TF.FileFunction,Legend,Top*%
%TF.FilePolarity,Positive*%
%FSLAX46Y46*%
G04 Gerber Fmt 4.6, Leading zero omitted, Abs format (unit mm)*
G04 Created by KiCad (PCBNEW 7.0.6) date 2024-04-15 23:13:44*
%MOMM*%
%LPD*%
G01*
G04 APERTURE LIST*
%ADD10C,0.140000*%
%ADD11C,0.150000*%
%ADD12C,0.300000*%
%ADD13C,0.120000*%
%ADD14C,0.100000*%
G04 APERTURE END LIST*
D10*
X75625438Y-23882910D02*
X75558771Y-23844815D01*
X75558771Y-23844815D02*
X75458771Y-23844815D01*
X75458771Y-23844815D02*
X75358771Y-23882910D01*
X75358771Y-23882910D02*
X75292105Y-23959100D01*
X75292105Y-23959100D02*
X75258771Y-24035291D01*
X75258771Y-24035291D02*
X75225438Y-24187672D01*
X75225438Y-24187672D02*
X75225438Y-24301958D01*
X75225438Y-24301958D02*
X75258771Y-24454339D01*
X75258771Y-24454339D02*
X75292105Y-24530529D01*
X75292105Y-24530529D02*
X75358771Y-24606720D01*
X75358771Y-24606720D02*
X75458771Y-24644815D01*
X75458771Y-24644815D02*
X75525438Y-24644815D01*
X75525438Y-24644815D02*
X75625438Y-24606720D01*
X75625438Y-24606720D02*
X75658771Y-24568624D01*
X75658771Y-24568624D02*
X75658771Y-24301958D01*
X75658771Y-24301958D02*
X75525438Y-24301958D01*
X75958771Y-24644815D02*
X75958771Y-23844815D01*
X75958771Y-23844815D02*
X76358771Y-24644815D01*
X76358771Y-24644815D02*
X76358771Y-23844815D01*
X76692104Y-24644815D02*
X76692104Y-23844815D01*
X76692104Y-23844815D02*
X76858771Y-23844815D01*
X76858771Y-23844815D02*
X76958771Y-23882910D01*
X76958771Y-23882910D02*
X77025438Y-23959100D01*
X77025438Y-23959100D02*
X77058771Y-24035291D01*
X77058771Y-24035291D02*
X77092104Y-24187672D01*
X77092104Y-24187672D02*
X77092104Y-24301958D01*
X77092104Y-24301958D02*
X77058771Y-24454339D01*
X77058771Y-24454339D02*
X77025438Y-24530529D01*
X77025438Y-24530529D02*
X76958771Y-24606720D01*
X76958771Y-24606720D02*
X76858771Y-24644815D01*
X76858771Y-24644815D02*
X76692104Y-24644815D01*
X78325437Y-24644815D02*
X78092104Y-24263862D01*
X77925437Y-24644815D02*
X77925437Y-23844815D01*
X77925437Y-23844815D02*
X78192104Y-23844815D01*
X78192104Y-23844815D02*
X78258771Y-23882910D01*
X78258771Y-23882910D02*
X78292104Y-23921005D01*
X78292104Y-23921005D02*
X78325437Y-23997196D01*
X78325437Y-23997196D02*
X78325437Y-24111481D01*
X78325437Y-24111481D02*
X78292104Y-24187672D01*
X78292104Y-24187672D02*
X78258771Y-24225767D01*
X78258771Y-24225767D02*
X78192104Y-24263862D01*
X78192104Y-24263862D02*
X77925437Y-24263862D01*
X78558771Y-23844815D02*
X79025437Y-24644815D01*
X79025437Y-23844815D02*
X78558771Y-24644815D01*
X79292104Y-24644815D02*
X79292104Y-23844815D01*
X79292104Y-23844815D02*
X79458771Y-23844815D01*
X79458771Y-23844815D02*
X79558771Y-23882910D01*
X79558771Y-23882910D02*
X79625438Y-23959100D01*
X79625438Y-23959100D02*
X79658771Y-24035291D01*
X79658771Y-24035291D02*
X79692104Y-24187672D01*
X79692104Y-24187672D02*
X79692104Y-24301958D01*
X79692104Y-24301958D02*
X79658771Y-24454339D01*
X79658771Y-24454339D02*
X79625438Y-24530529D01*
X79625438Y-24530529D02*
X79558771Y-24606720D01*
X79558771Y-24606720D02*
X79458771Y-24644815D01*
X79458771Y-24644815D02*
X79292104Y-24644815D01*
X80425437Y-23844815D02*
X80825437Y-23844815D01*
X80625437Y-24644815D02*
X80625437Y-23844815D01*
X80992104Y-23844815D02*
X81458770Y-24644815D01*
X81458770Y-23844815D02*
X80992104Y-24644815D01*
X81725437Y-24644815D02*
X81725437Y-23844815D01*
X81725437Y-23844815D02*
X81892104Y-23844815D01*
X81892104Y-23844815D02*
X81992104Y-23882910D01*
X81992104Y-23882910D02*
X82058771Y-23959100D01*
X82058771Y-23959100D02*
X82092104Y-24035291D01*
X82092104Y-24035291D02*
X82125437Y-24187672D01*
X82125437Y-24187672D02*
X82125437Y-24301958D01*
X82125437Y-24301958D02*
X82092104Y-24454339D01*
X82092104Y-24454339D02*
X82058771Y-24530529D01*
X82058771Y-24530529D02*
X81992104Y-24606720D01*
X81992104Y-24606720D02*
X81892104Y-24644815D01*
X81892104Y-24644815D02*
X81725437Y-24644815D01*
X82858770Y-23844815D02*
X83092104Y-24644815D01*
X83092104Y-24644815D02*
X83325437Y-23844815D01*
X83558770Y-24644815D02*
X83558770Y-23844815D01*
X84025437Y-23844815D02*
X84158770Y-23844815D01*
X84158770Y-23844815D02*
X84225437Y-23882910D01*
X84225437Y-23882910D02*
X84292103Y-23959100D01*
X84292103Y-23959100D02*
X84325437Y-24111481D01*
X84325437Y-24111481D02*
X84325437Y-24378148D01*
X84325437Y-24378148D02*
X84292103Y-24530529D01*
X84292103Y-24530529D02*
X84225437Y-24606720D01*
X84225437Y-24606720D02*
X84158770Y-24644815D01*
X84158770Y-24644815D02*
X84025437Y-24644815D01*
X84025437Y-24644815D02*
X83958770Y-24606720D01*
X83958770Y-24606720D02*
X83892103Y-24530529D01*
X83892103Y-24530529D02*
X83858770Y-24378148D01*
X83858770Y-24378148D02*
X83858770Y-24111481D01*
X83858770Y-24111481D02*
X83892103Y-23959100D01*
X83892103Y-23959100D02*
X83958770Y-23882910D01*
X83958770Y-23882910D02*
X84025437Y-23844815D01*
X62125438Y-23882910D02*
X62058771Y-23844815D01*
X62058771Y-23844815D02*
X61958771Y-23844815D01*
X61958771Y-23844815D02*
X61858771Y-23882910D01*
X61858771Y-23882910D02*
X61792105Y-23959100D01*
X61792105Y-23959100D02*
X61758771Y-24035291D01*
X61758771Y-24035291D02*
X61725438Y-24187672D01*
X61725438Y-24187672D02*
X61725438Y-24301958D01*
X61725438Y-24301958D02*
X61758771Y-24454339D01*
X61758771Y-24454339D02*
X61792105Y-24530529D01*
X61792105Y-24530529D02*
X61858771Y-24606720D01*
X61858771Y-24606720D02*
X61958771Y-24644815D01*
X61958771Y-24644815D02*
X62025438Y-24644815D01*
X62025438Y-24644815D02*
X62125438Y-24606720D01*
X62125438Y-24606720D02*
X62158771Y-24568624D01*
X62158771Y-24568624D02*
X62158771Y-24301958D01*
X62158771Y-24301958D02*
X62025438Y-24301958D01*
X62458771Y-24644815D02*
X62458771Y-23844815D01*
X62458771Y-23844815D02*
X62858771Y-24644815D01*
X62858771Y-24644815D02*
X62858771Y-23844815D01*
X63192104Y-24644815D02*
X63192104Y-23844815D01*
X63192104Y-23844815D02*
X63358771Y-23844815D01*
X63358771Y-23844815D02*
X63458771Y-23882910D01*
X63458771Y-23882910D02*
X63525438Y-23959100D01*
X63525438Y-23959100D02*
X63558771Y-24035291D01*
X63558771Y-24035291D02*
X63592104Y-24187672D01*
X63592104Y-24187672D02*
X63592104Y-24301958D01*
X63592104Y-24301958D02*
X63558771Y-24454339D01*
X63558771Y-24454339D02*
X63525438Y-24530529D01*
X63525438Y-24530529D02*
X63458771Y-24606720D01*
X63458771Y-24606720D02*
X63358771Y-24644815D01*
X63358771Y-24644815D02*
X63192104Y-24644815D01*
X64825437Y-24644815D02*
X64592104Y-24263862D01*
X64425437Y-24644815D02*
X64425437Y-23844815D01*
X64425437Y-23844815D02*
X64692104Y-23844815D01*
X64692104Y-23844815D02*
X64758771Y-23882910D01*
X64758771Y-23882910D02*
X64792104Y-23921005D01*
X64792104Y-23921005D02*
X64825437Y-23997196D01*
X64825437Y-23997196D02*
X64825437Y-24111481D01*
X64825437Y-24111481D02*
X64792104Y-24187672D01*
X64792104Y-24187672D02*
X64758771Y-24225767D01*
X64758771Y-24225767D02*
X64692104Y-24263862D01*
X64692104Y-24263862D02*
X64425437Y-24263862D01*
X65058771Y-23844815D02*
X65525437Y-24644815D01*
X65525437Y-23844815D02*
X65058771Y-24644815D01*
X65792104Y-24644815D02*
X65792104Y-23844815D01*
X65792104Y-23844815D02*
X65958771Y-23844815D01*
X65958771Y-23844815D02*
X66058771Y-23882910D01*
X66058771Y-23882910D02*
X66125438Y-23959100D01*
X66125438Y-23959100D02*
X66158771Y-24035291D01*
X66158771Y-24035291D02*
X66192104Y-24187672D01*
X66192104Y-24187672D02*
X66192104Y-24301958D01*
X66192104Y-24301958D02*
X66158771Y-24454339D01*
X66158771Y-24454339D02*
X66125438Y-24530529D01*
X66125438Y-24530529D02*
X66058771Y-24606720D01*
X66058771Y-24606720D02*
X65958771Y-24644815D01*
X65958771Y-24644815D02*
X65792104Y-24644815D01*
X66925437Y-23844815D02*
X67325437Y-23844815D01*
X67125437Y-24644815D02*
X67125437Y-23844815D01*
X67492104Y-23844815D02*
X67958770Y-24644815D01*
X67958770Y-23844815D02*
X67492104Y-24644815D01*
X68225437Y-24644815D02*
X68225437Y-23844815D01*
X68225437Y-23844815D02*
X68392104Y-23844815D01*
X68392104Y-23844815D02*
X68492104Y-23882910D01*
X68492104Y-23882910D02*
X68558771Y-23959100D01*
X68558771Y-23959100D02*
X68592104Y-24035291D01*
X68592104Y-24035291D02*
X68625437Y-24187672D01*
X68625437Y-24187672D02*
X68625437Y-24301958D01*
X68625437Y-24301958D02*
X68592104Y-24454339D01*
X68592104Y-24454339D02*
X68558771Y-24530529D01*
X68558771Y-24530529D02*
X68492104Y-24606720D01*
X68492104Y-24606720D02*
X68392104Y-24644815D01*
X68392104Y-24644815D02*
X68225437Y-24644815D01*
X69358770Y-23844815D02*
X69592104Y-24644815D01*
X69592104Y-24644815D02*
X69825437Y-23844815D01*
X70058770Y-24644815D02*
X70058770Y-23844815D01*
X70525437Y-23844815D02*
X70658770Y-23844815D01*
X70658770Y-23844815D02*
X70725437Y-23882910D01*
X70725437Y-23882910D02*
X70792103Y-23959100D01*
X70792103Y-23959100D02*
X70825437Y-24111481D01*
X70825437Y-24111481D02*
X70825437Y-24378148D01*
X70825437Y-24378148D02*
X70792103Y-24530529D01*
X70792103Y-24530529D02*
X70725437Y-24606720D01*
X70725437Y-24606720D02*
X70658770Y-24644815D01*
X70658770Y-24644815D02*
X70525437Y-24644815D01*
X70525437Y-24644815D02*
X70458770Y-24606720D01*
X70458770Y-24606720D02*
X70392103Y-24530529D01*
X70392103Y-24530529D02*
X70358770Y-24378148D01*
X70358770Y-24378148D02*
X70358770Y-24111481D01*
X70358770Y-24111481D02*
X70392103Y-23959100D01*
X70392103Y-23959100D02*
X70458770Y-23882910D01*
X70458770Y-23882910D02*
X70525437Y-23844815D01*
X40842105Y-34894815D02*
X40508771Y-34894815D01*
X40508771Y-34894815D02*
X40508771Y-34094815D01*
X41075438Y-34894815D02*
X41075438Y-34094815D01*
X41075438Y-34094815D02*
X41475438Y-34894815D01*
X41475438Y-34894815D02*
X41475438Y-34094815D01*
X41642105Y-34971005D02*
X42175438Y-34971005D01*
X42342104Y-34894815D02*
X42342104Y-34094815D01*
X42342104Y-34094815D02*
X42575438Y-34666243D01*
X42575438Y-34666243D02*
X42808771Y-34094815D01*
X42808771Y-34094815D02*
X42808771Y-34894815D01*
X43108771Y-34666243D02*
X43442104Y-34666243D01*
X43042104Y-34894815D02*
X43275438Y-34094815D01*
X43275438Y-34094815D02*
X43508771Y-34894815D01*
X43708771Y-34856720D02*
X43808771Y-34894815D01*
X43808771Y-34894815D02*
X43975438Y-34894815D01*
X43975438Y-34894815D02*
X44042104Y-34856720D01*
X44042104Y-34856720D02*
X44075438Y-34818624D01*
X44075438Y-34818624D02*
X44108771Y-34742434D01*
X44108771Y-34742434D02*
X44108771Y-34666243D01*
X44108771Y-34666243D02*
X44075438Y-34590053D01*
X44075438Y-34590053D02*
X44042104Y-34551958D01*
X44042104Y-34551958D02*
X43975438Y-34513862D01*
X43975438Y-34513862D02*
X43842104Y-34475767D01*
X43842104Y-34475767D02*
X43775438Y-34437672D01*
X43775438Y-34437672D02*
X43742104Y-34399577D01*
X43742104Y-34399577D02*
X43708771Y-34323386D01*
X43708771Y-34323386D02*
X43708771Y-34247196D01*
X43708771Y-34247196D02*
X43742104Y-34171005D01*
X43742104Y-34171005D02*
X43775438Y-34132910D01*
X43775438Y-34132910D02*
X43842104Y-34094815D01*
X43842104Y-34094815D02*
X44008771Y-34094815D01*
X44008771Y-34094815D02*
X44108771Y-34132910D01*
X44308771Y-34094815D02*
X44708771Y-34094815D01*
X44508771Y-34894815D02*
X44508771Y-34094815D01*
X44942104Y-34475767D02*
X45175438Y-34475767D01*
X45275438Y-34894815D02*
X44942104Y-34894815D01*
X44942104Y-34894815D02*
X44942104Y-34094815D01*
X44942104Y-34094815D02*
X45275438Y-34094815D01*
X45975437Y-34894815D02*
X45742104Y-34513862D01*
X45575437Y-34894815D02*
X45575437Y-34094815D01*
X45575437Y-34094815D02*
X45842104Y-34094815D01*
X45842104Y-34094815D02*
X45908771Y-34132910D01*
X45908771Y-34132910D02*
X45942104Y-34171005D01*
X45942104Y-34171005D02*
X45975437Y-34247196D01*
X45975437Y-34247196D02*
X45975437Y-34361481D01*
X45975437Y-34361481D02*
X45942104Y-34437672D01*
X45942104Y-34437672D02*
X45908771Y-34475767D01*
X45908771Y-34475767D02*
X45842104Y-34513862D01*
X45842104Y-34513862D02*
X45575437Y-34513862D01*
X81758771Y-85144815D02*
X81758771Y-84344815D01*
X81758771Y-84344815D02*
X81925438Y-84344815D01*
X81925438Y-84344815D02*
X82025438Y-84382910D01*
X82025438Y-84382910D02*
X82092105Y-84459100D01*
X82092105Y-84459100D02*
X82125438Y-84535291D01*
X82125438Y-84535291D02*
X82158771Y-84687672D01*
X82158771Y-84687672D02*
X82158771Y-84801958D01*
X82158771Y-84801958D02*
X82125438Y-84954339D01*
X82125438Y-84954339D02*
X82092105Y-85030529D01*
X82092105Y-85030529D02*
X82025438Y-85106720D01*
X82025438Y-85106720D02*
X81925438Y-85144815D01*
X81925438Y-85144815D02*
X81758771Y-85144815D01*
X82858771Y-85068624D02*
X82825438Y-85106720D01*
X82825438Y-85106720D02*
X82725438Y-85144815D01*
X82725438Y-85144815D02*
X82658771Y-85144815D01*
X82658771Y-85144815D02*
X82558771Y-85106720D01*
X82558771Y-85106720D02*
X82492105Y-85030529D01*
X82492105Y-85030529D02*
X82458771Y-84954339D01*
X82458771Y-84954339D02*
X82425438Y-84801958D01*
X82425438Y-84801958D02*
X82425438Y-84687672D01*
X82425438Y-84687672D02*
X82458771Y-84535291D01*
X82458771Y-84535291D02*
X82492105Y-84459100D01*
X82492105Y-84459100D02*
X82558771Y-84382910D01*
X82558771Y-84382910D02*
X82658771Y-84344815D01*
X82658771Y-84344815D02*
X82725438Y-84344815D01*
X82725438Y-84344815D02*
X82825438Y-84382910D01*
X82825438Y-84382910D02*
X82858771Y-84421005D01*
X83558771Y-85068624D02*
X83525438Y-85106720D01*
X83525438Y-85106720D02*
X83425438Y-85144815D01*
X83425438Y-85144815D02*
X83358771Y-85144815D01*
X83358771Y-85144815D02*
X83258771Y-85106720D01*
X83258771Y-85106720D02*
X83192105Y-85030529D01*
X83192105Y-85030529D02*
X83158771Y-84954339D01*
X83158771Y-84954339D02*
X83125438Y-84801958D01*
X83125438Y-84801958D02*
X83125438Y-84687672D01*
X83125438Y-84687672D02*
X83158771Y-84535291D01*
X83158771Y-84535291D02*
X83192105Y-84459100D01*
X83192105Y-84459100D02*
X83258771Y-84382910D01*
X83258771Y-84382910D02*
X83358771Y-84344815D01*
X83358771Y-84344815D02*
X83425438Y-84344815D01*
X83425438Y-84344815D02*
X83525438Y-84382910D01*
X83525438Y-84382910D02*
X83558771Y-84421005D01*
X83825438Y-84421005D02*
X83858771Y-84382910D01*
X83858771Y-84382910D02*
X83925438Y-84344815D01*
X83925438Y-84344815D02*
X84092105Y-84344815D01*
X84092105Y-84344815D02*
X84158771Y-84382910D01*
X84158771Y-84382910D02*
X84192105Y-84421005D01*
X84192105Y-84421005D02*
X84225438Y-84497196D01*
X84225438Y-84497196D02*
X84225438Y-84573386D01*
X84225438Y-84573386D02*
X84192105Y-84687672D01*
X84192105Y-84687672D02*
X83792105Y-85144815D01*
X83792105Y-85144815D02*
X84225438Y-85144815D01*
X62394815Y-94241228D02*
X61594815Y-94241228D01*
X61594815Y-94241228D02*
X61594815Y-94074561D01*
X61594815Y-94074561D02*
X61632910Y-93974561D01*
X61632910Y-93974561D02*
X61709100Y-93907895D01*
X61709100Y-93907895D02*
X61785291Y-93874561D01*
X61785291Y-93874561D02*
X61937672Y-93841228D01*
X61937672Y-93841228D02*
X62051958Y-93841228D01*
X62051958Y-93841228D02*
X62204339Y-93874561D01*
X62204339Y-93874561D02*
X62280529Y-93907895D01*
X62280529Y-93907895D02*
X62356720Y-93974561D01*
X62356720Y-93974561D02*
X62394815Y-94074561D01*
X62394815Y-94074561D02*
X62394815Y-94241228D01*
X62318624Y-93141228D02*
X62356720Y-93174561D01*
X62356720Y-93174561D02*
X62394815Y-93274561D01*
X62394815Y-93274561D02*
X62394815Y-93341228D01*
X62394815Y-93341228D02*
X62356720Y-93441228D01*
X62356720Y-93441228D02*
X62280529Y-93507895D01*
X62280529Y-93507895D02*
X62204339Y-93541228D01*
X62204339Y-93541228D02*
X62051958Y-93574561D01*
X62051958Y-93574561D02*
X61937672Y-93574561D01*
X61937672Y-93574561D02*
X61785291Y-93541228D01*
X61785291Y-93541228D02*
X61709100Y-93507895D01*
X61709100Y-93507895D02*
X61632910Y-93441228D01*
X61632910Y-93441228D02*
X61594815Y-93341228D01*
X61594815Y-93341228D02*
X61594815Y-93274561D01*
X61594815Y-93274561D02*
X61632910Y-93174561D01*
X61632910Y-93174561D02*
X61671005Y-93141228D01*
X62318624Y-92441228D02*
X62356720Y-92474561D01*
X62356720Y-92474561D02*
X62394815Y-92574561D01*
X62394815Y-92574561D02*
X62394815Y-92641228D01*
X62394815Y-92641228D02*
X62356720Y-92741228D01*
X62356720Y-92741228D02*
X62280529Y-92807895D01*
X62280529Y-92807895D02*
X62204339Y-92841228D01*
X62204339Y-92841228D02*
X62051958Y-92874561D01*
X62051958Y-92874561D02*
X61937672Y-92874561D01*
X61937672Y-92874561D02*
X61785291Y-92841228D01*
X61785291Y-92841228D02*
X61709100Y-92807895D01*
X61709100Y-92807895D02*
X61632910Y-92741228D01*
X61632910Y-92741228D02*
X61594815Y-92641228D01*
X61594815Y-92641228D02*
X61594815Y-92574561D01*
X61594815Y-92574561D02*
X61632910Y-92474561D01*
X61632910Y-92474561D02*
X61671005Y-92441228D01*
X61671005Y-92174561D02*
X61632910Y-92141228D01*
X61632910Y-92141228D02*
X61594815Y-92074561D01*
X61594815Y-92074561D02*
X61594815Y-91907895D01*
X61594815Y-91907895D02*
X61632910Y-91841228D01*
X61632910Y-91841228D02*
X61671005Y-91807895D01*
X61671005Y-91807895D02*
X61747196Y-91774561D01*
X61747196Y-91774561D02*
X61823386Y-91774561D01*
X61823386Y-91774561D02*
X61937672Y-91807895D01*
X61937672Y-91807895D02*
X62394815Y-92207895D01*
X62394815Y-92207895D02*
X62394815Y-91774561D01*
X47394815Y-90741228D02*
X46594815Y-90741228D01*
X46594815Y-90741228D02*
X46594815Y-90574561D01*
X46594815Y-90574561D02*
X46632910Y-90474561D01*
X46632910Y-90474561D02*
X46709100Y-90407895D01*
X46709100Y-90407895D02*
X46785291Y-90374561D01*
X46785291Y-90374561D02*
X46937672Y-90341228D01*
X46937672Y-90341228D02*
X47051958Y-90341228D01*
X47051958Y-90341228D02*
X47204339Y-90374561D01*
X47204339Y-90374561D02*
X47280529Y-90407895D01*
X47280529Y-90407895D02*
X47356720Y-90474561D01*
X47356720Y-90474561D02*
X47394815Y-90574561D01*
X47394815Y-90574561D02*
X47394815Y-90741228D01*
X47318624Y-89641228D02*
X47356720Y-89674561D01*
X47356720Y-89674561D02*
X47394815Y-89774561D01*
X47394815Y-89774561D02*
X47394815Y-89841228D01*
X47394815Y-89841228D02*
X47356720Y-89941228D01*
X47356720Y-89941228D02*
X47280529Y-90007895D01*
X47280529Y-90007895D02*
X47204339Y-90041228D01*
X47204339Y-90041228D02*
X47051958Y-90074561D01*
X47051958Y-90074561D02*
X46937672Y-90074561D01*
X46937672Y-90074561D02*
X46785291Y-90041228D01*
X46785291Y-90041228D02*
X46709100Y-90007895D01*
X46709100Y-90007895D02*
X46632910Y-89941228D01*
X46632910Y-89941228D02*
X46594815Y-89841228D01*
X46594815Y-89841228D02*
X46594815Y-89774561D01*
X46594815Y-89774561D02*
X46632910Y-89674561D01*
X46632910Y-89674561D02*
X46671005Y-89641228D01*
X47318624Y-88941228D02*
X47356720Y-88974561D01*
X47356720Y-88974561D02*
X47394815Y-89074561D01*
X47394815Y-89074561D02*
X47394815Y-89141228D01*
X47394815Y-89141228D02*
X47356720Y-89241228D01*
X47356720Y-89241228D02*
X47280529Y-89307895D01*
X47280529Y-89307895D02*
X47204339Y-89341228D01*
X47204339Y-89341228D02*
X47051958Y-89374561D01*
X47051958Y-89374561D02*
X46937672Y-89374561D01*
X46937672Y-89374561D02*
X46785291Y-89341228D01*
X46785291Y-89341228D02*
X46709100Y-89307895D01*
X46709100Y-89307895D02*
X46632910Y-89241228D01*
X46632910Y-89241228D02*
X46594815Y-89141228D01*
X46594815Y-89141228D02*
X46594815Y-89074561D01*
X46594815Y-89074561D02*
X46632910Y-88974561D01*
X46632910Y-88974561D02*
X46671005Y-88941228D01*
X47394815Y-88274561D02*
X47394815Y-88674561D01*
X47394815Y-88474561D02*
X46594815Y-88474561D01*
X46594815Y-88474561D02*
X46709100Y-88541228D01*
X46709100Y-88541228D02*
X46785291Y-88607895D01*
X46785291Y-88607895D02*
X46823386Y-88674561D01*
D11*
X48882017Y-87094390D02*
X48815350Y-87056295D01*
X48815350Y-87056295D02*
X48715350Y-87056295D01*
X48715350Y-87056295D02*
X48615350Y-87094390D01*
X48615350Y-87094390D02*
X48548684Y-87170580D01*
X48548684Y-87170580D02*
X48515350Y-87246771D01*
X48515350Y-87246771D02*
X48482017Y-87399152D01*
X48482017Y-87399152D02*
X48482017Y-87513438D01*
X48482017Y-87513438D02*
X48515350Y-87665819D01*
X48515350Y-87665819D02*
X48548684Y-87742009D01*
X48548684Y-87742009D02*
X48615350Y-87818200D01*
X48615350Y-87818200D02*
X48715350Y-87856295D01*
X48715350Y-87856295D02*
X48782017Y-87856295D01*
X48782017Y-87856295D02*
X48882017Y-87818200D01*
X48882017Y-87818200D02*
X48915350Y-87780104D01*
X48915350Y-87780104D02*
X48915350Y-87513438D01*
X48915350Y-87513438D02*
X48782017Y-87513438D01*
X49215350Y-87856295D02*
X49215350Y-87056295D01*
X49215350Y-87056295D02*
X49615350Y-87856295D01*
X49615350Y-87856295D02*
X49615350Y-87056295D01*
X49948683Y-87856295D02*
X49948683Y-87056295D01*
X49948683Y-87056295D02*
X50115350Y-87056295D01*
X50115350Y-87056295D02*
X50215350Y-87094390D01*
X50215350Y-87094390D02*
X50282017Y-87170580D01*
X50282017Y-87170580D02*
X50315350Y-87246771D01*
X50315350Y-87246771D02*
X50348683Y-87399152D01*
X50348683Y-87399152D02*
X50348683Y-87513438D01*
X50348683Y-87513438D02*
X50315350Y-87665819D01*
X50315350Y-87665819D02*
X50282017Y-87742009D01*
X50282017Y-87742009D02*
X50215350Y-87818200D01*
X50215350Y-87818200D02*
X50115350Y-87856295D01*
X50115350Y-87856295D02*
X49948683Y-87856295D01*
X51182016Y-87856295D02*
X51182016Y-87056295D01*
X51182016Y-87056295D02*
X51348683Y-87056295D01*
X51348683Y-87056295D02*
X51448683Y-87094390D01*
X51448683Y-87094390D02*
X51515350Y-87170580D01*
X51515350Y-87170580D02*
X51548683Y-87246771D01*
X51548683Y-87246771D02*
X51582016Y-87399152D01*
X51582016Y-87399152D02*
X51582016Y-87513438D01*
X51582016Y-87513438D02*
X51548683Y-87665819D01*
X51548683Y-87665819D02*
X51515350Y-87742009D01*
X51515350Y-87742009D02*
X51448683Y-87818200D01*
X51448683Y-87818200D02*
X51348683Y-87856295D01*
X51348683Y-87856295D02*
X51182016Y-87856295D01*
X52282016Y-87780104D02*
X52248683Y-87818200D01*
X52248683Y-87818200D02*
X52148683Y-87856295D01*
X52148683Y-87856295D02*
X52082016Y-87856295D01*
X52082016Y-87856295D02*
X51982016Y-87818200D01*
X51982016Y-87818200D02*
X51915350Y-87742009D01*
X51915350Y-87742009D02*
X51882016Y-87665819D01*
X51882016Y-87665819D02*
X51848683Y-87513438D01*
X51848683Y-87513438D02*
X51848683Y-87399152D01*
X51848683Y-87399152D02*
X51882016Y-87246771D01*
X51882016Y-87246771D02*
X51915350Y-87170580D01*
X51915350Y-87170580D02*
X51982016Y-87094390D01*
X51982016Y-87094390D02*
X52082016Y-87056295D01*
X52082016Y-87056295D02*
X52148683Y-87056295D01*
X52148683Y-87056295D02*
X52248683Y-87094390D01*
X52248683Y-87094390D02*
X52282016Y-87132485D01*
X52982016Y-87780104D02*
X52948683Y-87818200D01*
X52948683Y-87818200D02*
X52848683Y-87856295D01*
X52848683Y-87856295D02*
X52782016Y-87856295D01*
X52782016Y-87856295D02*
X52682016Y-87818200D01*
X52682016Y-87818200D02*
X52615350Y-87742009D01*
X52615350Y-87742009D02*
X52582016Y-87665819D01*
X52582016Y-87665819D02*
X52548683Y-87513438D01*
X52548683Y-87513438D02*
X52548683Y-87399152D01*
X52548683Y-87399152D02*
X52582016Y-87246771D01*
X52582016Y-87246771D02*
X52615350Y-87170580D01*
X52615350Y-87170580D02*
X52682016Y-87094390D01*
X52682016Y-87094390D02*
X52782016Y-87056295D01*
X52782016Y-87056295D02*
X52848683Y-87056295D01*
X52848683Y-87056295D02*
X52948683Y-87094390D01*
X52948683Y-87094390D02*
X52982016Y-87132485D01*
X54048683Y-87437247D02*
X54148683Y-87475342D01*
X54148683Y-87475342D02*
X54182016Y-87513438D01*
X54182016Y-87513438D02*
X54215349Y-87589628D01*
X54215349Y-87589628D02*
X54215349Y-87703914D01*
X54215349Y-87703914D02*
X54182016Y-87780104D01*
X54182016Y-87780104D02*
X54148683Y-87818200D01*
X54148683Y-87818200D02*
X54082016Y-87856295D01*
X54082016Y-87856295D02*
X53815349Y-87856295D01*
X53815349Y-87856295D02*
X53815349Y-87056295D01*
X53815349Y-87056295D02*
X54048683Y-87056295D01*
X54048683Y-87056295D02*
X54115349Y-87094390D01*
X54115349Y-87094390D02*
X54148683Y-87132485D01*
X54148683Y-87132485D02*
X54182016Y-87208676D01*
X54182016Y-87208676D02*
X54182016Y-87284866D01*
X54182016Y-87284866D02*
X54148683Y-87361057D01*
X54148683Y-87361057D02*
X54115349Y-87399152D01*
X54115349Y-87399152D02*
X54048683Y-87437247D01*
X54048683Y-87437247D02*
X53815349Y-87437247D01*
X54915349Y-87856295D02*
X54682016Y-87475342D01*
X54515349Y-87856295D02*
X54515349Y-87056295D01*
X54515349Y-87056295D02*
X54782016Y-87056295D01*
X54782016Y-87056295D02*
X54848683Y-87094390D01*
X54848683Y-87094390D02*
X54882016Y-87132485D01*
X54882016Y-87132485D02*
X54915349Y-87208676D01*
X54915349Y-87208676D02*
X54915349Y-87322961D01*
X54915349Y-87322961D02*
X54882016Y-87399152D01*
X54882016Y-87399152D02*
X54848683Y-87437247D01*
X54848683Y-87437247D02*
X54782016Y-87475342D01*
X54782016Y-87475342D02*
X54515349Y-87475342D01*
X55215349Y-87856295D02*
X55215349Y-87056295D01*
X55615349Y-87856295D02*
X55315349Y-87399152D01*
X55615349Y-87056295D02*
X55215349Y-87513438D01*
X56448682Y-87437247D02*
X56682016Y-87437247D01*
X56782016Y-87856295D02*
X56448682Y-87856295D01*
X56448682Y-87856295D02*
X56448682Y-87056295D01*
X56448682Y-87056295D02*
X56782016Y-87056295D01*
X57082015Y-87856295D02*
X57082015Y-87056295D01*
X57082015Y-87056295D02*
X57482015Y-87856295D01*
X57482015Y-87856295D02*
X57482015Y-87056295D01*
X57782015Y-87627723D02*
X58115348Y-87627723D01*
X57715348Y-87856295D02*
X57948682Y-87056295D01*
X57948682Y-87056295D02*
X58182015Y-87856295D01*
X58848681Y-87056295D02*
X59082015Y-87856295D01*
X59082015Y-87856295D02*
X59315348Y-87056295D01*
X59548681Y-87856295D02*
X59548681Y-87056295D01*
X60015348Y-87056295D02*
X60148681Y-87056295D01*
X60148681Y-87056295D02*
X60215348Y-87094390D01*
X60215348Y-87094390D02*
X60282014Y-87170580D01*
X60282014Y-87170580D02*
X60315348Y-87322961D01*
X60315348Y-87322961D02*
X60315348Y-87589628D01*
X60315348Y-87589628D02*
X60282014Y-87742009D01*
X60282014Y-87742009D02*
X60215348Y-87818200D01*
X60215348Y-87818200D02*
X60148681Y-87856295D01*
X60148681Y-87856295D02*
X60015348Y-87856295D01*
X60015348Y-87856295D02*
X59948681Y-87818200D01*
X59948681Y-87818200D02*
X59882014Y-87742009D01*
X59882014Y-87742009D02*
X59848681Y-87589628D01*
X59848681Y-87589628D02*
X59848681Y-87322961D01*
X59848681Y-87322961D02*
X59882014Y-87170580D01*
X59882014Y-87170580D02*
X59948681Y-87094390D01*
X59948681Y-87094390D02*
X60015348Y-87056295D01*
D12*
X84304510Y-93479400D02*
X85447368Y-93479400D01*
X84875939Y-94050828D02*
X84875939Y-92907971D01*
X86875939Y-92550828D02*
X86161653Y-92550828D01*
X86161653Y-92550828D02*
X86090225Y-93265114D01*
X86090225Y-93265114D02*
X86161653Y-93193685D01*
X86161653Y-93193685D02*
X86304511Y-93122257D01*
X86304511Y-93122257D02*
X86661653Y-93122257D01*
X86661653Y-93122257D02*
X86804511Y-93193685D01*
X86804511Y-93193685D02*
X86875939Y-93265114D01*
X86875939Y-93265114D02*
X86947368Y-93407971D01*
X86947368Y-93407971D02*
X86947368Y-93765114D01*
X86947368Y-93765114D02*
X86875939Y-93907971D01*
X86875939Y-93907971D02*
X86804511Y-93979400D01*
X86804511Y-93979400D02*
X86661653Y-94050828D01*
X86661653Y-94050828D02*
X86304511Y-94050828D01*
X86304511Y-94050828D02*
X86161653Y-93979400D01*
X86161653Y-93979400D02*
X86090225Y-93907971D01*
X87375939Y-92550828D02*
X87875939Y-94050828D01*
X87875939Y-94050828D02*
X88375939Y-92550828D01*
D13*
X100800000Y-28000000D02*
X100800000Y-20075000D01*
X100800000Y-95925000D02*
X100800000Y-88000000D01*
X108725000Y-28000000D02*
X100775000Y-28000000D01*
X28000000Y-20075000D02*
X28000000Y-28025000D01*
X20075000Y-88000000D02*
X28025000Y-88000000D01*
X28000000Y-88000000D02*
X28000000Y-95925000D01*
X28025000Y-28000000D02*
X20075000Y-28000000D01*
X100750000Y-88000000D02*
X108725000Y-88000000D01*
D12*
X91694685Y-60388346D02*
X91637542Y-60502632D01*
X91637542Y-60502632D02*
X91637542Y-60674060D01*
X91637542Y-60674060D02*
X91694685Y-60845489D01*
X91694685Y-60845489D02*
X91808971Y-60959774D01*
X91808971Y-60959774D02*
X91923257Y-61016917D01*
X91923257Y-61016917D02*
X92151828Y-61074060D01*
X92151828Y-61074060D02*
X92323257Y-61074060D01*
X92323257Y-61074060D02*
X92551828Y-61016917D01*
X92551828Y-61016917D02*
X92666114Y-60959774D01*
X92666114Y-60959774D02*
X92780400Y-60845489D01*
X92780400Y-60845489D02*
X92837542Y-60674060D01*
X92837542Y-60674060D02*
X92837542Y-60559774D01*
X92837542Y-60559774D02*
X92780400Y-60388346D01*
X92780400Y-60388346D02*
X92723257Y-60331203D01*
X92723257Y-60331203D02*
X92323257Y-60331203D01*
X92323257Y-60331203D02*
X92323257Y-60559774D01*
X92837542Y-59816917D02*
X91637542Y-59816917D01*
X91637542Y-59816917D02*
X92837542Y-59131203D01*
X92837542Y-59131203D02*
X91637542Y-59131203D01*
X92837542Y-58559774D02*
X91637542Y-58559774D01*
X91637542Y-58559774D02*
X91637542Y-58274060D01*
X91637542Y-58274060D02*
X91694685Y-58102631D01*
X91694685Y-58102631D02*
X91808971Y-57988346D01*
X91808971Y-57988346D02*
X91923257Y-57931203D01*
X91923257Y-57931203D02*
X92151828Y-57874060D01*
X92151828Y-57874060D02*
X92323257Y-57874060D01*
X92323257Y-57874060D02*
X92551828Y-57931203D01*
X92551828Y-57931203D02*
X92666114Y-57988346D01*
X92666114Y-57988346D02*
X92780400Y-58102631D01*
X92780400Y-58102631D02*
X92837542Y-58274060D01*
X92837542Y-58274060D02*
X92837542Y-58559774D01*
D11*
X104908207Y-40619819D02*
X104574874Y-40143628D01*
X104336779Y-40619819D02*
X104336779Y-39619819D01*
X104336779Y-39619819D02*
X104717731Y-39619819D01*
X104717731Y-39619819D02*
X104812969Y-39667438D01*
X104812969Y-39667438D02*
X104860588Y-39715057D01*
X104860588Y-39715057D02*
X104908207Y-39810295D01*
X104908207Y-39810295D02*
X104908207Y-39953152D01*
X104908207Y-39953152D02*
X104860588Y-40048390D01*
X104860588Y-40048390D02*
X104812969Y-40096009D01*
X104812969Y-40096009D02*
X104717731Y-40143628D01*
X104717731Y-40143628D02*
X104336779Y-40143628D01*
X105336779Y-40096009D02*
X105670112Y-40096009D01*
X105812969Y-40619819D02*
X105336779Y-40619819D01*
X105336779Y-40619819D02*
X105336779Y-39619819D01*
X105336779Y-39619819D02*
X105812969Y-39619819D01*
X106193922Y-40572200D02*
X106336779Y-40619819D01*
X106336779Y-40619819D02*
X106574874Y-40619819D01*
X106574874Y-40619819D02*
X106670112Y-40572200D01*
X106670112Y-40572200D02*
X106717731Y-40524580D01*
X106717731Y-40524580D02*
X106765350Y-40429342D01*
X106765350Y-40429342D02*
X106765350Y-40334104D01*
X106765350Y-40334104D02*
X106717731Y-40238866D01*
X106717731Y-40238866D02*
X106670112Y-40191247D01*
X106670112Y-40191247D02*
X106574874Y-40143628D01*
X106574874Y-40143628D02*
X106384398Y-40096009D01*
X106384398Y-40096009D02*
X106289160Y-40048390D01*
X106289160Y-40048390D02*
X106241541Y-40000771D01*
X106241541Y-40000771D02*
X106193922Y-39905533D01*
X106193922Y-39905533D02*
X106193922Y-39810295D01*
X106193922Y-39810295D02*
X106241541Y-39715057D01*
X106241541Y-39715057D02*
X106289160Y-39667438D01*
X106289160Y-39667438D02*
X106384398Y-39619819D01*
X106384398Y-39619819D02*
X106622493Y-39619819D01*
X106622493Y-39619819D02*
X106765350Y-39667438D01*
X107193922Y-40096009D02*
X107527255Y-40096009D01*
X107670112Y-40619819D02*
X107193922Y-40619819D01*
X107193922Y-40619819D02*
X107193922Y-39619819D01*
X107193922Y-39619819D02*
X107670112Y-39619819D01*
X107955827Y-39619819D02*
X108527255Y-39619819D01*
X108241541Y-40619819D02*
X108241541Y-39619819D01*
X48882017Y-94594390D02*
X48815350Y-94556295D01*
X48815350Y-94556295D02*
X48715350Y-94556295D01*
X48715350Y-94556295D02*
X48615350Y-94594390D01*
X48615350Y-94594390D02*
X48548684Y-94670580D01*
X48548684Y-94670580D02*
X48515350Y-94746771D01*
X48515350Y-94746771D02*
X48482017Y-94899152D01*
X48482017Y-94899152D02*
X48482017Y-95013438D01*
X48482017Y-95013438D02*
X48515350Y-95165819D01*
X48515350Y-95165819D02*
X48548684Y-95242009D01*
X48548684Y-95242009D02*
X48615350Y-95318200D01*
X48615350Y-95318200D02*
X48715350Y-95356295D01*
X48715350Y-95356295D02*
X48782017Y-95356295D01*
X48782017Y-95356295D02*
X48882017Y-95318200D01*
X48882017Y-95318200D02*
X48915350Y-95280104D01*
X48915350Y-95280104D02*
X48915350Y-95013438D01*
X48915350Y-95013438D02*
X48782017Y-95013438D01*
X49215350Y-95356295D02*
X49215350Y-94556295D01*
X49215350Y-94556295D02*
X49615350Y-95356295D01*
X49615350Y-95356295D02*
X49615350Y-94556295D01*
X49948683Y-95356295D02*
X49948683Y-94556295D01*
X49948683Y-94556295D02*
X50115350Y-94556295D01*
X50115350Y-94556295D02*
X50215350Y-94594390D01*
X50215350Y-94594390D02*
X50282017Y-94670580D01*
X50282017Y-94670580D02*
X50315350Y-94746771D01*
X50315350Y-94746771D02*
X50348683Y-94899152D01*
X50348683Y-94899152D02*
X50348683Y-95013438D01*
X50348683Y-95013438D02*
X50315350Y-95165819D01*
X50315350Y-95165819D02*
X50282017Y-95242009D01*
X50282017Y-95242009D02*
X50215350Y-95318200D01*
X50215350Y-95318200D02*
X50115350Y-95356295D01*
X50115350Y-95356295D02*
X49948683Y-95356295D01*
X51182016Y-95356295D02*
X51182016Y-94556295D01*
X51182016Y-94556295D02*
X51348683Y-94556295D01*
X51348683Y-94556295D02*
X51448683Y-94594390D01*
X51448683Y-94594390D02*
X51515350Y-94670580D01*
X51515350Y-94670580D02*
X51548683Y-94746771D01*
X51548683Y-94746771D02*
X51582016Y-94899152D01*
X51582016Y-94899152D02*
X51582016Y-95013438D01*
X51582016Y-95013438D02*
X51548683Y-95165819D01*
X51548683Y-95165819D02*
X51515350Y-95242009D01*
X51515350Y-95242009D02*
X51448683Y-95318200D01*
X51448683Y-95318200D02*
X51348683Y-95356295D01*
X51348683Y-95356295D02*
X51182016Y-95356295D01*
X52282016Y-95280104D02*
X52248683Y-95318200D01*
X52248683Y-95318200D02*
X52148683Y-95356295D01*
X52148683Y-95356295D02*
X52082016Y-95356295D01*
X52082016Y-95356295D02*
X51982016Y-95318200D01*
X51982016Y-95318200D02*
X51915350Y-95242009D01*
X51915350Y-95242009D02*
X51882016Y-95165819D01*
X51882016Y-95165819D02*
X51848683Y-95013438D01*
X51848683Y-95013438D02*
X51848683Y-94899152D01*
X51848683Y-94899152D02*
X51882016Y-94746771D01*
X51882016Y-94746771D02*
X51915350Y-94670580D01*
X51915350Y-94670580D02*
X51982016Y-94594390D01*
X51982016Y-94594390D02*
X52082016Y-94556295D01*
X52082016Y-94556295D02*
X52148683Y-94556295D01*
X52148683Y-94556295D02*
X52248683Y-94594390D01*
X52248683Y-94594390D02*
X52282016Y-94632485D01*
X52982016Y-95280104D02*
X52948683Y-95318200D01*
X52948683Y-95318200D02*
X52848683Y-95356295D01*
X52848683Y-95356295D02*
X52782016Y-95356295D01*
X52782016Y-95356295D02*
X52682016Y-95318200D01*
X52682016Y-95318200D02*
X52615350Y-95242009D01*
X52615350Y-95242009D02*
X52582016Y-95165819D01*
X52582016Y-95165819D02*
X52548683Y-95013438D01*
X52548683Y-95013438D02*
X52548683Y-94899152D01*
X52548683Y-94899152D02*
X52582016Y-94746771D01*
X52582016Y-94746771D02*
X52615350Y-94670580D01*
X52615350Y-94670580D02*
X52682016Y-94594390D01*
X52682016Y-94594390D02*
X52782016Y-94556295D01*
X52782016Y-94556295D02*
X52848683Y-94556295D01*
X52848683Y-94556295D02*
X52948683Y-94594390D01*
X52948683Y-94594390D02*
X52982016Y-94632485D01*
X54048683Y-94937247D02*
X54148683Y-94975342D01*
X54148683Y-94975342D02*
X54182016Y-95013438D01*
X54182016Y-95013438D02*
X54215349Y-95089628D01*
X54215349Y-95089628D02*
X54215349Y-95203914D01*
X54215349Y-95203914D02*
X54182016Y-95280104D01*
X54182016Y-95280104D02*
X54148683Y-95318200D01*
X54148683Y-95318200D02*
X54082016Y-95356295D01*
X54082016Y-95356295D02*
X53815349Y-95356295D01*
X53815349Y-95356295D02*
X53815349Y-94556295D01*
X53815349Y-94556295D02*
X54048683Y-94556295D01*
X54048683Y-94556295D02*
X54115349Y-94594390D01*
X54115349Y-94594390D02*
X54148683Y-94632485D01*
X54148683Y-94632485D02*
X54182016Y-94708676D01*
X54182016Y-94708676D02*
X54182016Y-94784866D01*
X54182016Y-94784866D02*
X54148683Y-94861057D01*
X54148683Y-94861057D02*
X54115349Y-94899152D01*
X54115349Y-94899152D02*
X54048683Y-94937247D01*
X54048683Y-94937247D02*
X53815349Y-94937247D01*
X54915349Y-95356295D02*
X54682016Y-94975342D01*
X54515349Y-95356295D02*
X54515349Y-94556295D01*
X54515349Y-94556295D02*
X54782016Y-94556295D01*
X54782016Y-94556295D02*
X54848683Y-94594390D01*
X54848683Y-94594390D02*
X54882016Y-94632485D01*
X54882016Y-94632485D02*
X54915349Y-94708676D01*
X54915349Y-94708676D02*
X54915349Y-94822961D01*
X54915349Y-94822961D02*
X54882016Y-94899152D01*
X54882016Y-94899152D02*
X54848683Y-94937247D01*
X54848683Y-94937247D02*
X54782016Y-94975342D01*
X54782016Y-94975342D02*
X54515349Y-94975342D01*
X55215349Y-95356295D02*
X55215349Y-94556295D01*
X55615349Y-95356295D02*
X55315349Y-94899152D01*
X55615349Y-94556295D02*
X55215349Y-95013438D01*
X56448682Y-94937247D02*
X56682016Y-94937247D01*
X56782016Y-95356295D02*
X56448682Y-95356295D01*
X56448682Y-95356295D02*
X56448682Y-94556295D01*
X56448682Y-94556295D02*
X56782016Y-94556295D01*
X57082015Y-95356295D02*
X57082015Y-94556295D01*
X57082015Y-94556295D02*
X57482015Y-95356295D01*
X57482015Y-95356295D02*
X57482015Y-94556295D01*
X57782015Y-95127723D02*
X58115348Y-95127723D01*
X57715348Y-95356295D02*
X57948682Y-94556295D01*
X57948682Y-94556295D02*
X58182015Y-95356295D01*
X58848681Y-94556295D02*
X59082015Y-95356295D01*
X59082015Y-95356295D02*
X59315348Y-94556295D01*
X59548681Y-95356295D02*
X59548681Y-94556295D01*
X60015348Y-94556295D02*
X60148681Y-94556295D01*
X60148681Y-94556295D02*
X60215348Y-94594390D01*
X60215348Y-94594390D02*
X60282014Y-94670580D01*
X60282014Y-94670580D02*
X60315348Y-94822961D01*
X60315348Y-94822961D02*
X60315348Y-95089628D01*
X60315348Y-95089628D02*
X60282014Y-95242009D01*
X60282014Y-95242009D02*
X60215348Y-95318200D01*
X60215348Y-95318200D02*
X60148681Y-95356295D01*
X60148681Y-95356295D02*
X60015348Y-95356295D01*
X60015348Y-95356295D02*
X59948681Y-95318200D01*
X59948681Y-95318200D02*
X59882014Y-95242009D01*
X59882014Y-95242009D02*
X59848681Y-95089628D01*
X59848681Y-95089628D02*
X59848681Y-94822961D01*
X59848681Y-94822961D02*
X59882014Y-94670580D01*
X59882014Y-94670580D02*
X59948681Y-94594390D01*
X59948681Y-94594390D02*
X60015348Y-94556295D01*
X105420112Y-51346009D02*
X105562969Y-51393628D01*
X105562969Y-51393628D02*
X105610588Y-51441247D01*
X105610588Y-51441247D02*
X105658207Y-51536485D01*
X105658207Y-51536485D02*
X105658207Y-51679342D01*
X105658207Y-51679342D02*
X105610588Y-51774580D01*
X105610588Y-51774580D02*
X105562969Y-51822200D01*
X105562969Y-51822200D02*
X105467731Y-51869819D01*
X105467731Y-51869819D02*
X105086779Y-51869819D01*
X105086779Y-51869819D02*
X105086779Y-50869819D01*
X105086779Y-50869819D02*
X105420112Y-50869819D01*
X105420112Y-50869819D02*
X105515350Y-50917438D01*
X105515350Y-50917438D02*
X105562969Y-50965057D01*
X105562969Y-50965057D02*
X105610588Y-51060295D01*
X105610588Y-51060295D02*
X105610588Y-51155533D01*
X105610588Y-51155533D02*
X105562969Y-51250771D01*
X105562969Y-51250771D02*
X105515350Y-51298390D01*
X105515350Y-51298390D02*
X105420112Y-51346009D01*
X105420112Y-51346009D02*
X105086779Y-51346009D01*
X106277255Y-50869819D02*
X106467731Y-50869819D01*
X106467731Y-50869819D02*
X106562969Y-50917438D01*
X106562969Y-50917438D02*
X106658207Y-51012676D01*
X106658207Y-51012676D02*
X106705826Y-51203152D01*
X106705826Y-51203152D02*
X106705826Y-51536485D01*
X106705826Y-51536485D02*
X106658207Y-51726961D01*
X106658207Y-51726961D02*
X106562969Y-51822200D01*
X106562969Y-51822200D02*
X106467731Y-51869819D01*
X106467731Y-51869819D02*
X106277255Y-51869819D01*
X106277255Y-51869819D02*
X106182017Y-51822200D01*
X106182017Y-51822200D02*
X106086779Y-51726961D01*
X106086779Y-51726961D02*
X106039160Y-51536485D01*
X106039160Y-51536485D02*
X106039160Y-51203152D01*
X106039160Y-51203152D02*
X106086779Y-51012676D01*
X106086779Y-51012676D02*
X106182017Y-50917438D01*
X106182017Y-50917438D02*
X106277255Y-50869819D01*
X107324874Y-50869819D02*
X107515350Y-50869819D01*
X107515350Y-50869819D02*
X107610588Y-50917438D01*
X107610588Y-50917438D02*
X107705826Y-51012676D01*
X107705826Y-51012676D02*
X107753445Y-51203152D01*
X107753445Y-51203152D02*
X107753445Y-51536485D01*
X107753445Y-51536485D02*
X107705826Y-51726961D01*
X107705826Y-51726961D02*
X107610588Y-51822200D01*
X107610588Y-51822200D02*
X107515350Y-51869819D01*
X107515350Y-51869819D02*
X107324874Y-51869819D01*
X107324874Y-51869819D02*
X107229636Y-51822200D01*
X107229636Y-51822200D02*
X107134398Y-51726961D01*
X107134398Y-51726961D02*
X107086779Y-51536485D01*
X107086779Y-51536485D02*
X107086779Y-51203152D01*
X107086779Y-51203152D02*
X107134398Y-51012676D01*
X107134398Y-51012676D02*
X107229636Y-50917438D01*
X107229636Y-50917438D02*
X107324874Y-50869819D01*
X108039160Y-50869819D02*
X108610588Y-50869819D01*
X108324874Y-51869819D02*
X108324874Y-50869819D01*
D12*
X92380400Y-75266917D02*
X92380400Y-74352632D01*
X92837542Y-74809774D02*
X91923257Y-74809774D01*
X91637542Y-73952632D02*
X92837542Y-73552632D01*
X92837542Y-73552632D02*
X91637542Y-73152632D01*
D11*
X58936779Y-25369819D02*
X58936779Y-26179342D01*
X58936779Y-26179342D02*
X58984398Y-26274580D01*
X58984398Y-26274580D02*
X59032017Y-26322200D01*
X59032017Y-26322200D02*
X59127255Y-26369819D01*
X59127255Y-26369819D02*
X59317731Y-26369819D01*
X59317731Y-26369819D02*
X59412969Y-26322200D01*
X59412969Y-26322200D02*
X59460588Y-26274580D01*
X59460588Y-26274580D02*
X59508207Y-26179342D01*
X59508207Y-26179342D02*
X59508207Y-25369819D01*
X59936779Y-26322200D02*
X60079636Y-26369819D01*
X60079636Y-26369819D02*
X60317731Y-26369819D01*
X60317731Y-26369819D02*
X60412969Y-26322200D01*
X60412969Y-26322200D02*
X60460588Y-26274580D01*
X60460588Y-26274580D02*
X60508207Y-26179342D01*
X60508207Y-26179342D02*
X60508207Y-26084104D01*
X60508207Y-26084104D02*
X60460588Y-25988866D01*
X60460588Y-25988866D02*
X60412969Y-25941247D01*
X60412969Y-25941247D02*
X60317731Y-25893628D01*
X60317731Y-25893628D02*
X60127255Y-25846009D01*
X60127255Y-25846009D02*
X60032017Y-25798390D01*
X60032017Y-25798390D02*
X59984398Y-25750771D01*
X59984398Y-25750771D02*
X59936779Y-25655533D01*
X59936779Y-25655533D02*
X59936779Y-25560295D01*
X59936779Y-25560295D02*
X59984398Y-25465057D01*
X59984398Y-25465057D02*
X60032017Y-25417438D01*
X60032017Y-25417438D02*
X60127255Y-25369819D01*
X60127255Y-25369819D02*
X60365350Y-25369819D01*
X60365350Y-25369819D02*
X60508207Y-25417438D01*
X61270112Y-25846009D02*
X61412969Y-25893628D01*
X61412969Y-25893628D02*
X61460588Y-25941247D01*
X61460588Y-25941247D02*
X61508207Y-26036485D01*
X61508207Y-26036485D02*
X61508207Y-26179342D01*
X61508207Y-26179342D02*
X61460588Y-26274580D01*
X61460588Y-26274580D02*
X61412969Y-26322200D01*
X61412969Y-26322200D02*
X61317731Y-26369819D01*
X61317731Y-26369819D02*
X60936779Y-26369819D01*
X60936779Y-26369819D02*
X60936779Y-25369819D01*
X60936779Y-25369819D02*
X61270112Y-25369819D01*
X61270112Y-25369819D02*
X61365350Y-25417438D01*
X61365350Y-25417438D02*
X61412969Y-25465057D01*
X61412969Y-25465057D02*
X61460588Y-25560295D01*
X61460588Y-25560295D02*
X61460588Y-25655533D01*
X61460588Y-25655533D02*
X61412969Y-25750771D01*
X61412969Y-25750771D02*
X61365350Y-25798390D01*
X61365350Y-25798390D02*
X61270112Y-25846009D01*
X61270112Y-25846009D02*
X60936779Y-25846009D01*
X33665350Y-42594295D02*
X34065350Y-42594295D01*
X33865350Y-43394295D02*
X33865350Y-42594295D01*
X34298683Y-43394295D02*
X34298683Y-42594295D01*
X34298683Y-42975247D02*
X34698683Y-42975247D01*
X34698683Y-43394295D02*
X34698683Y-42594295D01*
X35432016Y-43394295D02*
X35198683Y-43013342D01*
X35032016Y-43394295D02*
X35032016Y-42594295D01*
X35032016Y-42594295D02*
X35298683Y-42594295D01*
X35298683Y-42594295D02*
X35365350Y-42632390D01*
X35365350Y-42632390D02*
X35398683Y-42670485D01*
X35398683Y-42670485D02*
X35432016Y-42746676D01*
X35432016Y-42746676D02*
X35432016Y-42860961D01*
X35432016Y-42860961D02*
X35398683Y-42937152D01*
X35398683Y-42937152D02*
X35365350Y-42975247D01*
X35365350Y-42975247D02*
X35298683Y-43013342D01*
X35298683Y-43013342D02*
X35032016Y-43013342D01*
X35865350Y-42594295D02*
X35998683Y-42594295D01*
X35998683Y-42594295D02*
X36065350Y-42632390D01*
X36065350Y-42632390D02*
X36132016Y-42708580D01*
X36132016Y-42708580D02*
X36165350Y-42860961D01*
X36165350Y-42860961D02*
X36165350Y-43127628D01*
X36165350Y-43127628D02*
X36132016Y-43280009D01*
X36132016Y-43280009D02*
X36065350Y-43356200D01*
X36065350Y-43356200D02*
X35998683Y-43394295D01*
X35998683Y-43394295D02*
X35865350Y-43394295D01*
X35865350Y-43394295D02*
X35798683Y-43356200D01*
X35798683Y-43356200D02*
X35732016Y-43280009D01*
X35732016Y-43280009D02*
X35698683Y-43127628D01*
X35698683Y-43127628D02*
X35698683Y-42860961D01*
X35698683Y-42860961D02*
X35732016Y-42708580D01*
X35732016Y-42708580D02*
X35798683Y-42632390D01*
X35798683Y-42632390D02*
X35865350Y-42594295D01*
X36365349Y-42594295D02*
X36765349Y-42594295D01*
X36565349Y-43394295D02*
X36565349Y-42594295D01*
X36898682Y-42594295D02*
X37298682Y-42594295D01*
X37098682Y-43394295D02*
X37098682Y-42594295D01*
X37865349Y-43394295D02*
X37532015Y-43394295D01*
X37532015Y-43394295D02*
X37532015Y-42594295D01*
X38098682Y-42975247D02*
X38332016Y-42975247D01*
X38432016Y-43394295D02*
X38098682Y-43394295D01*
X38098682Y-43394295D02*
X38098682Y-42594295D01*
X38098682Y-42594295D02*
X38432016Y-42594295D01*
X42013723Y-81748935D02*
X42013723Y-81367982D01*
X42242295Y-81825125D02*
X41442295Y-81558458D01*
X41442295Y-81558458D02*
X42242295Y-81291792D01*
X44018295Y-81367982D02*
X44018295Y-81520363D01*
X44018295Y-81520363D02*
X44056390Y-81596554D01*
X44056390Y-81596554D02*
X44094485Y-81634649D01*
X44094485Y-81634649D02*
X44208771Y-81710839D01*
X44208771Y-81710839D02*
X44361152Y-81748935D01*
X44361152Y-81748935D02*
X44665914Y-81748935D01*
X44665914Y-81748935D02*
X44742104Y-81710839D01*
X44742104Y-81710839D02*
X44780200Y-81672744D01*
X44780200Y-81672744D02*
X44818295Y-81596554D01*
X44818295Y-81596554D02*
X44818295Y-81444173D01*
X44818295Y-81444173D02*
X44780200Y-81367982D01*
X44780200Y-81367982D02*
X44742104Y-81329887D01*
X44742104Y-81329887D02*
X44665914Y-81291792D01*
X44665914Y-81291792D02*
X44475438Y-81291792D01*
X44475438Y-81291792D02*
X44399247Y-81329887D01*
X44399247Y-81329887D02*
X44361152Y-81367982D01*
X44361152Y-81367982D02*
X44323057Y-81444173D01*
X44323057Y-81444173D02*
X44323057Y-81596554D01*
X44323057Y-81596554D02*
X44361152Y-81672744D01*
X44361152Y-81672744D02*
X44399247Y-81710839D01*
X44399247Y-81710839D02*
X44475438Y-81748935D01*
X46975247Y-81444173D02*
X47013342Y-81329887D01*
X47013342Y-81329887D02*
X47051438Y-81291792D01*
X47051438Y-81291792D02*
X47127628Y-81253696D01*
X47127628Y-81253696D02*
X47241914Y-81253696D01*
X47241914Y-81253696D02*
X47318104Y-81291792D01*
X47318104Y-81291792D02*
X47356200Y-81329887D01*
X47356200Y-81329887D02*
X47394295Y-81406077D01*
X47394295Y-81406077D02*
X47394295Y-81710839D01*
X47394295Y-81710839D02*
X46594295Y-81710839D01*
X46594295Y-81710839D02*
X46594295Y-81444173D01*
X46594295Y-81444173D02*
X46632390Y-81367982D01*
X46632390Y-81367982D02*
X46670485Y-81329887D01*
X46670485Y-81329887D02*
X46746676Y-81291792D01*
X46746676Y-81291792D02*
X46822866Y-81291792D01*
X46822866Y-81291792D02*
X46899057Y-81329887D01*
X46899057Y-81329887D02*
X46937152Y-81367982D01*
X46937152Y-81367982D02*
X46975247Y-81444173D01*
X46975247Y-81444173D02*
X46975247Y-81710839D01*
X42013723Y-74748935D02*
X42013723Y-74367982D01*
X42242295Y-74825125D02*
X41442295Y-74558458D01*
X41442295Y-74558458D02*
X42242295Y-74291792D01*
X44818295Y-74291792D02*
X44818295Y-74748935D01*
X44818295Y-74520363D02*
X44018295Y-74520363D01*
X44018295Y-74520363D02*
X44132580Y-74596554D01*
X44132580Y-74596554D02*
X44208771Y-74672744D01*
X44208771Y-74672744D02*
X44246866Y-74748935D01*
X46975247Y-74444173D02*
X47013342Y-74329887D01*
X47013342Y-74329887D02*
X47051438Y-74291792D01*
X47051438Y-74291792D02*
X47127628Y-74253696D01*
X47127628Y-74253696D02*
X47241914Y-74253696D01*
X47241914Y-74253696D02*
X47318104Y-74291792D01*
X47318104Y-74291792D02*
X47356200Y-74329887D01*
X47356200Y-74329887D02*
X47394295Y-74406077D01*
X47394295Y-74406077D02*
X47394295Y-74710839D01*
X47394295Y-74710839D02*
X46594295Y-74710839D01*
X46594295Y-74710839D02*
X46594295Y-74444173D01*
X46594295Y-74444173D02*
X46632390Y-74367982D01*
X46632390Y-74367982D02*
X46670485Y-74329887D01*
X46670485Y-74329887D02*
X46746676Y-74291792D01*
X46746676Y-74291792D02*
X46822866Y-74291792D01*
X46822866Y-74291792D02*
X46899057Y-74329887D01*
X46899057Y-74329887D02*
X46937152Y-74367982D01*
X46937152Y-74367982D02*
X46975247Y-74444173D01*
X46975247Y-74444173D02*
X46975247Y-74710839D01*
X49504819Y-36679166D02*
X49028628Y-37012499D01*
X49504819Y-37250594D02*
X48504819Y-37250594D01*
X48504819Y-37250594D02*
X48504819Y-36869642D01*
X48504819Y-36869642D02*
X48552438Y-36774404D01*
X48552438Y-36774404D02*
X48600057Y-36726785D01*
X48600057Y-36726785D02*
X48695295Y-36679166D01*
X48695295Y-36679166D02*
X48838152Y-36679166D01*
X48838152Y-36679166D02*
X48933390Y-36726785D01*
X48933390Y-36726785D02*
X48981009Y-36774404D01*
X48981009Y-36774404D02*
X49028628Y-36869642D01*
X49028628Y-36869642D02*
X49028628Y-37250594D01*
X48600057Y-36298213D02*
X48552438Y-36250594D01*
X48552438Y-36250594D02*
X48504819Y-36155356D01*
X48504819Y-36155356D02*
X48504819Y-35917261D01*
X48504819Y-35917261D02*
X48552438Y-35822023D01*
X48552438Y-35822023D02*
X48600057Y-35774404D01*
X48600057Y-35774404D02*
X48695295Y-35726785D01*
X48695295Y-35726785D02*
X48790533Y-35726785D01*
X48790533Y-35726785D02*
X48933390Y-35774404D01*
X48933390Y-35774404D02*
X49504819Y-36345832D01*
X49504819Y-36345832D02*
X49504819Y-35726785D01*
X49488095Y-46454819D02*
X49488095Y-47264342D01*
X49488095Y-47264342D02*
X49535714Y-47359580D01*
X49535714Y-47359580D02*
X49583333Y-47407200D01*
X49583333Y-47407200D02*
X49678571Y-47454819D01*
X49678571Y-47454819D02*
X49869047Y-47454819D01*
X49869047Y-47454819D02*
X49964285Y-47407200D01*
X49964285Y-47407200D02*
X50011904Y-47359580D01*
X50011904Y-47359580D02*
X50059523Y-47264342D01*
X50059523Y-47264342D02*
X50059523Y-46454819D01*
X50440476Y-46454819D02*
X51059523Y-46454819D01*
X51059523Y-46454819D02*
X50726190Y-46835771D01*
X50726190Y-46835771D02*
X50869047Y-46835771D01*
X50869047Y-46835771D02*
X50964285Y-46883390D01*
X50964285Y-46883390D02*
X51011904Y-46931009D01*
X51011904Y-46931009D02*
X51059523Y-47026247D01*
X51059523Y-47026247D02*
X51059523Y-47264342D01*
X51059523Y-47264342D02*
X51011904Y-47359580D01*
X51011904Y-47359580D02*
X50964285Y-47407200D01*
X50964285Y-47407200D02*
X50869047Y-47454819D01*
X50869047Y-47454819D02*
X50583333Y-47454819D01*
X50583333Y-47454819D02*
X50488095Y-47407200D01*
X50488095Y-47407200D02*
X50440476Y-47359580D01*
X52233333Y-46517319D02*
X51900000Y-46041128D01*
X51661905Y-46517319D02*
X51661905Y-45517319D01*
X51661905Y-45517319D02*
X52042857Y-45517319D01*
X52042857Y-45517319D02*
X52138095Y-45564938D01*
X52138095Y-45564938D02*
X52185714Y-45612557D01*
X52185714Y-45612557D02*
X52233333Y-45707795D01*
X52233333Y-45707795D02*
X52233333Y-45850652D01*
X52233333Y-45850652D02*
X52185714Y-45945890D01*
X52185714Y-45945890D02*
X52138095Y-45993509D01*
X52138095Y-45993509D02*
X52042857Y-46041128D01*
X52042857Y-46041128D02*
X51661905Y-46041128D01*
X52566667Y-45517319D02*
X53233333Y-45517319D01*
X53233333Y-45517319D02*
X52804762Y-46517319D01*
X49504819Y-39416666D02*
X49028628Y-39749999D01*
X49504819Y-39988094D02*
X48504819Y-39988094D01*
X48504819Y-39988094D02*
X48504819Y-39607142D01*
X48504819Y-39607142D02*
X48552438Y-39511904D01*
X48552438Y-39511904D02*
X48600057Y-39464285D01*
X48600057Y-39464285D02*
X48695295Y-39416666D01*
X48695295Y-39416666D02*
X48838152Y-39416666D01*
X48838152Y-39416666D02*
X48933390Y-39464285D01*
X48933390Y-39464285D02*
X48981009Y-39511904D01*
X48981009Y-39511904D02*
X49028628Y-39607142D01*
X49028628Y-39607142D02*
X49028628Y-39988094D01*
X48504819Y-39083332D02*
X48504819Y-38464285D01*
X48504819Y-38464285D02*
X48885771Y-38797618D01*
X48885771Y-38797618D02*
X48885771Y-38654761D01*
X48885771Y-38654761D02*
X48933390Y-38559523D01*
X48933390Y-38559523D02*
X48981009Y-38511904D01*
X48981009Y-38511904D02*
X49076247Y-38464285D01*
X49076247Y-38464285D02*
X49314342Y-38464285D01*
X49314342Y-38464285D02*
X49409580Y-38511904D01*
X49409580Y-38511904D02*
X49457200Y-38559523D01*
X49457200Y-38559523D02*
X49504819Y-38654761D01*
X49504819Y-38654761D02*
X49504819Y-38940475D01*
X49504819Y-38940475D02*
X49457200Y-39035713D01*
X49457200Y-39035713D02*
X49409580Y-39083332D01*
X58434819Y-76442857D02*
X57958628Y-76776190D01*
X58434819Y-77014285D02*
X57434819Y-77014285D01*
X57434819Y-77014285D02*
X57434819Y-76633333D01*
X57434819Y-76633333D02*
X57482438Y-76538095D01*
X57482438Y-76538095D02*
X57530057Y-76490476D01*
X57530057Y-76490476D02*
X57625295Y-76442857D01*
X57625295Y-76442857D02*
X57768152Y-76442857D01*
X57768152Y-76442857D02*
X57863390Y-76490476D01*
X57863390Y-76490476D02*
X57911009Y-76538095D01*
X57911009Y-76538095D02*
X57958628Y-76633333D01*
X57958628Y-76633333D02*
X57958628Y-77014285D01*
X57530057Y-76061904D02*
X57482438Y-76014285D01*
X57482438Y-76014285D02*
X57434819Y-75919047D01*
X57434819Y-75919047D02*
X57434819Y-75680952D01*
X57434819Y-75680952D02*
X57482438Y-75585714D01*
X57482438Y-75585714D02*
X57530057Y-75538095D01*
X57530057Y-75538095D02*
X57625295Y-75490476D01*
X57625295Y-75490476D02*
X57720533Y-75490476D01*
X57720533Y-75490476D02*
X57863390Y-75538095D01*
X57863390Y-75538095D02*
X58434819Y-76109523D01*
X58434819Y-76109523D02*
X58434819Y-75490476D01*
X57434819Y-75157142D02*
X57434819Y-74538095D01*
X57434819Y-74538095D02*
X57815771Y-74871428D01*
X57815771Y-74871428D02*
X57815771Y-74728571D01*
X57815771Y-74728571D02*
X57863390Y-74633333D01*
X57863390Y-74633333D02*
X57911009Y-74585714D01*
X57911009Y-74585714D02*
X58006247Y-74538095D01*
X58006247Y-74538095D02*
X58244342Y-74538095D01*
X58244342Y-74538095D02*
X58339580Y-74585714D01*
X58339580Y-74585714D02*
X58387200Y-74633333D01*
X58387200Y-74633333D02*
X58434819Y-74728571D01*
X58434819Y-74728571D02*
X58434819Y-75014285D01*
X58434819Y-75014285D02*
X58387200Y-75109523D01*
X58387200Y-75109523D02*
X58339580Y-75157142D01*
X92500000Y-26252438D02*
X92404762Y-26204819D01*
X92404762Y-26204819D02*
X92261905Y-26204819D01*
X92261905Y-26204819D02*
X92119048Y-26252438D01*
X92119048Y-26252438D02*
X92023810Y-26347676D01*
X92023810Y-26347676D02*
X91976191Y-26442914D01*
X91976191Y-26442914D02*
X91928572Y-26633390D01*
X91928572Y-26633390D02*
X91928572Y-26776247D01*
X91928572Y-26776247D02*
X91976191Y-26966723D01*
X91976191Y-26966723D02*
X92023810Y-27061961D01*
X92023810Y-27061961D02*
X92119048Y-27157200D01*
X92119048Y-27157200D02*
X92261905Y-27204819D01*
X92261905Y-27204819D02*
X92357143Y-27204819D01*
X92357143Y-27204819D02*
X92500000Y-27157200D01*
X92500000Y-27157200D02*
X92547619Y-27109580D01*
X92547619Y-27109580D02*
X92547619Y-26776247D01*
X92547619Y-26776247D02*
X92357143Y-26776247D01*
X92976191Y-27204819D02*
X92976191Y-26204819D01*
X92976191Y-26204819D02*
X93357143Y-26204819D01*
X93357143Y-26204819D02*
X93452381Y-26252438D01*
X93452381Y-26252438D02*
X93500000Y-26300057D01*
X93500000Y-26300057D02*
X93547619Y-26395295D01*
X93547619Y-26395295D02*
X93547619Y-26538152D01*
X93547619Y-26538152D02*
X93500000Y-26633390D01*
X93500000Y-26633390D02*
X93452381Y-26681009D01*
X93452381Y-26681009D02*
X93357143Y-26728628D01*
X93357143Y-26728628D02*
X92976191Y-26728628D01*
X93976191Y-27204819D02*
X93976191Y-26204819D01*
X94642857Y-26204819D02*
X94833333Y-26204819D01*
X94833333Y-26204819D02*
X94928571Y-26252438D01*
X94928571Y-26252438D02*
X95023809Y-26347676D01*
X95023809Y-26347676D02*
X95071428Y-26538152D01*
X95071428Y-26538152D02*
X95071428Y-26871485D01*
X95071428Y-26871485D02*
X95023809Y-27061961D01*
X95023809Y-27061961D02*
X94928571Y-27157200D01*
X94928571Y-27157200D02*
X94833333Y-27204819D01*
X94833333Y-27204819D02*
X94642857Y-27204819D01*
X94642857Y-27204819D02*
X94547619Y-27157200D01*
X94547619Y-27157200D02*
X94452381Y-27061961D01*
X94452381Y-27061961D02*
X94404762Y-26871485D01*
X94404762Y-26871485D02*
X94404762Y-26538152D01*
X94404762Y-26538152D02*
X94452381Y-26347676D01*
X94452381Y-26347676D02*
X94547619Y-26252438D01*
X94547619Y-26252438D02*
X94642857Y-26204819D01*
X44931009Y-27333333D02*
X44931009Y-27666666D01*
X45454819Y-27666666D02*
X44454819Y-27666666D01*
X44454819Y-27666666D02*
X44454819Y-27190476D01*
X45454819Y-26285714D02*
X45454819Y-26857142D01*
X45454819Y-26571428D02*
X44454819Y-26571428D01*
X44454819Y-26571428D02*
X44597676Y-26666666D01*
X44597676Y-26666666D02*
X44692914Y-26761904D01*
X44692914Y-26761904D02*
X44740533Y-26857142D01*
X20761905Y-50054819D02*
X20761905Y-49054819D01*
X20761905Y-49054819D02*
X21000000Y-49054819D01*
X21000000Y-49054819D02*
X21142857Y-49102438D01*
X21142857Y-49102438D02*
X21238095Y-49197676D01*
X21238095Y-49197676D02*
X21285714Y-49292914D01*
X21285714Y-49292914D02*
X21333333Y-49483390D01*
X21333333Y-49483390D02*
X21333333Y-49626247D01*
X21333333Y-49626247D02*
X21285714Y-49816723D01*
X21285714Y-49816723D02*
X21238095Y-49911961D01*
X21238095Y-49911961D02*
X21142857Y-50007200D01*
X21142857Y-50007200D02*
X21000000Y-50054819D01*
X21000000Y-50054819D02*
X20761905Y-50054819D01*
X22190476Y-49388152D02*
X22190476Y-50054819D01*
X21952381Y-49007200D02*
X21714286Y-49721485D01*
X21714286Y-49721485D02*
X22333333Y-49721485D01*
X43359580Y-53640476D02*
X43407200Y-53688095D01*
X43407200Y-53688095D02*
X43454819Y-53830952D01*
X43454819Y-53830952D02*
X43454819Y-53926190D01*
X43454819Y-53926190D02*
X43407200Y-54069047D01*
X43407200Y-54069047D02*
X43311961Y-54164285D01*
X43311961Y-54164285D02*
X43216723Y-54211904D01*
X43216723Y-54211904D02*
X43026247Y-54259523D01*
X43026247Y-54259523D02*
X42883390Y-54259523D01*
X42883390Y-54259523D02*
X42692914Y-54211904D01*
X42692914Y-54211904D02*
X42597676Y-54164285D01*
X42597676Y-54164285D02*
X42502438Y-54069047D01*
X42502438Y-54069047D02*
X42454819Y-53926190D01*
X42454819Y-53926190D02*
X42454819Y-53830952D01*
X42454819Y-53830952D02*
X42502438Y-53688095D01*
X42502438Y-53688095D02*
X42550057Y-53640476D01*
X42454819Y-53211904D02*
X43264342Y-53211904D01*
X43264342Y-53211904D02*
X43359580Y-53164285D01*
X43359580Y-53164285D02*
X43407200Y-53116666D01*
X43407200Y-53116666D02*
X43454819Y-53021428D01*
X43454819Y-53021428D02*
X43454819Y-52830952D01*
X43454819Y-52830952D02*
X43407200Y-52735714D01*
X43407200Y-52735714D02*
X43359580Y-52688095D01*
X43359580Y-52688095D02*
X43264342Y-52640476D01*
X43264342Y-52640476D02*
X42454819Y-52640476D01*
X42454819Y-51735714D02*
X42454819Y-51926190D01*
X42454819Y-51926190D02*
X42502438Y-52021428D01*
X42502438Y-52021428D02*
X42550057Y-52069047D01*
X42550057Y-52069047D02*
X42692914Y-52164285D01*
X42692914Y-52164285D02*
X42883390Y-52211904D01*
X42883390Y-52211904D02*
X43264342Y-52211904D01*
X43264342Y-52211904D02*
X43359580Y-52164285D01*
X43359580Y-52164285D02*
X43407200Y-52116666D01*
X43407200Y-52116666D02*
X43454819Y-52021428D01*
X43454819Y-52021428D02*
X43454819Y-51830952D01*
X43454819Y-51830952D02*
X43407200Y-51735714D01*
X43407200Y-51735714D02*
X43359580Y-51688095D01*
X43359580Y-51688095D02*
X43264342Y-51640476D01*
X43264342Y-51640476D02*
X43026247Y-51640476D01*
X43026247Y-51640476D02*
X42931009Y-51688095D01*
X42931009Y-51688095D02*
X42883390Y-51735714D01*
X42883390Y-51735714D02*
X42835771Y-51830952D01*
X42835771Y-51830952D02*
X42835771Y-52021428D01*
X42835771Y-52021428D02*
X42883390Y-52116666D01*
X42883390Y-52116666D02*
X42931009Y-52164285D01*
X42931009Y-52164285D02*
X43026247Y-52211904D01*
X83057142Y-35704819D02*
X82723809Y-35228628D01*
X82485714Y-35704819D02*
X82485714Y-34704819D01*
X82485714Y-34704819D02*
X82866666Y-34704819D01*
X82866666Y-34704819D02*
X82961904Y-34752438D01*
X82961904Y-34752438D02*
X83009523Y-34800057D01*
X83009523Y-34800057D02*
X83057142Y-34895295D01*
X83057142Y-34895295D02*
X83057142Y-35038152D01*
X83057142Y-35038152D02*
X83009523Y-35133390D01*
X83009523Y-35133390D02*
X82961904Y-35181009D01*
X82961904Y-35181009D02*
X82866666Y-35228628D01*
X82866666Y-35228628D02*
X82485714Y-35228628D01*
X83438095Y-34800057D02*
X83485714Y-34752438D01*
X83485714Y-34752438D02*
X83580952Y-34704819D01*
X83580952Y-34704819D02*
X83819047Y-34704819D01*
X83819047Y-34704819D02*
X83914285Y-34752438D01*
X83914285Y-34752438D02*
X83961904Y-34800057D01*
X83961904Y-34800057D02*
X84009523Y-34895295D01*
X84009523Y-34895295D02*
X84009523Y-34990533D01*
X84009523Y-34990533D02*
X83961904Y-35133390D01*
X83961904Y-35133390D02*
X83390476Y-35704819D01*
X83390476Y-35704819D02*
X84009523Y-35704819D01*
X84961904Y-35704819D02*
X84390476Y-35704819D01*
X84676190Y-35704819D02*
X84676190Y-34704819D01*
X84676190Y-34704819D02*
X84580952Y-34847676D01*
X84580952Y-34847676D02*
X84485714Y-34942914D01*
X84485714Y-34942914D02*
X84390476Y-34990533D01*
X41204819Y-45666666D02*
X40728628Y-45999999D01*
X41204819Y-46238094D02*
X40204819Y-46238094D01*
X40204819Y-46238094D02*
X40204819Y-45857142D01*
X40204819Y-45857142D02*
X40252438Y-45761904D01*
X40252438Y-45761904D02*
X40300057Y-45714285D01*
X40300057Y-45714285D02*
X40395295Y-45666666D01*
X40395295Y-45666666D02*
X40538152Y-45666666D01*
X40538152Y-45666666D02*
X40633390Y-45714285D01*
X40633390Y-45714285D02*
X40681009Y-45761904D01*
X40681009Y-45761904D02*
X40728628Y-45857142D01*
X40728628Y-45857142D02*
X40728628Y-46238094D01*
X40204819Y-44809523D02*
X40204819Y-44999999D01*
X40204819Y-44999999D02*
X40252438Y-45095237D01*
X40252438Y-45095237D02*
X40300057Y-45142856D01*
X40300057Y-45142856D02*
X40442914Y-45238094D01*
X40442914Y-45238094D02*
X40633390Y-45285713D01*
X40633390Y-45285713D02*
X41014342Y-45285713D01*
X41014342Y-45285713D02*
X41109580Y-45238094D01*
X41109580Y-45238094D02*
X41157200Y-45190475D01*
X41157200Y-45190475D02*
X41204819Y-45095237D01*
X41204819Y-45095237D02*
X41204819Y-44904761D01*
X41204819Y-44904761D02*
X41157200Y-44809523D01*
X41157200Y-44809523D02*
X41109580Y-44761904D01*
X41109580Y-44761904D02*
X41014342Y-44714285D01*
X41014342Y-44714285D02*
X40776247Y-44714285D01*
X40776247Y-44714285D02*
X40681009Y-44761904D01*
X40681009Y-44761904D02*
X40633390Y-44809523D01*
X40633390Y-44809523D02*
X40585771Y-44904761D01*
X40585771Y-44904761D02*
X40585771Y-45095237D01*
X40585771Y-45095237D02*
X40633390Y-45190475D01*
X40633390Y-45190475D02*
X40681009Y-45238094D01*
X40681009Y-45238094D02*
X40776247Y-45285713D01*
X89659580Y-76666666D02*
X89707200Y-76714285D01*
X89707200Y-76714285D02*
X89754819Y-76857142D01*
X89754819Y-76857142D02*
X89754819Y-76952380D01*
X89754819Y-76952380D02*
X89707200Y-77095237D01*
X89707200Y-77095237D02*
X89611961Y-77190475D01*
X89611961Y-77190475D02*
X89516723Y-77238094D01*
X89516723Y-77238094D02*
X89326247Y-77285713D01*
X89326247Y-77285713D02*
X89183390Y-77285713D01*
X89183390Y-77285713D02*
X88992914Y-77238094D01*
X88992914Y-77238094D02*
X88897676Y-77190475D01*
X88897676Y-77190475D02*
X88802438Y-77095237D01*
X88802438Y-77095237D02*
X88754819Y-76952380D01*
X88754819Y-76952380D02*
X88754819Y-76857142D01*
X88754819Y-76857142D02*
X88802438Y-76714285D01*
X88802438Y-76714285D02*
X88850057Y-76666666D01*
X89088152Y-75809523D02*
X89754819Y-75809523D01*
X88707200Y-76047618D02*
X89421485Y-76285713D01*
X89421485Y-76285713D02*
X89421485Y-75666666D01*
X41129819Y-43416666D02*
X40653628Y-43749999D01*
X41129819Y-43988094D02*
X40129819Y-43988094D01*
X40129819Y-43988094D02*
X40129819Y-43607142D01*
X40129819Y-43607142D02*
X40177438Y-43511904D01*
X40177438Y-43511904D02*
X40225057Y-43464285D01*
X40225057Y-43464285D02*
X40320295Y-43416666D01*
X40320295Y-43416666D02*
X40463152Y-43416666D01*
X40463152Y-43416666D02*
X40558390Y-43464285D01*
X40558390Y-43464285D02*
X40606009Y-43511904D01*
X40606009Y-43511904D02*
X40653628Y-43607142D01*
X40653628Y-43607142D02*
X40653628Y-43988094D01*
X40129819Y-42511904D02*
X40129819Y-42988094D01*
X40129819Y-42988094D02*
X40606009Y-43035713D01*
X40606009Y-43035713D02*
X40558390Y-42988094D01*
X40558390Y-42988094D02*
X40510771Y-42892856D01*
X40510771Y-42892856D02*
X40510771Y-42654761D01*
X40510771Y-42654761D02*
X40558390Y-42559523D01*
X40558390Y-42559523D02*
X40606009Y-42511904D01*
X40606009Y-42511904D02*
X40701247Y-42464285D01*
X40701247Y-42464285D02*
X40939342Y-42464285D01*
X40939342Y-42464285D02*
X41034580Y-42511904D01*
X41034580Y-42511904D02*
X41082200Y-42559523D01*
X41082200Y-42559523D02*
X41129819Y-42654761D01*
X41129819Y-42654761D02*
X41129819Y-42892856D01*
X41129819Y-42892856D02*
X41082200Y-42988094D01*
X41082200Y-42988094D02*
X41034580Y-43035713D01*
X28686905Y-48454819D02*
X28686905Y-47454819D01*
X28686905Y-47454819D02*
X28925000Y-47454819D01*
X28925000Y-47454819D02*
X29067857Y-47502438D01*
X29067857Y-47502438D02*
X29163095Y-47597676D01*
X29163095Y-47597676D02*
X29210714Y-47692914D01*
X29210714Y-47692914D02*
X29258333Y-47883390D01*
X29258333Y-47883390D02*
X29258333Y-48026247D01*
X29258333Y-48026247D02*
X29210714Y-48216723D01*
X29210714Y-48216723D02*
X29163095Y-48311961D01*
X29163095Y-48311961D02*
X29067857Y-48407200D01*
X29067857Y-48407200D02*
X28925000Y-48454819D01*
X28925000Y-48454819D02*
X28686905Y-48454819D01*
X30210714Y-48454819D02*
X29639286Y-48454819D01*
X29925000Y-48454819D02*
X29925000Y-47454819D01*
X29925000Y-47454819D02*
X29829762Y-47597676D01*
X29829762Y-47597676D02*
X29734524Y-47692914D01*
X29734524Y-47692914D02*
X29639286Y-47740533D01*
X54583333Y-35917319D02*
X54250000Y-35441128D01*
X54011905Y-35917319D02*
X54011905Y-34917319D01*
X54011905Y-34917319D02*
X54392857Y-34917319D01*
X54392857Y-34917319D02*
X54488095Y-34964938D01*
X54488095Y-34964938D02*
X54535714Y-35012557D01*
X54535714Y-35012557D02*
X54583333Y-35107795D01*
X54583333Y-35107795D02*
X54583333Y-35250652D01*
X54583333Y-35250652D02*
X54535714Y-35345890D01*
X54535714Y-35345890D02*
X54488095Y-35393509D01*
X54488095Y-35393509D02*
X54392857Y-35441128D01*
X54392857Y-35441128D02*
X54011905Y-35441128D01*
X55440476Y-35250652D02*
X55440476Y-35917319D01*
X55202381Y-34869700D02*
X54964286Y-35583985D01*
X54964286Y-35583985D02*
X55583333Y-35583985D01*
X29788095Y-49284819D02*
X29788095Y-50094342D01*
X29788095Y-50094342D02*
X29835714Y-50189580D01*
X29835714Y-50189580D02*
X29883333Y-50237200D01*
X29883333Y-50237200D02*
X29978571Y-50284819D01*
X29978571Y-50284819D02*
X30169047Y-50284819D01*
X30169047Y-50284819D02*
X30264285Y-50237200D01*
X30264285Y-50237200D02*
X30311904Y-50189580D01*
X30311904Y-50189580D02*
X30359523Y-50094342D01*
X30359523Y-50094342D02*
X30359523Y-49284819D01*
X31264285Y-49284819D02*
X31073809Y-49284819D01*
X31073809Y-49284819D02*
X30978571Y-49332438D01*
X30978571Y-49332438D02*
X30930952Y-49380057D01*
X30930952Y-49380057D02*
X30835714Y-49522914D01*
X30835714Y-49522914D02*
X30788095Y-49713390D01*
X30788095Y-49713390D02*
X30788095Y-50094342D01*
X30788095Y-50094342D02*
X30835714Y-50189580D01*
X30835714Y-50189580D02*
X30883333Y-50237200D01*
X30883333Y-50237200D02*
X30978571Y-50284819D01*
X30978571Y-50284819D02*
X31169047Y-50284819D01*
X31169047Y-50284819D02*
X31264285Y-50237200D01*
X31264285Y-50237200D02*
X31311904Y-50189580D01*
X31311904Y-50189580D02*
X31359523Y-50094342D01*
X31359523Y-50094342D02*
X31359523Y-49856247D01*
X31359523Y-49856247D02*
X31311904Y-49761009D01*
X31311904Y-49761009D02*
X31264285Y-49713390D01*
X31264285Y-49713390D02*
X31169047Y-49665771D01*
X31169047Y-49665771D02*
X30978571Y-49665771D01*
X30978571Y-49665771D02*
X30883333Y-49713390D01*
X30883333Y-49713390D02*
X30835714Y-49761009D01*
X30835714Y-49761009D02*
X30788095Y-49856247D01*
X73254819Y-28038094D02*
X72254819Y-28038094D01*
X72254819Y-28038094D02*
X72254819Y-27799999D01*
X72254819Y-27799999D02*
X72302438Y-27657142D01*
X72302438Y-27657142D02*
X72397676Y-27561904D01*
X72397676Y-27561904D02*
X72492914Y-27514285D01*
X72492914Y-27514285D02*
X72683390Y-27466666D01*
X72683390Y-27466666D02*
X72826247Y-27466666D01*
X72826247Y-27466666D02*
X73016723Y-27514285D01*
X73016723Y-27514285D02*
X73111961Y-27561904D01*
X73111961Y-27561904D02*
X73207200Y-27657142D01*
X73207200Y-27657142D02*
X73254819Y-27799999D01*
X73254819Y-27799999D02*
X73254819Y-28038094D01*
X72683390Y-26895237D02*
X72635771Y-26990475D01*
X72635771Y-26990475D02*
X72588152Y-27038094D01*
X72588152Y-27038094D02*
X72492914Y-27085713D01*
X72492914Y-27085713D02*
X72445295Y-27085713D01*
X72445295Y-27085713D02*
X72350057Y-27038094D01*
X72350057Y-27038094D02*
X72302438Y-26990475D01*
X72302438Y-26990475D02*
X72254819Y-26895237D01*
X72254819Y-26895237D02*
X72254819Y-26704761D01*
X72254819Y-26704761D02*
X72302438Y-26609523D01*
X72302438Y-26609523D02*
X72350057Y-26561904D01*
X72350057Y-26561904D02*
X72445295Y-26514285D01*
X72445295Y-26514285D02*
X72492914Y-26514285D01*
X72492914Y-26514285D02*
X72588152Y-26561904D01*
X72588152Y-26561904D02*
X72635771Y-26609523D01*
X72635771Y-26609523D02*
X72683390Y-26704761D01*
X72683390Y-26704761D02*
X72683390Y-26895237D01*
X72683390Y-26895237D02*
X72731009Y-26990475D01*
X72731009Y-26990475D02*
X72778628Y-27038094D01*
X72778628Y-27038094D02*
X72873866Y-27085713D01*
X72873866Y-27085713D02*
X73064342Y-27085713D01*
X73064342Y-27085713D02*
X73159580Y-27038094D01*
X73159580Y-27038094D02*
X73207200Y-26990475D01*
X73207200Y-26990475D02*
X73254819Y-26895237D01*
X73254819Y-26895237D02*
X73254819Y-26704761D01*
X73254819Y-26704761D02*
X73207200Y-26609523D01*
X73207200Y-26609523D02*
X73159580Y-26561904D01*
X73159580Y-26561904D02*
X73064342Y-26514285D01*
X73064342Y-26514285D02*
X72873866Y-26514285D01*
X72873866Y-26514285D02*
X72778628Y-26561904D01*
X72778628Y-26561904D02*
X72731009Y-26609523D01*
X72731009Y-26609523D02*
X72683390Y-26704761D01*
X98204819Y-33488094D02*
X99014342Y-33488094D01*
X99014342Y-33488094D02*
X99109580Y-33440475D01*
X99109580Y-33440475D02*
X99157200Y-33392856D01*
X99157200Y-33392856D02*
X99204819Y-33297618D01*
X99204819Y-33297618D02*
X99204819Y-33107142D01*
X99204819Y-33107142D02*
X99157200Y-33011904D01*
X99157200Y-33011904D02*
X99109580Y-32964285D01*
X99109580Y-32964285D02*
X99014342Y-32916666D01*
X99014342Y-32916666D02*
X98204819Y-32916666D01*
X98300057Y-32488094D02*
X98252438Y-32440475D01*
X98252438Y-32440475D02*
X98204819Y-32345237D01*
X98204819Y-32345237D02*
X98204819Y-32107142D01*
X98204819Y-32107142D02*
X98252438Y-32011904D01*
X98252438Y-32011904D02*
X98300057Y-31964285D01*
X98300057Y-31964285D02*
X98395295Y-31916666D01*
X98395295Y-31916666D02*
X98490533Y-31916666D01*
X98490533Y-31916666D02*
X98633390Y-31964285D01*
X98633390Y-31964285D02*
X99204819Y-32535713D01*
X99204819Y-32535713D02*
X99204819Y-31916666D01*
X98204819Y-31297618D02*
X98204819Y-31202380D01*
X98204819Y-31202380D02*
X98252438Y-31107142D01*
X98252438Y-31107142D02*
X98300057Y-31059523D01*
X98300057Y-31059523D02*
X98395295Y-31011904D01*
X98395295Y-31011904D02*
X98585771Y-30964285D01*
X98585771Y-30964285D02*
X98823866Y-30964285D01*
X98823866Y-30964285D02*
X99014342Y-31011904D01*
X99014342Y-31011904D02*
X99109580Y-31059523D01*
X99109580Y-31059523D02*
X99157200Y-31107142D01*
X99157200Y-31107142D02*
X99204819Y-31202380D01*
X99204819Y-31202380D02*
X99204819Y-31297618D01*
X99204819Y-31297618D02*
X99157200Y-31392856D01*
X99157200Y-31392856D02*
X99109580Y-31440475D01*
X99109580Y-31440475D02*
X99014342Y-31488094D01*
X99014342Y-31488094D02*
X98823866Y-31535713D01*
X98823866Y-31535713D02*
X98585771Y-31535713D01*
X98585771Y-31535713D02*
X98395295Y-31488094D01*
X98395295Y-31488094D02*
X98300057Y-31440475D01*
X98300057Y-31440475D02*
X98252438Y-31392856D01*
X98252438Y-31392856D02*
X98204819Y-31297618D01*
X101857142Y-43954819D02*
X101523809Y-43478628D01*
X101285714Y-43954819D02*
X101285714Y-42954819D01*
X101285714Y-42954819D02*
X101666666Y-42954819D01*
X101666666Y-42954819D02*
X101761904Y-43002438D01*
X101761904Y-43002438D02*
X101809523Y-43050057D01*
X101809523Y-43050057D02*
X101857142Y-43145295D01*
X101857142Y-43145295D02*
X101857142Y-43288152D01*
X101857142Y-43288152D02*
X101809523Y-43383390D01*
X101809523Y-43383390D02*
X101761904Y-43431009D01*
X101761904Y-43431009D02*
X101666666Y-43478628D01*
X101666666Y-43478628D02*
X101285714Y-43478628D01*
X102809523Y-43954819D02*
X102238095Y-43954819D01*
X102523809Y-43954819D02*
X102523809Y-42954819D01*
X102523809Y-42954819D02*
X102428571Y-43097676D01*
X102428571Y-43097676D02*
X102333333Y-43192914D01*
X102333333Y-43192914D02*
X102238095Y-43240533D01*
X103142857Y-42954819D02*
X103809523Y-42954819D01*
X103809523Y-42954819D02*
X103380952Y-43954819D01*
X47704819Y-58738094D02*
X48514342Y-58738094D01*
X48514342Y-58738094D02*
X48609580Y-58690475D01*
X48609580Y-58690475D02*
X48657200Y-58642856D01*
X48657200Y-58642856D02*
X48704819Y-58547618D01*
X48704819Y-58547618D02*
X48704819Y-58357142D01*
X48704819Y-58357142D02*
X48657200Y-58261904D01*
X48657200Y-58261904D02*
X48609580Y-58214285D01*
X48609580Y-58214285D02*
X48514342Y-58166666D01*
X48514342Y-58166666D02*
X47704819Y-58166666D01*
X48704819Y-57166666D02*
X48704819Y-57738094D01*
X48704819Y-57452380D02*
X47704819Y-57452380D01*
X47704819Y-57452380D02*
X47847676Y-57547618D01*
X47847676Y-57547618D02*
X47942914Y-57642856D01*
X47942914Y-57642856D02*
X47990533Y-57738094D01*
X47704819Y-56547618D02*
X47704819Y-56452380D01*
X47704819Y-56452380D02*
X47752438Y-56357142D01*
X47752438Y-56357142D02*
X47800057Y-56309523D01*
X47800057Y-56309523D02*
X47895295Y-56261904D01*
X47895295Y-56261904D02*
X48085771Y-56214285D01*
X48085771Y-56214285D02*
X48323866Y-56214285D01*
X48323866Y-56214285D02*
X48514342Y-56261904D01*
X48514342Y-56261904D02*
X48609580Y-56309523D01*
X48609580Y-56309523D02*
X48657200Y-56357142D01*
X48657200Y-56357142D02*
X48704819Y-56452380D01*
X48704819Y-56452380D02*
X48704819Y-56547618D01*
X48704819Y-56547618D02*
X48657200Y-56642856D01*
X48657200Y-56642856D02*
X48609580Y-56690475D01*
X48609580Y-56690475D02*
X48514342Y-56738094D01*
X48514342Y-56738094D02*
X48323866Y-56785713D01*
X48323866Y-56785713D02*
X48085771Y-56785713D01*
X48085771Y-56785713D02*
X47895295Y-56738094D01*
X47895295Y-56738094D02*
X47800057Y-56690475D01*
X47800057Y-56690475D02*
X47752438Y-56642856D01*
X47752438Y-56642856D02*
X47704819Y-56547618D01*
X97954819Y-91011904D02*
X98764342Y-91011904D01*
X98764342Y-91011904D02*
X98859580Y-90964285D01*
X98859580Y-90964285D02*
X98907200Y-90916666D01*
X98907200Y-90916666D02*
X98954819Y-90821428D01*
X98954819Y-90821428D02*
X98954819Y-90630952D01*
X98954819Y-90630952D02*
X98907200Y-90535714D01*
X98907200Y-90535714D02*
X98859580Y-90488095D01*
X98859580Y-90488095D02*
X98764342Y-90440476D01*
X98764342Y-90440476D02*
X97954819Y-90440476D01*
X98954819Y-89440476D02*
X98954819Y-90011904D01*
X98954819Y-89726190D02*
X97954819Y-89726190D01*
X97954819Y-89726190D02*
X98097676Y-89821428D01*
X98097676Y-89821428D02*
X98192914Y-89916666D01*
X98192914Y-89916666D02*
X98240533Y-90011904D01*
X70619819Y-80738094D02*
X71429342Y-80738094D01*
X71429342Y-80738094D02*
X71524580Y-80690475D01*
X71524580Y-80690475D02*
X71572200Y-80642856D01*
X71572200Y-80642856D02*
X71619819Y-80547618D01*
X71619819Y-80547618D02*
X71619819Y-80357142D01*
X71619819Y-80357142D02*
X71572200Y-80261904D01*
X71572200Y-80261904D02*
X71524580Y-80214285D01*
X71524580Y-80214285D02*
X71429342Y-80166666D01*
X71429342Y-80166666D02*
X70619819Y-80166666D01*
X71619819Y-79166666D02*
X71619819Y-79738094D01*
X71619819Y-79452380D02*
X70619819Y-79452380D01*
X70619819Y-79452380D02*
X70762676Y-79547618D01*
X70762676Y-79547618D02*
X70857914Y-79642856D01*
X70857914Y-79642856D02*
X70905533Y-79738094D01*
X70953152Y-78309523D02*
X71619819Y-78309523D01*
X70572200Y-78547618D02*
X71286485Y-78785713D01*
X71286485Y-78785713D02*
X71286485Y-78166666D01*
X80609580Y-45916666D02*
X80657200Y-45964285D01*
X80657200Y-45964285D02*
X80704819Y-46107142D01*
X80704819Y-46107142D02*
X80704819Y-46202380D01*
X80704819Y-46202380D02*
X80657200Y-46345237D01*
X80657200Y-46345237D02*
X80561961Y-46440475D01*
X80561961Y-46440475D02*
X80466723Y-46488094D01*
X80466723Y-46488094D02*
X80276247Y-46535713D01*
X80276247Y-46535713D02*
X80133390Y-46535713D01*
X80133390Y-46535713D02*
X79942914Y-46488094D01*
X79942914Y-46488094D02*
X79847676Y-46440475D01*
X79847676Y-46440475D02*
X79752438Y-46345237D01*
X79752438Y-46345237D02*
X79704819Y-46202380D01*
X79704819Y-46202380D02*
X79704819Y-46107142D01*
X79704819Y-46107142D02*
X79752438Y-45964285D01*
X79752438Y-45964285D02*
X79800057Y-45916666D01*
X79704819Y-45488094D02*
X80514342Y-45488094D01*
X80514342Y-45488094D02*
X80609580Y-45440475D01*
X80609580Y-45440475D02*
X80657200Y-45392856D01*
X80657200Y-45392856D02*
X80704819Y-45297618D01*
X80704819Y-45297618D02*
X80704819Y-45107142D01*
X80704819Y-45107142D02*
X80657200Y-45011904D01*
X80657200Y-45011904D02*
X80609580Y-44964285D01*
X80609580Y-44964285D02*
X80514342Y-44916666D01*
X80514342Y-44916666D02*
X79704819Y-44916666D01*
X80704819Y-43916666D02*
X80704819Y-44488094D01*
X80704819Y-44202380D02*
X79704819Y-44202380D01*
X79704819Y-44202380D02*
X79847676Y-44297618D01*
X79847676Y-44297618D02*
X79942914Y-44392856D01*
X79942914Y-44392856D02*
X79990533Y-44488094D01*
X80704819Y-42964285D02*
X80704819Y-43535713D01*
X80704819Y-43249999D02*
X79704819Y-43249999D01*
X79704819Y-43249999D02*
X79847676Y-43345237D01*
X79847676Y-43345237D02*
X79942914Y-43440475D01*
X79942914Y-43440475D02*
X79990533Y-43535713D01*
X63811905Y-29654819D02*
X63811905Y-30464342D01*
X63811905Y-30464342D02*
X63859524Y-30559580D01*
X63859524Y-30559580D02*
X63907143Y-30607200D01*
X63907143Y-30607200D02*
X64002381Y-30654819D01*
X64002381Y-30654819D02*
X64192857Y-30654819D01*
X64192857Y-30654819D02*
X64288095Y-30607200D01*
X64288095Y-30607200D02*
X64335714Y-30559580D01*
X64335714Y-30559580D02*
X64383333Y-30464342D01*
X64383333Y-30464342D02*
X64383333Y-29654819D01*
X65383333Y-30654819D02*
X64811905Y-30654819D01*
X65097619Y-30654819D02*
X65097619Y-29654819D01*
X65097619Y-29654819D02*
X65002381Y-29797676D01*
X65002381Y-29797676D02*
X64907143Y-29892914D01*
X64907143Y-29892914D02*
X64811905Y-29940533D01*
X65764286Y-29750057D02*
X65811905Y-29702438D01*
X65811905Y-29702438D02*
X65907143Y-29654819D01*
X65907143Y-29654819D02*
X66145238Y-29654819D01*
X66145238Y-29654819D02*
X66240476Y-29702438D01*
X66240476Y-29702438D02*
X66288095Y-29750057D01*
X66288095Y-29750057D02*
X66335714Y-29845295D01*
X66335714Y-29845295D02*
X66335714Y-29940533D01*
X66335714Y-29940533D02*
X66288095Y-30083390D01*
X66288095Y-30083390D02*
X65716667Y-30654819D01*
X65716667Y-30654819D02*
X66335714Y-30654819D01*
X80154819Y-58383094D02*
X80964342Y-58383094D01*
X80964342Y-58383094D02*
X81059580Y-58335475D01*
X81059580Y-58335475D02*
X81107200Y-58287856D01*
X81107200Y-58287856D02*
X81154819Y-58192618D01*
X81154819Y-58192618D02*
X81154819Y-58002142D01*
X81154819Y-58002142D02*
X81107200Y-57906904D01*
X81107200Y-57906904D02*
X81059580Y-57859285D01*
X81059580Y-57859285D02*
X80964342Y-57811666D01*
X80964342Y-57811666D02*
X80154819Y-57811666D01*
X81154819Y-56811666D02*
X81154819Y-57383094D01*
X81154819Y-57097380D02*
X80154819Y-57097380D01*
X80154819Y-57097380D02*
X80297676Y-57192618D01*
X80297676Y-57192618D02*
X80392914Y-57287856D01*
X80392914Y-57287856D02*
X80440533Y-57383094D01*
X81154819Y-55859285D02*
X81154819Y-56430713D01*
X81154819Y-56144999D02*
X80154819Y-56144999D01*
X80154819Y-56144999D02*
X80297676Y-56240237D01*
X80297676Y-56240237D02*
X80392914Y-56335475D01*
X80392914Y-56335475D02*
X80440533Y-56430713D01*
X39454819Y-27814285D02*
X38454819Y-27814285D01*
X38454819Y-27814285D02*
X38454819Y-27576190D01*
X38454819Y-27576190D02*
X38502438Y-27433333D01*
X38502438Y-27433333D02*
X38597676Y-27338095D01*
X38597676Y-27338095D02*
X38692914Y-27290476D01*
X38692914Y-27290476D02*
X38883390Y-27242857D01*
X38883390Y-27242857D02*
X39026247Y-27242857D01*
X39026247Y-27242857D02*
X39216723Y-27290476D01*
X39216723Y-27290476D02*
X39311961Y-27338095D01*
X39311961Y-27338095D02*
X39407200Y-27433333D01*
X39407200Y-27433333D02*
X39454819Y-27576190D01*
X39454819Y-27576190D02*
X39454819Y-27814285D01*
X39454819Y-26290476D02*
X39454819Y-26861904D01*
X39454819Y-26576190D02*
X38454819Y-26576190D01*
X38454819Y-26576190D02*
X38597676Y-26671428D01*
X38597676Y-26671428D02*
X38692914Y-26766666D01*
X38692914Y-26766666D02*
X38740533Y-26861904D01*
X38454819Y-25671428D02*
X38454819Y-25576190D01*
X38454819Y-25576190D02*
X38502438Y-25480952D01*
X38502438Y-25480952D02*
X38550057Y-25433333D01*
X38550057Y-25433333D02*
X38645295Y-25385714D01*
X38645295Y-25385714D02*
X38835771Y-25338095D01*
X38835771Y-25338095D02*
X39073866Y-25338095D01*
X39073866Y-25338095D02*
X39264342Y-25385714D01*
X39264342Y-25385714D02*
X39359580Y-25433333D01*
X39359580Y-25433333D02*
X39407200Y-25480952D01*
X39407200Y-25480952D02*
X39454819Y-25576190D01*
X39454819Y-25576190D02*
X39454819Y-25671428D01*
X39454819Y-25671428D02*
X39407200Y-25766666D01*
X39407200Y-25766666D02*
X39359580Y-25814285D01*
X39359580Y-25814285D02*
X39264342Y-25861904D01*
X39264342Y-25861904D02*
X39073866Y-25909523D01*
X39073866Y-25909523D02*
X38835771Y-25909523D01*
X38835771Y-25909523D02*
X38645295Y-25861904D01*
X38645295Y-25861904D02*
X38550057Y-25814285D01*
X38550057Y-25814285D02*
X38502438Y-25766666D01*
X38502438Y-25766666D02*
X38454819Y-25671428D01*
X40854819Y-60111904D02*
X41664342Y-60111904D01*
X41664342Y-60111904D02*
X41759580Y-60064285D01*
X41759580Y-60064285D02*
X41807200Y-60016666D01*
X41807200Y-60016666D02*
X41854819Y-59921428D01*
X41854819Y-59921428D02*
X41854819Y-59730952D01*
X41854819Y-59730952D02*
X41807200Y-59635714D01*
X41807200Y-59635714D02*
X41759580Y-59588095D01*
X41759580Y-59588095D02*
X41664342Y-59540476D01*
X41664342Y-59540476D02*
X40854819Y-59540476D01*
X41283390Y-58921428D02*
X41235771Y-59016666D01*
X41235771Y-59016666D02*
X41188152Y-59064285D01*
X41188152Y-59064285D02*
X41092914Y-59111904D01*
X41092914Y-59111904D02*
X41045295Y-59111904D01*
X41045295Y-59111904D02*
X40950057Y-59064285D01*
X40950057Y-59064285D02*
X40902438Y-59016666D01*
X40902438Y-59016666D02*
X40854819Y-58921428D01*
X40854819Y-58921428D02*
X40854819Y-58730952D01*
X40854819Y-58730952D02*
X40902438Y-58635714D01*
X40902438Y-58635714D02*
X40950057Y-58588095D01*
X40950057Y-58588095D02*
X41045295Y-58540476D01*
X41045295Y-58540476D02*
X41092914Y-58540476D01*
X41092914Y-58540476D02*
X41188152Y-58588095D01*
X41188152Y-58588095D02*
X41235771Y-58635714D01*
X41235771Y-58635714D02*
X41283390Y-58730952D01*
X41283390Y-58730952D02*
X41283390Y-58921428D01*
X41283390Y-58921428D02*
X41331009Y-59016666D01*
X41331009Y-59016666D02*
X41378628Y-59064285D01*
X41378628Y-59064285D02*
X41473866Y-59111904D01*
X41473866Y-59111904D02*
X41664342Y-59111904D01*
X41664342Y-59111904D02*
X41759580Y-59064285D01*
X41759580Y-59064285D02*
X41807200Y-59016666D01*
X41807200Y-59016666D02*
X41854819Y-58921428D01*
X41854819Y-58921428D02*
X41854819Y-58730952D01*
X41854819Y-58730952D02*
X41807200Y-58635714D01*
X41807200Y-58635714D02*
X41759580Y-58588095D01*
X41759580Y-58588095D02*
X41664342Y-58540476D01*
X41664342Y-58540476D02*
X41473866Y-58540476D01*
X41473866Y-58540476D02*
X41378628Y-58588095D01*
X41378628Y-58588095D02*
X41331009Y-58635714D01*
X41331009Y-58635714D02*
X41283390Y-58730952D01*
X50588095Y-39204819D02*
X50588095Y-40014342D01*
X50588095Y-40014342D02*
X50635714Y-40109580D01*
X50635714Y-40109580D02*
X50683333Y-40157200D01*
X50683333Y-40157200D02*
X50778571Y-40204819D01*
X50778571Y-40204819D02*
X50969047Y-40204819D01*
X50969047Y-40204819D02*
X51064285Y-40157200D01*
X51064285Y-40157200D02*
X51111904Y-40109580D01*
X51111904Y-40109580D02*
X51159523Y-40014342D01*
X51159523Y-40014342D02*
X51159523Y-39204819D01*
X52064285Y-39538152D02*
X52064285Y-40204819D01*
X51826190Y-39157200D02*
X51588095Y-39871485D01*
X51588095Y-39871485D02*
X52207142Y-39871485D01*
X70672080Y-70642857D02*
X70719700Y-70690476D01*
X70719700Y-70690476D02*
X70767319Y-70833333D01*
X70767319Y-70833333D02*
X70767319Y-70928571D01*
X70767319Y-70928571D02*
X70719700Y-71071428D01*
X70719700Y-71071428D02*
X70624461Y-71166666D01*
X70624461Y-71166666D02*
X70529223Y-71214285D01*
X70529223Y-71214285D02*
X70338747Y-71261904D01*
X70338747Y-71261904D02*
X70195890Y-71261904D01*
X70195890Y-71261904D02*
X70005414Y-71214285D01*
X70005414Y-71214285D02*
X69910176Y-71166666D01*
X69910176Y-71166666D02*
X69814938Y-71071428D01*
X69814938Y-71071428D02*
X69767319Y-70928571D01*
X69767319Y-70928571D02*
X69767319Y-70833333D01*
X69767319Y-70833333D02*
X69814938Y-70690476D01*
X69814938Y-70690476D02*
X69862557Y-70642857D01*
X70767319Y-69690476D02*
X70767319Y-70261904D01*
X70767319Y-69976190D02*
X69767319Y-69976190D01*
X69767319Y-69976190D02*
X69910176Y-70071428D01*
X69910176Y-70071428D02*
X70005414Y-70166666D01*
X70005414Y-70166666D02*
X70053033Y-70261904D01*
X69862557Y-69309523D02*
X69814938Y-69261904D01*
X69814938Y-69261904D02*
X69767319Y-69166666D01*
X69767319Y-69166666D02*
X69767319Y-68928571D01*
X69767319Y-68928571D02*
X69814938Y-68833333D01*
X69814938Y-68833333D02*
X69862557Y-68785714D01*
X69862557Y-68785714D02*
X69957795Y-68738095D01*
X69957795Y-68738095D02*
X70053033Y-68738095D01*
X70053033Y-68738095D02*
X70195890Y-68785714D01*
X70195890Y-68785714D02*
X70767319Y-69357142D01*
X70767319Y-69357142D02*
X70767319Y-68738095D01*
X49249819Y-78853333D02*
X49964104Y-78853333D01*
X49964104Y-78853333D02*
X50106961Y-78900952D01*
X50106961Y-78900952D02*
X50202200Y-78996190D01*
X50202200Y-78996190D02*
X50249819Y-79139047D01*
X50249819Y-79139047D02*
X50249819Y-79234285D01*
X50249819Y-78377142D02*
X49249819Y-78377142D01*
X49249819Y-78377142D02*
X49249819Y-77996190D01*
X49249819Y-77996190D02*
X49297438Y-77900952D01*
X49297438Y-77900952D02*
X49345057Y-77853333D01*
X49345057Y-77853333D02*
X49440295Y-77805714D01*
X49440295Y-77805714D02*
X49583152Y-77805714D01*
X49583152Y-77805714D02*
X49678390Y-77853333D01*
X49678390Y-77853333D02*
X49726009Y-77900952D01*
X49726009Y-77900952D02*
X49773628Y-77996190D01*
X49773628Y-77996190D02*
X49773628Y-78377142D01*
X49345057Y-77424761D02*
X49297438Y-77377142D01*
X49297438Y-77377142D02*
X49249819Y-77281904D01*
X49249819Y-77281904D02*
X49249819Y-77043809D01*
X49249819Y-77043809D02*
X49297438Y-76948571D01*
X49297438Y-76948571D02*
X49345057Y-76900952D01*
X49345057Y-76900952D02*
X49440295Y-76853333D01*
X49440295Y-76853333D02*
X49535533Y-76853333D01*
X49535533Y-76853333D02*
X49678390Y-76900952D01*
X49678390Y-76900952D02*
X50249819Y-77472380D01*
X50249819Y-77472380D02*
X50249819Y-76853333D01*
X82047080Y-70642857D02*
X82094700Y-70690476D01*
X82094700Y-70690476D02*
X82142319Y-70833333D01*
X82142319Y-70833333D02*
X82142319Y-70928571D01*
X82142319Y-70928571D02*
X82094700Y-71071428D01*
X82094700Y-71071428D02*
X81999461Y-71166666D01*
X81999461Y-71166666D02*
X81904223Y-71214285D01*
X81904223Y-71214285D02*
X81713747Y-71261904D01*
X81713747Y-71261904D02*
X81570890Y-71261904D01*
X81570890Y-71261904D02*
X81380414Y-71214285D01*
X81380414Y-71214285D02*
X81285176Y-71166666D01*
X81285176Y-71166666D02*
X81189938Y-71071428D01*
X81189938Y-71071428D02*
X81142319Y-70928571D01*
X81142319Y-70928571D02*
X81142319Y-70833333D01*
X81142319Y-70833333D02*
X81189938Y-70690476D01*
X81189938Y-70690476D02*
X81237557Y-70642857D01*
X82142319Y-69690476D02*
X82142319Y-70261904D01*
X82142319Y-69976190D02*
X81142319Y-69976190D01*
X81142319Y-69976190D02*
X81285176Y-70071428D01*
X81285176Y-70071428D02*
X81380414Y-70166666D01*
X81380414Y-70166666D02*
X81428033Y-70261904D01*
X81142319Y-69357142D02*
X81142319Y-68738095D01*
X81142319Y-68738095D02*
X81523271Y-69071428D01*
X81523271Y-69071428D02*
X81523271Y-68928571D01*
X81523271Y-68928571D02*
X81570890Y-68833333D01*
X81570890Y-68833333D02*
X81618509Y-68785714D01*
X81618509Y-68785714D02*
X81713747Y-68738095D01*
X81713747Y-68738095D02*
X81951842Y-68738095D01*
X81951842Y-68738095D02*
X82047080Y-68785714D01*
X82047080Y-68785714D02*
X82094700Y-68833333D01*
X82094700Y-68833333D02*
X82142319Y-68928571D01*
X82142319Y-68928571D02*
X82142319Y-69214285D01*
X82142319Y-69214285D02*
X82094700Y-69309523D01*
X82094700Y-69309523D02*
X82047080Y-69357142D01*
X90954819Y-68761904D02*
X91764342Y-68761904D01*
X91764342Y-68761904D02*
X91859580Y-68714285D01*
X91859580Y-68714285D02*
X91907200Y-68666666D01*
X91907200Y-68666666D02*
X91954819Y-68571428D01*
X91954819Y-68571428D02*
X91954819Y-68380952D01*
X91954819Y-68380952D02*
X91907200Y-68285714D01*
X91907200Y-68285714D02*
X91859580Y-68238095D01*
X91859580Y-68238095D02*
X91764342Y-68190476D01*
X91764342Y-68190476D02*
X90954819Y-68190476D01*
X91050057Y-67761904D02*
X91002438Y-67714285D01*
X91002438Y-67714285D02*
X90954819Y-67619047D01*
X90954819Y-67619047D02*
X90954819Y-67380952D01*
X90954819Y-67380952D02*
X91002438Y-67285714D01*
X91002438Y-67285714D02*
X91050057Y-67238095D01*
X91050057Y-67238095D02*
X91145295Y-67190476D01*
X91145295Y-67190476D02*
X91240533Y-67190476D01*
X91240533Y-67190476D02*
X91383390Y-67238095D01*
X91383390Y-67238095D02*
X91954819Y-67809523D01*
X91954819Y-67809523D02*
X91954819Y-67190476D01*
X46204819Y-32833333D02*
X46919104Y-32833333D01*
X46919104Y-32833333D02*
X47061961Y-32880952D01*
X47061961Y-32880952D02*
X47157200Y-32976190D01*
X47157200Y-32976190D02*
X47204819Y-33119047D01*
X47204819Y-33119047D02*
X47204819Y-33214285D01*
X47204819Y-32357142D02*
X46204819Y-32357142D01*
X46204819Y-32357142D02*
X46204819Y-31976190D01*
X46204819Y-31976190D02*
X46252438Y-31880952D01*
X46252438Y-31880952D02*
X46300057Y-31833333D01*
X46300057Y-31833333D02*
X46395295Y-31785714D01*
X46395295Y-31785714D02*
X46538152Y-31785714D01*
X46538152Y-31785714D02*
X46633390Y-31833333D01*
X46633390Y-31833333D02*
X46681009Y-31880952D01*
X46681009Y-31880952D02*
X46728628Y-31976190D01*
X46728628Y-31976190D02*
X46728628Y-32357142D01*
X47204819Y-30833333D02*
X47204819Y-31404761D01*
X47204819Y-31119047D02*
X46204819Y-31119047D01*
X46204819Y-31119047D02*
X46347676Y-31214285D01*
X46347676Y-31214285D02*
X46442914Y-31309523D01*
X46442914Y-31309523D02*
X46490533Y-31404761D01*
X39454819Y-22142857D02*
X38978628Y-22476190D01*
X39454819Y-22714285D02*
X38454819Y-22714285D01*
X38454819Y-22714285D02*
X38454819Y-22333333D01*
X38454819Y-22333333D02*
X38502438Y-22238095D01*
X38502438Y-22238095D02*
X38550057Y-22190476D01*
X38550057Y-22190476D02*
X38645295Y-22142857D01*
X38645295Y-22142857D02*
X38788152Y-22142857D01*
X38788152Y-22142857D02*
X38883390Y-22190476D01*
X38883390Y-22190476D02*
X38931009Y-22238095D01*
X38931009Y-22238095D02*
X38978628Y-22333333D01*
X38978628Y-22333333D02*
X38978628Y-22714285D01*
X39454819Y-21190476D02*
X39454819Y-21761904D01*
X39454819Y-21476190D02*
X38454819Y-21476190D01*
X38454819Y-21476190D02*
X38597676Y-21571428D01*
X38597676Y-21571428D02*
X38692914Y-21666666D01*
X38692914Y-21666666D02*
X38740533Y-21761904D01*
X38454819Y-20571428D02*
X38454819Y-20476190D01*
X38454819Y-20476190D02*
X38502438Y-20380952D01*
X38502438Y-20380952D02*
X38550057Y-20333333D01*
X38550057Y-20333333D02*
X38645295Y-20285714D01*
X38645295Y-20285714D02*
X38835771Y-20238095D01*
X38835771Y-20238095D02*
X39073866Y-20238095D01*
X39073866Y-20238095D02*
X39264342Y-20285714D01*
X39264342Y-20285714D02*
X39359580Y-20333333D01*
X39359580Y-20333333D02*
X39407200Y-20380952D01*
X39407200Y-20380952D02*
X39454819Y-20476190D01*
X39454819Y-20476190D02*
X39454819Y-20571428D01*
X39454819Y-20571428D02*
X39407200Y-20666666D01*
X39407200Y-20666666D02*
X39359580Y-20714285D01*
X39359580Y-20714285D02*
X39264342Y-20761904D01*
X39264342Y-20761904D02*
X39073866Y-20809523D01*
X39073866Y-20809523D02*
X38835771Y-20809523D01*
X38835771Y-20809523D02*
X38645295Y-20761904D01*
X38645295Y-20761904D02*
X38550057Y-20714285D01*
X38550057Y-20714285D02*
X38502438Y-20666666D01*
X38502438Y-20666666D02*
X38454819Y-20571428D01*
X96109580Y-77416666D02*
X96157200Y-77464285D01*
X96157200Y-77464285D02*
X96204819Y-77607142D01*
X96204819Y-77607142D02*
X96204819Y-77702380D01*
X96204819Y-77702380D02*
X96157200Y-77845237D01*
X96157200Y-77845237D02*
X96061961Y-77940475D01*
X96061961Y-77940475D02*
X95966723Y-77988094D01*
X95966723Y-77988094D02*
X95776247Y-78035713D01*
X95776247Y-78035713D02*
X95633390Y-78035713D01*
X95633390Y-78035713D02*
X95442914Y-77988094D01*
X95442914Y-77988094D02*
X95347676Y-77940475D01*
X95347676Y-77940475D02*
X95252438Y-77845237D01*
X95252438Y-77845237D02*
X95204819Y-77702380D01*
X95204819Y-77702380D02*
X95204819Y-77607142D01*
X95204819Y-77607142D02*
X95252438Y-77464285D01*
X95252438Y-77464285D02*
X95300057Y-77416666D01*
X95681009Y-76654761D02*
X95728628Y-76511904D01*
X95728628Y-76511904D02*
X95776247Y-76464285D01*
X95776247Y-76464285D02*
X95871485Y-76416666D01*
X95871485Y-76416666D02*
X96014342Y-76416666D01*
X96014342Y-76416666D02*
X96109580Y-76464285D01*
X96109580Y-76464285D02*
X96157200Y-76511904D01*
X96157200Y-76511904D02*
X96204819Y-76607142D01*
X96204819Y-76607142D02*
X96204819Y-76988094D01*
X96204819Y-76988094D02*
X95204819Y-76988094D01*
X95204819Y-76988094D02*
X95204819Y-76654761D01*
X95204819Y-76654761D02*
X95252438Y-76559523D01*
X95252438Y-76559523D02*
X95300057Y-76511904D01*
X95300057Y-76511904D02*
X95395295Y-76464285D01*
X95395295Y-76464285D02*
X95490533Y-76464285D01*
X95490533Y-76464285D02*
X95585771Y-76511904D01*
X95585771Y-76511904D02*
X95633390Y-76559523D01*
X95633390Y-76559523D02*
X95681009Y-76654761D01*
X95681009Y-76654761D02*
X95681009Y-76988094D01*
X96204819Y-75464285D02*
X96204819Y-76035713D01*
X96204819Y-75749999D02*
X95204819Y-75749999D01*
X95204819Y-75749999D02*
X95347676Y-75845237D01*
X95347676Y-75845237D02*
X95442914Y-75940475D01*
X95442914Y-75940475D02*
X95490533Y-76035713D01*
X70767319Y-73642857D02*
X70291128Y-73976190D01*
X70767319Y-74214285D02*
X69767319Y-74214285D01*
X69767319Y-74214285D02*
X69767319Y-73833333D01*
X69767319Y-73833333D02*
X69814938Y-73738095D01*
X69814938Y-73738095D02*
X69862557Y-73690476D01*
X69862557Y-73690476D02*
X69957795Y-73642857D01*
X69957795Y-73642857D02*
X70100652Y-73642857D01*
X70100652Y-73642857D02*
X70195890Y-73690476D01*
X70195890Y-73690476D02*
X70243509Y-73738095D01*
X70243509Y-73738095D02*
X70291128Y-73833333D01*
X70291128Y-73833333D02*
X70291128Y-74214285D01*
X70767319Y-72690476D02*
X70767319Y-73261904D01*
X70767319Y-72976190D02*
X69767319Y-72976190D01*
X69767319Y-72976190D02*
X69910176Y-73071428D01*
X69910176Y-73071428D02*
X70005414Y-73166666D01*
X70005414Y-73166666D02*
X70053033Y-73261904D01*
X70195890Y-72119047D02*
X70148271Y-72214285D01*
X70148271Y-72214285D02*
X70100652Y-72261904D01*
X70100652Y-72261904D02*
X70005414Y-72309523D01*
X70005414Y-72309523D02*
X69957795Y-72309523D01*
X69957795Y-72309523D02*
X69862557Y-72261904D01*
X69862557Y-72261904D02*
X69814938Y-72214285D01*
X69814938Y-72214285D02*
X69767319Y-72119047D01*
X69767319Y-72119047D02*
X69767319Y-71928571D01*
X69767319Y-71928571D02*
X69814938Y-71833333D01*
X69814938Y-71833333D02*
X69862557Y-71785714D01*
X69862557Y-71785714D02*
X69957795Y-71738095D01*
X69957795Y-71738095D02*
X70005414Y-71738095D01*
X70005414Y-71738095D02*
X70100652Y-71785714D01*
X70100652Y-71785714D02*
X70148271Y-71833333D01*
X70148271Y-71833333D02*
X70195890Y-71928571D01*
X70195890Y-71928571D02*
X70195890Y-72119047D01*
X70195890Y-72119047D02*
X70243509Y-72214285D01*
X70243509Y-72214285D02*
X70291128Y-72261904D01*
X70291128Y-72261904D02*
X70386366Y-72309523D01*
X70386366Y-72309523D02*
X70576842Y-72309523D01*
X70576842Y-72309523D02*
X70672080Y-72261904D01*
X70672080Y-72261904D02*
X70719700Y-72214285D01*
X70719700Y-72214285D02*
X70767319Y-72119047D01*
X70767319Y-72119047D02*
X70767319Y-71928571D01*
X70767319Y-71928571D02*
X70719700Y-71833333D01*
X70719700Y-71833333D02*
X70672080Y-71785714D01*
X70672080Y-71785714D02*
X70576842Y-71738095D01*
X70576842Y-71738095D02*
X70386366Y-71738095D01*
X70386366Y-71738095D02*
X70291128Y-71785714D01*
X70291128Y-71785714D02*
X70243509Y-71833333D01*
X70243509Y-71833333D02*
X70195890Y-71928571D01*
X99109580Y-86416666D02*
X99157200Y-86464285D01*
X99157200Y-86464285D02*
X99204819Y-86607142D01*
X99204819Y-86607142D02*
X99204819Y-86702380D01*
X99204819Y-86702380D02*
X99157200Y-86845237D01*
X99157200Y-86845237D02*
X99061961Y-86940475D01*
X99061961Y-86940475D02*
X98966723Y-86988094D01*
X98966723Y-86988094D02*
X98776247Y-87035713D01*
X98776247Y-87035713D02*
X98633390Y-87035713D01*
X98633390Y-87035713D02*
X98442914Y-86988094D01*
X98442914Y-86988094D02*
X98347676Y-86940475D01*
X98347676Y-86940475D02*
X98252438Y-86845237D01*
X98252438Y-86845237D02*
X98204819Y-86702380D01*
X98204819Y-86702380D02*
X98204819Y-86607142D01*
X98204819Y-86607142D02*
X98252438Y-86464285D01*
X98252438Y-86464285D02*
X98300057Y-86416666D01*
X99204819Y-85464285D02*
X99204819Y-86035713D01*
X99204819Y-85749999D02*
X98204819Y-85749999D01*
X98204819Y-85749999D02*
X98347676Y-85845237D01*
X98347676Y-85845237D02*
X98442914Y-85940475D01*
X98442914Y-85940475D02*
X98490533Y-86035713D01*
X24333333Y-48417319D02*
X24000000Y-47941128D01*
X23761905Y-48417319D02*
X23761905Y-47417319D01*
X23761905Y-47417319D02*
X24142857Y-47417319D01*
X24142857Y-47417319D02*
X24238095Y-47464938D01*
X24238095Y-47464938D02*
X24285714Y-47512557D01*
X24285714Y-47512557D02*
X24333333Y-47607795D01*
X24333333Y-47607795D02*
X24333333Y-47750652D01*
X24333333Y-47750652D02*
X24285714Y-47845890D01*
X24285714Y-47845890D02*
X24238095Y-47893509D01*
X24238095Y-47893509D02*
X24142857Y-47941128D01*
X24142857Y-47941128D02*
X23761905Y-47941128D01*
X24904762Y-47845890D02*
X24809524Y-47798271D01*
X24809524Y-47798271D02*
X24761905Y-47750652D01*
X24761905Y-47750652D02*
X24714286Y-47655414D01*
X24714286Y-47655414D02*
X24714286Y-47607795D01*
X24714286Y-47607795D02*
X24761905Y-47512557D01*
X24761905Y-47512557D02*
X24809524Y-47464938D01*
X24809524Y-47464938D02*
X24904762Y-47417319D01*
X24904762Y-47417319D02*
X25095238Y-47417319D01*
X25095238Y-47417319D02*
X25190476Y-47464938D01*
X25190476Y-47464938D02*
X25238095Y-47512557D01*
X25238095Y-47512557D02*
X25285714Y-47607795D01*
X25285714Y-47607795D02*
X25285714Y-47655414D01*
X25285714Y-47655414D02*
X25238095Y-47750652D01*
X25238095Y-47750652D02*
X25190476Y-47798271D01*
X25190476Y-47798271D02*
X25095238Y-47845890D01*
X25095238Y-47845890D02*
X24904762Y-47845890D01*
X24904762Y-47845890D02*
X24809524Y-47893509D01*
X24809524Y-47893509D02*
X24761905Y-47941128D01*
X24761905Y-47941128D02*
X24714286Y-48036366D01*
X24714286Y-48036366D02*
X24714286Y-48226842D01*
X24714286Y-48226842D02*
X24761905Y-48322080D01*
X24761905Y-48322080D02*
X24809524Y-48369700D01*
X24809524Y-48369700D02*
X24904762Y-48417319D01*
X24904762Y-48417319D02*
X25095238Y-48417319D01*
X25095238Y-48417319D02*
X25190476Y-48369700D01*
X25190476Y-48369700D02*
X25238095Y-48322080D01*
X25238095Y-48322080D02*
X25285714Y-48226842D01*
X25285714Y-48226842D02*
X25285714Y-48036366D01*
X25285714Y-48036366D02*
X25238095Y-47941128D01*
X25238095Y-47941128D02*
X25190476Y-47893509D01*
X25190476Y-47893509D02*
X25095238Y-47845890D01*
X56261905Y-45454819D02*
X56261905Y-46264342D01*
X56261905Y-46264342D02*
X56309524Y-46359580D01*
X56309524Y-46359580D02*
X56357143Y-46407200D01*
X56357143Y-46407200D02*
X56452381Y-46454819D01*
X56452381Y-46454819D02*
X56642857Y-46454819D01*
X56642857Y-46454819D02*
X56738095Y-46407200D01*
X56738095Y-46407200D02*
X56785714Y-46359580D01*
X56785714Y-46359580D02*
X56833333Y-46264342D01*
X56833333Y-46264342D02*
X56833333Y-45454819D01*
X57833333Y-46454819D02*
X57261905Y-46454819D01*
X57547619Y-46454819D02*
X57547619Y-45454819D01*
X57547619Y-45454819D02*
X57452381Y-45597676D01*
X57452381Y-45597676D02*
X57357143Y-45692914D01*
X57357143Y-45692914D02*
X57261905Y-45740533D01*
X58404762Y-45883390D02*
X58309524Y-45835771D01*
X58309524Y-45835771D02*
X58261905Y-45788152D01*
X58261905Y-45788152D02*
X58214286Y-45692914D01*
X58214286Y-45692914D02*
X58214286Y-45645295D01*
X58214286Y-45645295D02*
X58261905Y-45550057D01*
X58261905Y-45550057D02*
X58309524Y-45502438D01*
X58309524Y-45502438D02*
X58404762Y-45454819D01*
X58404762Y-45454819D02*
X58595238Y-45454819D01*
X58595238Y-45454819D02*
X58690476Y-45502438D01*
X58690476Y-45502438D02*
X58738095Y-45550057D01*
X58738095Y-45550057D02*
X58785714Y-45645295D01*
X58785714Y-45645295D02*
X58785714Y-45692914D01*
X58785714Y-45692914D02*
X58738095Y-45788152D01*
X58738095Y-45788152D02*
X58690476Y-45835771D01*
X58690476Y-45835771D02*
X58595238Y-45883390D01*
X58595238Y-45883390D02*
X58404762Y-45883390D01*
X58404762Y-45883390D02*
X58309524Y-45931009D01*
X58309524Y-45931009D02*
X58261905Y-45978628D01*
X58261905Y-45978628D02*
X58214286Y-46073866D01*
X58214286Y-46073866D02*
X58214286Y-46264342D01*
X58214286Y-46264342D02*
X58261905Y-46359580D01*
X58261905Y-46359580D02*
X58309524Y-46407200D01*
X58309524Y-46407200D02*
X58404762Y-46454819D01*
X58404762Y-46454819D02*
X58595238Y-46454819D01*
X58595238Y-46454819D02*
X58690476Y-46407200D01*
X58690476Y-46407200D02*
X58738095Y-46359580D01*
X58738095Y-46359580D02*
X58785714Y-46264342D01*
X58785714Y-46264342D02*
X58785714Y-46073866D01*
X58785714Y-46073866D02*
X58738095Y-45978628D01*
X58738095Y-45978628D02*
X58690476Y-45931009D01*
X58690476Y-45931009D02*
X58595238Y-45883390D01*
X26758333Y-48379819D02*
X26425000Y-47903628D01*
X26186905Y-48379819D02*
X26186905Y-47379819D01*
X26186905Y-47379819D02*
X26567857Y-47379819D01*
X26567857Y-47379819D02*
X26663095Y-47427438D01*
X26663095Y-47427438D02*
X26710714Y-47475057D01*
X26710714Y-47475057D02*
X26758333Y-47570295D01*
X26758333Y-47570295D02*
X26758333Y-47713152D01*
X26758333Y-47713152D02*
X26710714Y-47808390D01*
X26710714Y-47808390D02*
X26663095Y-47856009D01*
X26663095Y-47856009D02*
X26567857Y-47903628D01*
X26567857Y-47903628D02*
X26186905Y-47903628D01*
X27710714Y-48379819D02*
X27139286Y-48379819D01*
X27425000Y-48379819D02*
X27425000Y-47379819D01*
X27425000Y-47379819D02*
X27329762Y-47522676D01*
X27329762Y-47522676D02*
X27234524Y-47617914D01*
X27234524Y-47617914D02*
X27139286Y-47665533D01*
X43357142Y-91454819D02*
X43023809Y-90978628D01*
X42785714Y-91454819D02*
X42785714Y-90454819D01*
X42785714Y-90454819D02*
X43166666Y-90454819D01*
X43166666Y-90454819D02*
X43261904Y-90502438D01*
X43261904Y-90502438D02*
X43309523Y-90550057D01*
X43309523Y-90550057D02*
X43357142Y-90645295D01*
X43357142Y-90645295D02*
X43357142Y-90788152D01*
X43357142Y-90788152D02*
X43309523Y-90883390D01*
X43309523Y-90883390D02*
X43261904Y-90931009D01*
X43261904Y-90931009D02*
X43166666Y-90978628D01*
X43166666Y-90978628D02*
X42785714Y-90978628D01*
X44309523Y-91454819D02*
X43738095Y-91454819D01*
X44023809Y-91454819D02*
X44023809Y-90454819D01*
X44023809Y-90454819D02*
X43928571Y-90597676D01*
X43928571Y-90597676D02*
X43833333Y-90692914D01*
X43833333Y-90692914D02*
X43738095Y-90740533D01*
X45214285Y-90454819D02*
X44738095Y-90454819D01*
X44738095Y-90454819D02*
X44690476Y-90931009D01*
X44690476Y-90931009D02*
X44738095Y-90883390D01*
X44738095Y-90883390D02*
X44833333Y-90835771D01*
X44833333Y-90835771D02*
X45071428Y-90835771D01*
X45071428Y-90835771D02*
X45166666Y-90883390D01*
X45166666Y-90883390D02*
X45214285Y-90931009D01*
X45214285Y-90931009D02*
X45261904Y-91026247D01*
X45261904Y-91026247D02*
X45261904Y-91264342D01*
X45261904Y-91264342D02*
X45214285Y-91359580D01*
X45214285Y-91359580D02*
X45166666Y-91407200D01*
X45166666Y-91407200D02*
X45071428Y-91454819D01*
X45071428Y-91454819D02*
X44833333Y-91454819D01*
X44833333Y-91454819D02*
X44738095Y-91407200D01*
X44738095Y-91407200D02*
X44690476Y-91359580D01*
X29454819Y-88892857D02*
X28978628Y-89226190D01*
X29454819Y-89464285D02*
X28454819Y-89464285D01*
X28454819Y-89464285D02*
X28454819Y-89083333D01*
X28454819Y-89083333D02*
X28502438Y-88988095D01*
X28502438Y-88988095D02*
X28550057Y-88940476D01*
X28550057Y-88940476D02*
X28645295Y-88892857D01*
X28645295Y-88892857D02*
X28788152Y-88892857D01*
X28788152Y-88892857D02*
X28883390Y-88940476D01*
X28883390Y-88940476D02*
X28931009Y-88988095D01*
X28931009Y-88988095D02*
X28978628Y-89083333D01*
X28978628Y-89083333D02*
X28978628Y-89464285D01*
X29454819Y-87940476D02*
X29454819Y-88511904D01*
X29454819Y-88226190D02*
X28454819Y-88226190D01*
X28454819Y-88226190D02*
X28597676Y-88321428D01*
X28597676Y-88321428D02*
X28692914Y-88416666D01*
X28692914Y-88416666D02*
X28740533Y-88511904D01*
X28788152Y-87083333D02*
X29454819Y-87083333D01*
X28407200Y-87321428D02*
X29121485Y-87559523D01*
X29121485Y-87559523D02*
X29121485Y-86940476D01*
X60454819Y-39911904D02*
X61264342Y-39911904D01*
X61264342Y-39911904D02*
X61359580Y-39864285D01*
X61359580Y-39864285D02*
X61407200Y-39816666D01*
X61407200Y-39816666D02*
X61454819Y-39721428D01*
X61454819Y-39721428D02*
X61454819Y-39530952D01*
X61454819Y-39530952D02*
X61407200Y-39435714D01*
X61407200Y-39435714D02*
X61359580Y-39388095D01*
X61359580Y-39388095D02*
X61264342Y-39340476D01*
X61264342Y-39340476D02*
X60454819Y-39340476D01*
X60454819Y-38388095D02*
X60454819Y-38864285D01*
X60454819Y-38864285D02*
X60931009Y-38911904D01*
X60931009Y-38911904D02*
X60883390Y-38864285D01*
X60883390Y-38864285D02*
X60835771Y-38769047D01*
X60835771Y-38769047D02*
X60835771Y-38530952D01*
X60835771Y-38530952D02*
X60883390Y-38435714D01*
X60883390Y-38435714D02*
X60931009Y-38388095D01*
X60931009Y-38388095D02*
X61026247Y-38340476D01*
X61026247Y-38340476D02*
X61264342Y-38340476D01*
X61264342Y-38340476D02*
X61359580Y-38388095D01*
X61359580Y-38388095D02*
X61407200Y-38435714D01*
X61407200Y-38435714D02*
X61454819Y-38530952D01*
X61454819Y-38530952D02*
X61454819Y-38769047D01*
X61454819Y-38769047D02*
X61407200Y-38864285D01*
X61407200Y-38864285D02*
X61359580Y-38911904D01*
X88359580Y-85166666D02*
X88407200Y-85214285D01*
X88407200Y-85214285D02*
X88454819Y-85357142D01*
X88454819Y-85357142D02*
X88454819Y-85452380D01*
X88454819Y-85452380D02*
X88407200Y-85595237D01*
X88407200Y-85595237D02*
X88311961Y-85690475D01*
X88311961Y-85690475D02*
X88216723Y-85738094D01*
X88216723Y-85738094D02*
X88026247Y-85785713D01*
X88026247Y-85785713D02*
X87883390Y-85785713D01*
X87883390Y-85785713D02*
X87692914Y-85738094D01*
X87692914Y-85738094D02*
X87597676Y-85690475D01*
X87597676Y-85690475D02*
X87502438Y-85595237D01*
X87502438Y-85595237D02*
X87454819Y-85452380D01*
X87454819Y-85452380D02*
X87454819Y-85357142D01*
X87454819Y-85357142D02*
X87502438Y-85214285D01*
X87502438Y-85214285D02*
X87550057Y-85166666D01*
X87454819Y-84833332D02*
X87454819Y-84214285D01*
X87454819Y-84214285D02*
X87835771Y-84547618D01*
X87835771Y-84547618D02*
X87835771Y-84404761D01*
X87835771Y-84404761D02*
X87883390Y-84309523D01*
X87883390Y-84309523D02*
X87931009Y-84261904D01*
X87931009Y-84261904D02*
X88026247Y-84214285D01*
X88026247Y-84214285D02*
X88264342Y-84214285D01*
X88264342Y-84214285D02*
X88359580Y-84261904D01*
X88359580Y-84261904D02*
X88407200Y-84309523D01*
X88407200Y-84309523D02*
X88454819Y-84404761D01*
X88454819Y-84404761D02*
X88454819Y-84690475D01*
X88454819Y-84690475D02*
X88407200Y-84785713D01*
X88407200Y-84785713D02*
X88359580Y-84833332D01*
X79132142Y-35604819D02*
X78798809Y-35128628D01*
X78560714Y-35604819D02*
X78560714Y-34604819D01*
X78560714Y-34604819D02*
X78941666Y-34604819D01*
X78941666Y-34604819D02*
X79036904Y-34652438D01*
X79036904Y-34652438D02*
X79084523Y-34700057D01*
X79084523Y-34700057D02*
X79132142Y-34795295D01*
X79132142Y-34795295D02*
X79132142Y-34938152D01*
X79132142Y-34938152D02*
X79084523Y-35033390D01*
X79084523Y-35033390D02*
X79036904Y-35081009D01*
X79036904Y-35081009D02*
X78941666Y-35128628D01*
X78941666Y-35128628D02*
X78560714Y-35128628D01*
X80084523Y-35604819D02*
X79513095Y-35604819D01*
X79798809Y-35604819D02*
X79798809Y-34604819D01*
X79798809Y-34604819D02*
X79703571Y-34747676D01*
X79703571Y-34747676D02*
X79608333Y-34842914D01*
X79608333Y-34842914D02*
X79513095Y-34890533D01*
X80941666Y-34604819D02*
X80751190Y-34604819D01*
X80751190Y-34604819D02*
X80655952Y-34652438D01*
X80655952Y-34652438D02*
X80608333Y-34700057D01*
X80608333Y-34700057D02*
X80513095Y-34842914D01*
X80513095Y-34842914D02*
X80465476Y-35033390D01*
X80465476Y-35033390D02*
X80465476Y-35414342D01*
X80465476Y-35414342D02*
X80513095Y-35509580D01*
X80513095Y-35509580D02*
X80560714Y-35557200D01*
X80560714Y-35557200D02*
X80655952Y-35604819D01*
X80655952Y-35604819D02*
X80846428Y-35604819D01*
X80846428Y-35604819D02*
X80941666Y-35557200D01*
X80941666Y-35557200D02*
X80989285Y-35509580D01*
X80989285Y-35509580D02*
X81036904Y-35414342D01*
X81036904Y-35414342D02*
X81036904Y-35176247D01*
X81036904Y-35176247D02*
X80989285Y-35081009D01*
X80989285Y-35081009D02*
X80941666Y-35033390D01*
X80941666Y-35033390D02*
X80846428Y-34985771D01*
X80846428Y-34985771D02*
X80655952Y-34985771D01*
X80655952Y-34985771D02*
X80560714Y-35033390D01*
X80560714Y-35033390D02*
X80513095Y-35081009D01*
X80513095Y-35081009D02*
X80465476Y-35176247D01*
X90333333Y-93704819D02*
X89857143Y-93704819D01*
X89857143Y-93704819D02*
X89857143Y-92704819D01*
X91190476Y-93704819D02*
X90619048Y-93704819D01*
X90904762Y-93704819D02*
X90904762Y-92704819D01*
X90904762Y-92704819D02*
X90809524Y-92847676D01*
X90809524Y-92847676D02*
X90714286Y-92942914D01*
X90714286Y-92942914D02*
X90619048Y-92990533D01*
X58654819Y-80988094D02*
X59464342Y-80988094D01*
X59464342Y-80988094D02*
X59559580Y-80940475D01*
X59559580Y-80940475D02*
X59607200Y-80892856D01*
X59607200Y-80892856D02*
X59654819Y-80797618D01*
X59654819Y-80797618D02*
X59654819Y-80607142D01*
X59654819Y-80607142D02*
X59607200Y-80511904D01*
X59607200Y-80511904D02*
X59559580Y-80464285D01*
X59559580Y-80464285D02*
X59464342Y-80416666D01*
X59464342Y-80416666D02*
X58654819Y-80416666D01*
X59654819Y-79416666D02*
X59654819Y-79988094D01*
X59654819Y-79702380D02*
X58654819Y-79702380D01*
X58654819Y-79702380D02*
X58797676Y-79797618D01*
X58797676Y-79797618D02*
X58892914Y-79892856D01*
X58892914Y-79892856D02*
X58940533Y-79988094D01*
X59654819Y-78940475D02*
X59654819Y-78749999D01*
X59654819Y-78749999D02*
X59607200Y-78654761D01*
X59607200Y-78654761D02*
X59559580Y-78607142D01*
X59559580Y-78607142D02*
X59416723Y-78511904D01*
X59416723Y-78511904D02*
X59226247Y-78464285D01*
X59226247Y-78464285D02*
X58845295Y-78464285D01*
X58845295Y-78464285D02*
X58750057Y-78511904D01*
X58750057Y-78511904D02*
X58702438Y-78559523D01*
X58702438Y-78559523D02*
X58654819Y-78654761D01*
X58654819Y-78654761D02*
X58654819Y-78845237D01*
X58654819Y-78845237D02*
X58702438Y-78940475D01*
X58702438Y-78940475D02*
X58750057Y-78988094D01*
X58750057Y-78988094D02*
X58845295Y-79035713D01*
X58845295Y-79035713D02*
X59083390Y-79035713D01*
X59083390Y-79035713D02*
X59178628Y-78988094D01*
X59178628Y-78988094D02*
X59226247Y-78940475D01*
X59226247Y-78940475D02*
X59273866Y-78845237D01*
X59273866Y-78845237D02*
X59273866Y-78654761D01*
X59273866Y-78654761D02*
X59226247Y-78559523D01*
X59226247Y-78559523D02*
X59178628Y-78511904D01*
X59178628Y-78511904D02*
X59083390Y-78464285D01*
X101204819Y-86738094D02*
X100204819Y-86738094D01*
X100204819Y-86738094D02*
X100204819Y-86499999D01*
X100204819Y-86499999D02*
X100252438Y-86357142D01*
X100252438Y-86357142D02*
X100347676Y-86261904D01*
X100347676Y-86261904D02*
X100442914Y-86214285D01*
X100442914Y-86214285D02*
X100633390Y-86166666D01*
X100633390Y-86166666D02*
X100776247Y-86166666D01*
X100776247Y-86166666D02*
X100966723Y-86214285D01*
X100966723Y-86214285D02*
X101061961Y-86261904D01*
X101061961Y-86261904D02*
X101157200Y-86357142D01*
X101157200Y-86357142D02*
X101204819Y-86499999D01*
X101204819Y-86499999D02*
X101204819Y-86738094D01*
X100204819Y-85309523D02*
X100204819Y-85499999D01*
X100204819Y-85499999D02*
X100252438Y-85595237D01*
X100252438Y-85595237D02*
X100300057Y-85642856D01*
X100300057Y-85642856D02*
X100442914Y-85738094D01*
X100442914Y-85738094D02*
X100633390Y-85785713D01*
X100633390Y-85785713D02*
X101014342Y-85785713D01*
X101014342Y-85785713D02*
X101109580Y-85738094D01*
X101109580Y-85738094D02*
X101157200Y-85690475D01*
X101157200Y-85690475D02*
X101204819Y-85595237D01*
X101204819Y-85595237D02*
X101204819Y-85404761D01*
X101204819Y-85404761D02*
X101157200Y-85309523D01*
X101157200Y-85309523D02*
X101109580Y-85261904D01*
X101109580Y-85261904D02*
X101014342Y-85214285D01*
X101014342Y-85214285D02*
X100776247Y-85214285D01*
X100776247Y-85214285D02*
X100681009Y-85261904D01*
X100681009Y-85261904D02*
X100633390Y-85309523D01*
X100633390Y-85309523D02*
X100585771Y-85404761D01*
X100585771Y-85404761D02*
X100585771Y-85595237D01*
X100585771Y-85595237D02*
X100633390Y-85690475D01*
X100633390Y-85690475D02*
X100681009Y-85738094D01*
X100681009Y-85738094D02*
X100776247Y-85785713D01*
X62369819Y-85738094D02*
X63179342Y-85738094D01*
X63179342Y-85738094D02*
X63274580Y-85690475D01*
X63274580Y-85690475D02*
X63322200Y-85642856D01*
X63322200Y-85642856D02*
X63369819Y-85547618D01*
X63369819Y-85547618D02*
X63369819Y-85357142D01*
X63369819Y-85357142D02*
X63322200Y-85261904D01*
X63322200Y-85261904D02*
X63274580Y-85214285D01*
X63274580Y-85214285D02*
X63179342Y-85166666D01*
X63179342Y-85166666D02*
X62369819Y-85166666D01*
X63369819Y-84166666D02*
X63369819Y-84738094D01*
X63369819Y-84452380D02*
X62369819Y-84452380D01*
X62369819Y-84452380D02*
X62512676Y-84547618D01*
X62512676Y-84547618D02*
X62607914Y-84642856D01*
X62607914Y-84642856D02*
X62655533Y-84738094D01*
X62369819Y-83309523D02*
X62369819Y-83499999D01*
X62369819Y-83499999D02*
X62417438Y-83595237D01*
X62417438Y-83595237D02*
X62465057Y-83642856D01*
X62465057Y-83642856D02*
X62607914Y-83738094D01*
X62607914Y-83738094D02*
X62798390Y-83785713D01*
X62798390Y-83785713D02*
X63179342Y-83785713D01*
X63179342Y-83785713D02*
X63274580Y-83738094D01*
X63274580Y-83738094D02*
X63322200Y-83690475D01*
X63322200Y-83690475D02*
X63369819Y-83595237D01*
X63369819Y-83595237D02*
X63369819Y-83404761D01*
X63369819Y-83404761D02*
X63322200Y-83309523D01*
X63322200Y-83309523D02*
X63274580Y-83261904D01*
X63274580Y-83261904D02*
X63179342Y-83214285D01*
X63179342Y-83214285D02*
X62941247Y-83214285D01*
X62941247Y-83214285D02*
X62846009Y-83261904D01*
X62846009Y-83261904D02*
X62798390Y-83309523D01*
X62798390Y-83309523D02*
X62750771Y-83404761D01*
X62750771Y-83404761D02*
X62750771Y-83595237D01*
X62750771Y-83595237D02*
X62798390Y-83690475D01*
X62798390Y-83690475D02*
X62846009Y-83738094D01*
X62846009Y-83738094D02*
X62941247Y-83785713D01*
X29404819Y-24842857D02*
X28928628Y-25176190D01*
X29404819Y-25414285D02*
X28404819Y-25414285D01*
X28404819Y-25414285D02*
X28404819Y-25033333D01*
X28404819Y-25033333D02*
X28452438Y-24938095D01*
X28452438Y-24938095D02*
X28500057Y-24890476D01*
X28500057Y-24890476D02*
X28595295Y-24842857D01*
X28595295Y-24842857D02*
X28738152Y-24842857D01*
X28738152Y-24842857D02*
X28833390Y-24890476D01*
X28833390Y-24890476D02*
X28881009Y-24938095D01*
X28881009Y-24938095D02*
X28928628Y-25033333D01*
X28928628Y-25033333D02*
X28928628Y-25414285D01*
X29404819Y-23890476D02*
X29404819Y-24461904D01*
X29404819Y-24176190D02*
X28404819Y-24176190D01*
X28404819Y-24176190D02*
X28547676Y-24271428D01*
X28547676Y-24271428D02*
X28642914Y-24366666D01*
X28642914Y-24366666D02*
X28690533Y-24461904D01*
X29404819Y-22938095D02*
X29404819Y-23509523D01*
X29404819Y-23223809D02*
X28404819Y-23223809D01*
X28404819Y-23223809D02*
X28547676Y-23319047D01*
X28547676Y-23319047D02*
X28642914Y-23414285D01*
X28642914Y-23414285D02*
X28690533Y-23509523D01*
X55511905Y-29104819D02*
X55511905Y-28104819D01*
X55511905Y-28104819D02*
X55750000Y-28104819D01*
X55750000Y-28104819D02*
X55892857Y-28152438D01*
X55892857Y-28152438D02*
X55988095Y-28247676D01*
X55988095Y-28247676D02*
X56035714Y-28342914D01*
X56035714Y-28342914D02*
X56083333Y-28533390D01*
X56083333Y-28533390D02*
X56083333Y-28676247D01*
X56083333Y-28676247D02*
X56035714Y-28866723D01*
X56035714Y-28866723D02*
X55988095Y-28961961D01*
X55988095Y-28961961D02*
X55892857Y-29057200D01*
X55892857Y-29057200D02*
X55750000Y-29104819D01*
X55750000Y-29104819D02*
X55511905Y-29104819D01*
X56559524Y-29104819D02*
X56750000Y-29104819D01*
X56750000Y-29104819D02*
X56845238Y-29057200D01*
X56845238Y-29057200D02*
X56892857Y-29009580D01*
X56892857Y-29009580D02*
X56988095Y-28866723D01*
X56988095Y-28866723D02*
X57035714Y-28676247D01*
X57035714Y-28676247D02*
X57035714Y-28295295D01*
X57035714Y-28295295D02*
X56988095Y-28200057D01*
X56988095Y-28200057D02*
X56940476Y-28152438D01*
X56940476Y-28152438D02*
X56845238Y-28104819D01*
X56845238Y-28104819D02*
X56654762Y-28104819D01*
X56654762Y-28104819D02*
X56559524Y-28152438D01*
X56559524Y-28152438D02*
X56511905Y-28200057D01*
X56511905Y-28200057D02*
X56464286Y-28295295D01*
X56464286Y-28295295D02*
X56464286Y-28533390D01*
X56464286Y-28533390D02*
X56511905Y-28628628D01*
X56511905Y-28628628D02*
X56559524Y-28676247D01*
X56559524Y-28676247D02*
X56654762Y-28723866D01*
X56654762Y-28723866D02*
X56845238Y-28723866D01*
X56845238Y-28723866D02*
X56940476Y-28676247D01*
X56940476Y-28676247D02*
X56988095Y-28628628D01*
X56988095Y-28628628D02*
X57035714Y-28533390D01*
X56444642Y-33154819D02*
X56111309Y-32678628D01*
X55873214Y-33154819D02*
X55873214Y-32154819D01*
X55873214Y-32154819D02*
X56254166Y-32154819D01*
X56254166Y-32154819D02*
X56349404Y-32202438D01*
X56349404Y-32202438D02*
X56397023Y-32250057D01*
X56397023Y-32250057D02*
X56444642Y-32345295D01*
X56444642Y-32345295D02*
X56444642Y-32488152D01*
X56444642Y-32488152D02*
X56397023Y-32583390D01*
X56397023Y-32583390D02*
X56349404Y-32631009D01*
X56349404Y-32631009D02*
X56254166Y-32678628D01*
X56254166Y-32678628D02*
X55873214Y-32678628D01*
X57397023Y-33154819D02*
X56825595Y-33154819D01*
X57111309Y-33154819D02*
X57111309Y-32154819D01*
X57111309Y-32154819D02*
X57016071Y-32297676D01*
X57016071Y-32297676D02*
X56920833Y-32392914D01*
X56920833Y-32392914D02*
X56825595Y-32440533D01*
X57873214Y-33154819D02*
X58063690Y-33154819D01*
X58063690Y-33154819D02*
X58158928Y-33107200D01*
X58158928Y-33107200D02*
X58206547Y-33059580D01*
X58206547Y-33059580D02*
X58301785Y-32916723D01*
X58301785Y-32916723D02*
X58349404Y-32726247D01*
X58349404Y-32726247D02*
X58349404Y-32345295D01*
X58349404Y-32345295D02*
X58301785Y-32250057D01*
X58301785Y-32250057D02*
X58254166Y-32202438D01*
X58254166Y-32202438D02*
X58158928Y-32154819D01*
X58158928Y-32154819D02*
X57968452Y-32154819D01*
X57968452Y-32154819D02*
X57873214Y-32202438D01*
X57873214Y-32202438D02*
X57825595Y-32250057D01*
X57825595Y-32250057D02*
X57777976Y-32345295D01*
X57777976Y-32345295D02*
X57777976Y-32583390D01*
X57777976Y-32583390D02*
X57825595Y-32678628D01*
X57825595Y-32678628D02*
X57873214Y-32726247D01*
X57873214Y-32726247D02*
X57968452Y-32773866D01*
X57968452Y-32773866D02*
X58158928Y-32773866D01*
X58158928Y-32773866D02*
X58254166Y-32726247D01*
X58254166Y-32726247D02*
X58301785Y-32678628D01*
X58301785Y-32678628D02*
X58349404Y-32583390D01*
X41050057Y-40595238D02*
X41002438Y-40690476D01*
X41002438Y-40690476D02*
X40907200Y-40785714D01*
X40907200Y-40785714D02*
X40764342Y-40928571D01*
X40764342Y-40928571D02*
X40716723Y-41023809D01*
X40716723Y-41023809D02*
X40716723Y-41119047D01*
X40954819Y-41071428D02*
X40907200Y-41166666D01*
X40907200Y-41166666D02*
X40811961Y-41261904D01*
X40811961Y-41261904D02*
X40621485Y-41309523D01*
X40621485Y-41309523D02*
X40288152Y-41309523D01*
X40288152Y-41309523D02*
X40097676Y-41261904D01*
X40097676Y-41261904D02*
X40002438Y-41166666D01*
X40002438Y-41166666D02*
X39954819Y-41071428D01*
X39954819Y-41071428D02*
X39954819Y-40880952D01*
X39954819Y-40880952D02*
X40002438Y-40785714D01*
X40002438Y-40785714D02*
X40097676Y-40690476D01*
X40097676Y-40690476D02*
X40288152Y-40642857D01*
X40288152Y-40642857D02*
X40621485Y-40642857D01*
X40621485Y-40642857D02*
X40811961Y-40690476D01*
X40811961Y-40690476D02*
X40907200Y-40785714D01*
X40907200Y-40785714D02*
X40954819Y-40880952D01*
X40954819Y-40880952D02*
X40954819Y-41071428D01*
X40954819Y-39690476D02*
X40954819Y-40261904D01*
X40954819Y-39976190D02*
X39954819Y-39976190D01*
X39954819Y-39976190D02*
X40097676Y-40071428D01*
X40097676Y-40071428D02*
X40192914Y-40166666D01*
X40192914Y-40166666D02*
X40240533Y-40261904D01*
X88357142Y-29609580D02*
X88309523Y-29657200D01*
X88309523Y-29657200D02*
X88166666Y-29704819D01*
X88166666Y-29704819D02*
X88071428Y-29704819D01*
X88071428Y-29704819D02*
X87928571Y-29657200D01*
X87928571Y-29657200D02*
X87833333Y-29561961D01*
X87833333Y-29561961D02*
X87785714Y-29466723D01*
X87785714Y-29466723D02*
X87738095Y-29276247D01*
X87738095Y-29276247D02*
X87738095Y-29133390D01*
X87738095Y-29133390D02*
X87785714Y-28942914D01*
X87785714Y-28942914D02*
X87833333Y-28847676D01*
X87833333Y-28847676D02*
X87928571Y-28752438D01*
X87928571Y-28752438D02*
X88071428Y-28704819D01*
X88071428Y-28704819D02*
X88166666Y-28704819D01*
X88166666Y-28704819D02*
X88309523Y-28752438D01*
X88309523Y-28752438D02*
X88357142Y-28800057D01*
X89309523Y-29704819D02*
X88738095Y-29704819D01*
X89023809Y-29704819D02*
X89023809Y-28704819D01*
X89023809Y-28704819D02*
X88928571Y-28847676D01*
X88928571Y-28847676D02*
X88833333Y-28942914D01*
X88833333Y-28942914D02*
X88738095Y-28990533D01*
X90166666Y-29038152D02*
X90166666Y-29704819D01*
X89928571Y-28657200D02*
X89690476Y-29371485D01*
X89690476Y-29371485D02*
X90309523Y-29371485D01*
X27333333Y-49859580D02*
X27285714Y-49907200D01*
X27285714Y-49907200D02*
X27142857Y-49954819D01*
X27142857Y-49954819D02*
X27047619Y-49954819D01*
X27047619Y-49954819D02*
X26904762Y-49907200D01*
X26904762Y-49907200D02*
X26809524Y-49811961D01*
X26809524Y-49811961D02*
X26761905Y-49716723D01*
X26761905Y-49716723D02*
X26714286Y-49526247D01*
X26714286Y-49526247D02*
X26714286Y-49383390D01*
X26714286Y-49383390D02*
X26761905Y-49192914D01*
X26761905Y-49192914D02*
X26809524Y-49097676D01*
X26809524Y-49097676D02*
X26904762Y-49002438D01*
X26904762Y-49002438D02*
X27047619Y-48954819D01*
X27047619Y-48954819D02*
X27142857Y-48954819D01*
X27142857Y-48954819D02*
X27285714Y-49002438D01*
X27285714Y-49002438D02*
X27333333Y-49050057D01*
X28190476Y-48954819D02*
X28000000Y-48954819D01*
X28000000Y-48954819D02*
X27904762Y-49002438D01*
X27904762Y-49002438D02*
X27857143Y-49050057D01*
X27857143Y-49050057D02*
X27761905Y-49192914D01*
X27761905Y-49192914D02*
X27714286Y-49383390D01*
X27714286Y-49383390D02*
X27714286Y-49764342D01*
X27714286Y-49764342D02*
X27761905Y-49859580D01*
X27761905Y-49859580D02*
X27809524Y-49907200D01*
X27809524Y-49907200D02*
X27904762Y-49954819D01*
X27904762Y-49954819D02*
X28095238Y-49954819D01*
X28095238Y-49954819D02*
X28190476Y-49907200D01*
X28190476Y-49907200D02*
X28238095Y-49859580D01*
X28238095Y-49859580D02*
X28285714Y-49764342D01*
X28285714Y-49764342D02*
X28285714Y-49526247D01*
X28285714Y-49526247D02*
X28238095Y-49431009D01*
X28238095Y-49431009D02*
X28190476Y-49383390D01*
X28190476Y-49383390D02*
X28095238Y-49335771D01*
X28095238Y-49335771D02*
X27904762Y-49335771D01*
X27904762Y-49335771D02*
X27809524Y-49383390D01*
X27809524Y-49383390D02*
X27761905Y-49431009D01*
X27761905Y-49431009D02*
X27714286Y-49526247D01*
X29550057Y-92595238D02*
X29502438Y-92690476D01*
X29502438Y-92690476D02*
X29407200Y-92785714D01*
X29407200Y-92785714D02*
X29264342Y-92928571D01*
X29264342Y-92928571D02*
X29216723Y-93023809D01*
X29216723Y-93023809D02*
X29216723Y-93119047D01*
X29454819Y-93071428D02*
X29407200Y-93166666D01*
X29407200Y-93166666D02*
X29311961Y-93261904D01*
X29311961Y-93261904D02*
X29121485Y-93309523D01*
X29121485Y-93309523D02*
X28788152Y-93309523D01*
X28788152Y-93309523D02*
X28597676Y-93261904D01*
X28597676Y-93261904D02*
X28502438Y-93166666D01*
X28502438Y-93166666D02*
X28454819Y-93071428D01*
X28454819Y-93071428D02*
X28454819Y-92880952D01*
X28454819Y-92880952D02*
X28502438Y-92785714D01*
X28502438Y-92785714D02*
X28597676Y-92690476D01*
X28597676Y-92690476D02*
X28788152Y-92642857D01*
X28788152Y-92642857D02*
X29121485Y-92642857D01*
X29121485Y-92642857D02*
X29311961Y-92690476D01*
X29311961Y-92690476D02*
X29407200Y-92785714D01*
X29407200Y-92785714D02*
X29454819Y-92880952D01*
X29454819Y-92880952D02*
X29454819Y-93071428D01*
X28454819Y-92309523D02*
X28454819Y-91690476D01*
X28454819Y-91690476D02*
X28835771Y-92023809D01*
X28835771Y-92023809D02*
X28835771Y-91880952D01*
X28835771Y-91880952D02*
X28883390Y-91785714D01*
X28883390Y-91785714D02*
X28931009Y-91738095D01*
X28931009Y-91738095D02*
X29026247Y-91690476D01*
X29026247Y-91690476D02*
X29264342Y-91690476D01*
X29264342Y-91690476D02*
X29359580Y-91738095D01*
X29359580Y-91738095D02*
X29407200Y-91785714D01*
X29407200Y-91785714D02*
X29454819Y-91880952D01*
X29454819Y-91880952D02*
X29454819Y-92166666D01*
X29454819Y-92166666D02*
X29407200Y-92261904D01*
X29407200Y-92261904D02*
X29359580Y-92309523D01*
X49354819Y-63511904D02*
X50164342Y-63511904D01*
X50164342Y-63511904D02*
X50259580Y-63464285D01*
X50259580Y-63464285D02*
X50307200Y-63416666D01*
X50307200Y-63416666D02*
X50354819Y-63321428D01*
X50354819Y-63321428D02*
X50354819Y-63130952D01*
X50354819Y-63130952D02*
X50307200Y-63035714D01*
X50307200Y-63035714D02*
X50259580Y-62988095D01*
X50259580Y-62988095D02*
X50164342Y-62940476D01*
X50164342Y-62940476D02*
X49354819Y-62940476D01*
X50354819Y-62416666D02*
X50354819Y-62226190D01*
X50354819Y-62226190D02*
X50307200Y-62130952D01*
X50307200Y-62130952D02*
X50259580Y-62083333D01*
X50259580Y-62083333D02*
X50116723Y-61988095D01*
X50116723Y-61988095D02*
X49926247Y-61940476D01*
X49926247Y-61940476D02*
X49545295Y-61940476D01*
X49545295Y-61940476D02*
X49450057Y-61988095D01*
X49450057Y-61988095D02*
X49402438Y-62035714D01*
X49402438Y-62035714D02*
X49354819Y-62130952D01*
X49354819Y-62130952D02*
X49354819Y-62321428D01*
X49354819Y-62321428D02*
X49402438Y-62416666D01*
X49402438Y-62416666D02*
X49450057Y-62464285D01*
X49450057Y-62464285D02*
X49545295Y-62511904D01*
X49545295Y-62511904D02*
X49783390Y-62511904D01*
X49783390Y-62511904D02*
X49878628Y-62464285D01*
X49878628Y-62464285D02*
X49926247Y-62416666D01*
X49926247Y-62416666D02*
X49973866Y-62321428D01*
X49973866Y-62321428D02*
X49973866Y-62130952D01*
X49973866Y-62130952D02*
X49926247Y-62035714D01*
X49926247Y-62035714D02*
X49878628Y-61988095D01*
X49878628Y-61988095D02*
X49783390Y-61940476D01*
X74609580Y-44916666D02*
X74657200Y-44964285D01*
X74657200Y-44964285D02*
X74704819Y-45107142D01*
X74704819Y-45107142D02*
X74704819Y-45202380D01*
X74704819Y-45202380D02*
X74657200Y-45345237D01*
X74657200Y-45345237D02*
X74561961Y-45440475D01*
X74561961Y-45440475D02*
X74466723Y-45488094D01*
X74466723Y-45488094D02*
X74276247Y-45535713D01*
X74276247Y-45535713D02*
X74133390Y-45535713D01*
X74133390Y-45535713D02*
X73942914Y-45488094D01*
X73942914Y-45488094D02*
X73847676Y-45440475D01*
X73847676Y-45440475D02*
X73752438Y-45345237D01*
X73752438Y-45345237D02*
X73704819Y-45202380D01*
X73704819Y-45202380D02*
X73704819Y-45107142D01*
X73704819Y-45107142D02*
X73752438Y-44964285D01*
X73752438Y-44964285D02*
X73800057Y-44916666D01*
X73704819Y-44583332D02*
X73704819Y-43916666D01*
X73704819Y-43916666D02*
X74704819Y-44345237D01*
X69604819Y-32692857D02*
X69128628Y-33026190D01*
X69604819Y-33264285D02*
X68604819Y-33264285D01*
X68604819Y-33264285D02*
X68604819Y-32883333D01*
X68604819Y-32883333D02*
X68652438Y-32788095D01*
X68652438Y-32788095D02*
X68700057Y-32740476D01*
X68700057Y-32740476D02*
X68795295Y-32692857D01*
X68795295Y-32692857D02*
X68938152Y-32692857D01*
X68938152Y-32692857D02*
X69033390Y-32740476D01*
X69033390Y-32740476D02*
X69081009Y-32788095D01*
X69081009Y-32788095D02*
X69128628Y-32883333D01*
X69128628Y-32883333D02*
X69128628Y-33264285D01*
X68700057Y-32311904D02*
X68652438Y-32264285D01*
X68652438Y-32264285D02*
X68604819Y-32169047D01*
X68604819Y-32169047D02*
X68604819Y-31930952D01*
X68604819Y-31930952D02*
X68652438Y-31835714D01*
X68652438Y-31835714D02*
X68700057Y-31788095D01*
X68700057Y-31788095D02*
X68795295Y-31740476D01*
X68795295Y-31740476D02*
X68890533Y-31740476D01*
X68890533Y-31740476D02*
X69033390Y-31788095D01*
X69033390Y-31788095D02*
X69604819Y-32359523D01*
X69604819Y-32359523D02*
X69604819Y-31740476D01*
X68938152Y-30883333D02*
X69604819Y-30883333D01*
X68557200Y-31121428D02*
X69271485Y-31359523D01*
X69271485Y-31359523D02*
X69271485Y-30740476D01*
X101857142Y-49954819D02*
X101523809Y-49478628D01*
X101285714Y-49954819D02*
X101285714Y-48954819D01*
X101285714Y-48954819D02*
X101666666Y-48954819D01*
X101666666Y-48954819D02*
X101761904Y-49002438D01*
X101761904Y-49002438D02*
X101809523Y-49050057D01*
X101809523Y-49050057D02*
X101857142Y-49145295D01*
X101857142Y-49145295D02*
X101857142Y-49288152D01*
X101857142Y-49288152D02*
X101809523Y-49383390D01*
X101809523Y-49383390D02*
X101761904Y-49431009D01*
X101761904Y-49431009D02*
X101666666Y-49478628D01*
X101666666Y-49478628D02*
X101285714Y-49478628D01*
X102238095Y-49050057D02*
X102285714Y-49002438D01*
X102285714Y-49002438D02*
X102380952Y-48954819D01*
X102380952Y-48954819D02*
X102619047Y-48954819D01*
X102619047Y-48954819D02*
X102714285Y-49002438D01*
X102714285Y-49002438D02*
X102761904Y-49050057D01*
X102761904Y-49050057D02*
X102809523Y-49145295D01*
X102809523Y-49145295D02*
X102809523Y-49240533D01*
X102809523Y-49240533D02*
X102761904Y-49383390D01*
X102761904Y-49383390D02*
X102190476Y-49954819D01*
X102190476Y-49954819D02*
X102809523Y-49954819D01*
X103428571Y-48954819D02*
X103523809Y-48954819D01*
X103523809Y-48954819D02*
X103619047Y-49002438D01*
X103619047Y-49002438D02*
X103666666Y-49050057D01*
X103666666Y-49050057D02*
X103714285Y-49145295D01*
X103714285Y-49145295D02*
X103761904Y-49335771D01*
X103761904Y-49335771D02*
X103761904Y-49573866D01*
X103761904Y-49573866D02*
X103714285Y-49764342D01*
X103714285Y-49764342D02*
X103666666Y-49859580D01*
X103666666Y-49859580D02*
X103619047Y-49907200D01*
X103619047Y-49907200D02*
X103523809Y-49954819D01*
X103523809Y-49954819D02*
X103428571Y-49954819D01*
X103428571Y-49954819D02*
X103333333Y-49907200D01*
X103333333Y-49907200D02*
X103285714Y-49859580D01*
X103285714Y-49859580D02*
X103238095Y-49764342D01*
X103238095Y-49764342D02*
X103190476Y-49573866D01*
X103190476Y-49573866D02*
X103190476Y-49335771D01*
X103190476Y-49335771D02*
X103238095Y-49145295D01*
X103238095Y-49145295D02*
X103285714Y-49050057D01*
X103285714Y-49050057D02*
X103333333Y-49002438D01*
X103333333Y-49002438D02*
X103428571Y-48954819D01*
X81454819Y-81838094D02*
X82264342Y-81838094D01*
X82264342Y-81838094D02*
X82359580Y-81790475D01*
X82359580Y-81790475D02*
X82407200Y-81742856D01*
X82407200Y-81742856D02*
X82454819Y-81647618D01*
X82454819Y-81647618D02*
X82454819Y-81457142D01*
X82454819Y-81457142D02*
X82407200Y-81361904D01*
X82407200Y-81361904D02*
X82359580Y-81314285D01*
X82359580Y-81314285D02*
X82264342Y-81266666D01*
X82264342Y-81266666D02*
X81454819Y-81266666D01*
X82454819Y-80266666D02*
X82454819Y-80838094D01*
X82454819Y-80552380D02*
X81454819Y-80552380D01*
X81454819Y-80552380D02*
X81597676Y-80647618D01*
X81597676Y-80647618D02*
X81692914Y-80742856D01*
X81692914Y-80742856D02*
X81740533Y-80838094D01*
X81454819Y-79933332D02*
X81454819Y-79314285D01*
X81454819Y-79314285D02*
X81835771Y-79647618D01*
X81835771Y-79647618D02*
X81835771Y-79504761D01*
X81835771Y-79504761D02*
X81883390Y-79409523D01*
X81883390Y-79409523D02*
X81931009Y-79361904D01*
X81931009Y-79361904D02*
X82026247Y-79314285D01*
X82026247Y-79314285D02*
X82264342Y-79314285D01*
X82264342Y-79314285D02*
X82359580Y-79361904D01*
X82359580Y-79361904D02*
X82407200Y-79409523D01*
X82407200Y-79409523D02*
X82454819Y-79504761D01*
X82454819Y-79504761D02*
X82454819Y-79790475D01*
X82454819Y-79790475D02*
X82407200Y-79885713D01*
X82407200Y-79885713D02*
X82359580Y-79933332D01*
X42583333Y-21454819D02*
X42250000Y-20978628D01*
X42011905Y-21454819D02*
X42011905Y-20454819D01*
X42011905Y-20454819D02*
X42392857Y-20454819D01*
X42392857Y-20454819D02*
X42488095Y-20502438D01*
X42488095Y-20502438D02*
X42535714Y-20550057D01*
X42535714Y-20550057D02*
X42583333Y-20645295D01*
X42583333Y-20645295D02*
X42583333Y-20788152D01*
X42583333Y-20788152D02*
X42535714Y-20883390D01*
X42535714Y-20883390D02*
X42488095Y-20931009D01*
X42488095Y-20931009D02*
X42392857Y-20978628D01*
X42392857Y-20978628D02*
X42011905Y-20978628D01*
X43059524Y-21454819D02*
X43250000Y-21454819D01*
X43250000Y-21454819D02*
X43345238Y-21407200D01*
X43345238Y-21407200D02*
X43392857Y-21359580D01*
X43392857Y-21359580D02*
X43488095Y-21216723D01*
X43488095Y-21216723D02*
X43535714Y-21026247D01*
X43535714Y-21026247D02*
X43535714Y-20645295D01*
X43535714Y-20645295D02*
X43488095Y-20550057D01*
X43488095Y-20550057D02*
X43440476Y-20502438D01*
X43440476Y-20502438D02*
X43345238Y-20454819D01*
X43345238Y-20454819D02*
X43154762Y-20454819D01*
X43154762Y-20454819D02*
X43059524Y-20502438D01*
X43059524Y-20502438D02*
X43011905Y-20550057D01*
X43011905Y-20550057D02*
X42964286Y-20645295D01*
X42964286Y-20645295D02*
X42964286Y-20883390D01*
X42964286Y-20883390D02*
X43011905Y-20978628D01*
X43011905Y-20978628D02*
X43059524Y-21026247D01*
X43059524Y-21026247D02*
X43154762Y-21073866D01*
X43154762Y-21073866D02*
X43345238Y-21073866D01*
X43345238Y-21073866D02*
X43440476Y-21026247D01*
X43440476Y-21026247D02*
X43488095Y-20978628D01*
X43488095Y-20978628D02*
X43535714Y-20883390D01*
X43954819Y-93738094D02*
X42954819Y-93738094D01*
X42954819Y-93738094D02*
X42954819Y-93499999D01*
X42954819Y-93499999D02*
X43002438Y-93357142D01*
X43002438Y-93357142D02*
X43097676Y-93261904D01*
X43097676Y-93261904D02*
X43192914Y-93214285D01*
X43192914Y-93214285D02*
X43383390Y-93166666D01*
X43383390Y-93166666D02*
X43526247Y-93166666D01*
X43526247Y-93166666D02*
X43716723Y-93214285D01*
X43716723Y-93214285D02*
X43811961Y-93261904D01*
X43811961Y-93261904D02*
X43907200Y-93357142D01*
X43907200Y-93357142D02*
X43954819Y-93499999D01*
X43954819Y-93499999D02*
X43954819Y-93738094D01*
X42954819Y-92261904D02*
X42954819Y-92738094D01*
X42954819Y-92738094D02*
X43431009Y-92785713D01*
X43431009Y-92785713D02*
X43383390Y-92738094D01*
X43383390Y-92738094D02*
X43335771Y-92642856D01*
X43335771Y-92642856D02*
X43335771Y-92404761D01*
X43335771Y-92404761D02*
X43383390Y-92309523D01*
X43383390Y-92309523D02*
X43431009Y-92261904D01*
X43431009Y-92261904D02*
X43526247Y-92214285D01*
X43526247Y-92214285D02*
X43764342Y-92214285D01*
X43764342Y-92214285D02*
X43859580Y-92261904D01*
X43859580Y-92261904D02*
X43907200Y-92309523D01*
X43907200Y-92309523D02*
X43954819Y-92404761D01*
X43954819Y-92404761D02*
X43954819Y-92642856D01*
X43954819Y-92642856D02*
X43907200Y-92738094D01*
X43907200Y-92738094D02*
X43859580Y-92785713D01*
X47454819Y-70761904D02*
X48264342Y-70761904D01*
X48264342Y-70761904D02*
X48359580Y-70714285D01*
X48359580Y-70714285D02*
X48407200Y-70666666D01*
X48407200Y-70666666D02*
X48454819Y-70571428D01*
X48454819Y-70571428D02*
X48454819Y-70380952D01*
X48454819Y-70380952D02*
X48407200Y-70285714D01*
X48407200Y-70285714D02*
X48359580Y-70238095D01*
X48359580Y-70238095D02*
X48264342Y-70190476D01*
X48264342Y-70190476D02*
X47454819Y-70190476D01*
X47454819Y-69809523D02*
X47454819Y-69142857D01*
X47454819Y-69142857D02*
X48454819Y-69571428D01*
X100954819Y-66190475D02*
X101954819Y-65857142D01*
X101954819Y-65857142D02*
X100954819Y-65523809D01*
X101954819Y-64666666D02*
X101954819Y-65238094D01*
X101954819Y-64952380D02*
X100954819Y-64952380D01*
X100954819Y-64952380D02*
X101097676Y-65047618D01*
X101097676Y-65047618D02*
X101192914Y-65142856D01*
X101192914Y-65142856D02*
X101240533Y-65238094D01*
X101050057Y-64285713D02*
X101002438Y-64238094D01*
X101002438Y-64238094D02*
X100954819Y-64142856D01*
X100954819Y-64142856D02*
X100954819Y-63904761D01*
X100954819Y-63904761D02*
X101002438Y-63809523D01*
X101002438Y-63809523D02*
X101050057Y-63761904D01*
X101050057Y-63761904D02*
X101145295Y-63714285D01*
X101145295Y-63714285D02*
X101240533Y-63714285D01*
X101240533Y-63714285D02*
X101383390Y-63761904D01*
X101383390Y-63761904D02*
X101954819Y-64333332D01*
X101954819Y-64333332D02*
X101954819Y-63714285D01*
X101669104Y-63333332D02*
X101669104Y-62857142D01*
X101954819Y-63428570D02*
X100954819Y-63095237D01*
X100954819Y-63095237D02*
X101954819Y-62761904D01*
X101954819Y-61904761D02*
X101954819Y-62476189D01*
X101954819Y-62190475D02*
X100954819Y-62190475D01*
X100954819Y-62190475D02*
X101097676Y-62285713D01*
X101097676Y-62285713D02*
X101192914Y-62380951D01*
X101192914Y-62380951D02*
X101240533Y-62476189D01*
X87109580Y-81666666D02*
X87157200Y-81714285D01*
X87157200Y-81714285D02*
X87204819Y-81857142D01*
X87204819Y-81857142D02*
X87204819Y-81952380D01*
X87204819Y-81952380D02*
X87157200Y-82095237D01*
X87157200Y-82095237D02*
X87061961Y-82190475D01*
X87061961Y-82190475D02*
X86966723Y-82238094D01*
X86966723Y-82238094D02*
X86776247Y-82285713D01*
X86776247Y-82285713D02*
X86633390Y-82285713D01*
X86633390Y-82285713D02*
X86442914Y-82238094D01*
X86442914Y-82238094D02*
X86347676Y-82190475D01*
X86347676Y-82190475D02*
X86252438Y-82095237D01*
X86252438Y-82095237D02*
X86204819Y-81952380D01*
X86204819Y-81952380D02*
X86204819Y-81857142D01*
X86204819Y-81857142D02*
X86252438Y-81714285D01*
X86252438Y-81714285D02*
X86300057Y-81666666D01*
X86300057Y-81285713D02*
X86252438Y-81238094D01*
X86252438Y-81238094D02*
X86204819Y-81142856D01*
X86204819Y-81142856D02*
X86204819Y-80904761D01*
X86204819Y-80904761D02*
X86252438Y-80809523D01*
X86252438Y-80809523D02*
X86300057Y-80761904D01*
X86300057Y-80761904D02*
X86395295Y-80714285D01*
X86395295Y-80714285D02*
X86490533Y-80714285D01*
X86490533Y-80714285D02*
X86633390Y-80761904D01*
X86633390Y-80761904D02*
X87204819Y-81333332D01*
X87204819Y-81333332D02*
X87204819Y-80714285D01*
X75157142Y-29509580D02*
X75109523Y-29557200D01*
X75109523Y-29557200D02*
X74966666Y-29604819D01*
X74966666Y-29604819D02*
X74871428Y-29604819D01*
X74871428Y-29604819D02*
X74728571Y-29557200D01*
X74728571Y-29557200D02*
X74633333Y-29461961D01*
X74633333Y-29461961D02*
X74585714Y-29366723D01*
X74585714Y-29366723D02*
X74538095Y-29176247D01*
X74538095Y-29176247D02*
X74538095Y-29033390D01*
X74538095Y-29033390D02*
X74585714Y-28842914D01*
X74585714Y-28842914D02*
X74633333Y-28747676D01*
X74633333Y-28747676D02*
X74728571Y-28652438D01*
X74728571Y-28652438D02*
X74871428Y-28604819D01*
X74871428Y-28604819D02*
X74966666Y-28604819D01*
X74966666Y-28604819D02*
X75109523Y-28652438D01*
X75109523Y-28652438D02*
X75157142Y-28700057D01*
X76109523Y-29604819D02*
X75538095Y-29604819D01*
X75823809Y-29604819D02*
X75823809Y-28604819D01*
X75823809Y-28604819D02*
X75728571Y-28747676D01*
X75728571Y-28747676D02*
X75633333Y-28842914D01*
X75633333Y-28842914D02*
X75538095Y-28890533D01*
X77061904Y-29604819D02*
X76490476Y-29604819D01*
X76776190Y-29604819D02*
X76776190Y-28604819D01*
X76776190Y-28604819D02*
X76680952Y-28747676D01*
X76680952Y-28747676D02*
X76585714Y-28842914D01*
X76585714Y-28842914D02*
X76490476Y-28890533D01*
X64238095Y-25859580D02*
X64190476Y-25907200D01*
X64190476Y-25907200D02*
X64047619Y-25954819D01*
X64047619Y-25954819D02*
X63952381Y-25954819D01*
X63952381Y-25954819D02*
X63809524Y-25907200D01*
X63809524Y-25907200D02*
X63714286Y-25811961D01*
X63714286Y-25811961D02*
X63666667Y-25716723D01*
X63666667Y-25716723D02*
X63619048Y-25526247D01*
X63619048Y-25526247D02*
X63619048Y-25383390D01*
X63619048Y-25383390D02*
X63666667Y-25192914D01*
X63666667Y-25192914D02*
X63714286Y-25097676D01*
X63714286Y-25097676D02*
X63809524Y-25002438D01*
X63809524Y-25002438D02*
X63952381Y-24954819D01*
X63952381Y-24954819D02*
X64047619Y-24954819D01*
X64047619Y-24954819D02*
X64190476Y-25002438D01*
X64190476Y-25002438D02*
X64238095Y-25050057D01*
X64857143Y-24954819D02*
X65047619Y-24954819D01*
X65047619Y-24954819D02*
X65142857Y-25002438D01*
X65142857Y-25002438D02*
X65238095Y-25097676D01*
X65238095Y-25097676D02*
X65285714Y-25288152D01*
X65285714Y-25288152D02*
X65285714Y-25621485D01*
X65285714Y-25621485D02*
X65238095Y-25811961D01*
X65238095Y-25811961D02*
X65142857Y-25907200D01*
X65142857Y-25907200D02*
X65047619Y-25954819D01*
X65047619Y-25954819D02*
X64857143Y-25954819D01*
X64857143Y-25954819D02*
X64761905Y-25907200D01*
X64761905Y-25907200D02*
X64666667Y-25811961D01*
X64666667Y-25811961D02*
X64619048Y-25621485D01*
X64619048Y-25621485D02*
X64619048Y-25288152D01*
X64619048Y-25288152D02*
X64666667Y-25097676D01*
X64666667Y-25097676D02*
X64761905Y-25002438D01*
X64761905Y-25002438D02*
X64857143Y-24954819D01*
X65714286Y-25954819D02*
X65714286Y-24954819D01*
X65714286Y-24954819D02*
X66047619Y-25669104D01*
X66047619Y-25669104D02*
X66380952Y-24954819D01*
X66380952Y-24954819D02*
X66380952Y-25954819D01*
X66809524Y-25050057D02*
X66857143Y-25002438D01*
X66857143Y-25002438D02*
X66952381Y-24954819D01*
X66952381Y-24954819D02*
X67190476Y-24954819D01*
X67190476Y-24954819D02*
X67285714Y-25002438D01*
X67285714Y-25002438D02*
X67333333Y-25050057D01*
X67333333Y-25050057D02*
X67380952Y-25145295D01*
X67380952Y-25145295D02*
X67380952Y-25240533D01*
X67380952Y-25240533D02*
X67333333Y-25383390D01*
X67333333Y-25383390D02*
X66761905Y-25954819D01*
X66761905Y-25954819D02*
X67380952Y-25954819D01*
X86454819Y-28288094D02*
X85454819Y-28288094D01*
X85454819Y-28288094D02*
X85454819Y-28049999D01*
X85454819Y-28049999D02*
X85502438Y-27907142D01*
X85502438Y-27907142D02*
X85597676Y-27811904D01*
X85597676Y-27811904D02*
X85692914Y-27764285D01*
X85692914Y-27764285D02*
X85883390Y-27716666D01*
X85883390Y-27716666D02*
X86026247Y-27716666D01*
X86026247Y-27716666D02*
X86216723Y-27764285D01*
X86216723Y-27764285D02*
X86311961Y-27811904D01*
X86311961Y-27811904D02*
X86407200Y-27907142D01*
X86407200Y-27907142D02*
X86454819Y-28049999D01*
X86454819Y-28049999D02*
X86454819Y-28288094D01*
X85454819Y-27383332D02*
X85454819Y-26716666D01*
X85454819Y-26716666D02*
X86454819Y-27145237D01*
X86033333Y-35609580D02*
X85985714Y-35657200D01*
X85985714Y-35657200D02*
X85842857Y-35704819D01*
X85842857Y-35704819D02*
X85747619Y-35704819D01*
X85747619Y-35704819D02*
X85604762Y-35657200D01*
X85604762Y-35657200D02*
X85509524Y-35561961D01*
X85509524Y-35561961D02*
X85461905Y-35466723D01*
X85461905Y-35466723D02*
X85414286Y-35276247D01*
X85414286Y-35276247D02*
X85414286Y-35133390D01*
X85414286Y-35133390D02*
X85461905Y-34942914D01*
X85461905Y-34942914D02*
X85509524Y-34847676D01*
X85509524Y-34847676D02*
X85604762Y-34752438D01*
X85604762Y-34752438D02*
X85747619Y-34704819D01*
X85747619Y-34704819D02*
X85842857Y-34704819D01*
X85842857Y-34704819D02*
X85985714Y-34752438D01*
X85985714Y-34752438D02*
X86033333Y-34800057D01*
X86509524Y-35704819D02*
X86700000Y-35704819D01*
X86700000Y-35704819D02*
X86795238Y-35657200D01*
X86795238Y-35657200D02*
X86842857Y-35609580D01*
X86842857Y-35609580D02*
X86938095Y-35466723D01*
X86938095Y-35466723D02*
X86985714Y-35276247D01*
X86985714Y-35276247D02*
X86985714Y-34895295D01*
X86985714Y-34895295D02*
X86938095Y-34800057D01*
X86938095Y-34800057D02*
X86890476Y-34752438D01*
X86890476Y-34752438D02*
X86795238Y-34704819D01*
X86795238Y-34704819D02*
X86604762Y-34704819D01*
X86604762Y-34704819D02*
X86509524Y-34752438D01*
X86509524Y-34752438D02*
X86461905Y-34800057D01*
X86461905Y-34800057D02*
X86414286Y-34895295D01*
X86414286Y-34895295D02*
X86414286Y-35133390D01*
X86414286Y-35133390D02*
X86461905Y-35228628D01*
X86461905Y-35228628D02*
X86509524Y-35276247D01*
X86509524Y-35276247D02*
X86604762Y-35323866D01*
X86604762Y-35323866D02*
X86795238Y-35323866D01*
X86795238Y-35323866D02*
X86890476Y-35276247D01*
X86890476Y-35276247D02*
X86938095Y-35228628D01*
X86938095Y-35228628D02*
X86985714Y-35133390D01*
X29704819Y-21738094D02*
X28704819Y-21738094D01*
X28704819Y-21738094D02*
X28704819Y-21499999D01*
X28704819Y-21499999D02*
X28752438Y-21357142D01*
X28752438Y-21357142D02*
X28847676Y-21261904D01*
X28847676Y-21261904D02*
X28942914Y-21214285D01*
X28942914Y-21214285D02*
X29133390Y-21166666D01*
X29133390Y-21166666D02*
X29276247Y-21166666D01*
X29276247Y-21166666D02*
X29466723Y-21214285D01*
X29466723Y-21214285D02*
X29561961Y-21261904D01*
X29561961Y-21261904D02*
X29657200Y-21357142D01*
X29657200Y-21357142D02*
X29704819Y-21499999D01*
X29704819Y-21499999D02*
X29704819Y-21738094D01*
X28704819Y-20833332D02*
X28704819Y-20214285D01*
X28704819Y-20214285D02*
X29085771Y-20547618D01*
X29085771Y-20547618D02*
X29085771Y-20404761D01*
X29085771Y-20404761D02*
X29133390Y-20309523D01*
X29133390Y-20309523D02*
X29181009Y-20261904D01*
X29181009Y-20261904D02*
X29276247Y-20214285D01*
X29276247Y-20214285D02*
X29514342Y-20214285D01*
X29514342Y-20214285D02*
X29609580Y-20261904D01*
X29609580Y-20261904D02*
X29657200Y-20309523D01*
X29657200Y-20309523D02*
X29704819Y-20404761D01*
X29704819Y-20404761D02*
X29704819Y-20690475D01*
X29704819Y-20690475D02*
X29657200Y-20785713D01*
X29657200Y-20785713D02*
X29609580Y-20833332D01*
X82142319Y-73642857D02*
X81666128Y-73976190D01*
X82142319Y-74214285D02*
X81142319Y-74214285D01*
X81142319Y-74214285D02*
X81142319Y-73833333D01*
X81142319Y-73833333D02*
X81189938Y-73738095D01*
X81189938Y-73738095D02*
X81237557Y-73690476D01*
X81237557Y-73690476D02*
X81332795Y-73642857D01*
X81332795Y-73642857D02*
X81475652Y-73642857D01*
X81475652Y-73642857D02*
X81570890Y-73690476D01*
X81570890Y-73690476D02*
X81618509Y-73738095D01*
X81618509Y-73738095D02*
X81666128Y-73833333D01*
X81666128Y-73833333D02*
X81666128Y-74214285D01*
X82142319Y-72690476D02*
X82142319Y-73261904D01*
X82142319Y-72976190D02*
X81142319Y-72976190D01*
X81142319Y-72976190D02*
X81285176Y-73071428D01*
X81285176Y-73071428D02*
X81380414Y-73166666D01*
X81380414Y-73166666D02*
X81428033Y-73261904D01*
X81142319Y-72357142D02*
X81142319Y-71738095D01*
X81142319Y-71738095D02*
X81523271Y-72071428D01*
X81523271Y-72071428D02*
X81523271Y-71928571D01*
X81523271Y-71928571D02*
X81570890Y-71833333D01*
X81570890Y-71833333D02*
X81618509Y-71785714D01*
X81618509Y-71785714D02*
X81713747Y-71738095D01*
X81713747Y-71738095D02*
X81951842Y-71738095D01*
X81951842Y-71738095D02*
X82047080Y-71785714D01*
X82047080Y-71785714D02*
X82094700Y-71833333D01*
X82094700Y-71833333D02*
X82142319Y-71928571D01*
X82142319Y-71928571D02*
X82142319Y-72214285D01*
X82142319Y-72214285D02*
X82094700Y-72309523D01*
X82094700Y-72309523D02*
X82047080Y-72357142D01*
X45357142Y-53454819D02*
X45023809Y-52978628D01*
X44785714Y-53454819D02*
X44785714Y-52454819D01*
X44785714Y-52454819D02*
X45166666Y-52454819D01*
X45166666Y-52454819D02*
X45261904Y-52502438D01*
X45261904Y-52502438D02*
X45309523Y-52550057D01*
X45309523Y-52550057D02*
X45357142Y-52645295D01*
X45357142Y-52645295D02*
X45357142Y-52788152D01*
X45357142Y-52788152D02*
X45309523Y-52883390D01*
X45309523Y-52883390D02*
X45261904Y-52931009D01*
X45261904Y-52931009D02*
X45166666Y-52978628D01*
X45166666Y-52978628D02*
X44785714Y-52978628D01*
X45738095Y-52550057D02*
X45785714Y-52502438D01*
X45785714Y-52502438D02*
X45880952Y-52454819D01*
X45880952Y-52454819D02*
X46119047Y-52454819D01*
X46119047Y-52454819D02*
X46214285Y-52502438D01*
X46214285Y-52502438D02*
X46261904Y-52550057D01*
X46261904Y-52550057D02*
X46309523Y-52645295D01*
X46309523Y-52645295D02*
X46309523Y-52740533D01*
X46309523Y-52740533D02*
X46261904Y-52883390D01*
X46261904Y-52883390D02*
X45690476Y-53454819D01*
X45690476Y-53454819D02*
X46309523Y-53454819D01*
X46690476Y-52550057D02*
X46738095Y-52502438D01*
X46738095Y-52502438D02*
X46833333Y-52454819D01*
X46833333Y-52454819D02*
X47071428Y-52454819D01*
X47071428Y-52454819D02*
X47166666Y-52502438D01*
X47166666Y-52502438D02*
X47214285Y-52550057D01*
X47214285Y-52550057D02*
X47261904Y-52645295D01*
X47261904Y-52645295D02*
X47261904Y-52740533D01*
X47261904Y-52740533D02*
X47214285Y-52883390D01*
X47214285Y-52883390D02*
X46642857Y-53454819D01*
X46642857Y-53454819D02*
X47261904Y-53454819D01*
X33804761Y-21400057D02*
X33709523Y-21352438D01*
X33709523Y-21352438D02*
X33614285Y-21257200D01*
X33614285Y-21257200D02*
X33471428Y-21114342D01*
X33471428Y-21114342D02*
X33376190Y-21066723D01*
X33376190Y-21066723D02*
X33280952Y-21066723D01*
X33328571Y-21304819D02*
X33233333Y-21257200D01*
X33233333Y-21257200D02*
X33138095Y-21161961D01*
X33138095Y-21161961D02*
X33090476Y-20971485D01*
X33090476Y-20971485D02*
X33090476Y-20638152D01*
X33090476Y-20638152D02*
X33138095Y-20447676D01*
X33138095Y-20447676D02*
X33233333Y-20352438D01*
X33233333Y-20352438D02*
X33328571Y-20304819D01*
X33328571Y-20304819D02*
X33519047Y-20304819D01*
X33519047Y-20304819D02*
X33614285Y-20352438D01*
X33614285Y-20352438D02*
X33709523Y-20447676D01*
X33709523Y-20447676D02*
X33757142Y-20638152D01*
X33757142Y-20638152D02*
X33757142Y-20971485D01*
X33757142Y-20971485D02*
X33709523Y-21161961D01*
X33709523Y-21161961D02*
X33614285Y-21257200D01*
X33614285Y-21257200D02*
X33519047Y-21304819D01*
X33519047Y-21304819D02*
X33328571Y-21304819D01*
X34138095Y-20400057D02*
X34185714Y-20352438D01*
X34185714Y-20352438D02*
X34280952Y-20304819D01*
X34280952Y-20304819D02*
X34519047Y-20304819D01*
X34519047Y-20304819D02*
X34614285Y-20352438D01*
X34614285Y-20352438D02*
X34661904Y-20400057D01*
X34661904Y-20400057D02*
X34709523Y-20495295D01*
X34709523Y-20495295D02*
X34709523Y-20590533D01*
X34709523Y-20590533D02*
X34661904Y-20733390D01*
X34661904Y-20733390D02*
X34090476Y-21304819D01*
X34090476Y-21304819D02*
X34709523Y-21304819D01*
X60719819Y-80738094D02*
X61529342Y-80738094D01*
X61529342Y-80738094D02*
X61624580Y-80690475D01*
X61624580Y-80690475D02*
X61672200Y-80642856D01*
X61672200Y-80642856D02*
X61719819Y-80547618D01*
X61719819Y-80547618D02*
X61719819Y-80357142D01*
X61719819Y-80357142D02*
X61672200Y-80261904D01*
X61672200Y-80261904D02*
X61624580Y-80214285D01*
X61624580Y-80214285D02*
X61529342Y-80166666D01*
X61529342Y-80166666D02*
X60719819Y-80166666D01*
X61719819Y-79166666D02*
X61719819Y-79738094D01*
X61719819Y-79452380D02*
X60719819Y-79452380D01*
X60719819Y-79452380D02*
X60862676Y-79547618D01*
X60862676Y-79547618D02*
X60957914Y-79642856D01*
X60957914Y-79642856D02*
X61005533Y-79738094D01*
X60719819Y-78261904D02*
X60719819Y-78738094D01*
X60719819Y-78738094D02*
X61196009Y-78785713D01*
X61196009Y-78785713D02*
X61148390Y-78738094D01*
X61148390Y-78738094D02*
X61100771Y-78642856D01*
X61100771Y-78642856D02*
X61100771Y-78404761D01*
X61100771Y-78404761D02*
X61148390Y-78309523D01*
X61148390Y-78309523D02*
X61196009Y-78261904D01*
X61196009Y-78261904D02*
X61291247Y-78214285D01*
X61291247Y-78214285D02*
X61529342Y-78214285D01*
X61529342Y-78214285D02*
X61624580Y-78261904D01*
X61624580Y-78261904D02*
X61672200Y-78309523D01*
X61672200Y-78309523D02*
X61719819Y-78404761D01*
X61719819Y-78404761D02*
X61719819Y-78642856D01*
X61719819Y-78642856D02*
X61672200Y-78738094D01*
X61672200Y-78738094D02*
X61624580Y-78785713D01*
X73166666Y-85181009D02*
X72833333Y-85181009D01*
X72833333Y-85704819D02*
X72833333Y-84704819D01*
X72833333Y-84704819D02*
X73309523Y-84704819D01*
X73642857Y-84800057D02*
X73690476Y-84752438D01*
X73690476Y-84752438D02*
X73785714Y-84704819D01*
X73785714Y-84704819D02*
X74023809Y-84704819D01*
X74023809Y-84704819D02*
X74119047Y-84752438D01*
X74119047Y-84752438D02*
X74166666Y-84800057D01*
X74166666Y-84800057D02*
X74214285Y-84895295D01*
X74214285Y-84895295D02*
X74214285Y-84990533D01*
X74214285Y-84990533D02*
X74166666Y-85133390D01*
X74166666Y-85133390D02*
X73595238Y-85704819D01*
X73595238Y-85704819D02*
X74214285Y-85704819D01*
X69550057Y-91464285D02*
X69502438Y-91416666D01*
X69502438Y-91416666D02*
X69454819Y-91321428D01*
X69454819Y-91321428D02*
X69454819Y-91083333D01*
X69454819Y-91083333D02*
X69502438Y-90988095D01*
X69502438Y-90988095D02*
X69550057Y-90940476D01*
X69550057Y-90940476D02*
X69645295Y-90892857D01*
X69645295Y-90892857D02*
X69740533Y-90892857D01*
X69740533Y-90892857D02*
X69883390Y-90940476D01*
X69883390Y-90940476D02*
X70454819Y-91511904D01*
X70454819Y-91511904D02*
X70454819Y-90892857D01*
X70169104Y-90511904D02*
X70169104Y-90035714D01*
X70454819Y-90607142D02*
X69454819Y-90273809D01*
X69454819Y-90273809D02*
X70454819Y-89940476D01*
X74261905Y-27104819D02*
X74261905Y-27914342D01*
X74261905Y-27914342D02*
X74309524Y-28009580D01*
X74309524Y-28009580D02*
X74357143Y-28057200D01*
X74357143Y-28057200D02*
X74452381Y-28104819D01*
X74452381Y-28104819D02*
X74642857Y-28104819D01*
X74642857Y-28104819D02*
X74738095Y-28057200D01*
X74738095Y-28057200D02*
X74785714Y-28009580D01*
X74785714Y-28009580D02*
X74833333Y-27914342D01*
X74833333Y-27914342D02*
X74833333Y-27104819D01*
X75833333Y-28104819D02*
X75261905Y-28104819D01*
X75547619Y-28104819D02*
X75547619Y-27104819D01*
X75547619Y-27104819D02*
X75452381Y-27247676D01*
X75452381Y-27247676D02*
X75357143Y-27342914D01*
X75357143Y-27342914D02*
X75261905Y-27390533D01*
X76166667Y-27104819D02*
X76833333Y-27104819D01*
X76833333Y-27104819D02*
X76404762Y-28104819D01*
X75928571Y-25859580D02*
X75880952Y-25907200D01*
X75880952Y-25907200D02*
X75738095Y-25954819D01*
X75738095Y-25954819D02*
X75642857Y-25954819D01*
X75642857Y-25954819D02*
X75500000Y-25907200D01*
X75500000Y-25907200D02*
X75404762Y-25811961D01*
X75404762Y-25811961D02*
X75357143Y-25716723D01*
X75357143Y-25716723D02*
X75309524Y-25526247D01*
X75309524Y-25526247D02*
X75309524Y-25383390D01*
X75309524Y-25383390D02*
X75357143Y-25192914D01*
X75357143Y-25192914D02*
X75404762Y-25097676D01*
X75404762Y-25097676D02*
X75500000Y-25002438D01*
X75500000Y-25002438D02*
X75642857Y-24954819D01*
X75642857Y-24954819D02*
X75738095Y-24954819D01*
X75738095Y-24954819D02*
X75880952Y-25002438D01*
X75880952Y-25002438D02*
X75928571Y-25050057D01*
X76547619Y-24954819D02*
X76738095Y-24954819D01*
X76738095Y-24954819D02*
X76833333Y-25002438D01*
X76833333Y-25002438D02*
X76928571Y-25097676D01*
X76928571Y-25097676D02*
X76976190Y-25288152D01*
X76976190Y-25288152D02*
X76976190Y-25621485D01*
X76976190Y-25621485D02*
X76928571Y-25811961D01*
X76928571Y-25811961D02*
X76833333Y-25907200D01*
X76833333Y-25907200D02*
X76738095Y-25954819D01*
X76738095Y-25954819D02*
X76547619Y-25954819D01*
X76547619Y-25954819D02*
X76452381Y-25907200D01*
X76452381Y-25907200D02*
X76357143Y-25811961D01*
X76357143Y-25811961D02*
X76309524Y-25621485D01*
X76309524Y-25621485D02*
X76309524Y-25288152D01*
X76309524Y-25288152D02*
X76357143Y-25097676D01*
X76357143Y-25097676D02*
X76452381Y-25002438D01*
X76452381Y-25002438D02*
X76547619Y-24954819D01*
X77404762Y-25954819D02*
X77404762Y-24954819D01*
X77404762Y-24954819D02*
X77976190Y-25954819D01*
X77976190Y-25954819D02*
X77976190Y-24954819D01*
X78404762Y-25907200D02*
X78547619Y-25954819D01*
X78547619Y-25954819D02*
X78785714Y-25954819D01*
X78785714Y-25954819D02*
X78880952Y-25907200D01*
X78880952Y-25907200D02*
X78928571Y-25859580D01*
X78928571Y-25859580D02*
X78976190Y-25764342D01*
X78976190Y-25764342D02*
X78976190Y-25669104D01*
X78976190Y-25669104D02*
X78928571Y-25573866D01*
X78928571Y-25573866D02*
X78880952Y-25526247D01*
X78880952Y-25526247D02*
X78785714Y-25478628D01*
X78785714Y-25478628D02*
X78595238Y-25431009D01*
X78595238Y-25431009D02*
X78500000Y-25383390D01*
X78500000Y-25383390D02*
X78452381Y-25335771D01*
X78452381Y-25335771D02*
X78404762Y-25240533D01*
X78404762Y-25240533D02*
X78404762Y-25145295D01*
X78404762Y-25145295D02*
X78452381Y-25050057D01*
X78452381Y-25050057D02*
X78500000Y-25002438D01*
X78500000Y-25002438D02*
X78595238Y-24954819D01*
X78595238Y-24954819D02*
X78833333Y-24954819D01*
X78833333Y-24954819D02*
X78976190Y-25002438D01*
X79595238Y-24954819D02*
X79785714Y-24954819D01*
X79785714Y-24954819D02*
X79880952Y-25002438D01*
X79880952Y-25002438D02*
X79976190Y-25097676D01*
X79976190Y-25097676D02*
X80023809Y-25288152D01*
X80023809Y-25288152D02*
X80023809Y-25621485D01*
X80023809Y-25621485D02*
X79976190Y-25811961D01*
X79976190Y-25811961D02*
X79880952Y-25907200D01*
X79880952Y-25907200D02*
X79785714Y-25954819D01*
X79785714Y-25954819D02*
X79595238Y-25954819D01*
X79595238Y-25954819D02*
X79500000Y-25907200D01*
X79500000Y-25907200D02*
X79404762Y-25811961D01*
X79404762Y-25811961D02*
X79357143Y-25621485D01*
X79357143Y-25621485D02*
X79357143Y-25288152D01*
X79357143Y-25288152D02*
X79404762Y-25097676D01*
X79404762Y-25097676D02*
X79500000Y-25002438D01*
X79500000Y-25002438D02*
X79595238Y-24954819D01*
X80928571Y-25954819D02*
X80452381Y-25954819D01*
X80452381Y-25954819D02*
X80452381Y-24954819D01*
X81261905Y-25431009D02*
X81595238Y-25431009D01*
X81738095Y-25954819D02*
X81261905Y-25954819D01*
X81261905Y-25954819D02*
X81261905Y-24954819D01*
X81261905Y-24954819D02*
X81738095Y-24954819D01*
X82690476Y-25954819D02*
X82119048Y-25954819D01*
X82404762Y-25954819D02*
X82404762Y-24954819D01*
X82404762Y-24954819D02*
X82309524Y-25097676D01*
X82309524Y-25097676D02*
X82214286Y-25192914D01*
X82214286Y-25192914D02*
X82119048Y-25240533D01*
X73083333Y-29359580D02*
X73035714Y-29407200D01*
X73035714Y-29407200D02*
X72892857Y-29454819D01*
X72892857Y-29454819D02*
X72797619Y-29454819D01*
X72797619Y-29454819D02*
X72654762Y-29407200D01*
X72654762Y-29407200D02*
X72559524Y-29311961D01*
X72559524Y-29311961D02*
X72511905Y-29216723D01*
X72511905Y-29216723D02*
X72464286Y-29026247D01*
X72464286Y-29026247D02*
X72464286Y-28883390D01*
X72464286Y-28883390D02*
X72511905Y-28692914D01*
X72511905Y-28692914D02*
X72559524Y-28597676D01*
X72559524Y-28597676D02*
X72654762Y-28502438D01*
X72654762Y-28502438D02*
X72797619Y-28454819D01*
X72797619Y-28454819D02*
X72892857Y-28454819D01*
X72892857Y-28454819D02*
X73035714Y-28502438D01*
X73035714Y-28502438D02*
X73083333Y-28550057D01*
X73654762Y-28883390D02*
X73559524Y-28835771D01*
X73559524Y-28835771D02*
X73511905Y-28788152D01*
X73511905Y-28788152D02*
X73464286Y-28692914D01*
X73464286Y-28692914D02*
X73464286Y-28645295D01*
X73464286Y-28645295D02*
X73511905Y-28550057D01*
X73511905Y-28550057D02*
X73559524Y-28502438D01*
X73559524Y-28502438D02*
X73654762Y-28454819D01*
X73654762Y-28454819D02*
X73845238Y-28454819D01*
X73845238Y-28454819D02*
X73940476Y-28502438D01*
X73940476Y-28502438D02*
X73988095Y-28550057D01*
X73988095Y-28550057D02*
X74035714Y-28645295D01*
X74035714Y-28645295D02*
X74035714Y-28692914D01*
X74035714Y-28692914D02*
X73988095Y-28788152D01*
X73988095Y-28788152D02*
X73940476Y-28835771D01*
X73940476Y-28835771D02*
X73845238Y-28883390D01*
X73845238Y-28883390D02*
X73654762Y-28883390D01*
X73654762Y-28883390D02*
X73559524Y-28931009D01*
X73559524Y-28931009D02*
X73511905Y-28978628D01*
X73511905Y-28978628D02*
X73464286Y-29073866D01*
X73464286Y-29073866D02*
X73464286Y-29264342D01*
X73464286Y-29264342D02*
X73511905Y-29359580D01*
X73511905Y-29359580D02*
X73559524Y-29407200D01*
X73559524Y-29407200D02*
X73654762Y-29454819D01*
X73654762Y-29454819D02*
X73845238Y-29454819D01*
X73845238Y-29454819D02*
X73940476Y-29407200D01*
X73940476Y-29407200D02*
X73988095Y-29359580D01*
X73988095Y-29359580D02*
X74035714Y-29264342D01*
X74035714Y-29264342D02*
X74035714Y-29073866D01*
X74035714Y-29073866D02*
X73988095Y-28978628D01*
X73988095Y-28978628D02*
X73940476Y-28931009D01*
X73940476Y-28931009D02*
X73845238Y-28883390D01*
X21261905Y-48454819D02*
X21261905Y-47454819D01*
X21261905Y-47454819D02*
X21500000Y-47454819D01*
X21500000Y-47454819D02*
X21642857Y-47502438D01*
X21642857Y-47502438D02*
X21738095Y-47597676D01*
X21738095Y-47597676D02*
X21785714Y-47692914D01*
X21785714Y-47692914D02*
X21833333Y-47883390D01*
X21833333Y-47883390D02*
X21833333Y-48026247D01*
X21833333Y-48026247D02*
X21785714Y-48216723D01*
X21785714Y-48216723D02*
X21738095Y-48311961D01*
X21738095Y-48311961D02*
X21642857Y-48407200D01*
X21642857Y-48407200D02*
X21500000Y-48454819D01*
X21500000Y-48454819D02*
X21261905Y-48454819D01*
X22214286Y-47550057D02*
X22261905Y-47502438D01*
X22261905Y-47502438D02*
X22357143Y-47454819D01*
X22357143Y-47454819D02*
X22595238Y-47454819D01*
X22595238Y-47454819D02*
X22690476Y-47502438D01*
X22690476Y-47502438D02*
X22738095Y-47550057D01*
X22738095Y-47550057D02*
X22785714Y-47645295D01*
X22785714Y-47645295D02*
X22785714Y-47740533D01*
X22785714Y-47740533D02*
X22738095Y-47883390D01*
X22738095Y-47883390D02*
X22166667Y-48454819D01*
X22166667Y-48454819D02*
X22785714Y-48454819D01*
X97359580Y-93891666D02*
X97407200Y-93939285D01*
X97407200Y-93939285D02*
X97454819Y-94082142D01*
X97454819Y-94082142D02*
X97454819Y-94177380D01*
X97454819Y-94177380D02*
X97407200Y-94320237D01*
X97407200Y-94320237D02*
X97311961Y-94415475D01*
X97311961Y-94415475D02*
X97216723Y-94463094D01*
X97216723Y-94463094D02*
X97026247Y-94510713D01*
X97026247Y-94510713D02*
X96883390Y-94510713D01*
X96883390Y-94510713D02*
X96692914Y-94463094D01*
X96692914Y-94463094D02*
X96597676Y-94415475D01*
X96597676Y-94415475D02*
X96502438Y-94320237D01*
X96502438Y-94320237D02*
X96454819Y-94177380D01*
X96454819Y-94177380D02*
X96454819Y-94082142D01*
X96454819Y-94082142D02*
X96502438Y-93939285D01*
X96502438Y-93939285D02*
X96550057Y-93891666D01*
X96454819Y-92986904D02*
X96454819Y-93463094D01*
X96454819Y-93463094D02*
X96931009Y-93510713D01*
X96931009Y-93510713D02*
X96883390Y-93463094D01*
X96883390Y-93463094D02*
X96835771Y-93367856D01*
X96835771Y-93367856D02*
X96835771Y-93129761D01*
X96835771Y-93129761D02*
X96883390Y-93034523D01*
X96883390Y-93034523D02*
X96931009Y-92986904D01*
X96931009Y-92986904D02*
X97026247Y-92939285D01*
X97026247Y-92939285D02*
X97264342Y-92939285D01*
X97264342Y-92939285D02*
X97359580Y-92986904D01*
X97359580Y-92986904D02*
X97407200Y-93034523D01*
X97407200Y-93034523D02*
X97454819Y-93129761D01*
X97454819Y-93129761D02*
X97454819Y-93367856D01*
X97454819Y-93367856D02*
X97407200Y-93463094D01*
X97407200Y-93463094D02*
X97359580Y-93510713D01*
X23857142Y-49954819D02*
X23523809Y-49478628D01*
X23285714Y-49954819D02*
X23285714Y-48954819D01*
X23285714Y-48954819D02*
X23666666Y-48954819D01*
X23666666Y-48954819D02*
X23761904Y-49002438D01*
X23761904Y-49002438D02*
X23809523Y-49050057D01*
X23809523Y-49050057D02*
X23857142Y-49145295D01*
X23857142Y-49145295D02*
X23857142Y-49288152D01*
X23857142Y-49288152D02*
X23809523Y-49383390D01*
X23809523Y-49383390D02*
X23761904Y-49431009D01*
X23761904Y-49431009D02*
X23666666Y-49478628D01*
X23666666Y-49478628D02*
X23285714Y-49478628D01*
X24809523Y-49954819D02*
X24238095Y-49954819D01*
X24523809Y-49954819D02*
X24523809Y-48954819D01*
X24523809Y-48954819D02*
X24428571Y-49097676D01*
X24428571Y-49097676D02*
X24333333Y-49192914D01*
X24333333Y-49192914D02*
X24238095Y-49240533D01*
X25190476Y-49050057D02*
X25238095Y-49002438D01*
X25238095Y-49002438D02*
X25333333Y-48954819D01*
X25333333Y-48954819D02*
X25571428Y-48954819D01*
X25571428Y-48954819D02*
X25666666Y-49002438D01*
X25666666Y-49002438D02*
X25714285Y-49050057D01*
X25714285Y-49050057D02*
X25761904Y-49145295D01*
X25761904Y-49145295D02*
X25761904Y-49240533D01*
X25761904Y-49240533D02*
X25714285Y-49383390D01*
X25714285Y-49383390D02*
X25142857Y-49954819D01*
X25142857Y-49954819D02*
X25761904Y-49954819D01*
D13*
%TO.C,R2*%
X45272936Y-37410000D02*
X46727064Y-37410000D01*
X45272936Y-35590000D02*
X46727064Y-35590000D01*
%TO.C,U3*%
X47425000Y-40885000D02*
X45475000Y-40885000D01*
X47425000Y-40885000D02*
X49375000Y-40885000D01*
X47425000Y-46005000D02*
X45475000Y-46005000D01*
X47425000Y-46005000D02*
X50875000Y-46005000D01*
%TO.C,R7*%
X51490000Y-43789564D02*
X51490000Y-42335436D01*
X53310000Y-43789564D02*
X53310000Y-42335436D01*
%TO.C,R3*%
X46727064Y-40160000D02*
X45272936Y-40160000D01*
X46727064Y-38340000D02*
X45272936Y-38340000D01*
%TO.C,J5V1*%
X87330000Y-89020000D02*
X87330000Y-86420000D01*
X84670000Y-89020000D02*
X84670000Y-86420000D01*
X87330000Y-89020000D02*
X84670000Y-89020000D01*
X86000000Y-91620000D02*
X84670000Y-91620000D01*
X84670000Y-91620000D02*
X84670000Y-90290000D01*
X87330000Y-86420000D02*
X84670000Y-86420000D01*
%TO.C,R23*%
X58890000Y-76527064D02*
X58890000Y-75072936D01*
X60710000Y-76527064D02*
X60710000Y-75072936D01*
%TO.C,GPIO*%
X87380000Y-25870000D02*
X100200000Y-25870000D01*
X87380000Y-25870000D02*
X87380000Y-23270000D01*
X100200000Y-25870000D02*
X100200000Y-20670000D01*
X87380000Y-23270000D02*
X89980000Y-23270000D01*
X89980000Y-23270000D02*
X89980000Y-20670000D01*
X87380000Y-22000000D02*
X87380000Y-20670000D01*
X87380000Y-20670000D02*
X88710000Y-20670000D01*
X89980000Y-20670000D02*
X100200000Y-20670000D01*
%TO.C,F1*%
X41397936Y-27910000D02*
X42602064Y-27910000D01*
X41397936Y-26090000D02*
X42602064Y-26090000D01*
%TO.C,BOOT1*%
X108000000Y-46600000D02*
X108000000Y-49900000D01*
X107700000Y-46600000D02*
X108000000Y-46600000D01*
X105500000Y-46600000D02*
X105200000Y-46600000D01*
X105200000Y-46600000D02*
X105200000Y-49900000D01*
X108000000Y-49900000D02*
X107700000Y-49900000D01*
X105200000Y-49900000D02*
X105500000Y-49900000D01*
%TO.C,D4*%
X23135000Y-50315000D02*
X20865000Y-50315000D01*
X20865000Y-50315000D02*
X20865000Y-54200000D01*
X23135000Y-54200000D02*
X23135000Y-50315000D01*
%TO.C,CU6*%
X42060000Y-52238748D02*
X42060000Y-53661252D01*
X40240000Y-52238748D02*
X40240000Y-53661252D01*
%TO.C,R21*%
X84910000Y-31535436D02*
X84910000Y-32989564D01*
X83090000Y-31535436D02*
X83090000Y-32989564D01*
%TO.C,R6*%
X43435000Y-46022936D02*
X43435000Y-47477064D01*
X41615000Y-46022936D02*
X41615000Y-47477064D01*
%TO.C,C4*%
X88360000Y-75788748D02*
X88360000Y-77211252D01*
X85640000Y-75788748D02*
X85640000Y-77211252D01*
%TO.C,R5*%
X41590000Y-41272936D02*
X41590000Y-42727064D01*
X43410000Y-41272936D02*
X43410000Y-42727064D01*
%TO.C,D1*%
X28265000Y-47260000D02*
X30535000Y-47260000D01*
X30535000Y-47260000D02*
X30535000Y-43375000D01*
X28265000Y-43375000D02*
X28265000Y-47260000D01*
%TO.C,R4*%
X55660000Y-37772936D02*
X55660000Y-39227064D01*
X53840000Y-37772936D02*
X53840000Y-39227064D01*
%TO.C,U6*%
X28750000Y-50680000D02*
X37950000Y-50680000D01*
X30550000Y-54780000D02*
X37950000Y-54780000D01*
%TO.C,D8*%
X69765000Y-29585000D02*
X72035000Y-29585000D01*
X72035000Y-29585000D02*
X72035000Y-25700000D01*
X69765000Y-25700000D02*
X69765000Y-29585000D01*
%TO.C,U20*%
X91115000Y-32500000D02*
X91115000Y-36100000D01*
X91115000Y-32500000D02*
X91115000Y-30300000D01*
X97885000Y-32500000D02*
X97885000Y-34700000D01*
X97885000Y-32500000D02*
X97885000Y-30300000D01*
%TO.C,USB1*%
X60150000Y-24512500D02*
X59700000Y-24512500D01*
X60150000Y-22662500D02*
X60150000Y-24512500D01*
X60150000Y-20112500D02*
X60150000Y-20362500D01*
X57950000Y-25062500D02*
X57950000Y-24612500D01*
X57950000Y-25062500D02*
X57500000Y-25062500D01*
X52350000Y-24512500D02*
X52800000Y-24512500D01*
X52350000Y-22662500D02*
X52350000Y-24512500D01*
X52350000Y-20112500D02*
X52350000Y-20362500D01*
%TO.C,J1*%
X74995000Y-86357500D02*
X74995000Y-95777500D01*
X74995000Y-86357500D02*
X76505000Y-86357500D01*
X74995000Y-92467500D02*
X83615000Y-92467500D01*
X74995000Y-95777500D02*
X83615000Y-95777500D01*
X77255000Y-85067500D02*
X77855000Y-85067500D01*
X77555000Y-85667500D02*
X77255000Y-85067500D01*
X77855000Y-85067500D02*
X77555000Y-85667500D01*
X78605000Y-86357500D02*
X80005000Y-86357500D01*
X83615000Y-86357500D02*
X82105000Y-86357500D01*
X83615000Y-95777500D02*
X83615000Y-86357500D01*
%TO.C,R17*%
X103227064Y-46160000D02*
X101772936Y-46160000D01*
X103227064Y-44340000D02*
X101772936Y-44340000D01*
%TO.C,U10*%
X45900000Y-56390000D02*
X44100000Y-56390000D01*
X44100000Y-59610000D02*
X46550000Y-59610000D01*
%TO.C,LOCONET_T1*%
X20070000Y-41850000D02*
X26850000Y-41850000D01*
X20070000Y-41850000D02*
X20070000Y-28650000D01*
D14*
X20080000Y-41850000D02*
X20070000Y-41850000D01*
X20190000Y-41850000D02*
X20070000Y-41850000D01*
D13*
X38070000Y-41850000D02*
X29050000Y-41850000D01*
X20070000Y-28650000D02*
X26850000Y-28650000D01*
X29050000Y-28650000D02*
X38070000Y-28650000D01*
D14*
X29120000Y-28650000D02*
X29050000Y-28650000D01*
D13*
X38070000Y-28650000D02*
X38070000Y-41850000D01*
X36070000Y-28180000D02*
X37600000Y-28180000D01*
%TO.C,U1*%
X95750000Y-91810000D02*
X97550000Y-91810000D01*
X95750000Y-91810000D02*
X94950000Y-91810000D01*
X95750000Y-88690000D02*
X96550000Y-88690000D01*
X95750000Y-88690000D02*
X94950000Y-88690000D01*
%TO.C,U14*%
X70275000Y-80400000D02*
X70275000Y-78600000D01*
X67055000Y-78600000D02*
X67055000Y-81550000D01*
%TO.C,CU11*%
X79310000Y-44088748D02*
X79310000Y-45511252D01*
X77490000Y-44088748D02*
X77490000Y-45511252D01*
%TO.C,U12*%
X68000000Y-26250000D02*
X64000000Y-26250000D01*
X68000000Y-29250000D02*
X65000000Y-29250000D01*
%TO.C,U11*%
X79350000Y-47945000D02*
X79350000Y-49045000D01*
X59850000Y-47995000D02*
X60850000Y-47995000D01*
X59850000Y-47995000D02*
X59850000Y-48995000D01*
X79200000Y-48145000D02*
X78700000Y-48145000D01*
X60850000Y-48145000D02*
X60000000Y-48145000D01*
X60000000Y-48145000D02*
X60000000Y-49445000D01*
X79200000Y-66145000D02*
X79200000Y-48145000D01*
X79200000Y-66145000D02*
X78700000Y-66145000D01*
X60750000Y-66145000D02*
X60000000Y-66145000D01*
X60000000Y-66145000D02*
X60000000Y-64795000D01*
X79350000Y-66295000D02*
X79350000Y-65295000D01*
X78700000Y-66295000D02*
X79350000Y-66295000D01*
X60750000Y-66295000D02*
X59850000Y-66295000D01*
X59850000Y-66295000D02*
X59850000Y-65295000D01*
%TO.C,D10*%
X38160000Y-27860000D02*
X38160000Y-25640000D01*
X38160000Y-25640000D02*
X33750000Y-25640000D01*
X33750000Y-27860000D02*
X38160000Y-27860000D01*
%TO.C,U8*%
X40790000Y-61850000D02*
X40790000Y-63650000D01*
X44010000Y-63650000D02*
X44010000Y-60700000D01*
%TO.C,U4*%
X52960000Y-37650000D02*
X52960000Y-35850000D01*
X49740000Y-35850000D02*
X49740000Y-38300000D01*
%TO.C,C12*%
X74211252Y-71160000D02*
X72788748Y-71160000D01*
X74211252Y-69340000D02*
X72788748Y-69340000D01*
%TO.C,JP2*%
X48355000Y-75420000D02*
X40615000Y-75420000D01*
X48355000Y-75420000D02*
X48355000Y-78020000D01*
X40615000Y-75420000D02*
X40615000Y-80620000D01*
X48355000Y-78020000D02*
X45755000Y-78020000D01*
X45755000Y-78020000D02*
X45755000Y-80620000D01*
X48355000Y-79290000D02*
X48355000Y-80620000D01*
X48355000Y-80620000D02*
X47025000Y-80620000D01*
X45755000Y-80620000D02*
X40615000Y-80620000D01*
%TO.C,C13*%
X77788748Y-69340000D02*
X79211252Y-69340000D01*
X77788748Y-71160000D02*
X79211252Y-71160000D01*
%TO.C,U2*%
X83590000Y-73600000D02*
X83590000Y-67590000D01*
X90410000Y-71350000D02*
X90410000Y-67590000D01*
X83590000Y-67590000D02*
X84850000Y-67590000D01*
X90410000Y-67590000D02*
X89150000Y-67590000D01*
%TO.C,JP1*%
X43005000Y-33330000D02*
X40405000Y-33330000D01*
X40405000Y-30670000D02*
X40405000Y-33330000D01*
X43005000Y-30670000D02*
X43005000Y-33330000D01*
X43005000Y-30670000D02*
X40405000Y-30670000D01*
X44275000Y-30670000D02*
X45605000Y-30670000D01*
X45605000Y-30670000D02*
X45605000Y-32000000D01*
%TO.C,R10*%
X37960000Y-22422936D02*
X37960000Y-23877064D01*
X36140000Y-22422936D02*
X36140000Y-23877064D01*
%TO.C,CB1*%
X106500000Y-82260000D02*
X105500000Y-82260000D01*
X106000000Y-82760000D02*
X106000000Y-81760000D01*
X105260000Y-82945563D02*
X105260000Y-81260000D01*
X105260000Y-82945563D02*
X104195563Y-84010000D01*
X105260000Y-76554437D02*
X105260000Y-78240000D01*
X105260000Y-76554437D02*
X104195563Y-75490000D01*
X104195563Y-84010000D02*
X96740000Y-84010000D01*
X104195563Y-75490000D02*
X96740000Y-75490000D01*
X96740000Y-84010000D02*
X96740000Y-81260000D01*
X96740000Y-75490000D02*
X96740000Y-78240000D01*
%TO.C,R18*%
X72872936Y-71840000D02*
X74327064Y-71840000D01*
X72872936Y-73660000D02*
X74327064Y-73660000D01*
%TO.C,C1*%
X96461252Y-87610000D02*
X95038748Y-87610000D01*
X96461252Y-84890000D02*
X95038748Y-84890000D01*
%TO.C,V12*%
X96137500Y-70110000D02*
X108357500Y-70110000D01*
X105057500Y-70110000D02*
X105057500Y-57890000D01*
X106857500Y-70110000D02*
X105057500Y-70110000D01*
X108357500Y-70110000D02*
X108357500Y-57890000D01*
X108357500Y-67500000D02*
X108357500Y-65500000D01*
X106857500Y-67250000D02*
X108357500Y-67500000D01*
X95337500Y-66800000D02*
X95337500Y-66200000D01*
X95937500Y-66500000D02*
X95337500Y-66800000D01*
X95337500Y-66200000D02*
X95937500Y-66500000D01*
X106857500Y-65750000D02*
X106857500Y-67250000D01*
X108357500Y-65500000D02*
X106857500Y-65750000D01*
X108357500Y-62500000D02*
X108357500Y-60500000D01*
X106857500Y-62250000D02*
X108357500Y-62500000D01*
X106857500Y-60750000D02*
X106857500Y-62250000D01*
X108357500Y-60500000D02*
X106857500Y-60750000D01*
X96137500Y-57890000D02*
X96137500Y-70110000D01*
X105057500Y-57890000D02*
X106857500Y-57890000D01*
X106857500Y-57890000D02*
X106857500Y-70110000D01*
X108357500Y-57890000D02*
X96137500Y-57890000D01*
%TO.C,R8*%
X23590000Y-45689564D02*
X23590000Y-44235436D01*
X25410000Y-45689564D02*
X25410000Y-44235436D01*
%TO.C,U18*%
X59000000Y-45000000D02*
X56000000Y-45000000D01*
X59000000Y-42000000D02*
X55000000Y-42000000D01*
%TO.C,R1*%
X27835000Y-44210436D02*
X27835000Y-45664564D01*
X26015000Y-44210436D02*
X26015000Y-45664564D01*
%TO.C,R15*%
X39072936Y-86540000D02*
X43427064Y-86540000D01*
X39072936Y-89960000D02*
X43427064Y-89960000D01*
%TO.C,R14*%
X35677064Y-89960000D02*
X31322936Y-89960000D01*
X35677064Y-86540000D02*
X31322936Y-86540000D01*
%TO.C,U5*%
X56840000Y-38200000D02*
X56840000Y-40000000D01*
X60060000Y-40000000D02*
X60060000Y-37550000D01*
%TO.C,C3*%
X90288748Y-84890000D02*
X91711252Y-84890000D01*
X90288748Y-87610000D02*
X91711252Y-87610000D01*
%TO.C,R16*%
X80477064Y-34060000D02*
X79022936Y-34060000D01*
X80477064Y-32240000D02*
X79022936Y-32240000D01*
%TO.C,L1*%
X93000000Y-88140000D02*
X89000000Y-88140000D01*
X91000000Y-92360000D02*
X89000000Y-92360000D01*
%TO.C,U19*%
X58385000Y-82000000D02*
X58385000Y-78400000D01*
X58385000Y-82000000D02*
X58385000Y-84200000D01*
X51615000Y-82000000D02*
X51615000Y-79800000D01*
X51615000Y-82000000D02*
X51615000Y-84200000D01*
%TO.C,D6*%
X101490000Y-84350000D02*
X101490000Y-87650000D01*
X101490000Y-84350000D02*
X107000000Y-84350000D01*
X101490000Y-87650000D02*
X107000000Y-87650000D01*
%TO.C,U16*%
X65015000Y-85610000D02*
X66815000Y-85610000D01*
X66815000Y-82390000D02*
X64365000Y-82390000D01*
%TO.C,RESET1*%
X108000000Y-41600000D02*
X108000000Y-44900000D01*
X107700000Y-41600000D02*
X108000000Y-41600000D01*
X105500000Y-41600000D02*
X105200000Y-41600000D01*
X105200000Y-41600000D02*
X105200000Y-44900000D01*
X108000000Y-44900000D02*
X107700000Y-44900000D01*
X105200000Y-44900000D02*
X105500000Y-44900000D01*
%TO.C,LOCONET_B2*%
X36120000Y-55430000D02*
X37650000Y-55430000D01*
X38120000Y-55900000D02*
X38120000Y-69100000D01*
D14*
X29170000Y-55900000D02*
X29100000Y-55900000D01*
D13*
X29100000Y-55900000D02*
X38120000Y-55900000D01*
X20120000Y-55900000D02*
X26900000Y-55900000D01*
X38120000Y-69100000D02*
X29100000Y-69100000D01*
D14*
X20240000Y-69100000D02*
X20120000Y-69100000D01*
X20130000Y-69100000D02*
X20120000Y-69100000D01*
D13*
X20120000Y-69100000D02*
X20120000Y-55900000D01*
X20120000Y-69100000D02*
X26900000Y-69100000D01*
%TO.C,R11*%
X31227064Y-27660000D02*
X29772936Y-27660000D01*
X31227064Y-25840000D02*
X29772936Y-25840000D01*
%TO.C,D9*%
X53890000Y-25500000D02*
X53890000Y-27500000D01*
X53890000Y-25500000D02*
X57900000Y-25500000D01*
X53890000Y-27500000D02*
X57900000Y-27500000D01*
%TO.C,R19*%
X52572936Y-31990000D02*
X54027064Y-31990000D01*
X52572936Y-33810000D02*
X54027064Y-33810000D01*
%TO.C,Q1*%
X39940000Y-37500000D02*
X39940000Y-38150000D01*
X39940000Y-37500000D02*
X39940000Y-36850000D01*
X43060000Y-37500000D02*
X43060000Y-38150000D01*
X43060000Y-37500000D02*
X43060000Y-35825000D01*
%TO.C,C14*%
X88090000Y-32961252D02*
X88090000Y-31538748D01*
X89910000Y-32961252D02*
X89910000Y-31538748D01*
%TO.C,C6*%
X27910000Y-51813748D02*
X27910000Y-53236252D01*
X26090000Y-51813748D02*
X26090000Y-53236252D01*
%TO.C,Q3*%
X40120000Y-95770000D02*
X40120000Y-91129000D01*
X40120000Y-95770000D02*
X29880000Y-95770000D01*
X40120000Y-94260000D02*
X29880000Y-94260000D01*
X40120000Y-91129000D02*
X29880000Y-91129000D01*
X36850000Y-95770000D02*
X36850000Y-94260000D01*
X33149000Y-95770000D02*
X33149000Y-94260000D01*
X29880000Y-95770000D02*
X29880000Y-91129000D01*
%TO.C,U9*%
X45390000Y-61850000D02*
X45390000Y-63650000D01*
X48610000Y-63650000D02*
X48610000Y-60700000D01*
%TO.C,C7*%
X76910000Y-44088748D02*
X76910000Y-45511252D01*
X75090000Y-44088748D02*
X75090000Y-45511252D01*
%TO.C,R24*%
X71810000Y-31335436D02*
X71810000Y-32789564D01*
X69990000Y-31335436D02*
X69990000Y-32789564D01*
%TO.C,R20*%
X101835436Y-46840000D02*
X103289564Y-46840000D01*
X101835436Y-48660000D02*
X103289564Y-48660000D01*
D11*
%TO.C,U13*%
X81075000Y-78525000D02*
X81025000Y-78525000D01*
X81075000Y-78525000D02*
X81075000Y-82675000D01*
X81025000Y-78525000D02*
X81025000Y-77125000D01*
X75925000Y-78525000D02*
X76070000Y-78525000D01*
X75925000Y-78525000D02*
X75925000Y-82675000D01*
X81075000Y-82675000D02*
X80930000Y-82675000D01*
X75925000Y-82675000D02*
X76070000Y-82675000D01*
D13*
%TO.C,R9*%
X48760000Y-23000000D02*
G75*
G03*
X48760000Y-23000000I-2620000J0D01*
G01*
X43520000Y-23000000D02*
X42560000Y-23000000D01*
%TO.C,D5*%
X40390000Y-95660000D02*
X42610000Y-95660000D01*
X42610000Y-95660000D02*
X42610000Y-91250000D01*
X40390000Y-91250000D02*
X40390000Y-95660000D01*
D11*
%TO.C,U7*%
X47075000Y-67925000D02*
X47025000Y-67925000D01*
X47075000Y-67925000D02*
X47075000Y-72075000D01*
X47025000Y-67925000D02*
X47025000Y-66525000D01*
X41925000Y-67925000D02*
X42070000Y-67925000D01*
X41925000Y-67925000D02*
X41925000Y-72075000D01*
X47075000Y-72075000D02*
X46930000Y-72075000D01*
X41925000Y-72075000D02*
X42070000Y-72075000D01*
D13*
%TO.C,V12A1*%
X108500000Y-75000000D02*
X93500000Y-75000000D01*
X93500000Y-53000000D02*
X93500000Y-75000000D01*
X108500000Y-53000000D02*
X108500000Y-75000000D01*
X108500000Y-53000000D02*
X93500000Y-53000000D01*
%TO.C,C2*%
X87875000Y-79815000D02*
X88500000Y-79815000D01*
X88187500Y-79502500D02*
X88187500Y-80127500D01*
X88740000Y-79804437D02*
X88740000Y-80440000D01*
X88740000Y-79804437D02*
X89804437Y-78740000D01*
X88740000Y-83195563D02*
X88740000Y-82560000D01*
X88740000Y-83195563D02*
X89804437Y-84260000D01*
X89804437Y-78740000D02*
X94260000Y-78740000D01*
X89804437Y-84260000D02*
X94260000Y-84260000D01*
X94260000Y-78740000D02*
X94260000Y-80440000D01*
X94260000Y-84260000D02*
X94260000Y-82560000D01*
%TO.C,C11*%
X76560000Y-31338748D02*
X76560000Y-32761252D01*
X74740000Y-31338748D02*
X74740000Y-32761252D01*
%TO.C,DCC1*%
X60880000Y-88670000D02*
X48060000Y-88670000D01*
X60880000Y-88670000D02*
X60880000Y-91270000D01*
X48060000Y-88670000D02*
X48060000Y-93870000D01*
X60880000Y-91270000D02*
X58280000Y-91270000D01*
X58280000Y-91270000D02*
X58280000Y-93870000D01*
X60880000Y-92540000D02*
X60880000Y-93870000D01*
X60880000Y-93870000D02*
X59550000Y-93870000D01*
X58280000Y-93870000D02*
X48060000Y-93870000D01*
%TO.C,COM2*%
X69030000Y-20495000D02*
X61350000Y-20495000D01*
X69030000Y-20495000D02*
X69030000Y-23155000D01*
X61350000Y-20495000D02*
X61350000Y-23155000D01*
X71630000Y-21825000D02*
X71630000Y-23155000D01*
X71630000Y-23155000D02*
X70300000Y-23155000D01*
X69030000Y-23155000D02*
X61350000Y-23155000D01*
%TO.C,D7*%
X82865000Y-29835000D02*
X85135000Y-29835000D01*
X85135000Y-29835000D02*
X85135000Y-25950000D01*
X82865000Y-25950000D02*
X82865000Y-29835000D01*
%TO.C,C9*%
X87360000Y-31538748D02*
X87360000Y-32961252D01*
X85540000Y-31538748D02*
X85540000Y-32961252D01*
%TO.C,D3*%
X32110000Y-20090000D02*
X29890000Y-20090000D01*
X29890000Y-20090000D02*
X29890000Y-24500000D01*
X32110000Y-24500000D02*
X32110000Y-20090000D01*
%TO.C,C10*%
X58840000Y-84711252D02*
X58840000Y-83288748D01*
X60660000Y-84711252D02*
X60660000Y-83288748D01*
%TO.C,R13*%
X79127064Y-73660000D02*
X77672936Y-73660000D01*
X79127064Y-71840000D02*
X77672936Y-71840000D01*
%TO.C,LOCONET_B1*%
X36120000Y-70430000D02*
X37650000Y-70430000D01*
X38120000Y-70900000D02*
X38120000Y-84100000D01*
D14*
X29170000Y-70900000D02*
X29100000Y-70900000D01*
D13*
X29100000Y-70900000D02*
X38120000Y-70900000D01*
X20120000Y-70900000D02*
X26900000Y-70900000D01*
X38120000Y-84100000D02*
X29100000Y-84100000D01*
D14*
X20240000Y-84100000D02*
X20120000Y-84100000D01*
X20130000Y-84100000D02*
X20120000Y-84100000D01*
D13*
X20120000Y-84100000D02*
X20120000Y-70900000D01*
X20120000Y-84100000D02*
X26900000Y-84100000D01*
%TO.C,R22*%
X46727064Y-55660000D02*
X45272936Y-55660000D01*
X46727064Y-53840000D02*
X45272936Y-53840000D01*
%TO.C,Q2*%
X32440000Y-23500000D02*
X32440000Y-25175000D01*
X32440000Y-23500000D02*
X32440000Y-22850000D01*
X35560000Y-23500000D02*
X35560000Y-24150000D01*
X35560000Y-23500000D02*
X35560000Y-22850000D01*
%TO.C,U15*%
X65775000Y-80400000D02*
X65775000Y-78600000D01*
X62555000Y-78600000D02*
X62555000Y-81550000D01*
%TO.C,F2*%
X70900000Y-95651000D02*
X74100000Y-95651000D01*
X70900000Y-95651000D02*
X70900000Y-94089000D01*
X74100000Y-95651000D02*
X74100000Y-88988000D01*
X70900000Y-92711000D02*
X70900000Y-86050000D01*
X74100000Y-87611000D02*
X74100000Y-86050000D01*
X70900000Y-86050000D02*
X74100000Y-86050000D01*
%TO.C,U17*%
X81250000Y-26250000D02*
X77250000Y-26250000D01*
X81250000Y-29250000D02*
X78250000Y-29250000D01*
%TO.C,CONSOLE1*%
X82280000Y-20495000D02*
X74600000Y-20495000D01*
X82280000Y-20495000D02*
X82280000Y-23155000D01*
X74600000Y-20495000D02*
X74600000Y-23155000D01*
X84880000Y-21825000D02*
X84880000Y-23155000D01*
X84880000Y-23155000D02*
X83550000Y-23155000D01*
X82280000Y-23155000D02*
X74600000Y-23155000D01*
%TO.C,C8*%
X74160000Y-31288748D02*
X74160000Y-32711252D01*
X72340000Y-31288748D02*
X72340000Y-32711252D01*
%TO.C,D2*%
X20865000Y-47285000D02*
X23135000Y-47285000D01*
X23135000Y-47285000D02*
X23135000Y-43400000D01*
X20865000Y-43400000D02*
X20865000Y-47285000D01*
%TO.C,C5*%
X94711252Y-94660000D02*
X93288748Y-94660000D01*
X94711252Y-92840000D02*
X93288748Y-92840000D01*
%TO.C,R12*%
X25410000Y-51810436D02*
X25410000Y-53264564D01*
X23590000Y-51810436D02*
X23590000Y-53264564D01*
%TD*%
M02*
