%TF.GenerationSoftware,KiCad,Pcbnew,7.0.6*%
%TF.CreationDate,2024-01-10T01:11:22-05:00*%
%TF.ProjectId,Arch_Bridge,41726368-5f42-4726-9964-67652e6b6963,rev?*%
%TF.SameCoordinates,Original*%
%TF.FileFunction,Legend,Top*%
%TF.FilePolarity,Positive*%
%FSLAX46Y46*%
G04 Gerber Fmt 4.6, Leading zero omitted, Abs format (unit mm)*
G04 Created by KiCad (PCBNEW 7.0.6) date 2024-01-10 01:11:22*
%MOMM*%
%LPD*%
G01*
G04 APERTURE LIST*
%ADD10C,0.120000*%
%ADD11C,0.300000*%
%ADD12C,0.150000*%
%ADD13C,0.100000*%
G04 APERTURE END LIST*
D10*
X100800000Y-28000000D02*
X100800000Y-20075000D01*
X100800000Y-95925000D02*
X100800000Y-88000000D01*
X108725000Y-28000000D02*
X100775000Y-28000000D01*
X28000000Y-20075000D02*
X28000000Y-28025000D01*
X20075000Y-88000000D02*
X28025000Y-88000000D01*
X28000000Y-88000000D02*
X28000000Y-95925000D01*
X28025000Y-28000000D02*
X20075000Y-28000000D01*
X100750000Y-88000000D02*
X108725000Y-88000000D01*
D11*
X107194685Y-59388346D02*
X107137542Y-59502632D01*
X107137542Y-59502632D02*
X107137542Y-59674060D01*
X107137542Y-59674060D02*
X107194685Y-59845489D01*
X107194685Y-59845489D02*
X107308971Y-59959774D01*
X107308971Y-59959774D02*
X107423257Y-60016917D01*
X107423257Y-60016917D02*
X107651828Y-60074060D01*
X107651828Y-60074060D02*
X107823257Y-60074060D01*
X107823257Y-60074060D02*
X108051828Y-60016917D01*
X108051828Y-60016917D02*
X108166114Y-59959774D01*
X108166114Y-59959774D02*
X108280400Y-59845489D01*
X108280400Y-59845489D02*
X108337542Y-59674060D01*
X108337542Y-59674060D02*
X108337542Y-59559774D01*
X108337542Y-59559774D02*
X108280400Y-59388346D01*
X108280400Y-59388346D02*
X108223257Y-59331203D01*
X108223257Y-59331203D02*
X107823257Y-59331203D01*
X107823257Y-59331203D02*
X107823257Y-59559774D01*
X108337542Y-58816917D02*
X107137542Y-58816917D01*
X107137542Y-58816917D02*
X108337542Y-58131203D01*
X108337542Y-58131203D02*
X107137542Y-58131203D01*
X108337542Y-57559774D02*
X107137542Y-57559774D01*
X107137542Y-57559774D02*
X107137542Y-57274060D01*
X107137542Y-57274060D02*
X107194685Y-57102631D01*
X107194685Y-57102631D02*
X107308971Y-56988346D01*
X107308971Y-56988346D02*
X107423257Y-56931203D01*
X107423257Y-56931203D02*
X107651828Y-56874060D01*
X107651828Y-56874060D02*
X107823257Y-56874060D01*
X107823257Y-56874060D02*
X108051828Y-56931203D01*
X108051828Y-56931203D02*
X108166114Y-56988346D01*
X108166114Y-56988346D02*
X108280400Y-57102631D01*
X108280400Y-57102631D02*
X108337542Y-57274060D01*
X108337542Y-57274060D02*
X108337542Y-57559774D01*
D12*
X101383207Y-44919819D02*
X101049874Y-44443628D01*
X100811779Y-44919819D02*
X100811779Y-43919819D01*
X100811779Y-43919819D02*
X101192731Y-43919819D01*
X101192731Y-43919819D02*
X101287969Y-43967438D01*
X101287969Y-43967438D02*
X101335588Y-44015057D01*
X101335588Y-44015057D02*
X101383207Y-44110295D01*
X101383207Y-44110295D02*
X101383207Y-44253152D01*
X101383207Y-44253152D02*
X101335588Y-44348390D01*
X101335588Y-44348390D02*
X101287969Y-44396009D01*
X101287969Y-44396009D02*
X101192731Y-44443628D01*
X101192731Y-44443628D02*
X100811779Y-44443628D01*
X101811779Y-44396009D02*
X102145112Y-44396009D01*
X102287969Y-44919819D02*
X101811779Y-44919819D01*
X101811779Y-44919819D02*
X101811779Y-43919819D01*
X101811779Y-43919819D02*
X102287969Y-43919819D01*
X102668922Y-44872200D02*
X102811779Y-44919819D01*
X102811779Y-44919819D02*
X103049874Y-44919819D01*
X103049874Y-44919819D02*
X103145112Y-44872200D01*
X103145112Y-44872200D02*
X103192731Y-44824580D01*
X103192731Y-44824580D02*
X103240350Y-44729342D01*
X103240350Y-44729342D02*
X103240350Y-44634104D01*
X103240350Y-44634104D02*
X103192731Y-44538866D01*
X103192731Y-44538866D02*
X103145112Y-44491247D01*
X103145112Y-44491247D02*
X103049874Y-44443628D01*
X103049874Y-44443628D02*
X102859398Y-44396009D01*
X102859398Y-44396009D02*
X102764160Y-44348390D01*
X102764160Y-44348390D02*
X102716541Y-44300771D01*
X102716541Y-44300771D02*
X102668922Y-44205533D01*
X102668922Y-44205533D02*
X102668922Y-44110295D01*
X102668922Y-44110295D02*
X102716541Y-44015057D01*
X102716541Y-44015057D02*
X102764160Y-43967438D01*
X102764160Y-43967438D02*
X102859398Y-43919819D01*
X102859398Y-43919819D02*
X103097493Y-43919819D01*
X103097493Y-43919819D02*
X103240350Y-43967438D01*
X103668922Y-44396009D02*
X104002255Y-44396009D01*
X104145112Y-44919819D02*
X103668922Y-44919819D01*
X103668922Y-44919819D02*
X103668922Y-43919819D01*
X103668922Y-43919819D02*
X104145112Y-43919819D01*
X104430827Y-43919819D02*
X105002255Y-43919819D01*
X104716541Y-44919819D02*
X104716541Y-43919819D01*
X40764160Y-95594295D02*
X40764160Y-94794295D01*
X40764160Y-94794295D02*
X40954636Y-94794295D01*
X40954636Y-94794295D02*
X41068922Y-94832390D01*
X41068922Y-94832390D02*
X41145112Y-94908580D01*
X41145112Y-94908580D02*
X41183207Y-94984771D01*
X41183207Y-94984771D02*
X41221303Y-95137152D01*
X41221303Y-95137152D02*
X41221303Y-95251438D01*
X41221303Y-95251438D02*
X41183207Y-95403819D01*
X41183207Y-95403819D02*
X41145112Y-95480009D01*
X41145112Y-95480009D02*
X41068922Y-95556200D01*
X41068922Y-95556200D02*
X40954636Y-95594295D01*
X40954636Y-95594295D02*
X40764160Y-95594295D01*
X42021303Y-95518104D02*
X41983207Y-95556200D01*
X41983207Y-95556200D02*
X41868922Y-95594295D01*
X41868922Y-95594295D02*
X41792731Y-95594295D01*
X41792731Y-95594295D02*
X41678445Y-95556200D01*
X41678445Y-95556200D02*
X41602255Y-95480009D01*
X41602255Y-95480009D02*
X41564160Y-95403819D01*
X41564160Y-95403819D02*
X41526064Y-95251438D01*
X41526064Y-95251438D02*
X41526064Y-95137152D01*
X41526064Y-95137152D02*
X41564160Y-94984771D01*
X41564160Y-94984771D02*
X41602255Y-94908580D01*
X41602255Y-94908580D02*
X41678445Y-94832390D01*
X41678445Y-94832390D02*
X41792731Y-94794295D01*
X41792731Y-94794295D02*
X41868922Y-94794295D01*
X41868922Y-94794295D02*
X41983207Y-94832390D01*
X41983207Y-94832390D02*
X42021303Y-94870485D01*
X42821303Y-95518104D02*
X42783207Y-95556200D01*
X42783207Y-95556200D02*
X42668922Y-95594295D01*
X42668922Y-95594295D02*
X42592731Y-95594295D01*
X42592731Y-95594295D02*
X42478445Y-95556200D01*
X42478445Y-95556200D02*
X42402255Y-95480009D01*
X42402255Y-95480009D02*
X42364160Y-95403819D01*
X42364160Y-95403819D02*
X42326064Y-95251438D01*
X42326064Y-95251438D02*
X42326064Y-95137152D01*
X42326064Y-95137152D02*
X42364160Y-94984771D01*
X42364160Y-94984771D02*
X42402255Y-94908580D01*
X42402255Y-94908580D02*
X42478445Y-94832390D01*
X42478445Y-94832390D02*
X42592731Y-94794295D01*
X42592731Y-94794295D02*
X42668922Y-94794295D01*
X42668922Y-94794295D02*
X42783207Y-94832390D01*
X42783207Y-94832390D02*
X42821303Y-94870485D01*
X44040350Y-95175247D02*
X44154636Y-95213342D01*
X44154636Y-95213342D02*
X44192731Y-95251438D01*
X44192731Y-95251438D02*
X44230827Y-95327628D01*
X44230827Y-95327628D02*
X44230827Y-95441914D01*
X44230827Y-95441914D02*
X44192731Y-95518104D01*
X44192731Y-95518104D02*
X44154636Y-95556200D01*
X44154636Y-95556200D02*
X44078446Y-95594295D01*
X44078446Y-95594295D02*
X43773684Y-95594295D01*
X43773684Y-95594295D02*
X43773684Y-94794295D01*
X43773684Y-94794295D02*
X44040350Y-94794295D01*
X44040350Y-94794295D02*
X44116541Y-94832390D01*
X44116541Y-94832390D02*
X44154636Y-94870485D01*
X44154636Y-94870485D02*
X44192731Y-94946676D01*
X44192731Y-94946676D02*
X44192731Y-95022866D01*
X44192731Y-95022866D02*
X44154636Y-95099057D01*
X44154636Y-95099057D02*
X44116541Y-95137152D01*
X44116541Y-95137152D02*
X44040350Y-95175247D01*
X44040350Y-95175247D02*
X43773684Y-95175247D01*
X45030827Y-95594295D02*
X44764160Y-95213342D01*
X44573684Y-95594295D02*
X44573684Y-94794295D01*
X44573684Y-94794295D02*
X44878446Y-94794295D01*
X44878446Y-94794295D02*
X44954636Y-94832390D01*
X44954636Y-94832390D02*
X44992731Y-94870485D01*
X44992731Y-94870485D02*
X45030827Y-94946676D01*
X45030827Y-94946676D02*
X45030827Y-95060961D01*
X45030827Y-95060961D02*
X44992731Y-95137152D01*
X44992731Y-95137152D02*
X44954636Y-95175247D01*
X44954636Y-95175247D02*
X44878446Y-95213342D01*
X44878446Y-95213342D02*
X44573684Y-95213342D01*
X45373684Y-95594295D02*
X45373684Y-94794295D01*
X45830827Y-95594295D02*
X45487969Y-95137152D01*
X45830827Y-94794295D02*
X45373684Y-95251438D01*
X46783208Y-95175247D02*
X47049874Y-95175247D01*
X47164160Y-95594295D02*
X46783208Y-95594295D01*
X46783208Y-95594295D02*
X46783208Y-94794295D01*
X46783208Y-94794295D02*
X47164160Y-94794295D01*
X47507018Y-95594295D02*
X47507018Y-94794295D01*
X47507018Y-94794295D02*
X47964161Y-95594295D01*
X47964161Y-95594295D02*
X47964161Y-94794295D01*
X48307017Y-95365723D02*
X48687970Y-95365723D01*
X48230827Y-95594295D02*
X48497494Y-94794295D01*
X48497494Y-94794295D02*
X48764160Y-95594295D01*
X50059398Y-94832390D02*
X49983208Y-94794295D01*
X49983208Y-94794295D02*
X49868922Y-94794295D01*
X49868922Y-94794295D02*
X49754636Y-94832390D01*
X49754636Y-94832390D02*
X49678446Y-94908580D01*
X49678446Y-94908580D02*
X49640351Y-94984771D01*
X49640351Y-94984771D02*
X49602255Y-95137152D01*
X49602255Y-95137152D02*
X49602255Y-95251438D01*
X49602255Y-95251438D02*
X49640351Y-95403819D01*
X49640351Y-95403819D02*
X49678446Y-95480009D01*
X49678446Y-95480009D02*
X49754636Y-95556200D01*
X49754636Y-95556200D02*
X49868922Y-95594295D01*
X49868922Y-95594295D02*
X49945113Y-95594295D01*
X49945113Y-95594295D02*
X50059398Y-95556200D01*
X50059398Y-95556200D02*
X50097494Y-95518104D01*
X50097494Y-95518104D02*
X50097494Y-95251438D01*
X50097494Y-95251438D02*
X49945113Y-95251438D01*
X50440351Y-95594295D02*
X50440351Y-94794295D01*
X50440351Y-94794295D02*
X50897494Y-95594295D01*
X50897494Y-95594295D02*
X50897494Y-94794295D01*
X51278446Y-95594295D02*
X51278446Y-94794295D01*
X51278446Y-94794295D02*
X51468922Y-94794295D01*
X51468922Y-94794295D02*
X51583208Y-94832390D01*
X51583208Y-94832390D02*
X51659398Y-94908580D01*
X51659398Y-94908580D02*
X51697493Y-94984771D01*
X51697493Y-94984771D02*
X51735589Y-95137152D01*
X51735589Y-95137152D02*
X51735589Y-95251438D01*
X51735589Y-95251438D02*
X51697493Y-95403819D01*
X51697493Y-95403819D02*
X51659398Y-95480009D01*
X51659398Y-95480009D02*
X51583208Y-95556200D01*
X51583208Y-95556200D02*
X51468922Y-95594295D01*
X51468922Y-95594295D02*
X51278446Y-95594295D01*
X101820112Y-49646009D02*
X101962969Y-49693628D01*
X101962969Y-49693628D02*
X102010588Y-49741247D01*
X102010588Y-49741247D02*
X102058207Y-49836485D01*
X102058207Y-49836485D02*
X102058207Y-49979342D01*
X102058207Y-49979342D02*
X102010588Y-50074580D01*
X102010588Y-50074580D02*
X101962969Y-50122200D01*
X101962969Y-50122200D02*
X101867731Y-50169819D01*
X101867731Y-50169819D02*
X101486779Y-50169819D01*
X101486779Y-50169819D02*
X101486779Y-49169819D01*
X101486779Y-49169819D02*
X101820112Y-49169819D01*
X101820112Y-49169819D02*
X101915350Y-49217438D01*
X101915350Y-49217438D02*
X101962969Y-49265057D01*
X101962969Y-49265057D02*
X102010588Y-49360295D01*
X102010588Y-49360295D02*
X102010588Y-49455533D01*
X102010588Y-49455533D02*
X101962969Y-49550771D01*
X101962969Y-49550771D02*
X101915350Y-49598390D01*
X101915350Y-49598390D02*
X101820112Y-49646009D01*
X101820112Y-49646009D02*
X101486779Y-49646009D01*
X102677255Y-49169819D02*
X102867731Y-49169819D01*
X102867731Y-49169819D02*
X102962969Y-49217438D01*
X102962969Y-49217438D02*
X103058207Y-49312676D01*
X103058207Y-49312676D02*
X103105826Y-49503152D01*
X103105826Y-49503152D02*
X103105826Y-49836485D01*
X103105826Y-49836485D02*
X103058207Y-50026961D01*
X103058207Y-50026961D02*
X102962969Y-50122200D01*
X102962969Y-50122200D02*
X102867731Y-50169819D01*
X102867731Y-50169819D02*
X102677255Y-50169819D01*
X102677255Y-50169819D02*
X102582017Y-50122200D01*
X102582017Y-50122200D02*
X102486779Y-50026961D01*
X102486779Y-50026961D02*
X102439160Y-49836485D01*
X102439160Y-49836485D02*
X102439160Y-49503152D01*
X102439160Y-49503152D02*
X102486779Y-49312676D01*
X102486779Y-49312676D02*
X102582017Y-49217438D01*
X102582017Y-49217438D02*
X102677255Y-49169819D01*
X103724874Y-49169819D02*
X103915350Y-49169819D01*
X103915350Y-49169819D02*
X104010588Y-49217438D01*
X104010588Y-49217438D02*
X104105826Y-49312676D01*
X104105826Y-49312676D02*
X104153445Y-49503152D01*
X104153445Y-49503152D02*
X104153445Y-49836485D01*
X104153445Y-49836485D02*
X104105826Y-50026961D01*
X104105826Y-50026961D02*
X104010588Y-50122200D01*
X104010588Y-50122200D02*
X103915350Y-50169819D01*
X103915350Y-50169819D02*
X103724874Y-50169819D01*
X103724874Y-50169819D02*
X103629636Y-50122200D01*
X103629636Y-50122200D02*
X103534398Y-50026961D01*
X103534398Y-50026961D02*
X103486779Y-49836485D01*
X103486779Y-49836485D02*
X103486779Y-49503152D01*
X103486779Y-49503152D02*
X103534398Y-49312676D01*
X103534398Y-49312676D02*
X103629636Y-49217438D01*
X103629636Y-49217438D02*
X103724874Y-49169819D01*
X104439160Y-49169819D02*
X105010588Y-49169819D01*
X104724874Y-50169819D02*
X104724874Y-49169819D01*
D11*
X99858082Y-83680400D02*
X100772368Y-83680400D01*
X100315225Y-84137542D02*
X100315225Y-83223257D01*
X101972367Y-84137542D02*
X101286653Y-84137542D01*
X101629510Y-84137542D02*
X101629510Y-82937542D01*
X101629510Y-82937542D02*
X101515224Y-83108971D01*
X101515224Y-83108971D02*
X101400939Y-83223257D01*
X101400939Y-83223257D02*
X101286653Y-83280400D01*
X102429510Y-83051828D02*
X102486653Y-82994685D01*
X102486653Y-82994685D02*
X102600939Y-82937542D01*
X102600939Y-82937542D02*
X102886653Y-82937542D01*
X102886653Y-82937542D02*
X103000939Y-82994685D01*
X103000939Y-82994685D02*
X103058081Y-83051828D01*
X103058081Y-83051828D02*
X103115224Y-83166114D01*
X103115224Y-83166114D02*
X103115224Y-83280400D01*
X103115224Y-83280400D02*
X103058081Y-83451828D01*
X103058081Y-83451828D02*
X102372367Y-84137542D01*
X102372367Y-84137542D02*
X103115224Y-84137542D01*
X103629510Y-83680400D02*
X104543796Y-83680400D01*
X105743795Y-84137542D02*
X105058081Y-84137542D01*
X105400938Y-84137542D02*
X105400938Y-82937542D01*
X105400938Y-82937542D02*
X105286652Y-83108971D01*
X105286652Y-83108971D02*
X105172367Y-83223257D01*
X105172367Y-83223257D02*
X105058081Y-83280400D01*
X106772367Y-82937542D02*
X106543795Y-82937542D01*
X106543795Y-82937542D02*
X106429509Y-82994685D01*
X106429509Y-82994685D02*
X106372367Y-83051828D01*
X106372367Y-83051828D02*
X106258081Y-83223257D01*
X106258081Y-83223257D02*
X106200938Y-83451828D01*
X106200938Y-83451828D02*
X106200938Y-83908971D01*
X106200938Y-83908971D02*
X106258081Y-84023257D01*
X106258081Y-84023257D02*
X106315224Y-84080400D01*
X106315224Y-84080400D02*
X106429509Y-84137542D01*
X106429509Y-84137542D02*
X106658081Y-84137542D01*
X106658081Y-84137542D02*
X106772367Y-84080400D01*
X106772367Y-84080400D02*
X106829509Y-84023257D01*
X106829509Y-84023257D02*
X106886652Y-83908971D01*
X106886652Y-83908971D02*
X106886652Y-83623257D01*
X106886652Y-83623257D02*
X106829509Y-83508971D01*
X106829509Y-83508971D02*
X106772367Y-83451828D01*
X106772367Y-83451828D02*
X106658081Y-83394685D01*
X106658081Y-83394685D02*
X106429509Y-83394685D01*
X106429509Y-83394685D02*
X106315224Y-83451828D01*
X106315224Y-83451828D02*
X106258081Y-83508971D01*
X106258081Y-83508971D02*
X106200938Y-83623257D01*
X107286652Y-83337542D02*
X107572366Y-84137542D01*
X107572366Y-84137542D02*
X107858081Y-83337542D01*
D12*
X51836779Y-25369819D02*
X51836779Y-26179342D01*
X51836779Y-26179342D02*
X51884398Y-26274580D01*
X51884398Y-26274580D02*
X51932017Y-26322200D01*
X51932017Y-26322200D02*
X52027255Y-26369819D01*
X52027255Y-26369819D02*
X52217731Y-26369819D01*
X52217731Y-26369819D02*
X52312969Y-26322200D01*
X52312969Y-26322200D02*
X52360588Y-26274580D01*
X52360588Y-26274580D02*
X52408207Y-26179342D01*
X52408207Y-26179342D02*
X52408207Y-25369819D01*
X52836779Y-26322200D02*
X52979636Y-26369819D01*
X52979636Y-26369819D02*
X53217731Y-26369819D01*
X53217731Y-26369819D02*
X53312969Y-26322200D01*
X53312969Y-26322200D02*
X53360588Y-26274580D01*
X53360588Y-26274580D02*
X53408207Y-26179342D01*
X53408207Y-26179342D02*
X53408207Y-26084104D01*
X53408207Y-26084104D02*
X53360588Y-25988866D01*
X53360588Y-25988866D02*
X53312969Y-25941247D01*
X53312969Y-25941247D02*
X53217731Y-25893628D01*
X53217731Y-25893628D02*
X53027255Y-25846009D01*
X53027255Y-25846009D02*
X52932017Y-25798390D01*
X52932017Y-25798390D02*
X52884398Y-25750771D01*
X52884398Y-25750771D02*
X52836779Y-25655533D01*
X52836779Y-25655533D02*
X52836779Y-25560295D01*
X52836779Y-25560295D02*
X52884398Y-25465057D01*
X52884398Y-25465057D02*
X52932017Y-25417438D01*
X52932017Y-25417438D02*
X53027255Y-25369819D01*
X53027255Y-25369819D02*
X53265350Y-25369819D01*
X53265350Y-25369819D02*
X53408207Y-25417438D01*
X54170112Y-25846009D02*
X54312969Y-25893628D01*
X54312969Y-25893628D02*
X54360588Y-25941247D01*
X54360588Y-25941247D02*
X54408207Y-26036485D01*
X54408207Y-26036485D02*
X54408207Y-26179342D01*
X54408207Y-26179342D02*
X54360588Y-26274580D01*
X54360588Y-26274580D02*
X54312969Y-26322200D01*
X54312969Y-26322200D02*
X54217731Y-26369819D01*
X54217731Y-26369819D02*
X53836779Y-26369819D01*
X53836779Y-26369819D02*
X53836779Y-25369819D01*
X53836779Y-25369819D02*
X54170112Y-25369819D01*
X54170112Y-25369819D02*
X54265350Y-25417438D01*
X54265350Y-25417438D02*
X54312969Y-25465057D01*
X54312969Y-25465057D02*
X54360588Y-25560295D01*
X54360588Y-25560295D02*
X54360588Y-25655533D01*
X54360588Y-25655533D02*
X54312969Y-25750771D01*
X54312969Y-25750771D02*
X54265350Y-25798390D01*
X54265350Y-25798390D02*
X54170112Y-25846009D01*
X54170112Y-25846009D02*
X53836779Y-25846009D01*
X39669819Y-33387030D02*
X39669819Y-33863220D01*
X39669819Y-33863220D02*
X38669819Y-33863220D01*
X39669819Y-33053696D02*
X38669819Y-33053696D01*
X38669819Y-33053696D02*
X39669819Y-32482268D01*
X39669819Y-32482268D02*
X38669819Y-32482268D01*
X39765057Y-32244173D02*
X39765057Y-31482268D01*
X38669819Y-31387029D02*
X38669819Y-30815601D01*
X39669819Y-31101315D02*
X38669819Y-31101315D01*
X52664160Y-95519295D02*
X52664160Y-94719295D01*
X52664160Y-94719295D02*
X52854636Y-94719295D01*
X52854636Y-94719295D02*
X52968922Y-94757390D01*
X52968922Y-94757390D02*
X53045112Y-94833580D01*
X53045112Y-94833580D02*
X53083207Y-94909771D01*
X53083207Y-94909771D02*
X53121303Y-95062152D01*
X53121303Y-95062152D02*
X53121303Y-95176438D01*
X53121303Y-95176438D02*
X53083207Y-95328819D01*
X53083207Y-95328819D02*
X53045112Y-95405009D01*
X53045112Y-95405009D02*
X52968922Y-95481200D01*
X52968922Y-95481200D02*
X52854636Y-95519295D01*
X52854636Y-95519295D02*
X52664160Y-95519295D01*
X53921303Y-95443104D02*
X53883207Y-95481200D01*
X53883207Y-95481200D02*
X53768922Y-95519295D01*
X53768922Y-95519295D02*
X53692731Y-95519295D01*
X53692731Y-95519295D02*
X53578445Y-95481200D01*
X53578445Y-95481200D02*
X53502255Y-95405009D01*
X53502255Y-95405009D02*
X53464160Y-95328819D01*
X53464160Y-95328819D02*
X53426064Y-95176438D01*
X53426064Y-95176438D02*
X53426064Y-95062152D01*
X53426064Y-95062152D02*
X53464160Y-94909771D01*
X53464160Y-94909771D02*
X53502255Y-94833580D01*
X53502255Y-94833580D02*
X53578445Y-94757390D01*
X53578445Y-94757390D02*
X53692731Y-94719295D01*
X53692731Y-94719295D02*
X53768922Y-94719295D01*
X53768922Y-94719295D02*
X53883207Y-94757390D01*
X53883207Y-94757390D02*
X53921303Y-94795485D01*
X54721303Y-95443104D02*
X54683207Y-95481200D01*
X54683207Y-95481200D02*
X54568922Y-95519295D01*
X54568922Y-95519295D02*
X54492731Y-95519295D01*
X54492731Y-95519295D02*
X54378445Y-95481200D01*
X54378445Y-95481200D02*
X54302255Y-95405009D01*
X54302255Y-95405009D02*
X54264160Y-95328819D01*
X54264160Y-95328819D02*
X54226064Y-95176438D01*
X54226064Y-95176438D02*
X54226064Y-95062152D01*
X54226064Y-95062152D02*
X54264160Y-94909771D01*
X54264160Y-94909771D02*
X54302255Y-94833580D01*
X54302255Y-94833580D02*
X54378445Y-94757390D01*
X54378445Y-94757390D02*
X54492731Y-94719295D01*
X54492731Y-94719295D02*
X54568922Y-94719295D01*
X54568922Y-94719295D02*
X54683207Y-94757390D01*
X54683207Y-94757390D02*
X54721303Y-94795485D01*
X55940350Y-95100247D02*
X56054636Y-95138342D01*
X56054636Y-95138342D02*
X56092731Y-95176438D01*
X56092731Y-95176438D02*
X56130827Y-95252628D01*
X56130827Y-95252628D02*
X56130827Y-95366914D01*
X56130827Y-95366914D02*
X56092731Y-95443104D01*
X56092731Y-95443104D02*
X56054636Y-95481200D01*
X56054636Y-95481200D02*
X55978446Y-95519295D01*
X55978446Y-95519295D02*
X55673684Y-95519295D01*
X55673684Y-95519295D02*
X55673684Y-94719295D01*
X55673684Y-94719295D02*
X55940350Y-94719295D01*
X55940350Y-94719295D02*
X56016541Y-94757390D01*
X56016541Y-94757390D02*
X56054636Y-94795485D01*
X56054636Y-94795485D02*
X56092731Y-94871676D01*
X56092731Y-94871676D02*
X56092731Y-94947866D01*
X56092731Y-94947866D02*
X56054636Y-95024057D01*
X56054636Y-95024057D02*
X56016541Y-95062152D01*
X56016541Y-95062152D02*
X55940350Y-95100247D01*
X55940350Y-95100247D02*
X55673684Y-95100247D01*
X56930827Y-95519295D02*
X56664160Y-95138342D01*
X56473684Y-95519295D02*
X56473684Y-94719295D01*
X56473684Y-94719295D02*
X56778446Y-94719295D01*
X56778446Y-94719295D02*
X56854636Y-94757390D01*
X56854636Y-94757390D02*
X56892731Y-94795485D01*
X56892731Y-94795485D02*
X56930827Y-94871676D01*
X56930827Y-94871676D02*
X56930827Y-94985961D01*
X56930827Y-94985961D02*
X56892731Y-95062152D01*
X56892731Y-95062152D02*
X56854636Y-95100247D01*
X56854636Y-95100247D02*
X56778446Y-95138342D01*
X56778446Y-95138342D02*
X56473684Y-95138342D01*
X57273684Y-95519295D02*
X57273684Y-94719295D01*
X57730827Y-95519295D02*
X57387969Y-95062152D01*
X57730827Y-94719295D02*
X57273684Y-95176438D01*
X58683208Y-95100247D02*
X58949874Y-95100247D01*
X59064160Y-95519295D02*
X58683208Y-95519295D01*
X58683208Y-95519295D02*
X58683208Y-94719295D01*
X58683208Y-94719295D02*
X59064160Y-94719295D01*
X59407018Y-95519295D02*
X59407018Y-94719295D01*
X59407018Y-94719295D02*
X59864161Y-95519295D01*
X59864161Y-95519295D02*
X59864161Y-94719295D01*
X60207017Y-95290723D02*
X60587970Y-95290723D01*
X60130827Y-95519295D02*
X60397494Y-94719295D01*
X60397494Y-94719295D02*
X60664160Y-95519295D01*
X61959398Y-94757390D02*
X61883208Y-94719295D01*
X61883208Y-94719295D02*
X61768922Y-94719295D01*
X61768922Y-94719295D02*
X61654636Y-94757390D01*
X61654636Y-94757390D02*
X61578446Y-94833580D01*
X61578446Y-94833580D02*
X61540351Y-94909771D01*
X61540351Y-94909771D02*
X61502255Y-95062152D01*
X61502255Y-95062152D02*
X61502255Y-95176438D01*
X61502255Y-95176438D02*
X61540351Y-95328819D01*
X61540351Y-95328819D02*
X61578446Y-95405009D01*
X61578446Y-95405009D02*
X61654636Y-95481200D01*
X61654636Y-95481200D02*
X61768922Y-95519295D01*
X61768922Y-95519295D02*
X61845113Y-95519295D01*
X61845113Y-95519295D02*
X61959398Y-95481200D01*
X61959398Y-95481200D02*
X61997494Y-95443104D01*
X61997494Y-95443104D02*
X61997494Y-95176438D01*
X61997494Y-95176438D02*
X61845113Y-95176438D01*
X62340351Y-95519295D02*
X62340351Y-94719295D01*
X62340351Y-94719295D02*
X62797494Y-95519295D01*
X62797494Y-95519295D02*
X62797494Y-94719295D01*
X63178446Y-95519295D02*
X63178446Y-94719295D01*
X63178446Y-94719295D02*
X63368922Y-94719295D01*
X63368922Y-94719295D02*
X63483208Y-94757390D01*
X63483208Y-94757390D02*
X63559398Y-94833580D01*
X63559398Y-94833580D02*
X63597493Y-94909771D01*
X63597493Y-94909771D02*
X63635589Y-95062152D01*
X63635589Y-95062152D02*
X63635589Y-95176438D01*
X63635589Y-95176438D02*
X63597493Y-95328819D01*
X63597493Y-95328819D02*
X63559398Y-95405009D01*
X63559398Y-95405009D02*
X63483208Y-95481200D01*
X63483208Y-95481200D02*
X63368922Y-95519295D01*
X63368922Y-95519295D02*
X63178446Y-95519295D01*
X29001064Y-87013723D02*
X29382017Y-87013723D01*
X28924874Y-87242295D02*
X29191541Y-86442295D01*
X29191541Y-86442295D02*
X29458207Y-87242295D01*
X29458207Y-89818295D02*
X29001064Y-89818295D01*
X29229636Y-89818295D02*
X29229636Y-89018295D01*
X29229636Y-89018295D02*
X29153445Y-89132580D01*
X29153445Y-89132580D02*
X29077255Y-89208771D01*
X29077255Y-89208771D02*
X29001064Y-89246866D01*
X29305826Y-91975247D02*
X29420112Y-92013342D01*
X29420112Y-92013342D02*
X29458207Y-92051438D01*
X29458207Y-92051438D02*
X29496303Y-92127628D01*
X29496303Y-92127628D02*
X29496303Y-92241914D01*
X29496303Y-92241914D02*
X29458207Y-92318104D01*
X29458207Y-92318104D02*
X29420112Y-92356200D01*
X29420112Y-92356200D02*
X29343922Y-92394295D01*
X29343922Y-92394295D02*
X29039160Y-92394295D01*
X29039160Y-92394295D02*
X29039160Y-91594295D01*
X29039160Y-91594295D02*
X29305826Y-91594295D01*
X29305826Y-91594295D02*
X29382017Y-91632390D01*
X29382017Y-91632390D02*
X29420112Y-91670485D01*
X29420112Y-91670485D02*
X29458207Y-91746676D01*
X29458207Y-91746676D02*
X29458207Y-91822866D01*
X29458207Y-91822866D02*
X29420112Y-91899057D01*
X29420112Y-91899057D02*
X29382017Y-91937152D01*
X29382017Y-91937152D02*
X29305826Y-91975247D01*
X29305826Y-91975247D02*
X29039160Y-91975247D01*
X36751064Y-87013723D02*
X37132017Y-87013723D01*
X36674874Y-87242295D02*
X36941541Y-86442295D01*
X36941541Y-86442295D02*
X37208207Y-87242295D01*
X37208207Y-89818295D02*
X36751064Y-89818295D01*
X36979636Y-89818295D02*
X36979636Y-89018295D01*
X36979636Y-89018295D02*
X36903445Y-89132580D01*
X36903445Y-89132580D02*
X36827255Y-89208771D01*
X36827255Y-89208771D02*
X36751064Y-89246866D01*
X37055826Y-91975247D02*
X37170112Y-92013342D01*
X37170112Y-92013342D02*
X37208207Y-92051438D01*
X37208207Y-92051438D02*
X37246303Y-92127628D01*
X37246303Y-92127628D02*
X37246303Y-92241914D01*
X37246303Y-92241914D02*
X37208207Y-92318104D01*
X37208207Y-92318104D02*
X37170112Y-92356200D01*
X37170112Y-92356200D02*
X37093922Y-92394295D01*
X37093922Y-92394295D02*
X36789160Y-92394295D01*
X36789160Y-92394295D02*
X36789160Y-91594295D01*
X36789160Y-91594295D02*
X37055826Y-91594295D01*
X37055826Y-91594295D02*
X37132017Y-91632390D01*
X37132017Y-91632390D02*
X37170112Y-91670485D01*
X37170112Y-91670485D02*
X37208207Y-91746676D01*
X37208207Y-91746676D02*
X37208207Y-91822866D01*
X37208207Y-91822866D02*
X37170112Y-91899057D01*
X37170112Y-91899057D02*
X37132017Y-91937152D01*
X37132017Y-91937152D02*
X37055826Y-91975247D01*
X37055826Y-91975247D02*
X36789160Y-91975247D01*
X32666666Y-20731009D02*
X32333333Y-20731009D01*
X32333333Y-21254819D02*
X32333333Y-20254819D01*
X32333333Y-20254819D02*
X32809523Y-20254819D01*
X33142857Y-20350057D02*
X33190476Y-20302438D01*
X33190476Y-20302438D02*
X33285714Y-20254819D01*
X33285714Y-20254819D02*
X33523809Y-20254819D01*
X33523809Y-20254819D02*
X33619047Y-20302438D01*
X33619047Y-20302438D02*
X33666666Y-20350057D01*
X33666666Y-20350057D02*
X33714285Y-20445295D01*
X33714285Y-20445295D02*
X33714285Y-20540533D01*
X33714285Y-20540533D02*
X33666666Y-20683390D01*
X33666666Y-20683390D02*
X33095238Y-21254819D01*
X33095238Y-21254819D02*
X33714285Y-21254819D01*
X49204819Y-37716666D02*
X48728628Y-38049999D01*
X49204819Y-38288094D02*
X48204819Y-38288094D01*
X48204819Y-38288094D02*
X48204819Y-37907142D01*
X48204819Y-37907142D02*
X48252438Y-37811904D01*
X48252438Y-37811904D02*
X48300057Y-37764285D01*
X48300057Y-37764285D02*
X48395295Y-37716666D01*
X48395295Y-37716666D02*
X48538152Y-37716666D01*
X48538152Y-37716666D02*
X48633390Y-37764285D01*
X48633390Y-37764285D02*
X48681009Y-37811904D01*
X48681009Y-37811904D02*
X48728628Y-37907142D01*
X48728628Y-37907142D02*
X48728628Y-38288094D01*
X48204819Y-37383332D02*
X48204819Y-36764285D01*
X48204819Y-36764285D02*
X48585771Y-37097618D01*
X48585771Y-37097618D02*
X48585771Y-36954761D01*
X48585771Y-36954761D02*
X48633390Y-36859523D01*
X48633390Y-36859523D02*
X48681009Y-36811904D01*
X48681009Y-36811904D02*
X48776247Y-36764285D01*
X48776247Y-36764285D02*
X49014342Y-36764285D01*
X49014342Y-36764285D02*
X49109580Y-36811904D01*
X49109580Y-36811904D02*
X49157200Y-36859523D01*
X49157200Y-36859523D02*
X49204819Y-36954761D01*
X49204819Y-36954761D02*
X49204819Y-37240475D01*
X49204819Y-37240475D02*
X49157200Y-37335713D01*
X49157200Y-37335713D02*
X49109580Y-37383332D01*
X20761905Y-50054819D02*
X20761905Y-49054819D01*
X20761905Y-49054819D02*
X21000000Y-49054819D01*
X21000000Y-49054819D02*
X21142857Y-49102438D01*
X21142857Y-49102438D02*
X21238095Y-49197676D01*
X21238095Y-49197676D02*
X21285714Y-49292914D01*
X21285714Y-49292914D02*
X21333333Y-49483390D01*
X21333333Y-49483390D02*
X21333333Y-49626247D01*
X21333333Y-49626247D02*
X21285714Y-49816723D01*
X21285714Y-49816723D02*
X21238095Y-49911961D01*
X21238095Y-49911961D02*
X21142857Y-50007200D01*
X21142857Y-50007200D02*
X21000000Y-50054819D01*
X21000000Y-50054819D02*
X20761905Y-50054819D01*
X22190476Y-49388152D02*
X22190476Y-50054819D01*
X21952381Y-49007200D02*
X21714286Y-49721485D01*
X21714286Y-49721485D02*
X22333333Y-49721485D01*
X53729819Y-76113094D02*
X54539342Y-76113094D01*
X54539342Y-76113094D02*
X54634580Y-76065475D01*
X54634580Y-76065475D02*
X54682200Y-76017856D01*
X54682200Y-76017856D02*
X54729819Y-75922618D01*
X54729819Y-75922618D02*
X54729819Y-75732142D01*
X54729819Y-75732142D02*
X54682200Y-75636904D01*
X54682200Y-75636904D02*
X54634580Y-75589285D01*
X54634580Y-75589285D02*
X54539342Y-75541666D01*
X54539342Y-75541666D02*
X53729819Y-75541666D01*
X54729819Y-74541666D02*
X54729819Y-75113094D01*
X54729819Y-74827380D02*
X53729819Y-74827380D01*
X53729819Y-74827380D02*
X53872676Y-74922618D01*
X53872676Y-74922618D02*
X53967914Y-75017856D01*
X53967914Y-75017856D02*
X54015533Y-75113094D01*
X53729819Y-73684523D02*
X53729819Y-73874999D01*
X53729819Y-73874999D02*
X53777438Y-73970237D01*
X53777438Y-73970237D02*
X53825057Y-74017856D01*
X53825057Y-74017856D02*
X53967914Y-74113094D01*
X53967914Y-74113094D02*
X54158390Y-74160713D01*
X54158390Y-74160713D02*
X54539342Y-74160713D01*
X54539342Y-74160713D02*
X54634580Y-74113094D01*
X54634580Y-74113094D02*
X54682200Y-74065475D01*
X54682200Y-74065475D02*
X54729819Y-73970237D01*
X54729819Y-73970237D02*
X54729819Y-73779761D01*
X54729819Y-73779761D02*
X54682200Y-73684523D01*
X54682200Y-73684523D02*
X54634580Y-73636904D01*
X54634580Y-73636904D02*
X54539342Y-73589285D01*
X54539342Y-73589285D02*
X54301247Y-73589285D01*
X54301247Y-73589285D02*
X54206009Y-73636904D01*
X54206009Y-73636904D02*
X54158390Y-73684523D01*
X54158390Y-73684523D02*
X54110771Y-73779761D01*
X54110771Y-73779761D02*
X54110771Y-73970237D01*
X54110771Y-73970237D02*
X54158390Y-74065475D01*
X54158390Y-74065475D02*
X54206009Y-74113094D01*
X54206009Y-74113094D02*
X54301247Y-74160713D01*
X86074819Y-32905357D02*
X85598628Y-33238690D01*
X86074819Y-33476785D02*
X85074819Y-33476785D01*
X85074819Y-33476785D02*
X85074819Y-33095833D01*
X85074819Y-33095833D02*
X85122438Y-33000595D01*
X85122438Y-33000595D02*
X85170057Y-32952976D01*
X85170057Y-32952976D02*
X85265295Y-32905357D01*
X85265295Y-32905357D02*
X85408152Y-32905357D01*
X85408152Y-32905357D02*
X85503390Y-32952976D01*
X85503390Y-32952976D02*
X85551009Y-33000595D01*
X85551009Y-33000595D02*
X85598628Y-33095833D01*
X85598628Y-33095833D02*
X85598628Y-33476785D01*
X85170057Y-32524404D02*
X85122438Y-32476785D01*
X85122438Y-32476785D02*
X85074819Y-32381547D01*
X85074819Y-32381547D02*
X85074819Y-32143452D01*
X85074819Y-32143452D02*
X85122438Y-32048214D01*
X85122438Y-32048214D02*
X85170057Y-32000595D01*
X85170057Y-32000595D02*
X85265295Y-31952976D01*
X85265295Y-31952976D02*
X85360533Y-31952976D01*
X85360533Y-31952976D02*
X85503390Y-32000595D01*
X85503390Y-32000595D02*
X86074819Y-32572023D01*
X86074819Y-32572023D02*
X86074819Y-31952976D01*
X86074819Y-31000595D02*
X86074819Y-31572023D01*
X86074819Y-31286309D02*
X85074819Y-31286309D01*
X85074819Y-31286309D02*
X85217676Y-31381547D01*
X85217676Y-31381547D02*
X85312914Y-31476785D01*
X85312914Y-31476785D02*
X85360533Y-31572023D01*
X42133333Y-43467319D02*
X41800000Y-42991128D01*
X41561905Y-43467319D02*
X41561905Y-42467319D01*
X41561905Y-42467319D02*
X41942857Y-42467319D01*
X41942857Y-42467319D02*
X42038095Y-42514938D01*
X42038095Y-42514938D02*
X42085714Y-42562557D01*
X42085714Y-42562557D02*
X42133333Y-42657795D01*
X42133333Y-42657795D02*
X42133333Y-42800652D01*
X42133333Y-42800652D02*
X42085714Y-42895890D01*
X42085714Y-42895890D02*
X42038095Y-42943509D01*
X42038095Y-42943509D02*
X41942857Y-42991128D01*
X41942857Y-42991128D02*
X41561905Y-42991128D01*
X42990476Y-42467319D02*
X42800000Y-42467319D01*
X42800000Y-42467319D02*
X42704762Y-42514938D01*
X42704762Y-42514938D02*
X42657143Y-42562557D01*
X42657143Y-42562557D02*
X42561905Y-42705414D01*
X42561905Y-42705414D02*
X42514286Y-42895890D01*
X42514286Y-42895890D02*
X42514286Y-43276842D01*
X42514286Y-43276842D02*
X42561905Y-43372080D01*
X42561905Y-43372080D02*
X42609524Y-43419700D01*
X42609524Y-43419700D02*
X42704762Y-43467319D01*
X42704762Y-43467319D02*
X42895238Y-43467319D01*
X42895238Y-43467319D02*
X42990476Y-43419700D01*
X42990476Y-43419700D02*
X43038095Y-43372080D01*
X43038095Y-43372080D02*
X43085714Y-43276842D01*
X43085714Y-43276842D02*
X43085714Y-43038747D01*
X43085714Y-43038747D02*
X43038095Y-42943509D01*
X43038095Y-42943509D02*
X42990476Y-42895890D01*
X42990476Y-42895890D02*
X42895238Y-42848271D01*
X42895238Y-42848271D02*
X42704762Y-42848271D01*
X42704762Y-42848271D02*
X42609524Y-42895890D01*
X42609524Y-42895890D02*
X42561905Y-42943509D01*
X42561905Y-42943509D02*
X42514286Y-43038747D01*
X92163333Y-77819580D02*
X92115714Y-77867200D01*
X92115714Y-77867200D02*
X91972857Y-77914819D01*
X91972857Y-77914819D02*
X91877619Y-77914819D01*
X91877619Y-77914819D02*
X91734762Y-77867200D01*
X91734762Y-77867200D02*
X91639524Y-77771961D01*
X91639524Y-77771961D02*
X91591905Y-77676723D01*
X91591905Y-77676723D02*
X91544286Y-77486247D01*
X91544286Y-77486247D02*
X91544286Y-77343390D01*
X91544286Y-77343390D02*
X91591905Y-77152914D01*
X91591905Y-77152914D02*
X91639524Y-77057676D01*
X91639524Y-77057676D02*
X91734762Y-76962438D01*
X91734762Y-76962438D02*
X91877619Y-76914819D01*
X91877619Y-76914819D02*
X91972857Y-76914819D01*
X91972857Y-76914819D02*
X92115714Y-76962438D01*
X92115714Y-76962438D02*
X92163333Y-77010057D01*
X93020476Y-77248152D02*
X93020476Y-77914819D01*
X92782381Y-76867200D02*
X92544286Y-77581485D01*
X92544286Y-77581485D02*
X93163333Y-77581485D01*
X61042319Y-72542857D02*
X60566128Y-72876190D01*
X61042319Y-73114285D02*
X60042319Y-73114285D01*
X60042319Y-73114285D02*
X60042319Y-72733333D01*
X60042319Y-72733333D02*
X60089938Y-72638095D01*
X60089938Y-72638095D02*
X60137557Y-72590476D01*
X60137557Y-72590476D02*
X60232795Y-72542857D01*
X60232795Y-72542857D02*
X60375652Y-72542857D01*
X60375652Y-72542857D02*
X60470890Y-72590476D01*
X60470890Y-72590476D02*
X60518509Y-72638095D01*
X60518509Y-72638095D02*
X60566128Y-72733333D01*
X60566128Y-72733333D02*
X60566128Y-73114285D01*
X60137557Y-72161904D02*
X60089938Y-72114285D01*
X60089938Y-72114285D02*
X60042319Y-72019047D01*
X60042319Y-72019047D02*
X60042319Y-71780952D01*
X60042319Y-71780952D02*
X60089938Y-71685714D01*
X60089938Y-71685714D02*
X60137557Y-71638095D01*
X60137557Y-71638095D02*
X60232795Y-71590476D01*
X60232795Y-71590476D02*
X60328033Y-71590476D01*
X60328033Y-71590476D02*
X60470890Y-71638095D01*
X60470890Y-71638095D02*
X61042319Y-72209523D01*
X61042319Y-72209523D02*
X61042319Y-71590476D01*
X60042319Y-71257142D02*
X60042319Y-70638095D01*
X60042319Y-70638095D02*
X60423271Y-70971428D01*
X60423271Y-70971428D02*
X60423271Y-70828571D01*
X60423271Y-70828571D02*
X60470890Y-70733333D01*
X60470890Y-70733333D02*
X60518509Y-70685714D01*
X60518509Y-70685714D02*
X60613747Y-70638095D01*
X60613747Y-70638095D02*
X60851842Y-70638095D01*
X60851842Y-70638095D02*
X60947080Y-70685714D01*
X60947080Y-70685714D02*
X60994700Y-70733333D01*
X60994700Y-70733333D02*
X61042319Y-70828571D01*
X61042319Y-70828571D02*
X61042319Y-71114285D01*
X61042319Y-71114285D02*
X60994700Y-71209523D01*
X60994700Y-71209523D02*
X60947080Y-71257142D01*
X29816666Y-93969819D02*
X29816666Y-94684104D01*
X29816666Y-94684104D02*
X29769047Y-94826961D01*
X29769047Y-94826961D02*
X29673809Y-94922200D01*
X29673809Y-94922200D02*
X29530952Y-94969819D01*
X29530952Y-94969819D02*
X29435714Y-94969819D01*
X30292857Y-94969819D02*
X30292857Y-93969819D01*
X30292857Y-93969819D02*
X30673809Y-93969819D01*
X30673809Y-93969819D02*
X30769047Y-94017438D01*
X30769047Y-94017438D02*
X30816666Y-94065057D01*
X30816666Y-94065057D02*
X30864285Y-94160295D01*
X30864285Y-94160295D02*
X30864285Y-94303152D01*
X30864285Y-94303152D02*
X30816666Y-94398390D01*
X30816666Y-94398390D02*
X30769047Y-94446009D01*
X30769047Y-94446009D02*
X30673809Y-94493628D01*
X30673809Y-94493628D02*
X30292857Y-94493628D01*
X31197619Y-93969819D02*
X31816666Y-93969819D01*
X31816666Y-93969819D02*
X31483333Y-94350771D01*
X31483333Y-94350771D02*
X31626190Y-94350771D01*
X31626190Y-94350771D02*
X31721428Y-94398390D01*
X31721428Y-94398390D02*
X31769047Y-94446009D01*
X31769047Y-94446009D02*
X31816666Y-94541247D01*
X31816666Y-94541247D02*
X31816666Y-94779342D01*
X31816666Y-94779342D02*
X31769047Y-94874580D01*
X31769047Y-94874580D02*
X31721428Y-94922200D01*
X31721428Y-94922200D02*
X31626190Y-94969819D01*
X31626190Y-94969819D02*
X31340476Y-94969819D01*
X31340476Y-94969819D02*
X31245238Y-94922200D01*
X31245238Y-94922200D02*
X31197619Y-94874580D01*
X40258333Y-43029819D02*
X39925000Y-42553628D01*
X39686905Y-43029819D02*
X39686905Y-42029819D01*
X39686905Y-42029819D02*
X40067857Y-42029819D01*
X40067857Y-42029819D02*
X40163095Y-42077438D01*
X40163095Y-42077438D02*
X40210714Y-42125057D01*
X40210714Y-42125057D02*
X40258333Y-42220295D01*
X40258333Y-42220295D02*
X40258333Y-42363152D01*
X40258333Y-42363152D02*
X40210714Y-42458390D01*
X40210714Y-42458390D02*
X40163095Y-42506009D01*
X40163095Y-42506009D02*
X40067857Y-42553628D01*
X40067857Y-42553628D02*
X39686905Y-42553628D01*
X41163095Y-42029819D02*
X40686905Y-42029819D01*
X40686905Y-42029819D02*
X40639286Y-42506009D01*
X40639286Y-42506009D02*
X40686905Y-42458390D01*
X40686905Y-42458390D02*
X40782143Y-42410771D01*
X40782143Y-42410771D02*
X41020238Y-42410771D01*
X41020238Y-42410771D02*
X41115476Y-42458390D01*
X41115476Y-42458390D02*
X41163095Y-42506009D01*
X41163095Y-42506009D02*
X41210714Y-42601247D01*
X41210714Y-42601247D02*
X41210714Y-42839342D01*
X41210714Y-42839342D02*
X41163095Y-42934580D01*
X41163095Y-42934580D02*
X41115476Y-42982200D01*
X41115476Y-42982200D02*
X41020238Y-43029819D01*
X41020238Y-43029819D02*
X40782143Y-43029819D01*
X40782143Y-43029819D02*
X40686905Y-42982200D01*
X40686905Y-42982200D02*
X40639286Y-42934580D01*
X54857142Y-67609580D02*
X54809523Y-67657200D01*
X54809523Y-67657200D02*
X54666666Y-67704819D01*
X54666666Y-67704819D02*
X54571428Y-67704819D01*
X54571428Y-67704819D02*
X54428571Y-67657200D01*
X54428571Y-67657200D02*
X54333333Y-67561961D01*
X54333333Y-67561961D02*
X54285714Y-67466723D01*
X54285714Y-67466723D02*
X54238095Y-67276247D01*
X54238095Y-67276247D02*
X54238095Y-67133390D01*
X54238095Y-67133390D02*
X54285714Y-66942914D01*
X54285714Y-66942914D02*
X54333333Y-66847676D01*
X54333333Y-66847676D02*
X54428571Y-66752438D01*
X54428571Y-66752438D02*
X54571428Y-66704819D01*
X54571428Y-66704819D02*
X54666666Y-66704819D01*
X54666666Y-66704819D02*
X54809523Y-66752438D01*
X54809523Y-66752438D02*
X54857142Y-66800057D01*
X55809523Y-67704819D02*
X55238095Y-67704819D01*
X55523809Y-67704819D02*
X55523809Y-66704819D01*
X55523809Y-66704819D02*
X55428571Y-66847676D01*
X55428571Y-66847676D02*
X55333333Y-66942914D01*
X55333333Y-66942914D02*
X55238095Y-66990533D01*
X56428571Y-66704819D02*
X56523809Y-66704819D01*
X56523809Y-66704819D02*
X56619047Y-66752438D01*
X56619047Y-66752438D02*
X56666666Y-66800057D01*
X56666666Y-66800057D02*
X56714285Y-66895295D01*
X56714285Y-66895295D02*
X56761904Y-67085771D01*
X56761904Y-67085771D02*
X56761904Y-67323866D01*
X56761904Y-67323866D02*
X56714285Y-67514342D01*
X56714285Y-67514342D02*
X56666666Y-67609580D01*
X56666666Y-67609580D02*
X56619047Y-67657200D01*
X56619047Y-67657200D02*
X56523809Y-67704819D01*
X56523809Y-67704819D02*
X56428571Y-67704819D01*
X56428571Y-67704819D02*
X56333333Y-67657200D01*
X56333333Y-67657200D02*
X56285714Y-67609580D01*
X56285714Y-67609580D02*
X56238095Y-67514342D01*
X56238095Y-67514342D02*
X56190476Y-67323866D01*
X56190476Y-67323866D02*
X56190476Y-67085771D01*
X56190476Y-67085771D02*
X56238095Y-66895295D01*
X56238095Y-66895295D02*
X56285714Y-66800057D01*
X56285714Y-66800057D02*
X56333333Y-66752438D01*
X56333333Y-66752438D02*
X56428571Y-66704819D01*
X28686905Y-48454819D02*
X28686905Y-47454819D01*
X28686905Y-47454819D02*
X28925000Y-47454819D01*
X28925000Y-47454819D02*
X29067857Y-47502438D01*
X29067857Y-47502438D02*
X29163095Y-47597676D01*
X29163095Y-47597676D02*
X29210714Y-47692914D01*
X29210714Y-47692914D02*
X29258333Y-47883390D01*
X29258333Y-47883390D02*
X29258333Y-48026247D01*
X29258333Y-48026247D02*
X29210714Y-48216723D01*
X29210714Y-48216723D02*
X29163095Y-48311961D01*
X29163095Y-48311961D02*
X29067857Y-48407200D01*
X29067857Y-48407200D02*
X28925000Y-48454819D01*
X28925000Y-48454819D02*
X28686905Y-48454819D01*
X30210714Y-48454819D02*
X29639286Y-48454819D01*
X29925000Y-48454819D02*
X29925000Y-47454819D01*
X29925000Y-47454819D02*
X29829762Y-47597676D01*
X29829762Y-47597676D02*
X29734524Y-47692914D01*
X29734524Y-47692914D02*
X29639286Y-47740533D01*
X56724819Y-36816666D02*
X56248628Y-37149999D01*
X56724819Y-37388094D02*
X55724819Y-37388094D01*
X55724819Y-37388094D02*
X55724819Y-37007142D01*
X55724819Y-37007142D02*
X55772438Y-36911904D01*
X55772438Y-36911904D02*
X55820057Y-36864285D01*
X55820057Y-36864285D02*
X55915295Y-36816666D01*
X55915295Y-36816666D02*
X56058152Y-36816666D01*
X56058152Y-36816666D02*
X56153390Y-36864285D01*
X56153390Y-36864285D02*
X56201009Y-36911904D01*
X56201009Y-36911904D02*
X56248628Y-37007142D01*
X56248628Y-37007142D02*
X56248628Y-37388094D01*
X56058152Y-35959523D02*
X56724819Y-35959523D01*
X55677200Y-36197618D02*
X56391485Y-36435713D01*
X56391485Y-36435713D02*
X56391485Y-35816666D01*
X29788095Y-49284819D02*
X29788095Y-50094342D01*
X29788095Y-50094342D02*
X29835714Y-50189580D01*
X29835714Y-50189580D02*
X29883333Y-50237200D01*
X29883333Y-50237200D02*
X29978571Y-50284819D01*
X29978571Y-50284819D02*
X30169047Y-50284819D01*
X30169047Y-50284819D02*
X30264285Y-50237200D01*
X30264285Y-50237200D02*
X30311904Y-50189580D01*
X30311904Y-50189580D02*
X30359523Y-50094342D01*
X30359523Y-50094342D02*
X30359523Y-49284819D01*
X31264285Y-49284819D02*
X31073809Y-49284819D01*
X31073809Y-49284819D02*
X30978571Y-49332438D01*
X30978571Y-49332438D02*
X30930952Y-49380057D01*
X30930952Y-49380057D02*
X30835714Y-49522914D01*
X30835714Y-49522914D02*
X30788095Y-49713390D01*
X30788095Y-49713390D02*
X30788095Y-50094342D01*
X30788095Y-50094342D02*
X30835714Y-50189580D01*
X30835714Y-50189580D02*
X30883333Y-50237200D01*
X30883333Y-50237200D02*
X30978571Y-50284819D01*
X30978571Y-50284819D02*
X31169047Y-50284819D01*
X31169047Y-50284819D02*
X31264285Y-50237200D01*
X31264285Y-50237200D02*
X31311904Y-50189580D01*
X31311904Y-50189580D02*
X31359523Y-50094342D01*
X31359523Y-50094342D02*
X31359523Y-49856247D01*
X31359523Y-49856247D02*
X31311904Y-49761009D01*
X31311904Y-49761009D02*
X31264285Y-49713390D01*
X31264285Y-49713390D02*
X31169047Y-49665771D01*
X31169047Y-49665771D02*
X30978571Y-49665771D01*
X30978571Y-49665771D02*
X30883333Y-49713390D01*
X30883333Y-49713390D02*
X30835714Y-49761009D01*
X30835714Y-49761009D02*
X30788095Y-49856247D01*
X73254819Y-28038094D02*
X72254819Y-28038094D01*
X72254819Y-28038094D02*
X72254819Y-27799999D01*
X72254819Y-27799999D02*
X72302438Y-27657142D01*
X72302438Y-27657142D02*
X72397676Y-27561904D01*
X72397676Y-27561904D02*
X72492914Y-27514285D01*
X72492914Y-27514285D02*
X72683390Y-27466666D01*
X72683390Y-27466666D02*
X72826247Y-27466666D01*
X72826247Y-27466666D02*
X73016723Y-27514285D01*
X73016723Y-27514285D02*
X73111961Y-27561904D01*
X73111961Y-27561904D02*
X73207200Y-27657142D01*
X73207200Y-27657142D02*
X73254819Y-27799999D01*
X73254819Y-27799999D02*
X73254819Y-28038094D01*
X72683390Y-26895237D02*
X72635771Y-26990475D01*
X72635771Y-26990475D02*
X72588152Y-27038094D01*
X72588152Y-27038094D02*
X72492914Y-27085713D01*
X72492914Y-27085713D02*
X72445295Y-27085713D01*
X72445295Y-27085713D02*
X72350057Y-27038094D01*
X72350057Y-27038094D02*
X72302438Y-26990475D01*
X72302438Y-26990475D02*
X72254819Y-26895237D01*
X72254819Y-26895237D02*
X72254819Y-26704761D01*
X72254819Y-26704761D02*
X72302438Y-26609523D01*
X72302438Y-26609523D02*
X72350057Y-26561904D01*
X72350057Y-26561904D02*
X72445295Y-26514285D01*
X72445295Y-26514285D02*
X72492914Y-26514285D01*
X72492914Y-26514285D02*
X72588152Y-26561904D01*
X72588152Y-26561904D02*
X72635771Y-26609523D01*
X72635771Y-26609523D02*
X72683390Y-26704761D01*
X72683390Y-26704761D02*
X72683390Y-26895237D01*
X72683390Y-26895237D02*
X72731009Y-26990475D01*
X72731009Y-26990475D02*
X72778628Y-27038094D01*
X72778628Y-27038094D02*
X72873866Y-27085713D01*
X72873866Y-27085713D02*
X73064342Y-27085713D01*
X73064342Y-27085713D02*
X73159580Y-27038094D01*
X73159580Y-27038094D02*
X73207200Y-26990475D01*
X73207200Y-26990475D02*
X73254819Y-26895237D01*
X73254819Y-26895237D02*
X73254819Y-26704761D01*
X73254819Y-26704761D02*
X73207200Y-26609523D01*
X73207200Y-26609523D02*
X73159580Y-26561904D01*
X73159580Y-26561904D02*
X73064342Y-26514285D01*
X73064342Y-26514285D02*
X72873866Y-26514285D01*
X72873866Y-26514285D02*
X72778628Y-26561904D01*
X72778628Y-26561904D02*
X72731009Y-26609523D01*
X72731009Y-26609523D02*
X72683390Y-26704761D01*
X64566666Y-83904819D02*
X64566666Y-84619104D01*
X64566666Y-84619104D02*
X64519047Y-84761961D01*
X64519047Y-84761961D02*
X64423809Y-84857200D01*
X64423809Y-84857200D02*
X64280952Y-84904819D01*
X64280952Y-84904819D02*
X64185714Y-84904819D01*
X65566666Y-84904819D02*
X64995238Y-84904819D01*
X65280952Y-84904819D02*
X65280952Y-83904819D01*
X65280952Y-83904819D02*
X65185714Y-84047676D01*
X65185714Y-84047676D02*
X65090476Y-84142914D01*
X65090476Y-84142914D02*
X64995238Y-84190533D01*
X47813095Y-86519819D02*
X47813095Y-87329342D01*
X47813095Y-87329342D02*
X47860714Y-87424580D01*
X47860714Y-87424580D02*
X47908333Y-87472200D01*
X47908333Y-87472200D02*
X48003571Y-87519819D01*
X48003571Y-87519819D02*
X48194047Y-87519819D01*
X48194047Y-87519819D02*
X48289285Y-87472200D01*
X48289285Y-87472200D02*
X48336904Y-87424580D01*
X48336904Y-87424580D02*
X48384523Y-87329342D01*
X48384523Y-87329342D02*
X48384523Y-86519819D01*
X48765476Y-86519819D02*
X49432142Y-86519819D01*
X49432142Y-86519819D02*
X49003571Y-87519819D01*
X99829819Y-47792857D02*
X99353628Y-48126190D01*
X99829819Y-48364285D02*
X98829819Y-48364285D01*
X98829819Y-48364285D02*
X98829819Y-47983333D01*
X98829819Y-47983333D02*
X98877438Y-47888095D01*
X98877438Y-47888095D02*
X98925057Y-47840476D01*
X98925057Y-47840476D02*
X99020295Y-47792857D01*
X99020295Y-47792857D02*
X99163152Y-47792857D01*
X99163152Y-47792857D02*
X99258390Y-47840476D01*
X99258390Y-47840476D02*
X99306009Y-47888095D01*
X99306009Y-47888095D02*
X99353628Y-47983333D01*
X99353628Y-47983333D02*
X99353628Y-48364285D01*
X99829819Y-46840476D02*
X99829819Y-47411904D01*
X99829819Y-47126190D02*
X98829819Y-47126190D01*
X98829819Y-47126190D02*
X98972676Y-47221428D01*
X98972676Y-47221428D02*
X99067914Y-47316666D01*
X99067914Y-47316666D02*
X99115533Y-47411904D01*
X98829819Y-46507142D02*
X98829819Y-45840476D01*
X98829819Y-45840476D02*
X99829819Y-46269047D01*
X21786666Y-36104819D02*
X21310476Y-36104819D01*
X21310476Y-36104819D02*
X21310476Y-35104819D01*
X22310476Y-35104819D02*
X22500952Y-35104819D01*
X22500952Y-35104819D02*
X22596190Y-35152438D01*
X22596190Y-35152438D02*
X22691428Y-35247676D01*
X22691428Y-35247676D02*
X22739047Y-35438152D01*
X22739047Y-35438152D02*
X22739047Y-35771485D01*
X22739047Y-35771485D02*
X22691428Y-35961961D01*
X22691428Y-35961961D02*
X22596190Y-36057200D01*
X22596190Y-36057200D02*
X22500952Y-36104819D01*
X22500952Y-36104819D02*
X22310476Y-36104819D01*
X22310476Y-36104819D02*
X22215238Y-36057200D01*
X22215238Y-36057200D02*
X22120000Y-35961961D01*
X22120000Y-35961961D02*
X22072381Y-35771485D01*
X22072381Y-35771485D02*
X22072381Y-35438152D01*
X22072381Y-35438152D02*
X22120000Y-35247676D01*
X22120000Y-35247676D02*
X22215238Y-35152438D01*
X22215238Y-35152438D02*
X22310476Y-35104819D01*
X23739047Y-36009580D02*
X23691428Y-36057200D01*
X23691428Y-36057200D02*
X23548571Y-36104819D01*
X23548571Y-36104819D02*
X23453333Y-36104819D01*
X23453333Y-36104819D02*
X23310476Y-36057200D01*
X23310476Y-36057200D02*
X23215238Y-35961961D01*
X23215238Y-35961961D02*
X23167619Y-35866723D01*
X23167619Y-35866723D02*
X23120000Y-35676247D01*
X23120000Y-35676247D02*
X23120000Y-35533390D01*
X23120000Y-35533390D02*
X23167619Y-35342914D01*
X23167619Y-35342914D02*
X23215238Y-35247676D01*
X23215238Y-35247676D02*
X23310476Y-35152438D01*
X23310476Y-35152438D02*
X23453333Y-35104819D01*
X23453333Y-35104819D02*
X23548571Y-35104819D01*
X23548571Y-35104819D02*
X23691428Y-35152438D01*
X23691428Y-35152438D02*
X23739047Y-35200057D01*
X24358095Y-35104819D02*
X24548571Y-35104819D01*
X24548571Y-35104819D02*
X24643809Y-35152438D01*
X24643809Y-35152438D02*
X24739047Y-35247676D01*
X24739047Y-35247676D02*
X24786666Y-35438152D01*
X24786666Y-35438152D02*
X24786666Y-35771485D01*
X24786666Y-35771485D02*
X24739047Y-35961961D01*
X24739047Y-35961961D02*
X24643809Y-36057200D01*
X24643809Y-36057200D02*
X24548571Y-36104819D01*
X24548571Y-36104819D02*
X24358095Y-36104819D01*
X24358095Y-36104819D02*
X24262857Y-36057200D01*
X24262857Y-36057200D02*
X24167619Y-35961961D01*
X24167619Y-35961961D02*
X24120000Y-35771485D01*
X24120000Y-35771485D02*
X24120000Y-35438152D01*
X24120000Y-35438152D02*
X24167619Y-35247676D01*
X24167619Y-35247676D02*
X24262857Y-35152438D01*
X24262857Y-35152438D02*
X24358095Y-35104819D01*
X25215238Y-36104819D02*
X25215238Y-35104819D01*
X25215238Y-35104819D02*
X25786666Y-36104819D01*
X25786666Y-36104819D02*
X25786666Y-35104819D01*
X26262857Y-35581009D02*
X26596190Y-35581009D01*
X26739047Y-36104819D02*
X26262857Y-36104819D01*
X26262857Y-36104819D02*
X26262857Y-35104819D01*
X26262857Y-35104819D02*
X26739047Y-35104819D01*
X27024762Y-35104819D02*
X27596190Y-35104819D01*
X27310476Y-36104819D02*
X27310476Y-35104819D01*
X27691429Y-36200057D02*
X28453333Y-36200057D01*
X28548572Y-35104819D02*
X29120000Y-35104819D01*
X28834286Y-36104819D02*
X28834286Y-35104819D01*
X29977143Y-36104819D02*
X29405715Y-36104819D01*
X29691429Y-36104819D02*
X29691429Y-35104819D01*
X29691429Y-35104819D02*
X29596191Y-35247676D01*
X29596191Y-35247676D02*
X29500953Y-35342914D01*
X29500953Y-35342914D02*
X29405715Y-35390533D01*
X95288095Y-93604819D02*
X95288095Y-94414342D01*
X95288095Y-94414342D02*
X95335714Y-94509580D01*
X95335714Y-94509580D02*
X95383333Y-94557200D01*
X95383333Y-94557200D02*
X95478571Y-94604819D01*
X95478571Y-94604819D02*
X95669047Y-94604819D01*
X95669047Y-94604819D02*
X95764285Y-94557200D01*
X95764285Y-94557200D02*
X95811904Y-94509580D01*
X95811904Y-94509580D02*
X95859523Y-94414342D01*
X95859523Y-94414342D02*
X95859523Y-93604819D01*
X96859523Y-94604819D02*
X96288095Y-94604819D01*
X96573809Y-94604819D02*
X96573809Y-93604819D01*
X96573809Y-93604819D02*
X96478571Y-93747676D01*
X96478571Y-93747676D02*
X96383333Y-93842914D01*
X96383333Y-93842914D02*
X96288095Y-93890533D01*
X34641666Y-94004819D02*
X34641666Y-94719104D01*
X34641666Y-94719104D02*
X34594047Y-94861961D01*
X34594047Y-94861961D02*
X34498809Y-94957200D01*
X34498809Y-94957200D02*
X34355952Y-95004819D01*
X34355952Y-95004819D02*
X34260714Y-95004819D01*
X35117857Y-95004819D02*
X35117857Y-94004819D01*
X35117857Y-94004819D02*
X35498809Y-94004819D01*
X35498809Y-94004819D02*
X35594047Y-94052438D01*
X35594047Y-94052438D02*
X35641666Y-94100057D01*
X35641666Y-94100057D02*
X35689285Y-94195295D01*
X35689285Y-94195295D02*
X35689285Y-94338152D01*
X35689285Y-94338152D02*
X35641666Y-94433390D01*
X35641666Y-94433390D02*
X35594047Y-94481009D01*
X35594047Y-94481009D02*
X35498809Y-94528628D01*
X35498809Y-94528628D02*
X35117857Y-94528628D01*
X36070238Y-94100057D02*
X36117857Y-94052438D01*
X36117857Y-94052438D02*
X36213095Y-94004819D01*
X36213095Y-94004819D02*
X36451190Y-94004819D01*
X36451190Y-94004819D02*
X36546428Y-94052438D01*
X36546428Y-94052438D02*
X36594047Y-94100057D01*
X36594047Y-94100057D02*
X36641666Y-94195295D01*
X36641666Y-94195295D02*
X36641666Y-94290533D01*
X36641666Y-94290533D02*
X36594047Y-94433390D01*
X36594047Y-94433390D02*
X36022619Y-95004819D01*
X36022619Y-95004819D02*
X36641666Y-95004819D01*
X76773333Y-42329580D02*
X76725714Y-42377200D01*
X76725714Y-42377200D02*
X76582857Y-42424819D01*
X76582857Y-42424819D02*
X76487619Y-42424819D01*
X76487619Y-42424819D02*
X76344762Y-42377200D01*
X76344762Y-42377200D02*
X76249524Y-42281961D01*
X76249524Y-42281961D02*
X76201905Y-42186723D01*
X76201905Y-42186723D02*
X76154286Y-41996247D01*
X76154286Y-41996247D02*
X76154286Y-41853390D01*
X76154286Y-41853390D02*
X76201905Y-41662914D01*
X76201905Y-41662914D02*
X76249524Y-41567676D01*
X76249524Y-41567676D02*
X76344762Y-41472438D01*
X76344762Y-41472438D02*
X76487619Y-41424819D01*
X76487619Y-41424819D02*
X76582857Y-41424819D01*
X76582857Y-41424819D02*
X76725714Y-41472438D01*
X76725714Y-41472438D02*
X76773333Y-41520057D01*
X77201905Y-41424819D02*
X77201905Y-42234342D01*
X77201905Y-42234342D02*
X77249524Y-42329580D01*
X77249524Y-42329580D02*
X77297143Y-42377200D01*
X77297143Y-42377200D02*
X77392381Y-42424819D01*
X77392381Y-42424819D02*
X77582857Y-42424819D01*
X77582857Y-42424819D02*
X77678095Y-42377200D01*
X77678095Y-42377200D02*
X77725714Y-42329580D01*
X77725714Y-42329580D02*
X77773333Y-42234342D01*
X77773333Y-42234342D02*
X77773333Y-41424819D01*
X78773333Y-42424819D02*
X78201905Y-42424819D01*
X78487619Y-42424819D02*
X78487619Y-41424819D01*
X78487619Y-41424819D02*
X78392381Y-41567676D01*
X78392381Y-41567676D02*
X78297143Y-41662914D01*
X78297143Y-41662914D02*
X78201905Y-41710533D01*
X79725714Y-42424819D02*
X79154286Y-42424819D01*
X79440000Y-42424819D02*
X79440000Y-41424819D01*
X79440000Y-41424819D02*
X79344762Y-41567676D01*
X79344762Y-41567676D02*
X79249524Y-41662914D01*
X79249524Y-41662914D02*
X79154286Y-41710533D01*
X46229819Y-71963094D02*
X47039342Y-71963094D01*
X47039342Y-71963094D02*
X47134580Y-71915475D01*
X47134580Y-71915475D02*
X47182200Y-71867856D01*
X47182200Y-71867856D02*
X47229819Y-71772618D01*
X47229819Y-71772618D02*
X47229819Y-71582142D01*
X47229819Y-71582142D02*
X47182200Y-71486904D01*
X47182200Y-71486904D02*
X47134580Y-71439285D01*
X47134580Y-71439285D02*
X47039342Y-71391666D01*
X47039342Y-71391666D02*
X46229819Y-71391666D01*
X47229819Y-70391666D02*
X47229819Y-70963094D01*
X47229819Y-70677380D02*
X46229819Y-70677380D01*
X46229819Y-70677380D02*
X46372676Y-70772618D01*
X46372676Y-70772618D02*
X46467914Y-70867856D01*
X46467914Y-70867856D02*
X46515533Y-70963094D01*
X46229819Y-69772618D02*
X46229819Y-69677380D01*
X46229819Y-69677380D02*
X46277438Y-69582142D01*
X46277438Y-69582142D02*
X46325057Y-69534523D01*
X46325057Y-69534523D02*
X46420295Y-69486904D01*
X46420295Y-69486904D02*
X46610771Y-69439285D01*
X46610771Y-69439285D02*
X46848866Y-69439285D01*
X46848866Y-69439285D02*
X47039342Y-69486904D01*
X47039342Y-69486904D02*
X47134580Y-69534523D01*
X47134580Y-69534523D02*
X47182200Y-69582142D01*
X47182200Y-69582142D02*
X47229819Y-69677380D01*
X47229819Y-69677380D02*
X47229819Y-69772618D01*
X47229819Y-69772618D02*
X47182200Y-69867856D01*
X47182200Y-69867856D02*
X47134580Y-69915475D01*
X47134580Y-69915475D02*
X47039342Y-69963094D01*
X47039342Y-69963094D02*
X46848866Y-70010713D01*
X46848866Y-70010713D02*
X46610771Y-70010713D01*
X46610771Y-70010713D02*
X46420295Y-69963094D01*
X46420295Y-69963094D02*
X46325057Y-69915475D01*
X46325057Y-69915475D02*
X46277438Y-69867856D01*
X46277438Y-69867856D02*
X46229819Y-69772618D01*
X63811905Y-29654819D02*
X63811905Y-30464342D01*
X63811905Y-30464342D02*
X63859524Y-30559580D01*
X63859524Y-30559580D02*
X63907143Y-30607200D01*
X63907143Y-30607200D02*
X64002381Y-30654819D01*
X64002381Y-30654819D02*
X64192857Y-30654819D01*
X64192857Y-30654819D02*
X64288095Y-30607200D01*
X64288095Y-30607200D02*
X64335714Y-30559580D01*
X64335714Y-30559580D02*
X64383333Y-30464342D01*
X64383333Y-30464342D02*
X64383333Y-29654819D01*
X65383333Y-30654819D02*
X64811905Y-30654819D01*
X65097619Y-30654819D02*
X65097619Y-29654819D01*
X65097619Y-29654819D02*
X65002381Y-29797676D01*
X65002381Y-29797676D02*
X64907143Y-29892914D01*
X64907143Y-29892914D02*
X64811905Y-29940533D01*
X65764286Y-29750057D02*
X65811905Y-29702438D01*
X65811905Y-29702438D02*
X65907143Y-29654819D01*
X65907143Y-29654819D02*
X66145238Y-29654819D01*
X66145238Y-29654819D02*
X66240476Y-29702438D01*
X66240476Y-29702438D02*
X66288095Y-29750057D01*
X66288095Y-29750057D02*
X66335714Y-29845295D01*
X66335714Y-29845295D02*
X66335714Y-29940533D01*
X66335714Y-29940533D02*
X66288095Y-30083390D01*
X66288095Y-30083390D02*
X65716667Y-30654819D01*
X65716667Y-30654819D02*
X66335714Y-30654819D01*
X47788095Y-39429819D02*
X47788095Y-40239342D01*
X47788095Y-40239342D02*
X47835714Y-40334580D01*
X47835714Y-40334580D02*
X47883333Y-40382200D01*
X47883333Y-40382200D02*
X47978571Y-40429819D01*
X47978571Y-40429819D02*
X48169047Y-40429819D01*
X48169047Y-40429819D02*
X48264285Y-40382200D01*
X48264285Y-40382200D02*
X48311904Y-40334580D01*
X48311904Y-40334580D02*
X48359523Y-40239342D01*
X48359523Y-40239342D02*
X48359523Y-39429819D01*
X48740476Y-39429819D02*
X49359523Y-39429819D01*
X49359523Y-39429819D02*
X49026190Y-39810771D01*
X49026190Y-39810771D02*
X49169047Y-39810771D01*
X49169047Y-39810771D02*
X49264285Y-39858390D01*
X49264285Y-39858390D02*
X49311904Y-39906009D01*
X49311904Y-39906009D02*
X49359523Y-40001247D01*
X49359523Y-40001247D02*
X49359523Y-40239342D01*
X49359523Y-40239342D02*
X49311904Y-40334580D01*
X49311904Y-40334580D02*
X49264285Y-40382200D01*
X49264285Y-40382200D02*
X49169047Y-40429819D01*
X49169047Y-40429819D02*
X48883333Y-40429819D01*
X48883333Y-40429819D02*
X48788095Y-40382200D01*
X48788095Y-40382200D02*
X48740476Y-40334580D01*
X106691666Y-39504819D02*
X106691666Y-40219104D01*
X106691666Y-40219104D02*
X106644047Y-40361961D01*
X106644047Y-40361961D02*
X106548809Y-40457200D01*
X106548809Y-40457200D02*
X106405952Y-40504819D01*
X106405952Y-40504819D02*
X106310714Y-40504819D01*
X107072619Y-39504819D02*
X107691666Y-39504819D01*
X107691666Y-39504819D02*
X107358333Y-39885771D01*
X107358333Y-39885771D02*
X107501190Y-39885771D01*
X107501190Y-39885771D02*
X107596428Y-39933390D01*
X107596428Y-39933390D02*
X107644047Y-39981009D01*
X107644047Y-39981009D02*
X107691666Y-40076247D01*
X107691666Y-40076247D02*
X107691666Y-40314342D01*
X107691666Y-40314342D02*
X107644047Y-40409580D01*
X107644047Y-40409580D02*
X107596428Y-40457200D01*
X107596428Y-40457200D02*
X107501190Y-40504819D01*
X107501190Y-40504819D02*
X107215476Y-40504819D01*
X107215476Y-40504819D02*
X107120238Y-40457200D01*
X107120238Y-40457200D02*
X107072619Y-40409580D01*
X80154819Y-58383094D02*
X80964342Y-58383094D01*
X80964342Y-58383094D02*
X81059580Y-58335475D01*
X81059580Y-58335475D02*
X81107200Y-58287856D01*
X81107200Y-58287856D02*
X81154819Y-58192618D01*
X81154819Y-58192618D02*
X81154819Y-58002142D01*
X81154819Y-58002142D02*
X81107200Y-57906904D01*
X81107200Y-57906904D02*
X81059580Y-57859285D01*
X81059580Y-57859285D02*
X80964342Y-57811666D01*
X80964342Y-57811666D02*
X80154819Y-57811666D01*
X81154819Y-56811666D02*
X81154819Y-57383094D01*
X81154819Y-57097380D02*
X80154819Y-57097380D01*
X80154819Y-57097380D02*
X80297676Y-57192618D01*
X80297676Y-57192618D02*
X80392914Y-57287856D01*
X80392914Y-57287856D02*
X80440533Y-57383094D01*
X81154819Y-55859285D02*
X81154819Y-56430713D01*
X81154819Y-56144999D02*
X80154819Y-56144999D01*
X80154819Y-56144999D02*
X80297676Y-56240237D01*
X80297676Y-56240237D02*
X80392914Y-56335475D01*
X80392914Y-56335475D02*
X80440533Y-56430713D01*
X50588095Y-39204819D02*
X50588095Y-40014342D01*
X50588095Y-40014342D02*
X50635714Y-40109580D01*
X50635714Y-40109580D02*
X50683333Y-40157200D01*
X50683333Y-40157200D02*
X50778571Y-40204819D01*
X50778571Y-40204819D02*
X50969047Y-40204819D01*
X50969047Y-40204819D02*
X51064285Y-40157200D01*
X51064285Y-40157200D02*
X51111904Y-40109580D01*
X51111904Y-40109580D02*
X51159523Y-40014342D01*
X51159523Y-40014342D02*
X51159523Y-39204819D01*
X52064285Y-39538152D02*
X52064285Y-40204819D01*
X51826190Y-39157200D02*
X51588095Y-39871485D01*
X51588095Y-39871485D02*
X52207142Y-39871485D01*
X70607142Y-75359580D02*
X70559523Y-75407200D01*
X70559523Y-75407200D02*
X70416666Y-75454819D01*
X70416666Y-75454819D02*
X70321428Y-75454819D01*
X70321428Y-75454819D02*
X70178571Y-75407200D01*
X70178571Y-75407200D02*
X70083333Y-75311961D01*
X70083333Y-75311961D02*
X70035714Y-75216723D01*
X70035714Y-75216723D02*
X69988095Y-75026247D01*
X69988095Y-75026247D02*
X69988095Y-74883390D01*
X69988095Y-74883390D02*
X70035714Y-74692914D01*
X70035714Y-74692914D02*
X70083333Y-74597676D01*
X70083333Y-74597676D02*
X70178571Y-74502438D01*
X70178571Y-74502438D02*
X70321428Y-74454819D01*
X70321428Y-74454819D02*
X70416666Y-74454819D01*
X70416666Y-74454819D02*
X70559523Y-74502438D01*
X70559523Y-74502438D02*
X70607142Y-74550057D01*
X71559523Y-75454819D02*
X70988095Y-75454819D01*
X71273809Y-75454819D02*
X71273809Y-74454819D01*
X71273809Y-74454819D02*
X71178571Y-74597676D01*
X71178571Y-74597676D02*
X71083333Y-74692914D01*
X71083333Y-74692914D02*
X70988095Y-74740533D01*
X71940476Y-74550057D02*
X71988095Y-74502438D01*
X71988095Y-74502438D02*
X72083333Y-74454819D01*
X72083333Y-74454819D02*
X72321428Y-74454819D01*
X72321428Y-74454819D02*
X72416666Y-74502438D01*
X72416666Y-74502438D02*
X72464285Y-74550057D01*
X72464285Y-74550057D02*
X72511904Y-74645295D01*
X72511904Y-74645295D02*
X72511904Y-74740533D01*
X72511904Y-74740533D02*
X72464285Y-74883390D01*
X72464285Y-74883390D02*
X71892857Y-75454819D01*
X71892857Y-75454819D02*
X72511904Y-75454819D01*
X80357142Y-75359580D02*
X80309523Y-75407200D01*
X80309523Y-75407200D02*
X80166666Y-75454819D01*
X80166666Y-75454819D02*
X80071428Y-75454819D01*
X80071428Y-75454819D02*
X79928571Y-75407200D01*
X79928571Y-75407200D02*
X79833333Y-75311961D01*
X79833333Y-75311961D02*
X79785714Y-75216723D01*
X79785714Y-75216723D02*
X79738095Y-75026247D01*
X79738095Y-75026247D02*
X79738095Y-74883390D01*
X79738095Y-74883390D02*
X79785714Y-74692914D01*
X79785714Y-74692914D02*
X79833333Y-74597676D01*
X79833333Y-74597676D02*
X79928571Y-74502438D01*
X79928571Y-74502438D02*
X80071428Y-74454819D01*
X80071428Y-74454819D02*
X80166666Y-74454819D01*
X80166666Y-74454819D02*
X80309523Y-74502438D01*
X80309523Y-74502438D02*
X80357142Y-74550057D01*
X81309523Y-75454819D02*
X80738095Y-75454819D01*
X81023809Y-75454819D02*
X81023809Y-74454819D01*
X81023809Y-74454819D02*
X80928571Y-74597676D01*
X80928571Y-74597676D02*
X80833333Y-74692914D01*
X80833333Y-74692914D02*
X80738095Y-74740533D01*
X81642857Y-74454819D02*
X82261904Y-74454819D01*
X82261904Y-74454819D02*
X81928571Y-74835771D01*
X81928571Y-74835771D02*
X82071428Y-74835771D01*
X82071428Y-74835771D02*
X82166666Y-74883390D01*
X82166666Y-74883390D02*
X82214285Y-74931009D01*
X82214285Y-74931009D02*
X82261904Y-75026247D01*
X82261904Y-75026247D02*
X82261904Y-75264342D01*
X82261904Y-75264342D02*
X82214285Y-75359580D01*
X82214285Y-75359580D02*
X82166666Y-75407200D01*
X82166666Y-75407200D02*
X82071428Y-75454819D01*
X82071428Y-75454819D02*
X81785714Y-75454819D01*
X81785714Y-75454819D02*
X81690476Y-75407200D01*
X81690476Y-75407200D02*
X81642857Y-75359580D01*
X84704819Y-67761904D02*
X85514342Y-67761904D01*
X85514342Y-67761904D02*
X85609580Y-67714285D01*
X85609580Y-67714285D02*
X85657200Y-67666666D01*
X85657200Y-67666666D02*
X85704819Y-67571428D01*
X85704819Y-67571428D02*
X85704819Y-67380952D01*
X85704819Y-67380952D02*
X85657200Y-67285714D01*
X85657200Y-67285714D02*
X85609580Y-67238095D01*
X85609580Y-67238095D02*
X85514342Y-67190476D01*
X85514342Y-67190476D02*
X84704819Y-67190476D01*
X84800057Y-66761904D02*
X84752438Y-66714285D01*
X84752438Y-66714285D02*
X84704819Y-66619047D01*
X84704819Y-66619047D02*
X84704819Y-66380952D01*
X84704819Y-66380952D02*
X84752438Y-66285714D01*
X84752438Y-66285714D02*
X84800057Y-66238095D01*
X84800057Y-66238095D02*
X84895295Y-66190476D01*
X84895295Y-66190476D02*
X84990533Y-66190476D01*
X84990533Y-66190476D02*
X85133390Y-66238095D01*
X85133390Y-66238095D02*
X85704819Y-66809523D01*
X85704819Y-66809523D02*
X85704819Y-66190476D01*
X46079819Y-76636904D02*
X46889342Y-76636904D01*
X46889342Y-76636904D02*
X46984580Y-76589285D01*
X46984580Y-76589285D02*
X47032200Y-76541666D01*
X47032200Y-76541666D02*
X47079819Y-76446428D01*
X47079819Y-76446428D02*
X47079819Y-76255952D01*
X47079819Y-76255952D02*
X47032200Y-76160714D01*
X47032200Y-76160714D02*
X46984580Y-76113095D01*
X46984580Y-76113095D02*
X46889342Y-76065476D01*
X46889342Y-76065476D02*
X46079819Y-76065476D01*
X47079819Y-75541666D02*
X47079819Y-75351190D01*
X47079819Y-75351190D02*
X47032200Y-75255952D01*
X47032200Y-75255952D02*
X46984580Y-75208333D01*
X46984580Y-75208333D02*
X46841723Y-75113095D01*
X46841723Y-75113095D02*
X46651247Y-75065476D01*
X46651247Y-75065476D02*
X46270295Y-75065476D01*
X46270295Y-75065476D02*
X46175057Y-75113095D01*
X46175057Y-75113095D02*
X46127438Y-75160714D01*
X46127438Y-75160714D02*
X46079819Y-75255952D01*
X46079819Y-75255952D02*
X46079819Y-75446428D01*
X46079819Y-75446428D02*
X46127438Y-75541666D01*
X46127438Y-75541666D02*
X46175057Y-75589285D01*
X46175057Y-75589285D02*
X46270295Y-75636904D01*
X46270295Y-75636904D02*
X46508390Y-75636904D01*
X46508390Y-75636904D02*
X46603628Y-75589285D01*
X46603628Y-75589285D02*
X46651247Y-75541666D01*
X46651247Y-75541666D02*
X46698866Y-75446428D01*
X46698866Y-75446428D02*
X46698866Y-75255952D01*
X46698866Y-75255952D02*
X46651247Y-75160714D01*
X46651247Y-75160714D02*
X46603628Y-75113095D01*
X46603628Y-75113095D02*
X46508390Y-75065476D01*
X29116666Y-26489819D02*
X29116666Y-27204104D01*
X29116666Y-27204104D02*
X29069047Y-27346961D01*
X29069047Y-27346961D02*
X28973809Y-27442200D01*
X28973809Y-27442200D02*
X28830952Y-27489819D01*
X28830952Y-27489819D02*
X28735714Y-27489819D01*
X29592857Y-27489819D02*
X29592857Y-26489819D01*
X29592857Y-26489819D02*
X29973809Y-26489819D01*
X29973809Y-26489819D02*
X30069047Y-26537438D01*
X30069047Y-26537438D02*
X30116666Y-26585057D01*
X30116666Y-26585057D02*
X30164285Y-26680295D01*
X30164285Y-26680295D02*
X30164285Y-26823152D01*
X30164285Y-26823152D02*
X30116666Y-26918390D01*
X30116666Y-26918390D02*
X30069047Y-26966009D01*
X30069047Y-26966009D02*
X29973809Y-27013628D01*
X29973809Y-27013628D02*
X29592857Y-27013628D01*
X31116666Y-27489819D02*
X30545238Y-27489819D01*
X30830952Y-27489819D02*
X30830952Y-26489819D01*
X30830952Y-26489819D02*
X30735714Y-26632676D01*
X30735714Y-26632676D02*
X30640476Y-26727914D01*
X30640476Y-26727914D02*
X30545238Y-26775533D01*
X40979819Y-29842857D02*
X40503628Y-30176190D01*
X40979819Y-30414285D02*
X39979819Y-30414285D01*
X39979819Y-30414285D02*
X39979819Y-30033333D01*
X39979819Y-30033333D02*
X40027438Y-29938095D01*
X40027438Y-29938095D02*
X40075057Y-29890476D01*
X40075057Y-29890476D02*
X40170295Y-29842857D01*
X40170295Y-29842857D02*
X40313152Y-29842857D01*
X40313152Y-29842857D02*
X40408390Y-29890476D01*
X40408390Y-29890476D02*
X40456009Y-29938095D01*
X40456009Y-29938095D02*
X40503628Y-30033333D01*
X40503628Y-30033333D02*
X40503628Y-30414285D01*
X40979819Y-28890476D02*
X40979819Y-29461904D01*
X40979819Y-29176190D02*
X39979819Y-29176190D01*
X39979819Y-29176190D02*
X40122676Y-29271428D01*
X40122676Y-29271428D02*
X40217914Y-29366666D01*
X40217914Y-29366666D02*
X40265533Y-29461904D01*
X39979819Y-28271428D02*
X39979819Y-28176190D01*
X39979819Y-28176190D02*
X40027438Y-28080952D01*
X40027438Y-28080952D02*
X40075057Y-28033333D01*
X40075057Y-28033333D02*
X40170295Y-27985714D01*
X40170295Y-27985714D02*
X40360771Y-27938095D01*
X40360771Y-27938095D02*
X40598866Y-27938095D01*
X40598866Y-27938095D02*
X40789342Y-27985714D01*
X40789342Y-27985714D02*
X40884580Y-28033333D01*
X40884580Y-28033333D02*
X40932200Y-28080952D01*
X40932200Y-28080952D02*
X40979819Y-28176190D01*
X40979819Y-28176190D02*
X40979819Y-28271428D01*
X40979819Y-28271428D02*
X40932200Y-28366666D01*
X40932200Y-28366666D02*
X40884580Y-28414285D01*
X40884580Y-28414285D02*
X40789342Y-28461904D01*
X40789342Y-28461904D02*
X40598866Y-28509523D01*
X40598866Y-28509523D02*
X40360771Y-28509523D01*
X40360771Y-28509523D02*
X40170295Y-28461904D01*
X40170295Y-28461904D02*
X40075057Y-28414285D01*
X40075057Y-28414285D02*
X40027438Y-28366666D01*
X40027438Y-28366666D02*
X39979819Y-28271428D01*
X95333333Y-52609580D02*
X95285714Y-52657200D01*
X95285714Y-52657200D02*
X95142857Y-52704819D01*
X95142857Y-52704819D02*
X95047619Y-52704819D01*
X95047619Y-52704819D02*
X94904762Y-52657200D01*
X94904762Y-52657200D02*
X94809524Y-52561961D01*
X94809524Y-52561961D02*
X94761905Y-52466723D01*
X94761905Y-52466723D02*
X94714286Y-52276247D01*
X94714286Y-52276247D02*
X94714286Y-52133390D01*
X94714286Y-52133390D02*
X94761905Y-51942914D01*
X94761905Y-51942914D02*
X94809524Y-51847676D01*
X94809524Y-51847676D02*
X94904762Y-51752438D01*
X94904762Y-51752438D02*
X95047619Y-51704819D01*
X95047619Y-51704819D02*
X95142857Y-51704819D01*
X95142857Y-51704819D02*
X95285714Y-51752438D01*
X95285714Y-51752438D02*
X95333333Y-51800057D01*
X96095238Y-52181009D02*
X96238095Y-52228628D01*
X96238095Y-52228628D02*
X96285714Y-52276247D01*
X96285714Y-52276247D02*
X96333333Y-52371485D01*
X96333333Y-52371485D02*
X96333333Y-52514342D01*
X96333333Y-52514342D02*
X96285714Y-52609580D01*
X96285714Y-52609580D02*
X96238095Y-52657200D01*
X96238095Y-52657200D02*
X96142857Y-52704819D01*
X96142857Y-52704819D02*
X95761905Y-52704819D01*
X95761905Y-52704819D02*
X95761905Y-51704819D01*
X95761905Y-51704819D02*
X96095238Y-51704819D01*
X96095238Y-51704819D02*
X96190476Y-51752438D01*
X96190476Y-51752438D02*
X96238095Y-51800057D01*
X96238095Y-51800057D02*
X96285714Y-51895295D01*
X96285714Y-51895295D02*
X96285714Y-51990533D01*
X96285714Y-51990533D02*
X96238095Y-52085771D01*
X96238095Y-52085771D02*
X96190476Y-52133390D01*
X96190476Y-52133390D02*
X96095238Y-52181009D01*
X96095238Y-52181009D02*
X95761905Y-52181009D01*
X97285714Y-52704819D02*
X96714286Y-52704819D01*
X97000000Y-52704819D02*
X97000000Y-51704819D01*
X97000000Y-51704819D02*
X96904762Y-51847676D01*
X96904762Y-51847676D02*
X96809524Y-51942914D01*
X96809524Y-51942914D02*
X96714286Y-51990533D01*
X73607142Y-75454819D02*
X73273809Y-74978628D01*
X73035714Y-75454819D02*
X73035714Y-74454819D01*
X73035714Y-74454819D02*
X73416666Y-74454819D01*
X73416666Y-74454819D02*
X73511904Y-74502438D01*
X73511904Y-74502438D02*
X73559523Y-74550057D01*
X73559523Y-74550057D02*
X73607142Y-74645295D01*
X73607142Y-74645295D02*
X73607142Y-74788152D01*
X73607142Y-74788152D02*
X73559523Y-74883390D01*
X73559523Y-74883390D02*
X73511904Y-74931009D01*
X73511904Y-74931009D02*
X73416666Y-74978628D01*
X73416666Y-74978628D02*
X73035714Y-74978628D01*
X74559523Y-75454819D02*
X73988095Y-75454819D01*
X74273809Y-75454819D02*
X74273809Y-74454819D01*
X74273809Y-74454819D02*
X74178571Y-74597676D01*
X74178571Y-74597676D02*
X74083333Y-74692914D01*
X74083333Y-74692914D02*
X73988095Y-74740533D01*
X75130952Y-74883390D02*
X75035714Y-74835771D01*
X75035714Y-74835771D02*
X74988095Y-74788152D01*
X74988095Y-74788152D02*
X74940476Y-74692914D01*
X74940476Y-74692914D02*
X74940476Y-74645295D01*
X74940476Y-74645295D02*
X74988095Y-74550057D01*
X74988095Y-74550057D02*
X75035714Y-74502438D01*
X75035714Y-74502438D02*
X75130952Y-74454819D01*
X75130952Y-74454819D02*
X75321428Y-74454819D01*
X75321428Y-74454819D02*
X75416666Y-74502438D01*
X75416666Y-74502438D02*
X75464285Y-74550057D01*
X75464285Y-74550057D02*
X75511904Y-74645295D01*
X75511904Y-74645295D02*
X75511904Y-74692914D01*
X75511904Y-74692914D02*
X75464285Y-74788152D01*
X75464285Y-74788152D02*
X75416666Y-74835771D01*
X75416666Y-74835771D02*
X75321428Y-74883390D01*
X75321428Y-74883390D02*
X75130952Y-74883390D01*
X75130952Y-74883390D02*
X75035714Y-74931009D01*
X75035714Y-74931009D02*
X74988095Y-74978628D01*
X74988095Y-74978628D02*
X74940476Y-75073866D01*
X74940476Y-75073866D02*
X74940476Y-75264342D01*
X74940476Y-75264342D02*
X74988095Y-75359580D01*
X74988095Y-75359580D02*
X75035714Y-75407200D01*
X75035714Y-75407200D02*
X75130952Y-75454819D01*
X75130952Y-75454819D02*
X75321428Y-75454819D01*
X75321428Y-75454819D02*
X75416666Y-75407200D01*
X75416666Y-75407200D02*
X75464285Y-75359580D01*
X75464285Y-75359580D02*
X75511904Y-75264342D01*
X75511904Y-75264342D02*
X75511904Y-75073866D01*
X75511904Y-75073866D02*
X75464285Y-74978628D01*
X75464285Y-74978628D02*
X75416666Y-74931009D01*
X75416666Y-74931009D02*
X75321428Y-74883390D01*
X92113333Y-95559580D02*
X92065714Y-95607200D01*
X92065714Y-95607200D02*
X91922857Y-95654819D01*
X91922857Y-95654819D02*
X91827619Y-95654819D01*
X91827619Y-95654819D02*
X91684762Y-95607200D01*
X91684762Y-95607200D02*
X91589524Y-95511961D01*
X91589524Y-95511961D02*
X91541905Y-95416723D01*
X91541905Y-95416723D02*
X91494286Y-95226247D01*
X91494286Y-95226247D02*
X91494286Y-95083390D01*
X91494286Y-95083390D02*
X91541905Y-94892914D01*
X91541905Y-94892914D02*
X91589524Y-94797676D01*
X91589524Y-94797676D02*
X91684762Y-94702438D01*
X91684762Y-94702438D02*
X91827619Y-94654819D01*
X91827619Y-94654819D02*
X91922857Y-94654819D01*
X91922857Y-94654819D02*
X92065714Y-94702438D01*
X92065714Y-94702438D02*
X92113333Y-94750057D01*
X93065714Y-95654819D02*
X92494286Y-95654819D01*
X92780000Y-95654819D02*
X92780000Y-94654819D01*
X92780000Y-94654819D02*
X92684762Y-94797676D01*
X92684762Y-94797676D02*
X92589524Y-94892914D01*
X92589524Y-94892914D02*
X92494286Y-94940533D01*
X24333333Y-48417319D02*
X24000000Y-47941128D01*
X23761905Y-48417319D02*
X23761905Y-47417319D01*
X23761905Y-47417319D02*
X24142857Y-47417319D01*
X24142857Y-47417319D02*
X24238095Y-47464938D01*
X24238095Y-47464938D02*
X24285714Y-47512557D01*
X24285714Y-47512557D02*
X24333333Y-47607795D01*
X24333333Y-47607795D02*
X24333333Y-47750652D01*
X24333333Y-47750652D02*
X24285714Y-47845890D01*
X24285714Y-47845890D02*
X24238095Y-47893509D01*
X24238095Y-47893509D02*
X24142857Y-47941128D01*
X24142857Y-47941128D02*
X23761905Y-47941128D01*
X24904762Y-47845890D02*
X24809524Y-47798271D01*
X24809524Y-47798271D02*
X24761905Y-47750652D01*
X24761905Y-47750652D02*
X24714286Y-47655414D01*
X24714286Y-47655414D02*
X24714286Y-47607795D01*
X24714286Y-47607795D02*
X24761905Y-47512557D01*
X24761905Y-47512557D02*
X24809524Y-47464938D01*
X24809524Y-47464938D02*
X24904762Y-47417319D01*
X24904762Y-47417319D02*
X25095238Y-47417319D01*
X25095238Y-47417319D02*
X25190476Y-47464938D01*
X25190476Y-47464938D02*
X25238095Y-47512557D01*
X25238095Y-47512557D02*
X25285714Y-47607795D01*
X25285714Y-47607795D02*
X25285714Y-47655414D01*
X25285714Y-47655414D02*
X25238095Y-47750652D01*
X25238095Y-47750652D02*
X25190476Y-47798271D01*
X25190476Y-47798271D02*
X25095238Y-47845890D01*
X25095238Y-47845890D02*
X24904762Y-47845890D01*
X24904762Y-47845890D02*
X24809524Y-47893509D01*
X24809524Y-47893509D02*
X24761905Y-47941128D01*
X24761905Y-47941128D02*
X24714286Y-48036366D01*
X24714286Y-48036366D02*
X24714286Y-48226842D01*
X24714286Y-48226842D02*
X24761905Y-48322080D01*
X24761905Y-48322080D02*
X24809524Y-48369700D01*
X24809524Y-48369700D02*
X24904762Y-48417319D01*
X24904762Y-48417319D02*
X25095238Y-48417319D01*
X25095238Y-48417319D02*
X25190476Y-48369700D01*
X25190476Y-48369700D02*
X25238095Y-48322080D01*
X25238095Y-48322080D02*
X25285714Y-48226842D01*
X25285714Y-48226842D02*
X25285714Y-48036366D01*
X25285714Y-48036366D02*
X25238095Y-47941128D01*
X25238095Y-47941128D02*
X25190476Y-47893509D01*
X25190476Y-47893509D02*
X25095238Y-47845890D01*
X49204819Y-35379166D02*
X48728628Y-35712499D01*
X49204819Y-35950594D02*
X48204819Y-35950594D01*
X48204819Y-35950594D02*
X48204819Y-35569642D01*
X48204819Y-35569642D02*
X48252438Y-35474404D01*
X48252438Y-35474404D02*
X48300057Y-35426785D01*
X48300057Y-35426785D02*
X48395295Y-35379166D01*
X48395295Y-35379166D02*
X48538152Y-35379166D01*
X48538152Y-35379166D02*
X48633390Y-35426785D01*
X48633390Y-35426785D02*
X48681009Y-35474404D01*
X48681009Y-35474404D02*
X48728628Y-35569642D01*
X48728628Y-35569642D02*
X48728628Y-35950594D01*
X48300057Y-34998213D02*
X48252438Y-34950594D01*
X48252438Y-34950594D02*
X48204819Y-34855356D01*
X48204819Y-34855356D02*
X48204819Y-34617261D01*
X48204819Y-34617261D02*
X48252438Y-34522023D01*
X48252438Y-34522023D02*
X48300057Y-34474404D01*
X48300057Y-34474404D02*
X48395295Y-34426785D01*
X48395295Y-34426785D02*
X48490533Y-34426785D01*
X48490533Y-34426785D02*
X48633390Y-34474404D01*
X48633390Y-34474404D02*
X49204819Y-35045832D01*
X49204819Y-35045832D02*
X49204819Y-34426785D01*
X26758333Y-48379819D02*
X26425000Y-47903628D01*
X26186905Y-48379819D02*
X26186905Y-47379819D01*
X26186905Y-47379819D02*
X26567857Y-47379819D01*
X26567857Y-47379819D02*
X26663095Y-47427438D01*
X26663095Y-47427438D02*
X26710714Y-47475057D01*
X26710714Y-47475057D02*
X26758333Y-47570295D01*
X26758333Y-47570295D02*
X26758333Y-47713152D01*
X26758333Y-47713152D02*
X26710714Y-47808390D01*
X26710714Y-47808390D02*
X26663095Y-47856009D01*
X26663095Y-47856009D02*
X26567857Y-47903628D01*
X26567857Y-47903628D02*
X26186905Y-47903628D01*
X27710714Y-48379819D02*
X27139286Y-48379819D01*
X27425000Y-48379819D02*
X27425000Y-47379819D01*
X27425000Y-47379819D02*
X27329762Y-47522676D01*
X27329762Y-47522676D02*
X27234524Y-47617914D01*
X27234524Y-47617914D02*
X27139286Y-47665533D01*
X76249642Y-80094819D02*
X75916309Y-79618628D01*
X75678214Y-80094819D02*
X75678214Y-79094819D01*
X75678214Y-79094819D02*
X76059166Y-79094819D01*
X76059166Y-79094819D02*
X76154404Y-79142438D01*
X76154404Y-79142438D02*
X76202023Y-79190057D01*
X76202023Y-79190057D02*
X76249642Y-79285295D01*
X76249642Y-79285295D02*
X76249642Y-79428152D01*
X76249642Y-79428152D02*
X76202023Y-79523390D01*
X76202023Y-79523390D02*
X76154404Y-79571009D01*
X76154404Y-79571009D02*
X76059166Y-79618628D01*
X76059166Y-79618628D02*
X75678214Y-79618628D01*
X77202023Y-80094819D02*
X76630595Y-80094819D01*
X76916309Y-80094819D02*
X76916309Y-79094819D01*
X76916309Y-79094819D02*
X76821071Y-79237676D01*
X76821071Y-79237676D02*
X76725833Y-79332914D01*
X76725833Y-79332914D02*
X76630595Y-79380533D01*
X78106785Y-79094819D02*
X77630595Y-79094819D01*
X77630595Y-79094819D02*
X77582976Y-79571009D01*
X77582976Y-79571009D02*
X77630595Y-79523390D01*
X77630595Y-79523390D02*
X77725833Y-79475771D01*
X77725833Y-79475771D02*
X77963928Y-79475771D01*
X77963928Y-79475771D02*
X78059166Y-79523390D01*
X78059166Y-79523390D02*
X78106785Y-79571009D01*
X78106785Y-79571009D02*
X78154404Y-79666247D01*
X78154404Y-79666247D02*
X78154404Y-79904342D01*
X78154404Y-79904342D02*
X78106785Y-79999580D01*
X78106785Y-79999580D02*
X78059166Y-80047200D01*
X78059166Y-80047200D02*
X77963928Y-80094819D01*
X77963928Y-80094819D02*
X77725833Y-80094819D01*
X77725833Y-80094819D02*
X77630595Y-80047200D01*
X77630595Y-80047200D02*
X77582976Y-79999580D01*
X60454819Y-39911904D02*
X61264342Y-39911904D01*
X61264342Y-39911904D02*
X61359580Y-39864285D01*
X61359580Y-39864285D02*
X61407200Y-39816666D01*
X61407200Y-39816666D02*
X61454819Y-39721428D01*
X61454819Y-39721428D02*
X61454819Y-39530952D01*
X61454819Y-39530952D02*
X61407200Y-39435714D01*
X61407200Y-39435714D02*
X61359580Y-39388095D01*
X61359580Y-39388095D02*
X61264342Y-39340476D01*
X61264342Y-39340476D02*
X60454819Y-39340476D01*
X60454819Y-38388095D02*
X60454819Y-38864285D01*
X60454819Y-38864285D02*
X60931009Y-38911904D01*
X60931009Y-38911904D02*
X60883390Y-38864285D01*
X60883390Y-38864285D02*
X60835771Y-38769047D01*
X60835771Y-38769047D02*
X60835771Y-38530952D01*
X60835771Y-38530952D02*
X60883390Y-38435714D01*
X60883390Y-38435714D02*
X60931009Y-38388095D01*
X60931009Y-38388095D02*
X61026247Y-38340476D01*
X61026247Y-38340476D02*
X61264342Y-38340476D01*
X61264342Y-38340476D02*
X61359580Y-38388095D01*
X61359580Y-38388095D02*
X61407200Y-38435714D01*
X61407200Y-38435714D02*
X61454819Y-38530952D01*
X61454819Y-38530952D02*
X61454819Y-38769047D01*
X61454819Y-38769047D02*
X61407200Y-38864285D01*
X61407200Y-38864285D02*
X61359580Y-38911904D01*
X92383333Y-83679580D02*
X92335714Y-83727200D01*
X92335714Y-83727200D02*
X92192857Y-83774819D01*
X92192857Y-83774819D02*
X92097619Y-83774819D01*
X92097619Y-83774819D02*
X91954762Y-83727200D01*
X91954762Y-83727200D02*
X91859524Y-83631961D01*
X91859524Y-83631961D02*
X91811905Y-83536723D01*
X91811905Y-83536723D02*
X91764286Y-83346247D01*
X91764286Y-83346247D02*
X91764286Y-83203390D01*
X91764286Y-83203390D02*
X91811905Y-83012914D01*
X91811905Y-83012914D02*
X91859524Y-82917676D01*
X91859524Y-82917676D02*
X91954762Y-82822438D01*
X91954762Y-82822438D02*
X92097619Y-82774819D01*
X92097619Y-82774819D02*
X92192857Y-82774819D01*
X92192857Y-82774819D02*
X92335714Y-82822438D01*
X92335714Y-82822438D02*
X92383333Y-82870057D01*
X92716667Y-82774819D02*
X93335714Y-82774819D01*
X93335714Y-82774819D02*
X93002381Y-83155771D01*
X93002381Y-83155771D02*
X93145238Y-83155771D01*
X93145238Y-83155771D02*
X93240476Y-83203390D01*
X93240476Y-83203390D02*
X93288095Y-83251009D01*
X93288095Y-83251009D02*
X93335714Y-83346247D01*
X93335714Y-83346247D02*
X93335714Y-83584342D01*
X93335714Y-83584342D02*
X93288095Y-83679580D01*
X93288095Y-83679580D02*
X93240476Y-83727200D01*
X93240476Y-83727200D02*
X93145238Y-83774819D01*
X93145238Y-83774819D02*
X92859524Y-83774819D01*
X92859524Y-83774819D02*
X92764286Y-83727200D01*
X92764286Y-83727200D02*
X92716667Y-83679580D01*
X52233333Y-46517319D02*
X51900000Y-46041128D01*
X51661905Y-46517319D02*
X51661905Y-45517319D01*
X51661905Y-45517319D02*
X52042857Y-45517319D01*
X52042857Y-45517319D02*
X52138095Y-45564938D01*
X52138095Y-45564938D02*
X52185714Y-45612557D01*
X52185714Y-45612557D02*
X52233333Y-45707795D01*
X52233333Y-45707795D02*
X52233333Y-45850652D01*
X52233333Y-45850652D02*
X52185714Y-45945890D01*
X52185714Y-45945890D02*
X52138095Y-45993509D01*
X52138095Y-45993509D02*
X52042857Y-46041128D01*
X52042857Y-46041128D02*
X51661905Y-46041128D01*
X52566667Y-45517319D02*
X53233333Y-45517319D01*
X53233333Y-45517319D02*
X52804762Y-46517319D01*
X54154819Y-61988094D02*
X54964342Y-61988094D01*
X54964342Y-61988094D02*
X55059580Y-61940475D01*
X55059580Y-61940475D02*
X55107200Y-61892856D01*
X55107200Y-61892856D02*
X55154819Y-61797618D01*
X55154819Y-61797618D02*
X55154819Y-61607142D01*
X55154819Y-61607142D02*
X55107200Y-61511904D01*
X55107200Y-61511904D02*
X55059580Y-61464285D01*
X55059580Y-61464285D02*
X54964342Y-61416666D01*
X54964342Y-61416666D02*
X54154819Y-61416666D01*
X55154819Y-60416666D02*
X55154819Y-60988094D01*
X55154819Y-60702380D02*
X54154819Y-60702380D01*
X54154819Y-60702380D02*
X54297676Y-60797618D01*
X54297676Y-60797618D02*
X54392914Y-60892856D01*
X54392914Y-60892856D02*
X54440533Y-60988094D01*
X55154819Y-59940475D02*
X55154819Y-59749999D01*
X55154819Y-59749999D02*
X55107200Y-59654761D01*
X55107200Y-59654761D02*
X55059580Y-59607142D01*
X55059580Y-59607142D02*
X54916723Y-59511904D01*
X54916723Y-59511904D02*
X54726247Y-59464285D01*
X54726247Y-59464285D02*
X54345295Y-59464285D01*
X54345295Y-59464285D02*
X54250057Y-59511904D01*
X54250057Y-59511904D02*
X54202438Y-59559523D01*
X54202438Y-59559523D02*
X54154819Y-59654761D01*
X54154819Y-59654761D02*
X54154819Y-59845237D01*
X54154819Y-59845237D02*
X54202438Y-59940475D01*
X54202438Y-59940475D02*
X54250057Y-59988094D01*
X54250057Y-59988094D02*
X54345295Y-60035713D01*
X54345295Y-60035713D02*
X54583390Y-60035713D01*
X54583390Y-60035713D02*
X54678628Y-59988094D01*
X54678628Y-59988094D02*
X54726247Y-59940475D01*
X54726247Y-59940475D02*
X54773866Y-59845237D01*
X54773866Y-59845237D02*
X54773866Y-59654761D01*
X54773866Y-59654761D02*
X54726247Y-59559523D01*
X54726247Y-59559523D02*
X54678628Y-59511904D01*
X54678628Y-59511904D02*
X54583390Y-59464285D01*
X79132142Y-33104819D02*
X78798809Y-32628628D01*
X78560714Y-33104819D02*
X78560714Y-32104819D01*
X78560714Y-32104819D02*
X78941666Y-32104819D01*
X78941666Y-32104819D02*
X79036904Y-32152438D01*
X79036904Y-32152438D02*
X79084523Y-32200057D01*
X79084523Y-32200057D02*
X79132142Y-32295295D01*
X79132142Y-32295295D02*
X79132142Y-32438152D01*
X79132142Y-32438152D02*
X79084523Y-32533390D01*
X79084523Y-32533390D02*
X79036904Y-32581009D01*
X79036904Y-32581009D02*
X78941666Y-32628628D01*
X78941666Y-32628628D02*
X78560714Y-32628628D01*
X80084523Y-33104819D02*
X79513095Y-33104819D01*
X79798809Y-33104819D02*
X79798809Y-32104819D01*
X79798809Y-32104819D02*
X79703571Y-32247676D01*
X79703571Y-32247676D02*
X79608333Y-32342914D01*
X79608333Y-32342914D02*
X79513095Y-32390533D01*
X80941666Y-32104819D02*
X80751190Y-32104819D01*
X80751190Y-32104819D02*
X80655952Y-32152438D01*
X80655952Y-32152438D02*
X80608333Y-32200057D01*
X80608333Y-32200057D02*
X80513095Y-32342914D01*
X80513095Y-32342914D02*
X80465476Y-32533390D01*
X80465476Y-32533390D02*
X80465476Y-32914342D01*
X80465476Y-32914342D02*
X80513095Y-33009580D01*
X80513095Y-33009580D02*
X80560714Y-33057200D01*
X80560714Y-33057200D02*
X80655952Y-33104819D01*
X80655952Y-33104819D02*
X80846428Y-33104819D01*
X80846428Y-33104819D02*
X80941666Y-33057200D01*
X80941666Y-33057200D02*
X80989285Y-33009580D01*
X80989285Y-33009580D02*
X81036904Y-32914342D01*
X81036904Y-32914342D02*
X81036904Y-32676247D01*
X81036904Y-32676247D02*
X80989285Y-32581009D01*
X80989285Y-32581009D02*
X80941666Y-32533390D01*
X80941666Y-32533390D02*
X80846428Y-32485771D01*
X80846428Y-32485771D02*
X80655952Y-32485771D01*
X80655952Y-32485771D02*
X80560714Y-32533390D01*
X80560714Y-32533390D02*
X80513095Y-32581009D01*
X80513095Y-32581009D02*
X80465476Y-32676247D01*
X99233333Y-86754819D02*
X98757143Y-86754819D01*
X98757143Y-86754819D02*
X98757143Y-85754819D01*
X100090476Y-86754819D02*
X99519048Y-86754819D01*
X99804762Y-86754819D02*
X99804762Y-85754819D01*
X99804762Y-85754819D02*
X99709524Y-85897676D01*
X99709524Y-85897676D02*
X99614286Y-85992914D01*
X99614286Y-85992914D02*
X99519048Y-86040533D01*
X104704819Y-54738094D02*
X103704819Y-54738094D01*
X103704819Y-54738094D02*
X103704819Y-54499999D01*
X103704819Y-54499999D02*
X103752438Y-54357142D01*
X103752438Y-54357142D02*
X103847676Y-54261904D01*
X103847676Y-54261904D02*
X103942914Y-54214285D01*
X103942914Y-54214285D02*
X104133390Y-54166666D01*
X104133390Y-54166666D02*
X104276247Y-54166666D01*
X104276247Y-54166666D02*
X104466723Y-54214285D01*
X104466723Y-54214285D02*
X104561961Y-54261904D01*
X104561961Y-54261904D02*
X104657200Y-54357142D01*
X104657200Y-54357142D02*
X104704819Y-54499999D01*
X104704819Y-54499999D02*
X104704819Y-54738094D01*
X103704819Y-53309523D02*
X103704819Y-53499999D01*
X103704819Y-53499999D02*
X103752438Y-53595237D01*
X103752438Y-53595237D02*
X103800057Y-53642856D01*
X103800057Y-53642856D02*
X103942914Y-53738094D01*
X103942914Y-53738094D02*
X104133390Y-53785713D01*
X104133390Y-53785713D02*
X104514342Y-53785713D01*
X104514342Y-53785713D02*
X104609580Y-53738094D01*
X104609580Y-53738094D02*
X104657200Y-53690475D01*
X104657200Y-53690475D02*
X104704819Y-53595237D01*
X104704819Y-53595237D02*
X104704819Y-53404761D01*
X104704819Y-53404761D02*
X104657200Y-53309523D01*
X104657200Y-53309523D02*
X104609580Y-53261904D01*
X104609580Y-53261904D02*
X104514342Y-53214285D01*
X104514342Y-53214285D02*
X104276247Y-53214285D01*
X104276247Y-53214285D02*
X104181009Y-53261904D01*
X104181009Y-53261904D02*
X104133390Y-53309523D01*
X104133390Y-53309523D02*
X104085771Y-53404761D01*
X104085771Y-53404761D02*
X104085771Y-53595237D01*
X104085771Y-53595237D02*
X104133390Y-53690475D01*
X104133390Y-53690475D02*
X104181009Y-53738094D01*
X104181009Y-53738094D02*
X104276247Y-53785713D01*
X46054819Y-83211904D02*
X46864342Y-83211904D01*
X46864342Y-83211904D02*
X46959580Y-83164285D01*
X46959580Y-83164285D02*
X47007200Y-83116666D01*
X47007200Y-83116666D02*
X47054819Y-83021428D01*
X47054819Y-83021428D02*
X47054819Y-82830952D01*
X47054819Y-82830952D02*
X47007200Y-82735714D01*
X47007200Y-82735714D02*
X46959580Y-82688095D01*
X46959580Y-82688095D02*
X46864342Y-82640476D01*
X46864342Y-82640476D02*
X46054819Y-82640476D01*
X46483390Y-82021428D02*
X46435771Y-82116666D01*
X46435771Y-82116666D02*
X46388152Y-82164285D01*
X46388152Y-82164285D02*
X46292914Y-82211904D01*
X46292914Y-82211904D02*
X46245295Y-82211904D01*
X46245295Y-82211904D02*
X46150057Y-82164285D01*
X46150057Y-82164285D02*
X46102438Y-82116666D01*
X46102438Y-82116666D02*
X46054819Y-82021428D01*
X46054819Y-82021428D02*
X46054819Y-81830952D01*
X46054819Y-81830952D02*
X46102438Y-81735714D01*
X46102438Y-81735714D02*
X46150057Y-81688095D01*
X46150057Y-81688095D02*
X46245295Y-81640476D01*
X46245295Y-81640476D02*
X46292914Y-81640476D01*
X46292914Y-81640476D02*
X46388152Y-81688095D01*
X46388152Y-81688095D02*
X46435771Y-81735714D01*
X46435771Y-81735714D02*
X46483390Y-81830952D01*
X46483390Y-81830952D02*
X46483390Y-82021428D01*
X46483390Y-82021428D02*
X46531009Y-82116666D01*
X46531009Y-82116666D02*
X46578628Y-82164285D01*
X46578628Y-82164285D02*
X46673866Y-82211904D01*
X46673866Y-82211904D02*
X46864342Y-82211904D01*
X46864342Y-82211904D02*
X46959580Y-82164285D01*
X46959580Y-82164285D02*
X47007200Y-82116666D01*
X47007200Y-82116666D02*
X47054819Y-82021428D01*
X47054819Y-82021428D02*
X47054819Y-81830952D01*
X47054819Y-81830952D02*
X47007200Y-81735714D01*
X47007200Y-81735714D02*
X46959580Y-81688095D01*
X46959580Y-81688095D02*
X46864342Y-81640476D01*
X46864342Y-81640476D02*
X46673866Y-81640476D01*
X46673866Y-81640476D02*
X46578628Y-81688095D01*
X46578628Y-81688095D02*
X46531009Y-81735714D01*
X46531009Y-81735714D02*
X46483390Y-81830952D01*
X39954819Y-66452381D02*
X39954819Y-66928571D01*
X39954819Y-66928571D02*
X38954819Y-66928571D01*
X38954819Y-65928571D02*
X38954819Y-65738095D01*
X38954819Y-65738095D02*
X39002438Y-65642857D01*
X39002438Y-65642857D02*
X39097676Y-65547619D01*
X39097676Y-65547619D02*
X39288152Y-65500000D01*
X39288152Y-65500000D02*
X39621485Y-65500000D01*
X39621485Y-65500000D02*
X39811961Y-65547619D01*
X39811961Y-65547619D02*
X39907200Y-65642857D01*
X39907200Y-65642857D02*
X39954819Y-65738095D01*
X39954819Y-65738095D02*
X39954819Y-65928571D01*
X39954819Y-65928571D02*
X39907200Y-66023809D01*
X39907200Y-66023809D02*
X39811961Y-66119047D01*
X39811961Y-66119047D02*
X39621485Y-66166666D01*
X39621485Y-66166666D02*
X39288152Y-66166666D01*
X39288152Y-66166666D02*
X39097676Y-66119047D01*
X39097676Y-66119047D02*
X39002438Y-66023809D01*
X39002438Y-66023809D02*
X38954819Y-65928571D01*
X39859580Y-64500000D02*
X39907200Y-64547619D01*
X39907200Y-64547619D02*
X39954819Y-64690476D01*
X39954819Y-64690476D02*
X39954819Y-64785714D01*
X39954819Y-64785714D02*
X39907200Y-64928571D01*
X39907200Y-64928571D02*
X39811961Y-65023809D01*
X39811961Y-65023809D02*
X39716723Y-65071428D01*
X39716723Y-65071428D02*
X39526247Y-65119047D01*
X39526247Y-65119047D02*
X39383390Y-65119047D01*
X39383390Y-65119047D02*
X39192914Y-65071428D01*
X39192914Y-65071428D02*
X39097676Y-65023809D01*
X39097676Y-65023809D02*
X39002438Y-64928571D01*
X39002438Y-64928571D02*
X38954819Y-64785714D01*
X38954819Y-64785714D02*
X38954819Y-64690476D01*
X38954819Y-64690476D02*
X39002438Y-64547619D01*
X39002438Y-64547619D02*
X39050057Y-64500000D01*
X38954819Y-63880952D02*
X38954819Y-63690476D01*
X38954819Y-63690476D02*
X39002438Y-63595238D01*
X39002438Y-63595238D02*
X39097676Y-63500000D01*
X39097676Y-63500000D02*
X39288152Y-63452381D01*
X39288152Y-63452381D02*
X39621485Y-63452381D01*
X39621485Y-63452381D02*
X39811961Y-63500000D01*
X39811961Y-63500000D02*
X39907200Y-63595238D01*
X39907200Y-63595238D02*
X39954819Y-63690476D01*
X39954819Y-63690476D02*
X39954819Y-63880952D01*
X39954819Y-63880952D02*
X39907200Y-63976190D01*
X39907200Y-63976190D02*
X39811961Y-64071428D01*
X39811961Y-64071428D02*
X39621485Y-64119047D01*
X39621485Y-64119047D02*
X39288152Y-64119047D01*
X39288152Y-64119047D02*
X39097676Y-64071428D01*
X39097676Y-64071428D02*
X39002438Y-63976190D01*
X39002438Y-63976190D02*
X38954819Y-63880952D01*
X39954819Y-63023809D02*
X38954819Y-63023809D01*
X38954819Y-63023809D02*
X39954819Y-62452381D01*
X39954819Y-62452381D02*
X38954819Y-62452381D01*
X39431009Y-61976190D02*
X39431009Y-61642857D01*
X39954819Y-61500000D02*
X39954819Y-61976190D01*
X39954819Y-61976190D02*
X38954819Y-61976190D01*
X38954819Y-61976190D02*
X38954819Y-61500000D01*
X38954819Y-61214285D02*
X38954819Y-60642857D01*
X39954819Y-60928571D02*
X38954819Y-60928571D01*
X40050057Y-60547619D02*
X40050057Y-59785714D01*
X39431009Y-59214285D02*
X39478628Y-59071428D01*
X39478628Y-59071428D02*
X39526247Y-59023809D01*
X39526247Y-59023809D02*
X39621485Y-58976190D01*
X39621485Y-58976190D02*
X39764342Y-58976190D01*
X39764342Y-58976190D02*
X39859580Y-59023809D01*
X39859580Y-59023809D02*
X39907200Y-59071428D01*
X39907200Y-59071428D02*
X39954819Y-59166666D01*
X39954819Y-59166666D02*
X39954819Y-59547618D01*
X39954819Y-59547618D02*
X38954819Y-59547618D01*
X38954819Y-59547618D02*
X38954819Y-59214285D01*
X38954819Y-59214285D02*
X39002438Y-59119047D01*
X39002438Y-59119047D02*
X39050057Y-59071428D01*
X39050057Y-59071428D02*
X39145295Y-59023809D01*
X39145295Y-59023809D02*
X39240533Y-59023809D01*
X39240533Y-59023809D02*
X39335771Y-59071428D01*
X39335771Y-59071428D02*
X39383390Y-59119047D01*
X39383390Y-59119047D02*
X39431009Y-59214285D01*
X39431009Y-59214285D02*
X39431009Y-59547618D01*
X39050057Y-58595237D02*
X39002438Y-58547618D01*
X39002438Y-58547618D02*
X38954819Y-58452380D01*
X38954819Y-58452380D02*
X38954819Y-58214285D01*
X38954819Y-58214285D02*
X39002438Y-58119047D01*
X39002438Y-58119047D02*
X39050057Y-58071428D01*
X39050057Y-58071428D02*
X39145295Y-58023809D01*
X39145295Y-58023809D02*
X39240533Y-58023809D01*
X39240533Y-58023809D02*
X39383390Y-58071428D01*
X39383390Y-58071428D02*
X39954819Y-58642856D01*
X39954819Y-58642856D02*
X39954819Y-58023809D01*
X83641666Y-79906009D02*
X83308333Y-79906009D01*
X83308333Y-80429819D02*
X83308333Y-79429819D01*
X83308333Y-79429819D02*
X83784523Y-79429819D01*
X84070238Y-79429819D02*
X84689285Y-79429819D01*
X84689285Y-79429819D02*
X84355952Y-79810771D01*
X84355952Y-79810771D02*
X84498809Y-79810771D01*
X84498809Y-79810771D02*
X84594047Y-79858390D01*
X84594047Y-79858390D02*
X84641666Y-79906009D01*
X84641666Y-79906009D02*
X84689285Y-80001247D01*
X84689285Y-80001247D02*
X84689285Y-80239342D01*
X84689285Y-80239342D02*
X84641666Y-80334580D01*
X84641666Y-80334580D02*
X84594047Y-80382200D01*
X84594047Y-80382200D02*
X84498809Y-80429819D01*
X84498809Y-80429819D02*
X84213095Y-80429819D01*
X84213095Y-80429819D02*
X84117857Y-80382200D01*
X84117857Y-80382200D02*
X84070238Y-80334580D01*
X40979819Y-32517857D02*
X40503628Y-32851190D01*
X40979819Y-33089285D02*
X39979819Y-33089285D01*
X39979819Y-33089285D02*
X39979819Y-32708333D01*
X39979819Y-32708333D02*
X40027438Y-32613095D01*
X40027438Y-32613095D02*
X40075057Y-32565476D01*
X40075057Y-32565476D02*
X40170295Y-32517857D01*
X40170295Y-32517857D02*
X40313152Y-32517857D01*
X40313152Y-32517857D02*
X40408390Y-32565476D01*
X40408390Y-32565476D02*
X40456009Y-32613095D01*
X40456009Y-32613095D02*
X40503628Y-32708333D01*
X40503628Y-32708333D02*
X40503628Y-33089285D01*
X40979819Y-31565476D02*
X40979819Y-32136904D01*
X40979819Y-31851190D02*
X39979819Y-31851190D01*
X39979819Y-31851190D02*
X40122676Y-31946428D01*
X40122676Y-31946428D02*
X40217914Y-32041666D01*
X40217914Y-32041666D02*
X40265533Y-32136904D01*
X40979819Y-30613095D02*
X40979819Y-31184523D01*
X40979819Y-30898809D02*
X39979819Y-30898809D01*
X39979819Y-30898809D02*
X40122676Y-30994047D01*
X40122676Y-30994047D02*
X40217914Y-31089285D01*
X40217914Y-31089285D02*
X40265533Y-31184523D01*
X43409580Y-53640476D02*
X43457200Y-53688095D01*
X43457200Y-53688095D02*
X43504819Y-53830952D01*
X43504819Y-53830952D02*
X43504819Y-53926190D01*
X43504819Y-53926190D02*
X43457200Y-54069047D01*
X43457200Y-54069047D02*
X43361961Y-54164285D01*
X43361961Y-54164285D02*
X43266723Y-54211904D01*
X43266723Y-54211904D02*
X43076247Y-54259523D01*
X43076247Y-54259523D02*
X42933390Y-54259523D01*
X42933390Y-54259523D02*
X42742914Y-54211904D01*
X42742914Y-54211904D02*
X42647676Y-54164285D01*
X42647676Y-54164285D02*
X42552438Y-54069047D01*
X42552438Y-54069047D02*
X42504819Y-53926190D01*
X42504819Y-53926190D02*
X42504819Y-53830952D01*
X42504819Y-53830952D02*
X42552438Y-53688095D01*
X42552438Y-53688095D02*
X42600057Y-53640476D01*
X42504819Y-53211904D02*
X43314342Y-53211904D01*
X43314342Y-53211904D02*
X43409580Y-53164285D01*
X43409580Y-53164285D02*
X43457200Y-53116666D01*
X43457200Y-53116666D02*
X43504819Y-53021428D01*
X43504819Y-53021428D02*
X43504819Y-52830952D01*
X43504819Y-52830952D02*
X43457200Y-52735714D01*
X43457200Y-52735714D02*
X43409580Y-52688095D01*
X43409580Y-52688095D02*
X43314342Y-52640476D01*
X43314342Y-52640476D02*
X42504819Y-52640476D01*
X42504819Y-51735714D02*
X42504819Y-51926190D01*
X42504819Y-51926190D02*
X42552438Y-52021428D01*
X42552438Y-52021428D02*
X42600057Y-52069047D01*
X42600057Y-52069047D02*
X42742914Y-52164285D01*
X42742914Y-52164285D02*
X42933390Y-52211904D01*
X42933390Y-52211904D02*
X43314342Y-52211904D01*
X43314342Y-52211904D02*
X43409580Y-52164285D01*
X43409580Y-52164285D02*
X43457200Y-52116666D01*
X43457200Y-52116666D02*
X43504819Y-52021428D01*
X43504819Y-52021428D02*
X43504819Y-51830952D01*
X43504819Y-51830952D02*
X43457200Y-51735714D01*
X43457200Y-51735714D02*
X43409580Y-51688095D01*
X43409580Y-51688095D02*
X43314342Y-51640476D01*
X43314342Y-51640476D02*
X43076247Y-51640476D01*
X43076247Y-51640476D02*
X42981009Y-51688095D01*
X42981009Y-51688095D02*
X42933390Y-51735714D01*
X42933390Y-51735714D02*
X42885771Y-51830952D01*
X42885771Y-51830952D02*
X42885771Y-52021428D01*
X42885771Y-52021428D02*
X42933390Y-52116666D01*
X42933390Y-52116666D02*
X42981009Y-52164285D01*
X42981009Y-52164285D02*
X43076247Y-52211904D01*
X56261905Y-29104819D02*
X56261905Y-28104819D01*
X56261905Y-28104819D02*
X56500000Y-28104819D01*
X56500000Y-28104819D02*
X56642857Y-28152438D01*
X56642857Y-28152438D02*
X56738095Y-28247676D01*
X56738095Y-28247676D02*
X56785714Y-28342914D01*
X56785714Y-28342914D02*
X56833333Y-28533390D01*
X56833333Y-28533390D02*
X56833333Y-28676247D01*
X56833333Y-28676247D02*
X56785714Y-28866723D01*
X56785714Y-28866723D02*
X56738095Y-28961961D01*
X56738095Y-28961961D02*
X56642857Y-29057200D01*
X56642857Y-29057200D02*
X56500000Y-29104819D01*
X56500000Y-29104819D02*
X56261905Y-29104819D01*
X57309524Y-29104819D02*
X57500000Y-29104819D01*
X57500000Y-29104819D02*
X57595238Y-29057200D01*
X57595238Y-29057200D02*
X57642857Y-29009580D01*
X57642857Y-29009580D02*
X57738095Y-28866723D01*
X57738095Y-28866723D02*
X57785714Y-28676247D01*
X57785714Y-28676247D02*
X57785714Y-28295295D01*
X57785714Y-28295295D02*
X57738095Y-28200057D01*
X57738095Y-28200057D02*
X57690476Y-28152438D01*
X57690476Y-28152438D02*
X57595238Y-28104819D01*
X57595238Y-28104819D02*
X57404762Y-28104819D01*
X57404762Y-28104819D02*
X57309524Y-28152438D01*
X57309524Y-28152438D02*
X57261905Y-28200057D01*
X57261905Y-28200057D02*
X57214286Y-28295295D01*
X57214286Y-28295295D02*
X57214286Y-28533390D01*
X57214286Y-28533390D02*
X57261905Y-28628628D01*
X57261905Y-28628628D02*
X57309524Y-28676247D01*
X57309524Y-28676247D02*
X57404762Y-28723866D01*
X57404762Y-28723866D02*
X57595238Y-28723866D01*
X57595238Y-28723866D02*
X57690476Y-28676247D01*
X57690476Y-28676247D02*
X57738095Y-28628628D01*
X57738095Y-28628628D02*
X57785714Y-28533390D01*
X47505952Y-90654819D02*
X47505952Y-89654819D01*
X47505952Y-89654819D02*
X47744047Y-89654819D01*
X47744047Y-89654819D02*
X47886904Y-89702438D01*
X47886904Y-89702438D02*
X47982142Y-89797676D01*
X47982142Y-89797676D02*
X48029761Y-89892914D01*
X48029761Y-89892914D02*
X48077380Y-90083390D01*
X48077380Y-90083390D02*
X48077380Y-90226247D01*
X48077380Y-90226247D02*
X48029761Y-90416723D01*
X48029761Y-90416723D02*
X47982142Y-90511961D01*
X47982142Y-90511961D02*
X47886904Y-90607200D01*
X47886904Y-90607200D02*
X47744047Y-90654819D01*
X47744047Y-90654819D02*
X47505952Y-90654819D01*
X49077380Y-90559580D02*
X49029761Y-90607200D01*
X49029761Y-90607200D02*
X48886904Y-90654819D01*
X48886904Y-90654819D02*
X48791666Y-90654819D01*
X48791666Y-90654819D02*
X48648809Y-90607200D01*
X48648809Y-90607200D02*
X48553571Y-90511961D01*
X48553571Y-90511961D02*
X48505952Y-90416723D01*
X48505952Y-90416723D02*
X48458333Y-90226247D01*
X48458333Y-90226247D02*
X48458333Y-90083390D01*
X48458333Y-90083390D02*
X48505952Y-89892914D01*
X48505952Y-89892914D02*
X48553571Y-89797676D01*
X48553571Y-89797676D02*
X48648809Y-89702438D01*
X48648809Y-89702438D02*
X48791666Y-89654819D01*
X48791666Y-89654819D02*
X48886904Y-89654819D01*
X48886904Y-89654819D02*
X49029761Y-89702438D01*
X49029761Y-89702438D02*
X49077380Y-89750057D01*
X50077380Y-90559580D02*
X50029761Y-90607200D01*
X50029761Y-90607200D02*
X49886904Y-90654819D01*
X49886904Y-90654819D02*
X49791666Y-90654819D01*
X49791666Y-90654819D02*
X49648809Y-90607200D01*
X49648809Y-90607200D02*
X49553571Y-90511961D01*
X49553571Y-90511961D02*
X49505952Y-90416723D01*
X49505952Y-90416723D02*
X49458333Y-90226247D01*
X49458333Y-90226247D02*
X49458333Y-90083390D01*
X49458333Y-90083390D02*
X49505952Y-89892914D01*
X49505952Y-89892914D02*
X49553571Y-89797676D01*
X49553571Y-89797676D02*
X49648809Y-89702438D01*
X49648809Y-89702438D02*
X49791666Y-89654819D01*
X49791666Y-89654819D02*
X49886904Y-89654819D01*
X49886904Y-89654819D02*
X50029761Y-89702438D01*
X50029761Y-89702438D02*
X50077380Y-89750057D01*
X50267857Y-90750057D02*
X51029761Y-90750057D01*
X51791666Y-90654819D02*
X51220238Y-90654819D01*
X51505952Y-90654819D02*
X51505952Y-89654819D01*
X51505952Y-89654819D02*
X51410714Y-89797676D01*
X51410714Y-89797676D02*
X51315476Y-89892914D01*
X51315476Y-89892914D02*
X51220238Y-89940533D01*
X56261905Y-45104819D02*
X56261905Y-45914342D01*
X56261905Y-45914342D02*
X56309524Y-46009580D01*
X56309524Y-46009580D02*
X56357143Y-46057200D01*
X56357143Y-46057200D02*
X56452381Y-46104819D01*
X56452381Y-46104819D02*
X56642857Y-46104819D01*
X56642857Y-46104819D02*
X56738095Y-46057200D01*
X56738095Y-46057200D02*
X56785714Y-46009580D01*
X56785714Y-46009580D02*
X56833333Y-45914342D01*
X56833333Y-45914342D02*
X56833333Y-45104819D01*
X57833333Y-46104819D02*
X57261905Y-46104819D01*
X57547619Y-46104819D02*
X57547619Y-45104819D01*
X57547619Y-45104819D02*
X57452381Y-45247676D01*
X57452381Y-45247676D02*
X57357143Y-45342914D01*
X57357143Y-45342914D02*
X57261905Y-45390533D01*
X58404762Y-45533390D02*
X58309524Y-45485771D01*
X58309524Y-45485771D02*
X58261905Y-45438152D01*
X58261905Y-45438152D02*
X58214286Y-45342914D01*
X58214286Y-45342914D02*
X58214286Y-45295295D01*
X58214286Y-45295295D02*
X58261905Y-45200057D01*
X58261905Y-45200057D02*
X58309524Y-45152438D01*
X58309524Y-45152438D02*
X58404762Y-45104819D01*
X58404762Y-45104819D02*
X58595238Y-45104819D01*
X58595238Y-45104819D02*
X58690476Y-45152438D01*
X58690476Y-45152438D02*
X58738095Y-45200057D01*
X58738095Y-45200057D02*
X58785714Y-45295295D01*
X58785714Y-45295295D02*
X58785714Y-45342914D01*
X58785714Y-45342914D02*
X58738095Y-45438152D01*
X58738095Y-45438152D02*
X58690476Y-45485771D01*
X58690476Y-45485771D02*
X58595238Y-45533390D01*
X58595238Y-45533390D02*
X58404762Y-45533390D01*
X58404762Y-45533390D02*
X58309524Y-45581009D01*
X58309524Y-45581009D02*
X58261905Y-45628628D01*
X58261905Y-45628628D02*
X58214286Y-45723866D01*
X58214286Y-45723866D02*
X58214286Y-45914342D01*
X58214286Y-45914342D02*
X58261905Y-46009580D01*
X58261905Y-46009580D02*
X58309524Y-46057200D01*
X58309524Y-46057200D02*
X58404762Y-46104819D01*
X58404762Y-46104819D02*
X58595238Y-46104819D01*
X58595238Y-46104819D02*
X58690476Y-46057200D01*
X58690476Y-46057200D02*
X58738095Y-46009580D01*
X58738095Y-46009580D02*
X58785714Y-45914342D01*
X58785714Y-45914342D02*
X58785714Y-45723866D01*
X58785714Y-45723866D02*
X58738095Y-45628628D01*
X58738095Y-45628628D02*
X58690476Y-45581009D01*
X58690476Y-45581009D02*
X58595238Y-45533390D01*
X56444642Y-33154819D02*
X56111309Y-32678628D01*
X55873214Y-33154819D02*
X55873214Y-32154819D01*
X55873214Y-32154819D02*
X56254166Y-32154819D01*
X56254166Y-32154819D02*
X56349404Y-32202438D01*
X56349404Y-32202438D02*
X56397023Y-32250057D01*
X56397023Y-32250057D02*
X56444642Y-32345295D01*
X56444642Y-32345295D02*
X56444642Y-32488152D01*
X56444642Y-32488152D02*
X56397023Y-32583390D01*
X56397023Y-32583390D02*
X56349404Y-32631009D01*
X56349404Y-32631009D02*
X56254166Y-32678628D01*
X56254166Y-32678628D02*
X55873214Y-32678628D01*
X57397023Y-33154819D02*
X56825595Y-33154819D01*
X57111309Y-33154819D02*
X57111309Y-32154819D01*
X57111309Y-32154819D02*
X57016071Y-32297676D01*
X57016071Y-32297676D02*
X56920833Y-32392914D01*
X56920833Y-32392914D02*
X56825595Y-32440533D01*
X57873214Y-33154819D02*
X58063690Y-33154819D01*
X58063690Y-33154819D02*
X58158928Y-33107200D01*
X58158928Y-33107200D02*
X58206547Y-33059580D01*
X58206547Y-33059580D02*
X58301785Y-32916723D01*
X58301785Y-32916723D02*
X58349404Y-32726247D01*
X58349404Y-32726247D02*
X58349404Y-32345295D01*
X58349404Y-32345295D02*
X58301785Y-32250057D01*
X58301785Y-32250057D02*
X58254166Y-32202438D01*
X58254166Y-32202438D02*
X58158928Y-32154819D01*
X58158928Y-32154819D02*
X57968452Y-32154819D01*
X57968452Y-32154819D02*
X57873214Y-32202438D01*
X57873214Y-32202438D02*
X57825595Y-32250057D01*
X57825595Y-32250057D02*
X57777976Y-32345295D01*
X57777976Y-32345295D02*
X57777976Y-32583390D01*
X57777976Y-32583390D02*
X57825595Y-32678628D01*
X57825595Y-32678628D02*
X57873214Y-32726247D01*
X57873214Y-32726247D02*
X57968452Y-32773866D01*
X57968452Y-32773866D02*
X58158928Y-32773866D01*
X58158928Y-32773866D02*
X58254166Y-32726247D01*
X58254166Y-32726247D02*
X58301785Y-32678628D01*
X58301785Y-32678628D02*
X58349404Y-32583390D01*
X43154761Y-33950057D02*
X43059523Y-33902438D01*
X43059523Y-33902438D02*
X42964285Y-33807200D01*
X42964285Y-33807200D02*
X42821428Y-33664342D01*
X42821428Y-33664342D02*
X42726190Y-33616723D01*
X42726190Y-33616723D02*
X42630952Y-33616723D01*
X42678571Y-33854819D02*
X42583333Y-33807200D01*
X42583333Y-33807200D02*
X42488095Y-33711961D01*
X42488095Y-33711961D02*
X42440476Y-33521485D01*
X42440476Y-33521485D02*
X42440476Y-33188152D01*
X42440476Y-33188152D02*
X42488095Y-32997676D01*
X42488095Y-32997676D02*
X42583333Y-32902438D01*
X42583333Y-32902438D02*
X42678571Y-32854819D01*
X42678571Y-32854819D02*
X42869047Y-32854819D01*
X42869047Y-32854819D02*
X42964285Y-32902438D01*
X42964285Y-32902438D02*
X43059523Y-32997676D01*
X43059523Y-32997676D02*
X43107142Y-33188152D01*
X43107142Y-33188152D02*
X43107142Y-33521485D01*
X43107142Y-33521485D02*
X43059523Y-33711961D01*
X43059523Y-33711961D02*
X42964285Y-33807200D01*
X42964285Y-33807200D02*
X42869047Y-33854819D01*
X42869047Y-33854819D02*
X42678571Y-33854819D01*
X44059523Y-33854819D02*
X43488095Y-33854819D01*
X43773809Y-33854819D02*
X43773809Y-32854819D01*
X43773809Y-32854819D02*
X43678571Y-32997676D01*
X43678571Y-32997676D02*
X43583333Y-33092914D01*
X43583333Y-33092914D02*
X43488095Y-33140533D01*
X27333333Y-49859580D02*
X27285714Y-49907200D01*
X27285714Y-49907200D02*
X27142857Y-49954819D01*
X27142857Y-49954819D02*
X27047619Y-49954819D01*
X27047619Y-49954819D02*
X26904762Y-49907200D01*
X26904762Y-49907200D02*
X26809524Y-49811961D01*
X26809524Y-49811961D02*
X26761905Y-49716723D01*
X26761905Y-49716723D02*
X26714286Y-49526247D01*
X26714286Y-49526247D02*
X26714286Y-49383390D01*
X26714286Y-49383390D02*
X26761905Y-49192914D01*
X26761905Y-49192914D02*
X26809524Y-49097676D01*
X26809524Y-49097676D02*
X26904762Y-49002438D01*
X26904762Y-49002438D02*
X27047619Y-48954819D01*
X27047619Y-48954819D02*
X27142857Y-48954819D01*
X27142857Y-48954819D02*
X27285714Y-49002438D01*
X27285714Y-49002438D02*
X27333333Y-49050057D01*
X28190476Y-48954819D02*
X28000000Y-48954819D01*
X28000000Y-48954819D02*
X27904762Y-49002438D01*
X27904762Y-49002438D02*
X27857143Y-49050057D01*
X27857143Y-49050057D02*
X27761905Y-49192914D01*
X27761905Y-49192914D02*
X27714286Y-49383390D01*
X27714286Y-49383390D02*
X27714286Y-49764342D01*
X27714286Y-49764342D02*
X27761905Y-49859580D01*
X27761905Y-49859580D02*
X27809524Y-49907200D01*
X27809524Y-49907200D02*
X27904762Y-49954819D01*
X27904762Y-49954819D02*
X28095238Y-49954819D01*
X28095238Y-49954819D02*
X28190476Y-49907200D01*
X28190476Y-49907200D02*
X28238095Y-49859580D01*
X28238095Y-49859580D02*
X28285714Y-49764342D01*
X28285714Y-49764342D02*
X28285714Y-49526247D01*
X28285714Y-49526247D02*
X28238095Y-49431009D01*
X28238095Y-49431009D02*
X28190476Y-49383390D01*
X28190476Y-49383390D02*
X28095238Y-49335771D01*
X28095238Y-49335771D02*
X27904762Y-49335771D01*
X27904762Y-49335771D02*
X27809524Y-49383390D01*
X27809524Y-49383390D02*
X27761905Y-49431009D01*
X27761905Y-49431009D02*
X27714286Y-49526247D01*
X80389761Y-91000057D02*
X80294523Y-90952438D01*
X80294523Y-90952438D02*
X80199285Y-90857200D01*
X80199285Y-90857200D02*
X80056428Y-90714342D01*
X80056428Y-90714342D02*
X79961190Y-90666723D01*
X79961190Y-90666723D02*
X79865952Y-90666723D01*
X79913571Y-90904819D02*
X79818333Y-90857200D01*
X79818333Y-90857200D02*
X79723095Y-90761961D01*
X79723095Y-90761961D02*
X79675476Y-90571485D01*
X79675476Y-90571485D02*
X79675476Y-90238152D01*
X79675476Y-90238152D02*
X79723095Y-90047676D01*
X79723095Y-90047676D02*
X79818333Y-89952438D01*
X79818333Y-89952438D02*
X79913571Y-89904819D01*
X79913571Y-89904819D02*
X80104047Y-89904819D01*
X80104047Y-89904819D02*
X80199285Y-89952438D01*
X80199285Y-89952438D02*
X80294523Y-90047676D01*
X80294523Y-90047676D02*
X80342142Y-90238152D01*
X80342142Y-90238152D02*
X80342142Y-90571485D01*
X80342142Y-90571485D02*
X80294523Y-90761961D01*
X80294523Y-90761961D02*
X80199285Y-90857200D01*
X80199285Y-90857200D02*
X80104047Y-90904819D01*
X80104047Y-90904819D02*
X79913571Y-90904819D01*
X80675476Y-89904819D02*
X81294523Y-89904819D01*
X81294523Y-89904819D02*
X80961190Y-90285771D01*
X80961190Y-90285771D02*
X81104047Y-90285771D01*
X81104047Y-90285771D02*
X81199285Y-90333390D01*
X81199285Y-90333390D02*
X81246904Y-90381009D01*
X81246904Y-90381009D02*
X81294523Y-90476247D01*
X81294523Y-90476247D02*
X81294523Y-90714342D01*
X81294523Y-90714342D02*
X81246904Y-90809580D01*
X81246904Y-90809580D02*
X81199285Y-90857200D01*
X81199285Y-90857200D02*
X81104047Y-90904819D01*
X81104047Y-90904819D02*
X80818333Y-90904819D01*
X80818333Y-90904819D02*
X80723095Y-90857200D01*
X80723095Y-90857200D02*
X80675476Y-90809580D01*
X42029819Y-65917857D02*
X41553628Y-66251190D01*
X42029819Y-66489285D02*
X41029819Y-66489285D01*
X41029819Y-66489285D02*
X41029819Y-66108333D01*
X41029819Y-66108333D02*
X41077438Y-66013095D01*
X41077438Y-66013095D02*
X41125057Y-65965476D01*
X41125057Y-65965476D02*
X41220295Y-65917857D01*
X41220295Y-65917857D02*
X41363152Y-65917857D01*
X41363152Y-65917857D02*
X41458390Y-65965476D01*
X41458390Y-65965476D02*
X41506009Y-66013095D01*
X41506009Y-66013095D02*
X41553628Y-66108333D01*
X41553628Y-66108333D02*
X41553628Y-66489285D01*
X41125057Y-65536904D02*
X41077438Y-65489285D01*
X41077438Y-65489285D02*
X41029819Y-65394047D01*
X41029819Y-65394047D02*
X41029819Y-65155952D01*
X41029819Y-65155952D02*
X41077438Y-65060714D01*
X41077438Y-65060714D02*
X41125057Y-65013095D01*
X41125057Y-65013095D02*
X41220295Y-64965476D01*
X41220295Y-64965476D02*
X41315533Y-64965476D01*
X41315533Y-64965476D02*
X41458390Y-65013095D01*
X41458390Y-65013095D02*
X42029819Y-65584523D01*
X42029819Y-65584523D02*
X42029819Y-64965476D01*
X41125057Y-64584523D02*
X41077438Y-64536904D01*
X41077438Y-64536904D02*
X41029819Y-64441666D01*
X41029819Y-64441666D02*
X41029819Y-64203571D01*
X41029819Y-64203571D02*
X41077438Y-64108333D01*
X41077438Y-64108333D02*
X41125057Y-64060714D01*
X41125057Y-64060714D02*
X41220295Y-64013095D01*
X41220295Y-64013095D02*
X41315533Y-64013095D01*
X41315533Y-64013095D02*
X41458390Y-64060714D01*
X41458390Y-64060714D02*
X42029819Y-64632142D01*
X42029819Y-64632142D02*
X42029819Y-64013095D01*
X74233333Y-42334580D02*
X74185714Y-42382200D01*
X74185714Y-42382200D02*
X74042857Y-42429819D01*
X74042857Y-42429819D02*
X73947619Y-42429819D01*
X73947619Y-42429819D02*
X73804762Y-42382200D01*
X73804762Y-42382200D02*
X73709524Y-42286961D01*
X73709524Y-42286961D02*
X73661905Y-42191723D01*
X73661905Y-42191723D02*
X73614286Y-42001247D01*
X73614286Y-42001247D02*
X73614286Y-41858390D01*
X73614286Y-41858390D02*
X73661905Y-41667914D01*
X73661905Y-41667914D02*
X73709524Y-41572676D01*
X73709524Y-41572676D02*
X73804762Y-41477438D01*
X73804762Y-41477438D02*
X73947619Y-41429819D01*
X73947619Y-41429819D02*
X74042857Y-41429819D01*
X74042857Y-41429819D02*
X74185714Y-41477438D01*
X74185714Y-41477438D02*
X74233333Y-41525057D01*
X74566667Y-41429819D02*
X75233333Y-41429819D01*
X75233333Y-41429819D02*
X74804762Y-42429819D01*
X53679819Y-87088094D02*
X54489342Y-87088094D01*
X54489342Y-87088094D02*
X54584580Y-87040475D01*
X54584580Y-87040475D02*
X54632200Y-86992856D01*
X54632200Y-86992856D02*
X54679819Y-86897618D01*
X54679819Y-86897618D02*
X54679819Y-86707142D01*
X54679819Y-86707142D02*
X54632200Y-86611904D01*
X54632200Y-86611904D02*
X54584580Y-86564285D01*
X54584580Y-86564285D02*
X54489342Y-86516666D01*
X54489342Y-86516666D02*
X53679819Y-86516666D01*
X54679819Y-85516666D02*
X54679819Y-86088094D01*
X54679819Y-85802380D02*
X53679819Y-85802380D01*
X53679819Y-85802380D02*
X53822676Y-85897618D01*
X53822676Y-85897618D02*
X53917914Y-85992856D01*
X53917914Y-85992856D02*
X53965533Y-86088094D01*
X54013152Y-84659523D02*
X54679819Y-84659523D01*
X53632200Y-84897618D02*
X54346485Y-85135713D01*
X54346485Y-85135713D02*
X54346485Y-84516666D01*
X69604819Y-32692857D02*
X69128628Y-33026190D01*
X69604819Y-33264285D02*
X68604819Y-33264285D01*
X68604819Y-33264285D02*
X68604819Y-32883333D01*
X68604819Y-32883333D02*
X68652438Y-32788095D01*
X68652438Y-32788095D02*
X68700057Y-32740476D01*
X68700057Y-32740476D02*
X68795295Y-32692857D01*
X68795295Y-32692857D02*
X68938152Y-32692857D01*
X68938152Y-32692857D02*
X69033390Y-32740476D01*
X69033390Y-32740476D02*
X69081009Y-32788095D01*
X69081009Y-32788095D02*
X69128628Y-32883333D01*
X69128628Y-32883333D02*
X69128628Y-33264285D01*
X68700057Y-32311904D02*
X68652438Y-32264285D01*
X68652438Y-32264285D02*
X68604819Y-32169047D01*
X68604819Y-32169047D02*
X68604819Y-31930952D01*
X68604819Y-31930952D02*
X68652438Y-31835714D01*
X68652438Y-31835714D02*
X68700057Y-31788095D01*
X68700057Y-31788095D02*
X68795295Y-31740476D01*
X68795295Y-31740476D02*
X68890533Y-31740476D01*
X68890533Y-31740476D02*
X69033390Y-31788095D01*
X69033390Y-31788095D02*
X69604819Y-32359523D01*
X69604819Y-32359523D02*
X69604819Y-31740476D01*
X68938152Y-30883333D02*
X69604819Y-30883333D01*
X68557200Y-31121428D02*
X69271485Y-31359523D01*
X69271485Y-31359523D02*
X69271485Y-30740476D01*
X99804819Y-52167857D02*
X99328628Y-52501190D01*
X99804819Y-52739285D02*
X98804819Y-52739285D01*
X98804819Y-52739285D02*
X98804819Y-52358333D01*
X98804819Y-52358333D02*
X98852438Y-52263095D01*
X98852438Y-52263095D02*
X98900057Y-52215476D01*
X98900057Y-52215476D02*
X98995295Y-52167857D01*
X98995295Y-52167857D02*
X99138152Y-52167857D01*
X99138152Y-52167857D02*
X99233390Y-52215476D01*
X99233390Y-52215476D02*
X99281009Y-52263095D01*
X99281009Y-52263095D02*
X99328628Y-52358333D01*
X99328628Y-52358333D02*
X99328628Y-52739285D01*
X98900057Y-51786904D02*
X98852438Y-51739285D01*
X98852438Y-51739285D02*
X98804819Y-51644047D01*
X98804819Y-51644047D02*
X98804819Y-51405952D01*
X98804819Y-51405952D02*
X98852438Y-51310714D01*
X98852438Y-51310714D02*
X98900057Y-51263095D01*
X98900057Y-51263095D02*
X98995295Y-51215476D01*
X98995295Y-51215476D02*
X99090533Y-51215476D01*
X99090533Y-51215476D02*
X99233390Y-51263095D01*
X99233390Y-51263095D02*
X99804819Y-51834523D01*
X99804819Y-51834523D02*
X99804819Y-51215476D01*
X98804819Y-50596428D02*
X98804819Y-50501190D01*
X98804819Y-50501190D02*
X98852438Y-50405952D01*
X98852438Y-50405952D02*
X98900057Y-50358333D01*
X98900057Y-50358333D02*
X98995295Y-50310714D01*
X98995295Y-50310714D02*
X99185771Y-50263095D01*
X99185771Y-50263095D02*
X99423866Y-50263095D01*
X99423866Y-50263095D02*
X99614342Y-50310714D01*
X99614342Y-50310714D02*
X99709580Y-50358333D01*
X99709580Y-50358333D02*
X99757200Y-50405952D01*
X99757200Y-50405952D02*
X99804819Y-50501190D01*
X99804819Y-50501190D02*
X99804819Y-50596428D01*
X99804819Y-50596428D02*
X99757200Y-50691666D01*
X99757200Y-50691666D02*
X99709580Y-50739285D01*
X99709580Y-50739285D02*
X99614342Y-50786904D01*
X99614342Y-50786904D02*
X99423866Y-50834523D01*
X99423866Y-50834523D02*
X99185771Y-50834523D01*
X99185771Y-50834523D02*
X98995295Y-50786904D01*
X98995295Y-50786904D02*
X98900057Y-50739285D01*
X98900057Y-50739285D02*
X98852438Y-50691666D01*
X98852438Y-50691666D02*
X98804819Y-50596428D01*
X72204819Y-81988094D02*
X73014342Y-81988094D01*
X73014342Y-81988094D02*
X73109580Y-81940475D01*
X73109580Y-81940475D02*
X73157200Y-81892856D01*
X73157200Y-81892856D02*
X73204819Y-81797618D01*
X73204819Y-81797618D02*
X73204819Y-81607142D01*
X73204819Y-81607142D02*
X73157200Y-81511904D01*
X73157200Y-81511904D02*
X73109580Y-81464285D01*
X73109580Y-81464285D02*
X73014342Y-81416666D01*
X73014342Y-81416666D02*
X72204819Y-81416666D01*
X73204819Y-80416666D02*
X73204819Y-80988094D01*
X73204819Y-80702380D02*
X72204819Y-80702380D01*
X72204819Y-80702380D02*
X72347676Y-80797618D01*
X72347676Y-80797618D02*
X72442914Y-80892856D01*
X72442914Y-80892856D02*
X72490533Y-80988094D01*
X72204819Y-80083332D02*
X72204819Y-79464285D01*
X72204819Y-79464285D02*
X72585771Y-79797618D01*
X72585771Y-79797618D02*
X72585771Y-79654761D01*
X72585771Y-79654761D02*
X72633390Y-79559523D01*
X72633390Y-79559523D02*
X72681009Y-79511904D01*
X72681009Y-79511904D02*
X72776247Y-79464285D01*
X72776247Y-79464285D02*
X73014342Y-79464285D01*
X73014342Y-79464285D02*
X73109580Y-79511904D01*
X73109580Y-79511904D02*
X73157200Y-79559523D01*
X73157200Y-79559523D02*
X73204819Y-79654761D01*
X73204819Y-79654761D02*
X73204819Y-79940475D01*
X73204819Y-79940475D02*
X73157200Y-80035713D01*
X73157200Y-80035713D02*
X73109580Y-80083332D01*
X50104819Y-27001666D02*
X49628628Y-27334999D01*
X50104819Y-27573094D02*
X49104819Y-27573094D01*
X49104819Y-27573094D02*
X49104819Y-27192142D01*
X49104819Y-27192142D02*
X49152438Y-27096904D01*
X49152438Y-27096904D02*
X49200057Y-27049285D01*
X49200057Y-27049285D02*
X49295295Y-27001666D01*
X49295295Y-27001666D02*
X49438152Y-27001666D01*
X49438152Y-27001666D02*
X49533390Y-27049285D01*
X49533390Y-27049285D02*
X49581009Y-27096904D01*
X49581009Y-27096904D02*
X49628628Y-27192142D01*
X49628628Y-27192142D02*
X49628628Y-27573094D01*
X50104819Y-26525475D02*
X50104819Y-26334999D01*
X50104819Y-26334999D02*
X50057200Y-26239761D01*
X50057200Y-26239761D02*
X50009580Y-26192142D01*
X50009580Y-26192142D02*
X49866723Y-26096904D01*
X49866723Y-26096904D02*
X49676247Y-26049285D01*
X49676247Y-26049285D02*
X49295295Y-26049285D01*
X49295295Y-26049285D02*
X49200057Y-26096904D01*
X49200057Y-26096904D02*
X49152438Y-26144523D01*
X49152438Y-26144523D02*
X49104819Y-26239761D01*
X49104819Y-26239761D02*
X49104819Y-26430237D01*
X49104819Y-26430237D02*
X49152438Y-26525475D01*
X49152438Y-26525475D02*
X49200057Y-26573094D01*
X49200057Y-26573094D02*
X49295295Y-26620713D01*
X49295295Y-26620713D02*
X49533390Y-26620713D01*
X49533390Y-26620713D02*
X49628628Y-26573094D01*
X49628628Y-26573094D02*
X49676247Y-26525475D01*
X49676247Y-26525475D02*
X49723866Y-26430237D01*
X49723866Y-26430237D02*
X49723866Y-26239761D01*
X49723866Y-26239761D02*
X49676247Y-26144523D01*
X49676247Y-26144523D02*
X49628628Y-26096904D01*
X49628628Y-26096904D02*
X49533390Y-26049285D01*
X79511905Y-82354819D02*
X79511905Y-81354819D01*
X79511905Y-81354819D02*
X79750000Y-81354819D01*
X79750000Y-81354819D02*
X79892857Y-81402438D01*
X79892857Y-81402438D02*
X79988095Y-81497676D01*
X79988095Y-81497676D02*
X80035714Y-81592914D01*
X80035714Y-81592914D02*
X80083333Y-81783390D01*
X80083333Y-81783390D02*
X80083333Y-81926247D01*
X80083333Y-81926247D02*
X80035714Y-82116723D01*
X80035714Y-82116723D02*
X79988095Y-82211961D01*
X79988095Y-82211961D02*
X79892857Y-82307200D01*
X79892857Y-82307200D02*
X79750000Y-82354819D01*
X79750000Y-82354819D02*
X79511905Y-82354819D01*
X80988095Y-81354819D02*
X80511905Y-81354819D01*
X80511905Y-81354819D02*
X80464286Y-81831009D01*
X80464286Y-81831009D02*
X80511905Y-81783390D01*
X80511905Y-81783390D02*
X80607143Y-81735771D01*
X80607143Y-81735771D02*
X80845238Y-81735771D01*
X80845238Y-81735771D02*
X80940476Y-81783390D01*
X80940476Y-81783390D02*
X80988095Y-81831009D01*
X80988095Y-81831009D02*
X81035714Y-81926247D01*
X81035714Y-81926247D02*
X81035714Y-82164342D01*
X81035714Y-82164342D02*
X80988095Y-82259580D01*
X80988095Y-82259580D02*
X80940476Y-82307200D01*
X80940476Y-82307200D02*
X80845238Y-82354819D01*
X80845238Y-82354819D02*
X80607143Y-82354819D01*
X80607143Y-82354819D02*
X80511905Y-82307200D01*
X80511905Y-82307200D02*
X80464286Y-82259580D01*
X81448095Y-82824819D02*
X81448095Y-81824819D01*
X82019523Y-82824819D02*
X81590952Y-82253390D01*
X82019523Y-81824819D02*
X81448095Y-82396247D01*
X101179819Y-72785713D02*
X102179819Y-72452380D01*
X102179819Y-72452380D02*
X101179819Y-72119047D01*
X102179819Y-71261904D02*
X102179819Y-71833332D01*
X102179819Y-71547618D02*
X101179819Y-71547618D01*
X101179819Y-71547618D02*
X101322676Y-71642856D01*
X101322676Y-71642856D02*
X101417914Y-71738094D01*
X101417914Y-71738094D02*
X101465533Y-71833332D01*
X101275057Y-70880951D02*
X101227438Y-70833332D01*
X101227438Y-70833332D02*
X101179819Y-70738094D01*
X101179819Y-70738094D02*
X101179819Y-70499999D01*
X101179819Y-70499999D02*
X101227438Y-70404761D01*
X101227438Y-70404761D02*
X101275057Y-70357142D01*
X101275057Y-70357142D02*
X101370295Y-70309523D01*
X101370295Y-70309523D02*
X101465533Y-70309523D01*
X101465533Y-70309523D02*
X101608390Y-70357142D01*
X101608390Y-70357142D02*
X102179819Y-70928570D01*
X102179819Y-70928570D02*
X102179819Y-70309523D01*
X92193333Y-89569580D02*
X92145714Y-89617200D01*
X92145714Y-89617200D02*
X92002857Y-89664819D01*
X92002857Y-89664819D02*
X91907619Y-89664819D01*
X91907619Y-89664819D02*
X91764762Y-89617200D01*
X91764762Y-89617200D02*
X91669524Y-89521961D01*
X91669524Y-89521961D02*
X91621905Y-89426723D01*
X91621905Y-89426723D02*
X91574286Y-89236247D01*
X91574286Y-89236247D02*
X91574286Y-89093390D01*
X91574286Y-89093390D02*
X91621905Y-88902914D01*
X91621905Y-88902914D02*
X91669524Y-88807676D01*
X91669524Y-88807676D02*
X91764762Y-88712438D01*
X91764762Y-88712438D02*
X91907619Y-88664819D01*
X91907619Y-88664819D02*
X92002857Y-88664819D01*
X92002857Y-88664819D02*
X92145714Y-88712438D01*
X92145714Y-88712438D02*
X92193333Y-88760057D01*
X92574286Y-88760057D02*
X92621905Y-88712438D01*
X92621905Y-88712438D02*
X92717143Y-88664819D01*
X92717143Y-88664819D02*
X92955238Y-88664819D01*
X92955238Y-88664819D02*
X93050476Y-88712438D01*
X93050476Y-88712438D02*
X93098095Y-88760057D01*
X93098095Y-88760057D02*
X93145714Y-88855295D01*
X93145714Y-88855295D02*
X93145714Y-88950533D01*
X93145714Y-88950533D02*
X93098095Y-89093390D01*
X93098095Y-89093390D02*
X92526667Y-89664819D01*
X92526667Y-89664819D02*
X93145714Y-89664819D01*
X75157142Y-29509580D02*
X75109523Y-29557200D01*
X75109523Y-29557200D02*
X74966666Y-29604819D01*
X74966666Y-29604819D02*
X74871428Y-29604819D01*
X74871428Y-29604819D02*
X74728571Y-29557200D01*
X74728571Y-29557200D02*
X74633333Y-29461961D01*
X74633333Y-29461961D02*
X74585714Y-29366723D01*
X74585714Y-29366723D02*
X74538095Y-29176247D01*
X74538095Y-29176247D02*
X74538095Y-29033390D01*
X74538095Y-29033390D02*
X74585714Y-28842914D01*
X74585714Y-28842914D02*
X74633333Y-28747676D01*
X74633333Y-28747676D02*
X74728571Y-28652438D01*
X74728571Y-28652438D02*
X74871428Y-28604819D01*
X74871428Y-28604819D02*
X74966666Y-28604819D01*
X74966666Y-28604819D02*
X75109523Y-28652438D01*
X75109523Y-28652438D02*
X75157142Y-28700057D01*
X76109523Y-29604819D02*
X75538095Y-29604819D01*
X75823809Y-29604819D02*
X75823809Y-28604819D01*
X75823809Y-28604819D02*
X75728571Y-28747676D01*
X75728571Y-28747676D02*
X75633333Y-28842914D01*
X75633333Y-28842914D02*
X75538095Y-28890533D01*
X77061904Y-29604819D02*
X76490476Y-29604819D01*
X76776190Y-29604819D02*
X76776190Y-28604819D01*
X76776190Y-28604819D02*
X76680952Y-28747676D01*
X76680952Y-28747676D02*
X76585714Y-28842914D01*
X76585714Y-28842914D02*
X76490476Y-28890533D01*
X88154819Y-22133333D02*
X88869104Y-22133333D01*
X88869104Y-22133333D02*
X89011961Y-22180952D01*
X89011961Y-22180952D02*
X89107200Y-22276190D01*
X89107200Y-22276190D02*
X89154819Y-22419047D01*
X89154819Y-22419047D02*
X89154819Y-22514285D01*
X88488152Y-21228571D02*
X89154819Y-21228571D01*
X88107200Y-21466666D02*
X88821485Y-21704761D01*
X88821485Y-21704761D02*
X88821485Y-21085714D01*
X65088095Y-24859580D02*
X65040476Y-24907200D01*
X65040476Y-24907200D02*
X64897619Y-24954819D01*
X64897619Y-24954819D02*
X64802381Y-24954819D01*
X64802381Y-24954819D02*
X64659524Y-24907200D01*
X64659524Y-24907200D02*
X64564286Y-24811961D01*
X64564286Y-24811961D02*
X64516667Y-24716723D01*
X64516667Y-24716723D02*
X64469048Y-24526247D01*
X64469048Y-24526247D02*
X64469048Y-24383390D01*
X64469048Y-24383390D02*
X64516667Y-24192914D01*
X64516667Y-24192914D02*
X64564286Y-24097676D01*
X64564286Y-24097676D02*
X64659524Y-24002438D01*
X64659524Y-24002438D02*
X64802381Y-23954819D01*
X64802381Y-23954819D02*
X64897619Y-23954819D01*
X64897619Y-23954819D02*
X65040476Y-24002438D01*
X65040476Y-24002438D02*
X65088095Y-24050057D01*
X65707143Y-23954819D02*
X65897619Y-23954819D01*
X65897619Y-23954819D02*
X65992857Y-24002438D01*
X65992857Y-24002438D02*
X66088095Y-24097676D01*
X66088095Y-24097676D02*
X66135714Y-24288152D01*
X66135714Y-24288152D02*
X66135714Y-24621485D01*
X66135714Y-24621485D02*
X66088095Y-24811961D01*
X66088095Y-24811961D02*
X65992857Y-24907200D01*
X65992857Y-24907200D02*
X65897619Y-24954819D01*
X65897619Y-24954819D02*
X65707143Y-24954819D01*
X65707143Y-24954819D02*
X65611905Y-24907200D01*
X65611905Y-24907200D02*
X65516667Y-24811961D01*
X65516667Y-24811961D02*
X65469048Y-24621485D01*
X65469048Y-24621485D02*
X65469048Y-24288152D01*
X65469048Y-24288152D02*
X65516667Y-24097676D01*
X65516667Y-24097676D02*
X65611905Y-24002438D01*
X65611905Y-24002438D02*
X65707143Y-23954819D01*
X66564286Y-24954819D02*
X66564286Y-23954819D01*
X66564286Y-23954819D02*
X66897619Y-24669104D01*
X66897619Y-24669104D02*
X67230952Y-23954819D01*
X67230952Y-23954819D02*
X67230952Y-24954819D01*
X67659524Y-24050057D02*
X67707143Y-24002438D01*
X67707143Y-24002438D02*
X67802381Y-23954819D01*
X67802381Y-23954819D02*
X68040476Y-23954819D01*
X68040476Y-23954819D02*
X68135714Y-24002438D01*
X68135714Y-24002438D02*
X68183333Y-24050057D01*
X68183333Y-24050057D02*
X68230952Y-24145295D01*
X68230952Y-24145295D02*
X68230952Y-24240533D01*
X68230952Y-24240533D02*
X68183333Y-24383390D01*
X68183333Y-24383390D02*
X67611905Y-24954819D01*
X67611905Y-24954819D02*
X68230952Y-24954819D01*
X86254819Y-28288094D02*
X85254819Y-28288094D01*
X85254819Y-28288094D02*
X85254819Y-28049999D01*
X85254819Y-28049999D02*
X85302438Y-27907142D01*
X85302438Y-27907142D02*
X85397676Y-27811904D01*
X85397676Y-27811904D02*
X85492914Y-27764285D01*
X85492914Y-27764285D02*
X85683390Y-27716666D01*
X85683390Y-27716666D02*
X85826247Y-27716666D01*
X85826247Y-27716666D02*
X86016723Y-27764285D01*
X86016723Y-27764285D02*
X86111961Y-27811904D01*
X86111961Y-27811904D02*
X86207200Y-27907142D01*
X86207200Y-27907142D02*
X86254819Y-28049999D01*
X86254819Y-28049999D02*
X86254819Y-28288094D01*
X85254819Y-27383332D02*
X85254819Y-26716666D01*
X85254819Y-26716666D02*
X86254819Y-27145237D01*
X72933333Y-29509580D02*
X72885714Y-29557200D01*
X72885714Y-29557200D02*
X72742857Y-29604819D01*
X72742857Y-29604819D02*
X72647619Y-29604819D01*
X72647619Y-29604819D02*
X72504762Y-29557200D01*
X72504762Y-29557200D02*
X72409524Y-29461961D01*
X72409524Y-29461961D02*
X72361905Y-29366723D01*
X72361905Y-29366723D02*
X72314286Y-29176247D01*
X72314286Y-29176247D02*
X72314286Y-29033390D01*
X72314286Y-29033390D02*
X72361905Y-28842914D01*
X72361905Y-28842914D02*
X72409524Y-28747676D01*
X72409524Y-28747676D02*
X72504762Y-28652438D01*
X72504762Y-28652438D02*
X72647619Y-28604819D01*
X72647619Y-28604819D02*
X72742857Y-28604819D01*
X72742857Y-28604819D02*
X72885714Y-28652438D01*
X72885714Y-28652438D02*
X72933333Y-28700057D01*
X73409524Y-29604819D02*
X73600000Y-29604819D01*
X73600000Y-29604819D02*
X73695238Y-29557200D01*
X73695238Y-29557200D02*
X73742857Y-29509580D01*
X73742857Y-29509580D02*
X73838095Y-29366723D01*
X73838095Y-29366723D02*
X73885714Y-29176247D01*
X73885714Y-29176247D02*
X73885714Y-28795295D01*
X73885714Y-28795295D02*
X73838095Y-28700057D01*
X73838095Y-28700057D02*
X73790476Y-28652438D01*
X73790476Y-28652438D02*
X73695238Y-28604819D01*
X73695238Y-28604819D02*
X73504762Y-28604819D01*
X73504762Y-28604819D02*
X73409524Y-28652438D01*
X73409524Y-28652438D02*
X73361905Y-28700057D01*
X73361905Y-28700057D02*
X73314286Y-28795295D01*
X73314286Y-28795295D02*
X73314286Y-29033390D01*
X73314286Y-29033390D02*
X73361905Y-29128628D01*
X73361905Y-29128628D02*
X73409524Y-29176247D01*
X73409524Y-29176247D02*
X73504762Y-29223866D01*
X73504762Y-29223866D02*
X73695238Y-29223866D01*
X73695238Y-29223866D02*
X73790476Y-29176247D01*
X73790476Y-29176247D02*
X73838095Y-29128628D01*
X73838095Y-29128628D02*
X73885714Y-29033390D01*
X35817319Y-27138094D02*
X34817319Y-27138094D01*
X34817319Y-27138094D02*
X34817319Y-26899999D01*
X34817319Y-26899999D02*
X34864938Y-26757142D01*
X34864938Y-26757142D02*
X34960176Y-26661904D01*
X34960176Y-26661904D02*
X35055414Y-26614285D01*
X35055414Y-26614285D02*
X35245890Y-26566666D01*
X35245890Y-26566666D02*
X35388747Y-26566666D01*
X35388747Y-26566666D02*
X35579223Y-26614285D01*
X35579223Y-26614285D02*
X35674461Y-26661904D01*
X35674461Y-26661904D02*
X35769700Y-26757142D01*
X35769700Y-26757142D02*
X35817319Y-26899999D01*
X35817319Y-26899999D02*
X35817319Y-27138094D01*
X34817319Y-26233332D02*
X34817319Y-25614285D01*
X34817319Y-25614285D02*
X35198271Y-25947618D01*
X35198271Y-25947618D02*
X35198271Y-25804761D01*
X35198271Y-25804761D02*
X35245890Y-25709523D01*
X35245890Y-25709523D02*
X35293509Y-25661904D01*
X35293509Y-25661904D02*
X35388747Y-25614285D01*
X35388747Y-25614285D02*
X35626842Y-25614285D01*
X35626842Y-25614285D02*
X35722080Y-25661904D01*
X35722080Y-25661904D02*
X35769700Y-25709523D01*
X35769700Y-25709523D02*
X35817319Y-25804761D01*
X35817319Y-25804761D02*
X35817319Y-26090475D01*
X35817319Y-26090475D02*
X35769700Y-26185713D01*
X35769700Y-26185713D02*
X35722080Y-26233332D01*
X45338095Y-25054819D02*
X45338095Y-24054819D01*
X45909523Y-25054819D02*
X45480952Y-24483390D01*
X45909523Y-24054819D02*
X45338095Y-24626247D01*
X77357142Y-75454819D02*
X77023809Y-74978628D01*
X76785714Y-75454819D02*
X76785714Y-74454819D01*
X76785714Y-74454819D02*
X77166666Y-74454819D01*
X77166666Y-74454819D02*
X77261904Y-74502438D01*
X77261904Y-74502438D02*
X77309523Y-74550057D01*
X77309523Y-74550057D02*
X77357142Y-74645295D01*
X77357142Y-74645295D02*
X77357142Y-74788152D01*
X77357142Y-74788152D02*
X77309523Y-74883390D01*
X77309523Y-74883390D02*
X77261904Y-74931009D01*
X77261904Y-74931009D02*
X77166666Y-74978628D01*
X77166666Y-74978628D02*
X76785714Y-74978628D01*
X78309523Y-75454819D02*
X77738095Y-75454819D01*
X78023809Y-75454819D02*
X78023809Y-74454819D01*
X78023809Y-74454819D02*
X77928571Y-74597676D01*
X77928571Y-74597676D02*
X77833333Y-74692914D01*
X77833333Y-74692914D02*
X77738095Y-74740533D01*
X78642857Y-74454819D02*
X79261904Y-74454819D01*
X79261904Y-74454819D02*
X78928571Y-74835771D01*
X78928571Y-74835771D02*
X79071428Y-74835771D01*
X79071428Y-74835771D02*
X79166666Y-74883390D01*
X79166666Y-74883390D02*
X79214285Y-74931009D01*
X79214285Y-74931009D02*
X79261904Y-75026247D01*
X79261904Y-75026247D02*
X79261904Y-75264342D01*
X79261904Y-75264342D02*
X79214285Y-75359580D01*
X79214285Y-75359580D02*
X79166666Y-75407200D01*
X79166666Y-75407200D02*
X79071428Y-75454819D01*
X79071428Y-75454819D02*
X78785714Y-75454819D01*
X78785714Y-75454819D02*
X78690476Y-75407200D01*
X78690476Y-75407200D02*
X78642857Y-75359580D01*
X39954819Y-81952381D02*
X39954819Y-82428571D01*
X39954819Y-82428571D02*
X38954819Y-82428571D01*
X38954819Y-81428571D02*
X38954819Y-81238095D01*
X38954819Y-81238095D02*
X39002438Y-81142857D01*
X39002438Y-81142857D02*
X39097676Y-81047619D01*
X39097676Y-81047619D02*
X39288152Y-81000000D01*
X39288152Y-81000000D02*
X39621485Y-81000000D01*
X39621485Y-81000000D02*
X39811961Y-81047619D01*
X39811961Y-81047619D02*
X39907200Y-81142857D01*
X39907200Y-81142857D02*
X39954819Y-81238095D01*
X39954819Y-81238095D02*
X39954819Y-81428571D01*
X39954819Y-81428571D02*
X39907200Y-81523809D01*
X39907200Y-81523809D02*
X39811961Y-81619047D01*
X39811961Y-81619047D02*
X39621485Y-81666666D01*
X39621485Y-81666666D02*
X39288152Y-81666666D01*
X39288152Y-81666666D02*
X39097676Y-81619047D01*
X39097676Y-81619047D02*
X39002438Y-81523809D01*
X39002438Y-81523809D02*
X38954819Y-81428571D01*
X39859580Y-80000000D02*
X39907200Y-80047619D01*
X39907200Y-80047619D02*
X39954819Y-80190476D01*
X39954819Y-80190476D02*
X39954819Y-80285714D01*
X39954819Y-80285714D02*
X39907200Y-80428571D01*
X39907200Y-80428571D02*
X39811961Y-80523809D01*
X39811961Y-80523809D02*
X39716723Y-80571428D01*
X39716723Y-80571428D02*
X39526247Y-80619047D01*
X39526247Y-80619047D02*
X39383390Y-80619047D01*
X39383390Y-80619047D02*
X39192914Y-80571428D01*
X39192914Y-80571428D02*
X39097676Y-80523809D01*
X39097676Y-80523809D02*
X39002438Y-80428571D01*
X39002438Y-80428571D02*
X38954819Y-80285714D01*
X38954819Y-80285714D02*
X38954819Y-80190476D01*
X38954819Y-80190476D02*
X39002438Y-80047619D01*
X39002438Y-80047619D02*
X39050057Y-80000000D01*
X38954819Y-79380952D02*
X38954819Y-79190476D01*
X38954819Y-79190476D02*
X39002438Y-79095238D01*
X39002438Y-79095238D02*
X39097676Y-79000000D01*
X39097676Y-79000000D02*
X39288152Y-78952381D01*
X39288152Y-78952381D02*
X39621485Y-78952381D01*
X39621485Y-78952381D02*
X39811961Y-79000000D01*
X39811961Y-79000000D02*
X39907200Y-79095238D01*
X39907200Y-79095238D02*
X39954819Y-79190476D01*
X39954819Y-79190476D02*
X39954819Y-79380952D01*
X39954819Y-79380952D02*
X39907200Y-79476190D01*
X39907200Y-79476190D02*
X39811961Y-79571428D01*
X39811961Y-79571428D02*
X39621485Y-79619047D01*
X39621485Y-79619047D02*
X39288152Y-79619047D01*
X39288152Y-79619047D02*
X39097676Y-79571428D01*
X39097676Y-79571428D02*
X39002438Y-79476190D01*
X39002438Y-79476190D02*
X38954819Y-79380952D01*
X39954819Y-78523809D02*
X38954819Y-78523809D01*
X38954819Y-78523809D02*
X39954819Y-77952381D01*
X39954819Y-77952381D02*
X38954819Y-77952381D01*
X39431009Y-77476190D02*
X39431009Y-77142857D01*
X39954819Y-77000000D02*
X39954819Y-77476190D01*
X39954819Y-77476190D02*
X38954819Y-77476190D01*
X38954819Y-77476190D02*
X38954819Y-77000000D01*
X38954819Y-76714285D02*
X38954819Y-76142857D01*
X39954819Y-76428571D02*
X38954819Y-76428571D01*
X40050057Y-76047619D02*
X40050057Y-75285714D01*
X39431009Y-74714285D02*
X39478628Y-74571428D01*
X39478628Y-74571428D02*
X39526247Y-74523809D01*
X39526247Y-74523809D02*
X39621485Y-74476190D01*
X39621485Y-74476190D02*
X39764342Y-74476190D01*
X39764342Y-74476190D02*
X39859580Y-74523809D01*
X39859580Y-74523809D02*
X39907200Y-74571428D01*
X39907200Y-74571428D02*
X39954819Y-74666666D01*
X39954819Y-74666666D02*
X39954819Y-75047618D01*
X39954819Y-75047618D02*
X38954819Y-75047618D01*
X38954819Y-75047618D02*
X38954819Y-74714285D01*
X38954819Y-74714285D02*
X39002438Y-74619047D01*
X39002438Y-74619047D02*
X39050057Y-74571428D01*
X39050057Y-74571428D02*
X39145295Y-74523809D01*
X39145295Y-74523809D02*
X39240533Y-74523809D01*
X39240533Y-74523809D02*
X39335771Y-74571428D01*
X39335771Y-74571428D02*
X39383390Y-74619047D01*
X39383390Y-74619047D02*
X39431009Y-74714285D01*
X39431009Y-74714285D02*
X39431009Y-75047618D01*
X39954819Y-73523809D02*
X39954819Y-74095237D01*
X39954819Y-73809523D02*
X38954819Y-73809523D01*
X38954819Y-73809523D02*
X39097676Y-73904761D01*
X39097676Y-73904761D02*
X39192914Y-73999999D01*
X39192914Y-73999999D02*
X39240533Y-74095237D01*
X53754819Y-81563094D02*
X54564342Y-81563094D01*
X54564342Y-81563094D02*
X54659580Y-81515475D01*
X54659580Y-81515475D02*
X54707200Y-81467856D01*
X54707200Y-81467856D02*
X54754819Y-81372618D01*
X54754819Y-81372618D02*
X54754819Y-81182142D01*
X54754819Y-81182142D02*
X54707200Y-81086904D01*
X54707200Y-81086904D02*
X54659580Y-81039285D01*
X54659580Y-81039285D02*
X54564342Y-80991666D01*
X54564342Y-80991666D02*
X53754819Y-80991666D01*
X54754819Y-79991666D02*
X54754819Y-80563094D01*
X54754819Y-80277380D02*
X53754819Y-80277380D01*
X53754819Y-80277380D02*
X53897676Y-80372618D01*
X53897676Y-80372618D02*
X53992914Y-80467856D01*
X53992914Y-80467856D02*
X54040533Y-80563094D01*
X53754819Y-79086904D02*
X53754819Y-79563094D01*
X53754819Y-79563094D02*
X54231009Y-79610713D01*
X54231009Y-79610713D02*
X54183390Y-79563094D01*
X54183390Y-79563094D02*
X54135771Y-79467856D01*
X54135771Y-79467856D02*
X54135771Y-79229761D01*
X54135771Y-79229761D02*
X54183390Y-79134523D01*
X54183390Y-79134523D02*
X54231009Y-79086904D01*
X54231009Y-79086904D02*
X54326247Y-79039285D01*
X54326247Y-79039285D02*
X54564342Y-79039285D01*
X54564342Y-79039285D02*
X54659580Y-79086904D01*
X54659580Y-79086904D02*
X54707200Y-79134523D01*
X54707200Y-79134523D02*
X54754819Y-79229761D01*
X54754819Y-79229761D02*
X54754819Y-79467856D01*
X54754819Y-79467856D02*
X54707200Y-79563094D01*
X54707200Y-79563094D02*
X54659580Y-79610713D01*
X61541666Y-79406009D02*
X61208333Y-79406009D01*
X61208333Y-79929819D02*
X61208333Y-78929819D01*
X61208333Y-78929819D02*
X61684523Y-78929819D01*
X62494047Y-79263152D02*
X62494047Y-79929819D01*
X62255952Y-78882200D02*
X62017857Y-79596485D01*
X62017857Y-79596485D02*
X62636904Y-79596485D01*
X64050057Y-81689285D02*
X64002438Y-81641666D01*
X64002438Y-81641666D02*
X63954819Y-81546428D01*
X63954819Y-81546428D02*
X63954819Y-81308333D01*
X63954819Y-81308333D02*
X64002438Y-81213095D01*
X64002438Y-81213095D02*
X64050057Y-81165476D01*
X64050057Y-81165476D02*
X64145295Y-81117857D01*
X64145295Y-81117857D02*
X64240533Y-81117857D01*
X64240533Y-81117857D02*
X64383390Y-81165476D01*
X64383390Y-81165476D02*
X64954819Y-81736904D01*
X64954819Y-81736904D02*
X64954819Y-81117857D01*
X64669104Y-80736904D02*
X64669104Y-80260714D01*
X64954819Y-80832142D02*
X63954819Y-80498809D01*
X63954819Y-80498809D02*
X64954819Y-80165476D01*
X74261905Y-27104819D02*
X74261905Y-27914342D01*
X74261905Y-27914342D02*
X74309524Y-28009580D01*
X74309524Y-28009580D02*
X74357143Y-28057200D01*
X74357143Y-28057200D02*
X74452381Y-28104819D01*
X74452381Y-28104819D02*
X74642857Y-28104819D01*
X74642857Y-28104819D02*
X74738095Y-28057200D01*
X74738095Y-28057200D02*
X74785714Y-28009580D01*
X74785714Y-28009580D02*
X74833333Y-27914342D01*
X74833333Y-27914342D02*
X74833333Y-27104819D01*
X75833333Y-28104819D02*
X75261905Y-28104819D01*
X75547619Y-28104819D02*
X75547619Y-27104819D01*
X75547619Y-27104819D02*
X75452381Y-27247676D01*
X75452381Y-27247676D02*
X75357143Y-27342914D01*
X75357143Y-27342914D02*
X75261905Y-27390533D01*
X76166667Y-27104819D02*
X76833333Y-27104819D01*
X76833333Y-27104819D02*
X76404762Y-28104819D01*
X54505952Y-91004819D02*
X54505952Y-90004819D01*
X54505952Y-90004819D02*
X54744047Y-90004819D01*
X54744047Y-90004819D02*
X54886904Y-90052438D01*
X54886904Y-90052438D02*
X54982142Y-90147676D01*
X54982142Y-90147676D02*
X55029761Y-90242914D01*
X55029761Y-90242914D02*
X55077380Y-90433390D01*
X55077380Y-90433390D02*
X55077380Y-90576247D01*
X55077380Y-90576247D02*
X55029761Y-90766723D01*
X55029761Y-90766723D02*
X54982142Y-90861961D01*
X54982142Y-90861961D02*
X54886904Y-90957200D01*
X54886904Y-90957200D02*
X54744047Y-91004819D01*
X54744047Y-91004819D02*
X54505952Y-91004819D01*
X56077380Y-90909580D02*
X56029761Y-90957200D01*
X56029761Y-90957200D02*
X55886904Y-91004819D01*
X55886904Y-91004819D02*
X55791666Y-91004819D01*
X55791666Y-91004819D02*
X55648809Y-90957200D01*
X55648809Y-90957200D02*
X55553571Y-90861961D01*
X55553571Y-90861961D02*
X55505952Y-90766723D01*
X55505952Y-90766723D02*
X55458333Y-90576247D01*
X55458333Y-90576247D02*
X55458333Y-90433390D01*
X55458333Y-90433390D02*
X55505952Y-90242914D01*
X55505952Y-90242914D02*
X55553571Y-90147676D01*
X55553571Y-90147676D02*
X55648809Y-90052438D01*
X55648809Y-90052438D02*
X55791666Y-90004819D01*
X55791666Y-90004819D02*
X55886904Y-90004819D01*
X55886904Y-90004819D02*
X56029761Y-90052438D01*
X56029761Y-90052438D02*
X56077380Y-90100057D01*
X57077380Y-90909580D02*
X57029761Y-90957200D01*
X57029761Y-90957200D02*
X56886904Y-91004819D01*
X56886904Y-91004819D02*
X56791666Y-91004819D01*
X56791666Y-91004819D02*
X56648809Y-90957200D01*
X56648809Y-90957200D02*
X56553571Y-90861961D01*
X56553571Y-90861961D02*
X56505952Y-90766723D01*
X56505952Y-90766723D02*
X56458333Y-90576247D01*
X56458333Y-90576247D02*
X56458333Y-90433390D01*
X56458333Y-90433390D02*
X56505952Y-90242914D01*
X56505952Y-90242914D02*
X56553571Y-90147676D01*
X56553571Y-90147676D02*
X56648809Y-90052438D01*
X56648809Y-90052438D02*
X56791666Y-90004819D01*
X56791666Y-90004819D02*
X56886904Y-90004819D01*
X56886904Y-90004819D02*
X57029761Y-90052438D01*
X57029761Y-90052438D02*
X57077380Y-90100057D01*
X57267857Y-91100057D02*
X58029761Y-91100057D01*
X58220238Y-90100057D02*
X58267857Y-90052438D01*
X58267857Y-90052438D02*
X58363095Y-90004819D01*
X58363095Y-90004819D02*
X58601190Y-90004819D01*
X58601190Y-90004819D02*
X58696428Y-90052438D01*
X58696428Y-90052438D02*
X58744047Y-90100057D01*
X58744047Y-90100057D02*
X58791666Y-90195295D01*
X58791666Y-90195295D02*
X58791666Y-90290533D01*
X58791666Y-90290533D02*
X58744047Y-90433390D01*
X58744047Y-90433390D02*
X58172619Y-91004819D01*
X58172619Y-91004819D02*
X58791666Y-91004819D01*
X99261905Y-28304819D02*
X99261905Y-29114342D01*
X99261905Y-29114342D02*
X99309524Y-29209580D01*
X99309524Y-29209580D02*
X99357143Y-29257200D01*
X99357143Y-29257200D02*
X99452381Y-29304819D01*
X99452381Y-29304819D02*
X99642857Y-29304819D01*
X99642857Y-29304819D02*
X99738095Y-29257200D01*
X99738095Y-29257200D02*
X99785714Y-29209580D01*
X99785714Y-29209580D02*
X99833333Y-29114342D01*
X99833333Y-29114342D02*
X99833333Y-28304819D01*
X100261905Y-28400057D02*
X100309524Y-28352438D01*
X100309524Y-28352438D02*
X100404762Y-28304819D01*
X100404762Y-28304819D02*
X100642857Y-28304819D01*
X100642857Y-28304819D02*
X100738095Y-28352438D01*
X100738095Y-28352438D02*
X100785714Y-28400057D01*
X100785714Y-28400057D02*
X100833333Y-28495295D01*
X100833333Y-28495295D02*
X100833333Y-28590533D01*
X100833333Y-28590533D02*
X100785714Y-28733390D01*
X100785714Y-28733390D02*
X100214286Y-29304819D01*
X100214286Y-29304819D02*
X100833333Y-29304819D01*
X101452381Y-28304819D02*
X101547619Y-28304819D01*
X101547619Y-28304819D02*
X101642857Y-28352438D01*
X101642857Y-28352438D02*
X101690476Y-28400057D01*
X101690476Y-28400057D02*
X101738095Y-28495295D01*
X101738095Y-28495295D02*
X101785714Y-28685771D01*
X101785714Y-28685771D02*
X101785714Y-28923866D01*
X101785714Y-28923866D02*
X101738095Y-29114342D01*
X101738095Y-29114342D02*
X101690476Y-29209580D01*
X101690476Y-29209580D02*
X101642857Y-29257200D01*
X101642857Y-29257200D02*
X101547619Y-29304819D01*
X101547619Y-29304819D02*
X101452381Y-29304819D01*
X101452381Y-29304819D02*
X101357143Y-29257200D01*
X101357143Y-29257200D02*
X101309524Y-29209580D01*
X101309524Y-29209580D02*
X101261905Y-29114342D01*
X101261905Y-29114342D02*
X101214286Y-28923866D01*
X101214286Y-28923866D02*
X101214286Y-28685771D01*
X101214286Y-28685771D02*
X101261905Y-28495295D01*
X101261905Y-28495295D02*
X101309524Y-28400057D01*
X101309524Y-28400057D02*
X101357143Y-28352438D01*
X101357143Y-28352438D02*
X101452381Y-28304819D01*
X76928571Y-24859580D02*
X76880952Y-24907200D01*
X76880952Y-24907200D02*
X76738095Y-24954819D01*
X76738095Y-24954819D02*
X76642857Y-24954819D01*
X76642857Y-24954819D02*
X76500000Y-24907200D01*
X76500000Y-24907200D02*
X76404762Y-24811961D01*
X76404762Y-24811961D02*
X76357143Y-24716723D01*
X76357143Y-24716723D02*
X76309524Y-24526247D01*
X76309524Y-24526247D02*
X76309524Y-24383390D01*
X76309524Y-24383390D02*
X76357143Y-24192914D01*
X76357143Y-24192914D02*
X76404762Y-24097676D01*
X76404762Y-24097676D02*
X76500000Y-24002438D01*
X76500000Y-24002438D02*
X76642857Y-23954819D01*
X76642857Y-23954819D02*
X76738095Y-23954819D01*
X76738095Y-23954819D02*
X76880952Y-24002438D01*
X76880952Y-24002438D02*
X76928571Y-24050057D01*
X77547619Y-23954819D02*
X77738095Y-23954819D01*
X77738095Y-23954819D02*
X77833333Y-24002438D01*
X77833333Y-24002438D02*
X77928571Y-24097676D01*
X77928571Y-24097676D02*
X77976190Y-24288152D01*
X77976190Y-24288152D02*
X77976190Y-24621485D01*
X77976190Y-24621485D02*
X77928571Y-24811961D01*
X77928571Y-24811961D02*
X77833333Y-24907200D01*
X77833333Y-24907200D02*
X77738095Y-24954819D01*
X77738095Y-24954819D02*
X77547619Y-24954819D01*
X77547619Y-24954819D02*
X77452381Y-24907200D01*
X77452381Y-24907200D02*
X77357143Y-24811961D01*
X77357143Y-24811961D02*
X77309524Y-24621485D01*
X77309524Y-24621485D02*
X77309524Y-24288152D01*
X77309524Y-24288152D02*
X77357143Y-24097676D01*
X77357143Y-24097676D02*
X77452381Y-24002438D01*
X77452381Y-24002438D02*
X77547619Y-23954819D01*
X78404762Y-24954819D02*
X78404762Y-23954819D01*
X78404762Y-23954819D02*
X78976190Y-24954819D01*
X78976190Y-24954819D02*
X78976190Y-23954819D01*
X79404762Y-24907200D02*
X79547619Y-24954819D01*
X79547619Y-24954819D02*
X79785714Y-24954819D01*
X79785714Y-24954819D02*
X79880952Y-24907200D01*
X79880952Y-24907200D02*
X79928571Y-24859580D01*
X79928571Y-24859580D02*
X79976190Y-24764342D01*
X79976190Y-24764342D02*
X79976190Y-24669104D01*
X79976190Y-24669104D02*
X79928571Y-24573866D01*
X79928571Y-24573866D02*
X79880952Y-24526247D01*
X79880952Y-24526247D02*
X79785714Y-24478628D01*
X79785714Y-24478628D02*
X79595238Y-24431009D01*
X79595238Y-24431009D02*
X79500000Y-24383390D01*
X79500000Y-24383390D02*
X79452381Y-24335771D01*
X79452381Y-24335771D02*
X79404762Y-24240533D01*
X79404762Y-24240533D02*
X79404762Y-24145295D01*
X79404762Y-24145295D02*
X79452381Y-24050057D01*
X79452381Y-24050057D02*
X79500000Y-24002438D01*
X79500000Y-24002438D02*
X79595238Y-23954819D01*
X79595238Y-23954819D02*
X79833333Y-23954819D01*
X79833333Y-23954819D02*
X79976190Y-24002438D01*
X80595238Y-23954819D02*
X80785714Y-23954819D01*
X80785714Y-23954819D02*
X80880952Y-24002438D01*
X80880952Y-24002438D02*
X80976190Y-24097676D01*
X80976190Y-24097676D02*
X81023809Y-24288152D01*
X81023809Y-24288152D02*
X81023809Y-24621485D01*
X81023809Y-24621485D02*
X80976190Y-24811961D01*
X80976190Y-24811961D02*
X80880952Y-24907200D01*
X80880952Y-24907200D02*
X80785714Y-24954819D01*
X80785714Y-24954819D02*
X80595238Y-24954819D01*
X80595238Y-24954819D02*
X80500000Y-24907200D01*
X80500000Y-24907200D02*
X80404762Y-24811961D01*
X80404762Y-24811961D02*
X80357143Y-24621485D01*
X80357143Y-24621485D02*
X80357143Y-24288152D01*
X80357143Y-24288152D02*
X80404762Y-24097676D01*
X80404762Y-24097676D02*
X80500000Y-24002438D01*
X80500000Y-24002438D02*
X80595238Y-23954819D01*
X81928571Y-24954819D02*
X81452381Y-24954819D01*
X81452381Y-24954819D02*
X81452381Y-23954819D01*
X82261905Y-24431009D02*
X82595238Y-24431009D01*
X82738095Y-24954819D02*
X82261905Y-24954819D01*
X82261905Y-24954819D02*
X82261905Y-23954819D01*
X82261905Y-23954819D02*
X82738095Y-23954819D01*
X83690476Y-24954819D02*
X83119048Y-24954819D01*
X83404762Y-24954819D02*
X83404762Y-23954819D01*
X83404762Y-23954819D02*
X83309524Y-24097676D01*
X83309524Y-24097676D02*
X83214286Y-24192914D01*
X83214286Y-24192914D02*
X83119048Y-24240533D01*
X38383333Y-43409580D02*
X38335714Y-43457200D01*
X38335714Y-43457200D02*
X38192857Y-43504819D01*
X38192857Y-43504819D02*
X38097619Y-43504819D01*
X38097619Y-43504819D02*
X37954762Y-43457200D01*
X37954762Y-43457200D02*
X37859524Y-43361961D01*
X37859524Y-43361961D02*
X37811905Y-43266723D01*
X37811905Y-43266723D02*
X37764286Y-43076247D01*
X37764286Y-43076247D02*
X37764286Y-42933390D01*
X37764286Y-42933390D02*
X37811905Y-42742914D01*
X37811905Y-42742914D02*
X37859524Y-42647676D01*
X37859524Y-42647676D02*
X37954762Y-42552438D01*
X37954762Y-42552438D02*
X38097619Y-42504819D01*
X38097619Y-42504819D02*
X38192857Y-42504819D01*
X38192857Y-42504819D02*
X38335714Y-42552438D01*
X38335714Y-42552438D02*
X38383333Y-42600057D01*
X38954762Y-42933390D02*
X38859524Y-42885771D01*
X38859524Y-42885771D02*
X38811905Y-42838152D01*
X38811905Y-42838152D02*
X38764286Y-42742914D01*
X38764286Y-42742914D02*
X38764286Y-42695295D01*
X38764286Y-42695295D02*
X38811905Y-42600057D01*
X38811905Y-42600057D02*
X38859524Y-42552438D01*
X38859524Y-42552438D02*
X38954762Y-42504819D01*
X38954762Y-42504819D02*
X39145238Y-42504819D01*
X39145238Y-42504819D02*
X39240476Y-42552438D01*
X39240476Y-42552438D02*
X39288095Y-42600057D01*
X39288095Y-42600057D02*
X39335714Y-42695295D01*
X39335714Y-42695295D02*
X39335714Y-42742914D01*
X39335714Y-42742914D02*
X39288095Y-42838152D01*
X39288095Y-42838152D02*
X39240476Y-42885771D01*
X39240476Y-42885771D02*
X39145238Y-42933390D01*
X39145238Y-42933390D02*
X38954762Y-42933390D01*
X38954762Y-42933390D02*
X38859524Y-42981009D01*
X38859524Y-42981009D02*
X38811905Y-43028628D01*
X38811905Y-43028628D02*
X38764286Y-43123866D01*
X38764286Y-43123866D02*
X38764286Y-43314342D01*
X38764286Y-43314342D02*
X38811905Y-43409580D01*
X38811905Y-43409580D02*
X38859524Y-43457200D01*
X38859524Y-43457200D02*
X38954762Y-43504819D01*
X38954762Y-43504819D02*
X39145238Y-43504819D01*
X39145238Y-43504819D02*
X39240476Y-43457200D01*
X39240476Y-43457200D02*
X39288095Y-43409580D01*
X39288095Y-43409580D02*
X39335714Y-43314342D01*
X39335714Y-43314342D02*
X39335714Y-43123866D01*
X39335714Y-43123866D02*
X39288095Y-43028628D01*
X39288095Y-43028628D02*
X39240476Y-42981009D01*
X39240476Y-42981009D02*
X39145238Y-42933390D01*
X21261905Y-48454819D02*
X21261905Y-47454819D01*
X21261905Y-47454819D02*
X21500000Y-47454819D01*
X21500000Y-47454819D02*
X21642857Y-47502438D01*
X21642857Y-47502438D02*
X21738095Y-47597676D01*
X21738095Y-47597676D02*
X21785714Y-47692914D01*
X21785714Y-47692914D02*
X21833333Y-47883390D01*
X21833333Y-47883390D02*
X21833333Y-48026247D01*
X21833333Y-48026247D02*
X21785714Y-48216723D01*
X21785714Y-48216723D02*
X21738095Y-48311961D01*
X21738095Y-48311961D02*
X21642857Y-48407200D01*
X21642857Y-48407200D02*
X21500000Y-48454819D01*
X21500000Y-48454819D02*
X21261905Y-48454819D01*
X22214286Y-47550057D02*
X22261905Y-47502438D01*
X22261905Y-47502438D02*
X22357143Y-47454819D01*
X22357143Y-47454819D02*
X22595238Y-47454819D01*
X22595238Y-47454819D02*
X22690476Y-47502438D01*
X22690476Y-47502438D02*
X22738095Y-47550057D01*
X22738095Y-47550057D02*
X22785714Y-47645295D01*
X22785714Y-47645295D02*
X22785714Y-47740533D01*
X22785714Y-47740533D02*
X22738095Y-47883390D01*
X22738095Y-47883390D02*
X22166667Y-48454819D01*
X22166667Y-48454819D02*
X22785714Y-48454819D01*
X99084580Y-88941666D02*
X99132200Y-88989285D01*
X99132200Y-88989285D02*
X99179819Y-89132142D01*
X99179819Y-89132142D02*
X99179819Y-89227380D01*
X99179819Y-89227380D02*
X99132200Y-89370237D01*
X99132200Y-89370237D02*
X99036961Y-89465475D01*
X99036961Y-89465475D02*
X98941723Y-89513094D01*
X98941723Y-89513094D02*
X98751247Y-89560713D01*
X98751247Y-89560713D02*
X98608390Y-89560713D01*
X98608390Y-89560713D02*
X98417914Y-89513094D01*
X98417914Y-89513094D02*
X98322676Y-89465475D01*
X98322676Y-89465475D02*
X98227438Y-89370237D01*
X98227438Y-89370237D02*
X98179819Y-89227380D01*
X98179819Y-89227380D02*
X98179819Y-89132142D01*
X98179819Y-89132142D02*
X98227438Y-88989285D01*
X98227438Y-88989285D02*
X98275057Y-88941666D01*
X98179819Y-88036904D02*
X98179819Y-88513094D01*
X98179819Y-88513094D02*
X98656009Y-88560713D01*
X98656009Y-88560713D02*
X98608390Y-88513094D01*
X98608390Y-88513094D02*
X98560771Y-88417856D01*
X98560771Y-88417856D02*
X98560771Y-88179761D01*
X98560771Y-88179761D02*
X98608390Y-88084523D01*
X98608390Y-88084523D02*
X98656009Y-88036904D01*
X98656009Y-88036904D02*
X98751247Y-87989285D01*
X98751247Y-87989285D02*
X98989342Y-87989285D01*
X98989342Y-87989285D02*
X99084580Y-88036904D01*
X99084580Y-88036904D02*
X99132200Y-88084523D01*
X99132200Y-88084523D02*
X99179819Y-88179761D01*
X99179819Y-88179761D02*
X99179819Y-88417856D01*
X99179819Y-88417856D02*
X99132200Y-88513094D01*
X99132200Y-88513094D02*
X99084580Y-88560713D01*
X23857142Y-49954819D02*
X23523809Y-49478628D01*
X23285714Y-49954819D02*
X23285714Y-48954819D01*
X23285714Y-48954819D02*
X23666666Y-48954819D01*
X23666666Y-48954819D02*
X23761904Y-49002438D01*
X23761904Y-49002438D02*
X23809523Y-49050057D01*
X23809523Y-49050057D02*
X23857142Y-49145295D01*
X23857142Y-49145295D02*
X23857142Y-49288152D01*
X23857142Y-49288152D02*
X23809523Y-49383390D01*
X23809523Y-49383390D02*
X23761904Y-49431009D01*
X23761904Y-49431009D02*
X23666666Y-49478628D01*
X23666666Y-49478628D02*
X23285714Y-49478628D01*
X24809523Y-49954819D02*
X24238095Y-49954819D01*
X24523809Y-49954819D02*
X24523809Y-48954819D01*
X24523809Y-48954819D02*
X24428571Y-49097676D01*
X24428571Y-49097676D02*
X24333333Y-49192914D01*
X24333333Y-49192914D02*
X24238095Y-49240533D01*
X25190476Y-49050057D02*
X25238095Y-49002438D01*
X25238095Y-49002438D02*
X25333333Y-48954819D01*
X25333333Y-48954819D02*
X25571428Y-48954819D01*
X25571428Y-48954819D02*
X25666666Y-49002438D01*
X25666666Y-49002438D02*
X25714285Y-49050057D01*
X25714285Y-49050057D02*
X25761904Y-49145295D01*
X25761904Y-49145295D02*
X25761904Y-49240533D01*
X25761904Y-49240533D02*
X25714285Y-49383390D01*
X25714285Y-49383390D02*
X25142857Y-49954819D01*
X25142857Y-49954819D02*
X25761904Y-49954819D01*
D10*
%TO.C,F2*%
X32040000Y-24502064D02*
X32040000Y-23297936D01*
X33860000Y-24502064D02*
X33860000Y-23297936D01*
%TO.C,R3*%
X46427064Y-38460000D02*
X44972936Y-38460000D01*
X46427064Y-36640000D02*
X44972936Y-36640000D01*
%TO.C,BOOT1*%
X108000000Y-48825000D02*
X108000000Y-52125000D01*
X107700000Y-48825000D02*
X108000000Y-48825000D01*
X105500000Y-48825000D02*
X105200000Y-48825000D01*
X105200000Y-48825000D02*
X105200000Y-52125000D01*
X108000000Y-52125000D02*
X107700000Y-52125000D01*
X105200000Y-52125000D02*
X105500000Y-52125000D01*
%TO.C,D4*%
X23135000Y-50315000D02*
X20865000Y-50315000D01*
X20865000Y-50315000D02*
X20865000Y-54200000D01*
X23135000Y-54200000D02*
X23135000Y-50315000D01*
%TO.C,U16*%
X56500000Y-76485000D02*
X58300000Y-76485000D01*
X58300000Y-73265000D02*
X55850000Y-73265000D01*
%TO.C,R21*%
X84710000Y-31535436D02*
X84710000Y-32989564D01*
X82890000Y-31535436D02*
X82890000Y-32989564D01*
%TO.C,R6*%
X43435000Y-45310436D02*
X43435000Y-46764564D01*
X41615000Y-45310436D02*
X41615000Y-46764564D01*
%TO.C,C4*%
X92625000Y-76215000D02*
X92000000Y-76215000D01*
X92312500Y-76527500D02*
X92312500Y-75902500D01*
X91760000Y-76225563D02*
X91760000Y-75590000D01*
X91760000Y-76225563D02*
X90695563Y-77290000D01*
X91760000Y-72834437D02*
X91760000Y-73470000D01*
X91760000Y-72834437D02*
X90695563Y-71770000D01*
X90695563Y-77290000D02*
X86240000Y-77290000D01*
X90695563Y-71770000D02*
X86240000Y-71770000D01*
X86240000Y-77290000D02*
X86240000Y-75590000D01*
X86240000Y-71770000D02*
X86240000Y-73470000D01*
%TO.C,R23*%
X58277064Y-72710000D02*
X56822936Y-72710000D01*
X58277064Y-70890000D02*
X56822936Y-70890000D01*
%TO.C,JP3*%
X29920000Y-85645000D02*
X31250000Y-85645000D01*
X29920000Y-86975000D02*
X29920000Y-85645000D01*
X29920000Y-88245000D02*
X29920000Y-93385000D01*
X29920000Y-88245000D02*
X32580000Y-88245000D01*
X29920000Y-93385000D02*
X32580000Y-93385000D01*
X32580000Y-88245000D02*
X32580000Y-93385000D01*
%TO.C,R5*%
X40660436Y-39840000D02*
X42114564Y-39840000D01*
X40660436Y-41660000D02*
X42114564Y-41660000D01*
%TO.C,C10*%
X55763748Y-64340000D02*
X57186252Y-64340000D01*
X55763748Y-66160000D02*
X57186252Y-66160000D01*
%TO.C,D1*%
X28265000Y-47260000D02*
X30535000Y-47260000D01*
X30535000Y-47260000D02*
X30535000Y-43375000D01*
X28265000Y-43375000D02*
X28265000Y-47260000D01*
%TO.C,R4*%
X55360000Y-35922936D02*
X55360000Y-37377064D01*
X53540000Y-35922936D02*
X53540000Y-37377064D01*
%TO.C,U6*%
X28750000Y-50680000D02*
X37950000Y-50680000D01*
X30550000Y-54780000D02*
X37950000Y-54780000D01*
%TO.C,D8*%
X69765000Y-29585000D02*
X72035000Y-29585000D01*
X72035000Y-29585000D02*
X72035000Y-25700000D01*
X69765000Y-25700000D02*
X69765000Y-29585000D01*
%TO.C,USB1*%
X60150000Y-24512500D02*
X59700000Y-24512500D01*
X60150000Y-22662500D02*
X60150000Y-24512500D01*
X60150000Y-20112500D02*
X60150000Y-20362500D01*
X57950000Y-25062500D02*
X57950000Y-24612500D01*
X57950000Y-25062500D02*
X57500000Y-25062500D01*
X52350000Y-24512500D02*
X52800000Y-24512500D01*
X52350000Y-22662500D02*
X52350000Y-24512500D01*
X52350000Y-20112500D02*
X52350000Y-20362500D01*
%TO.C,J1*%
X64340000Y-86490000D02*
X64340000Y-95910000D01*
X64340000Y-86490000D02*
X65850000Y-86490000D01*
X64340000Y-92600000D02*
X72960000Y-92600000D01*
X64340000Y-95910000D02*
X72960000Y-95910000D01*
X66600000Y-85200000D02*
X67200000Y-85200000D01*
X66900000Y-85800000D02*
X66600000Y-85200000D01*
X67200000Y-85200000D02*
X66900000Y-85800000D01*
X67950000Y-86490000D02*
X69350000Y-86490000D01*
X72960000Y-86490000D02*
X71450000Y-86490000D01*
X72960000Y-95910000D02*
X72960000Y-86490000D01*
D12*
%TO.C,U7*%
X45325000Y-89575000D02*
X45325000Y-89525000D01*
X45325000Y-89575000D02*
X41175000Y-89575000D01*
X45325000Y-89525000D02*
X46725000Y-89525000D01*
X45325000Y-84425000D02*
X45325000Y-84570000D01*
X45325000Y-84425000D02*
X41175000Y-84425000D01*
X41175000Y-89575000D02*
X41175000Y-89430000D01*
X41175000Y-84425000D02*
X41175000Y-84570000D01*
D10*
%TO.C,R17*%
X103227064Y-48260000D02*
X101772936Y-48260000D01*
X103227064Y-46440000D02*
X101772936Y-46440000D01*
%TO.C,LOCONET_T1*%
X36070000Y-28180000D02*
X37600000Y-28180000D01*
X38070000Y-28650000D02*
X38070000Y-41850000D01*
D13*
X29120000Y-28650000D02*
X29050000Y-28650000D01*
D10*
X29050000Y-28650000D02*
X38070000Y-28650000D01*
X20070000Y-28650000D02*
X26850000Y-28650000D01*
X38070000Y-41850000D02*
X29050000Y-41850000D01*
D13*
X20190000Y-41850000D02*
X20070000Y-41850000D01*
X20080000Y-41850000D02*
X20070000Y-41850000D01*
D10*
X20070000Y-41850000D02*
X20070000Y-28650000D01*
X20070000Y-41850000D02*
X26850000Y-41850000D01*
%TO.C,U1*%
X95250000Y-90190000D02*
X93450000Y-90190000D01*
X95250000Y-90190000D02*
X96050000Y-90190000D01*
X95250000Y-93310000D02*
X94450000Y-93310000D01*
X95250000Y-93310000D02*
X96050000Y-93310000D01*
%TO.C,JP2*%
X36255000Y-93370000D02*
X34925000Y-93370000D01*
X36255000Y-92040000D02*
X36255000Y-93370000D01*
X36255000Y-90770000D02*
X36255000Y-85630000D01*
X36255000Y-90770000D02*
X33595000Y-90770000D01*
X36255000Y-85630000D02*
X33595000Y-85630000D01*
X33595000Y-90770000D02*
X33595000Y-85630000D01*
%TO.C,CU11*%
X76380000Y-45606252D02*
X76380000Y-44183748D01*
X78200000Y-45606252D02*
X78200000Y-44183748D01*
%TO.C,U10*%
X42472500Y-72360000D02*
X44272500Y-72360000D01*
X44272500Y-69140000D02*
X41822500Y-69140000D01*
%TO.C,U12*%
X68000000Y-26250000D02*
X64000000Y-26250000D01*
X68000000Y-29250000D02*
X65000000Y-29250000D01*
%TO.C,U3*%
X47425000Y-46005000D02*
X50875000Y-46005000D01*
X47425000Y-46005000D02*
X45475000Y-46005000D01*
X47425000Y-40885000D02*
X49375000Y-40885000D01*
X47425000Y-40885000D02*
X45475000Y-40885000D01*
%TO.C,J3*%
X105695000Y-31105000D02*
X105695000Y-38785000D01*
X105695000Y-31105000D02*
X108355000Y-31105000D01*
X105695000Y-38785000D02*
X108355000Y-38785000D01*
X107025000Y-28505000D02*
X108355000Y-28505000D01*
X108355000Y-28505000D02*
X108355000Y-29835000D01*
X108355000Y-31105000D02*
X108355000Y-38785000D01*
%TO.C,U11*%
X79350000Y-47945000D02*
X79350000Y-49045000D01*
X59850000Y-47995000D02*
X60850000Y-47995000D01*
X59850000Y-47995000D02*
X59850000Y-48995000D01*
X79200000Y-48145000D02*
X78700000Y-48145000D01*
X60850000Y-48145000D02*
X60000000Y-48145000D01*
X60000000Y-48145000D02*
X60000000Y-49445000D01*
X79200000Y-66145000D02*
X79200000Y-48145000D01*
X79200000Y-66145000D02*
X78700000Y-66145000D01*
X60750000Y-66145000D02*
X60000000Y-66145000D01*
X60000000Y-66145000D02*
X60000000Y-64795000D01*
X79350000Y-66295000D02*
X79350000Y-65295000D01*
X78700000Y-66295000D02*
X79350000Y-66295000D01*
X60750000Y-66295000D02*
X59850000Y-66295000D01*
X59850000Y-66295000D02*
X59850000Y-65295000D01*
%TO.C,U4*%
X52960000Y-37650000D02*
X52960000Y-35850000D01*
X49740000Y-35850000D02*
X49740000Y-38300000D01*
%TO.C,C12*%
X72410000Y-71101248D02*
X72410000Y-72523752D01*
X70590000Y-71101248D02*
X70590000Y-72523752D01*
%TO.C,C13*%
X81660000Y-71101248D02*
X81660000Y-72523752D01*
X79840000Y-71101248D02*
X79840000Y-72523752D01*
%TO.C,U2*%
X86340000Y-71100000D02*
X86340000Y-65090000D01*
X93160000Y-68850000D02*
X93160000Y-65090000D01*
X86340000Y-65090000D02*
X87600000Y-65090000D01*
X93160000Y-65090000D02*
X91900000Y-65090000D01*
%TO.C,U9*%
X42472500Y-77860000D02*
X44272500Y-77860000D01*
X44272500Y-74640000D02*
X41322500Y-74640000D01*
%TO.C,JP1*%
X28570000Y-20480000D02*
X29900000Y-20480000D01*
X28570000Y-21810000D02*
X28570000Y-20480000D01*
X28570000Y-23080000D02*
X28570000Y-25680000D01*
X28570000Y-23080000D02*
X31230000Y-23080000D01*
X28570000Y-25680000D02*
X31230000Y-25680000D01*
X31230000Y-23080000D02*
X31230000Y-25680000D01*
%TO.C,R10*%
X44339564Y-29810000D02*
X42885436Y-29810000D01*
X44339564Y-27990000D02*
X42885436Y-27990000D01*
%TO.C,CB1*%
X99750241Y-58464000D02*
X99120241Y-58464000D01*
X99435241Y-58779000D02*
X99435241Y-58149000D01*
X96250000Y-59855000D02*
X96250000Y-53395000D01*
X96210000Y-59855000D02*
X96210000Y-53395000D01*
X96170000Y-59855000D02*
X96170000Y-53395000D01*
X96130000Y-59853000D02*
X96130000Y-53397000D01*
X96090000Y-59852000D02*
X96090000Y-53398000D01*
X96050000Y-59849000D02*
X96050000Y-53401000D01*
X96010000Y-59847000D02*
X96010000Y-57665000D01*
X96010000Y-55585000D02*
X96010000Y-53403000D01*
X95970000Y-59843000D02*
X95970000Y-57665000D01*
X95970000Y-55585000D02*
X95970000Y-53407000D01*
X95930000Y-59840000D02*
X95930000Y-57665000D01*
X95930000Y-55585000D02*
X95930000Y-53410000D01*
X95890000Y-59836000D02*
X95890000Y-57665000D01*
X95890000Y-55585000D02*
X95890000Y-53414000D01*
X95850000Y-59831000D02*
X95850000Y-57665000D01*
X95850000Y-55585000D02*
X95850000Y-53419000D01*
X95810000Y-59826000D02*
X95810000Y-57665000D01*
X95810000Y-55585000D02*
X95810000Y-53424000D01*
X95770000Y-59820000D02*
X95770000Y-57665000D01*
X95770000Y-55585000D02*
X95770000Y-53430000D01*
X95730000Y-59814000D02*
X95730000Y-57665000D01*
X95730000Y-55585000D02*
X95730000Y-53436000D01*
X95690000Y-59807000D02*
X95690000Y-57665000D01*
X95690000Y-55585000D02*
X95690000Y-53443000D01*
X95650000Y-59800000D02*
X95650000Y-57665000D01*
X95650000Y-55585000D02*
X95650000Y-53450000D01*
X95610000Y-59792000D02*
X95610000Y-57665000D01*
X95610000Y-55585000D02*
X95610000Y-53458000D01*
X95570000Y-59784000D02*
X95570000Y-57665000D01*
X95570000Y-55585000D02*
X95570000Y-53466000D01*
X95529000Y-59775000D02*
X95529000Y-57665000D01*
X95529000Y-55585000D02*
X95529000Y-53475000D01*
X95489000Y-59766000D02*
X95489000Y-57665000D01*
X95489000Y-55585000D02*
X95489000Y-53484000D01*
X95449000Y-59756000D02*
X95449000Y-57665000D01*
X95449000Y-55585000D02*
X95449000Y-53494000D01*
X95409000Y-59746000D02*
X95409000Y-57665000D01*
X95409000Y-55585000D02*
X95409000Y-53504000D01*
X95369000Y-59735000D02*
X95369000Y-57665000D01*
X95369000Y-55585000D02*
X95369000Y-53515000D01*
X95329000Y-59723000D02*
X95329000Y-57665000D01*
X95329000Y-55585000D02*
X95329000Y-53527000D01*
X95289000Y-59711000D02*
X95289000Y-57665000D01*
X95289000Y-55585000D02*
X95289000Y-53539000D01*
X95249000Y-59699000D02*
X95249000Y-57665000D01*
X95249000Y-55585000D02*
X95249000Y-53551000D01*
X95209000Y-59686000D02*
X95209000Y-57665000D01*
X95209000Y-55585000D02*
X95209000Y-53564000D01*
X95169000Y-59672000D02*
X95169000Y-57665000D01*
X95169000Y-55585000D02*
X95169000Y-53578000D01*
X95129000Y-59658000D02*
X95129000Y-57665000D01*
X95129000Y-55585000D02*
X95129000Y-53592000D01*
X95089000Y-59643000D02*
X95089000Y-57665000D01*
X95089000Y-55585000D02*
X95089000Y-53607000D01*
X95049000Y-59627000D02*
X95049000Y-57665000D01*
X95049000Y-55585000D02*
X95049000Y-53623000D01*
X95009000Y-59611000D02*
X95009000Y-57665000D01*
X95009000Y-55585000D02*
X95009000Y-53639000D01*
X94969000Y-59595000D02*
X94969000Y-57665000D01*
X94969000Y-55585000D02*
X94969000Y-53655000D01*
X94929000Y-59577000D02*
X94929000Y-57665000D01*
X94929000Y-55585000D02*
X94929000Y-53673000D01*
X94889000Y-59559000D02*
X94889000Y-57665000D01*
X94889000Y-55585000D02*
X94889000Y-53691000D01*
X94849000Y-59541000D02*
X94849000Y-57665000D01*
X94849000Y-55585000D02*
X94849000Y-53709000D01*
X94809000Y-59521000D02*
X94809000Y-57665000D01*
X94809000Y-55585000D02*
X94809000Y-53729000D01*
X94769000Y-59501000D02*
X94769000Y-57665000D01*
X94769000Y-55585000D02*
X94769000Y-53749000D01*
X94729000Y-59481000D02*
X94729000Y-57665000D01*
X94729000Y-55585000D02*
X94729000Y-53769000D01*
X94689000Y-59459000D02*
X94689000Y-57665000D01*
X94689000Y-55585000D02*
X94689000Y-53791000D01*
X94649000Y-59437000D02*
X94649000Y-57665000D01*
X94649000Y-55585000D02*
X94649000Y-53813000D01*
X94609000Y-59415000D02*
X94609000Y-57665000D01*
X94609000Y-55585000D02*
X94609000Y-53835000D01*
X94569000Y-59391000D02*
X94569000Y-57665000D01*
X94569000Y-55585000D02*
X94569000Y-53859000D01*
X94529000Y-59367000D02*
X94529000Y-57665000D01*
X94529000Y-55585000D02*
X94529000Y-53883000D01*
X94489000Y-59341000D02*
X94489000Y-57665000D01*
X94489000Y-55585000D02*
X94489000Y-53909000D01*
X94449000Y-59315000D02*
X94449000Y-57665000D01*
X94449000Y-55585000D02*
X94449000Y-53935000D01*
X94409000Y-59289000D02*
X94409000Y-57665000D01*
X94409000Y-55585000D02*
X94409000Y-53961000D01*
X94369000Y-59261000D02*
X94369000Y-57665000D01*
X94369000Y-55585000D02*
X94369000Y-53989000D01*
X94329000Y-59232000D02*
X94329000Y-57665000D01*
X94329000Y-55585000D02*
X94329000Y-54018000D01*
X94289000Y-59203000D02*
X94289000Y-57665000D01*
X94289000Y-55585000D02*
X94289000Y-54047000D01*
X94249000Y-59173000D02*
X94249000Y-57665000D01*
X94249000Y-55585000D02*
X94249000Y-54077000D01*
X94209000Y-59141000D02*
X94209000Y-57665000D01*
X94209000Y-55585000D02*
X94209000Y-54109000D01*
X94169000Y-59109000D02*
X94169000Y-57665000D01*
X94169000Y-55585000D02*
X94169000Y-54141000D01*
X94129000Y-59075000D02*
X94129000Y-57665000D01*
X94129000Y-55585000D02*
X94129000Y-54175000D01*
X94089000Y-59041000D02*
X94089000Y-57665000D01*
X94089000Y-55585000D02*
X94089000Y-54209000D01*
X94049000Y-59005000D02*
X94049000Y-57665000D01*
X94049000Y-55585000D02*
X94049000Y-54245000D01*
X94009000Y-58968000D02*
X94009000Y-57665000D01*
X94009000Y-55585000D02*
X94009000Y-54282000D01*
X93969000Y-58930000D02*
X93969000Y-57665000D01*
X93969000Y-55585000D02*
X93969000Y-54320000D01*
X93929000Y-58890000D02*
X93929000Y-54360000D01*
X93889000Y-58849000D02*
X93889000Y-54401000D01*
X93849000Y-58807000D02*
X93849000Y-54443000D01*
X93809000Y-58762000D02*
X93809000Y-54488000D01*
X93769000Y-58717000D02*
X93769000Y-54533000D01*
X93729000Y-58669000D02*
X93729000Y-54581000D01*
X93689000Y-58620000D02*
X93689000Y-54630000D01*
X93649000Y-58569000D02*
X93649000Y-54681000D01*
X93609000Y-58515000D02*
X93609000Y-54735000D01*
X93569000Y-58459000D02*
X93569000Y-54791000D01*
X93529000Y-58401000D02*
X93529000Y-54849000D01*
X93489000Y-58339000D02*
X93489000Y-54911000D01*
X93449000Y-58275000D02*
X93449000Y-54975000D01*
X93409000Y-58206000D02*
X93409000Y-55044000D01*
X93369000Y-58134000D02*
X93369000Y-55116000D01*
X93329000Y-58057000D02*
X93329000Y-55193000D01*
X93289000Y-57975000D02*
X93289000Y-55275000D01*
X93249000Y-57887000D02*
X93249000Y-55363000D01*
X93209000Y-57790000D02*
X93209000Y-55460000D01*
X93169000Y-57684000D02*
X93169000Y-55566000D01*
X93129000Y-57565000D02*
X93129000Y-55685000D01*
X93089000Y-57427000D02*
X93089000Y-55823000D01*
X93049000Y-57258000D02*
X93049000Y-55992000D01*
X93009000Y-57027000D02*
X93009000Y-56223000D01*
X99520000Y-56625000D02*
G75*
G03*
X99520000Y-56625000I-3270000J0D01*
G01*
%TO.C,R18*%
X73090000Y-72439564D02*
X73090000Y-70985436D01*
X74910000Y-72439564D02*
X74910000Y-70985436D01*
%TO.C,C1*%
X92650000Y-94185000D02*
X92025000Y-94185000D01*
X92337500Y-94497500D02*
X92337500Y-93872500D01*
X91785000Y-94195563D02*
X91785000Y-93560000D01*
X91785000Y-94195563D02*
X90720563Y-95260000D01*
X91785000Y-90804437D02*
X91785000Y-91440000D01*
X91785000Y-90804437D02*
X90720563Y-89740000D01*
X90720563Y-95260000D02*
X86265000Y-95260000D01*
X90720563Y-89740000D02*
X86265000Y-89740000D01*
X86265000Y-95260000D02*
X86265000Y-93560000D01*
X86265000Y-89740000D02*
X86265000Y-91440000D01*
%TO.C,R8*%
X23590000Y-45689564D02*
X23590000Y-44235436D01*
X25410000Y-45689564D02*
X25410000Y-44235436D01*
%TO.C,R2*%
X44972936Y-34290000D02*
X46427064Y-34290000D01*
X44972936Y-36110000D02*
X46427064Y-36110000D01*
%TO.C,R1*%
X27835000Y-44210436D02*
X27835000Y-45664564D01*
X26015000Y-44210436D02*
X26015000Y-45664564D01*
%TO.C,R15*%
X77827064Y-82410000D02*
X76372936Y-82410000D01*
X77827064Y-80590000D02*
X76372936Y-80590000D01*
%TO.C,R14*%
X78335000Y-88545000D02*
X82085000Y-88545000D01*
X78335000Y-88545000D02*
G75*
G03*
X78335000Y-88545000I-2370000J0D01*
G01*
%TO.C,U5*%
X56840000Y-38200000D02*
X56840000Y-40000000D01*
X60060000Y-40000000D02*
X60060000Y-37550000D01*
%TO.C,C3*%
X92625000Y-82185000D02*
X92000000Y-82185000D01*
X92312500Y-82497500D02*
X92312500Y-81872500D01*
X91760000Y-82195563D02*
X91760000Y-81560000D01*
X91760000Y-82195563D02*
X90695563Y-83260000D01*
X91760000Y-78804437D02*
X91760000Y-79440000D01*
X91760000Y-78804437D02*
X90695563Y-77740000D01*
X90695563Y-83260000D02*
X86240000Y-83260000D01*
X90695563Y-77740000D02*
X86240000Y-77740000D01*
X86240000Y-83260000D02*
X86240000Y-81560000D01*
X86240000Y-77740000D02*
X86240000Y-79440000D01*
%TO.C,R7*%
X51490000Y-43789564D02*
X51490000Y-42335436D01*
X53310000Y-43789564D02*
X53310000Y-42335436D01*
%TO.C,U19*%
X53885000Y-60750000D02*
X53885000Y-57150000D01*
X53885000Y-60750000D02*
X53885000Y-62950000D01*
X47115000Y-60750000D02*
X47115000Y-58550000D01*
X47115000Y-60750000D02*
X47115000Y-62950000D01*
%TO.C,R16*%
X80477064Y-31560000D02*
X79022936Y-31560000D01*
X80477064Y-29740000D02*
X79022936Y-29740000D01*
%TO.C,L1*%
X98075000Y-83015000D02*
X94075000Y-83015000D01*
X96075000Y-87235000D02*
X94075000Y-87235000D01*
%TO.C,D6*%
X100100000Y-60260000D02*
X103400000Y-60260000D01*
X100100000Y-60260000D02*
X100100000Y-54750000D01*
X103400000Y-60260000D02*
X103400000Y-54750000D01*
%TO.C,U8*%
X42472500Y-83360000D02*
X44272500Y-83360000D01*
X44272500Y-80140000D02*
X41322500Y-80140000D01*
%TO.C,RESET1*%
X108000000Y-43950000D02*
X108000000Y-47250000D01*
X107700000Y-43950000D02*
X108000000Y-43950000D01*
X105500000Y-43950000D02*
X105200000Y-43950000D01*
X105200000Y-43950000D02*
X105200000Y-47250000D01*
X108000000Y-47250000D02*
X107700000Y-47250000D01*
X105200000Y-47250000D02*
X105500000Y-47250000D01*
%TO.C,LOCONET_B2*%
X36120000Y-55430000D02*
X37650000Y-55430000D01*
X38120000Y-55900000D02*
X38120000Y-69100000D01*
D13*
X29170000Y-55900000D02*
X29100000Y-55900000D01*
D10*
X29100000Y-55900000D02*
X38120000Y-55900000D01*
X20120000Y-55900000D02*
X26900000Y-55900000D01*
X38120000Y-69100000D02*
X29100000Y-69100000D01*
D13*
X20240000Y-69100000D02*
X20120000Y-69100000D01*
X20130000Y-69100000D02*
X20120000Y-69100000D01*
D10*
X20120000Y-69100000D02*
X20120000Y-55900000D01*
X20120000Y-69100000D02*
X26900000Y-69100000D01*
%TO.C,F3*%
X82990000Y-83527064D02*
X82990000Y-82322936D01*
X84810000Y-83527064D02*
X84810000Y-82322936D01*
%TO.C,R11*%
X44339564Y-32210000D02*
X42885436Y-32210000D01*
X44339564Y-30390000D02*
X42885436Y-30390000D01*
%TO.C,CU6*%
X42110000Y-52238748D02*
X42110000Y-53661252D01*
X40290000Y-52238748D02*
X40290000Y-53661252D01*
%TO.C,D9*%
X54640000Y-25500000D02*
X54640000Y-27500000D01*
X54640000Y-25500000D02*
X58650000Y-25500000D01*
X54640000Y-27500000D02*
X58650000Y-27500000D01*
%TO.C,DCC_1*%
X49100000Y-91420000D02*
X41420000Y-91420000D01*
X49100000Y-91420000D02*
X49100000Y-94080000D01*
X41420000Y-91420000D02*
X41420000Y-94080000D01*
X51700000Y-92750000D02*
X51700000Y-94080000D01*
X51700000Y-94080000D02*
X50370000Y-94080000D01*
X49100000Y-94080000D02*
X41420000Y-94080000D01*
%TO.C,U18*%
X59000000Y-41750000D02*
X55000000Y-41750000D01*
X59000000Y-44750000D02*
X56000000Y-44750000D01*
%TO.C,R19*%
X52572936Y-31990000D02*
X54027064Y-31990000D01*
X52572936Y-33810000D02*
X54027064Y-33810000D01*
%TO.C,Q1*%
X38750000Y-35020000D02*
X38750000Y-38620000D01*
X43200000Y-36820000D02*
G75*
G03*
X38761522Y-34981522I-2600000J0D01*
G01*
X38761522Y-38658478D02*
G75*
G03*
X43200000Y-36820000I1838478J1838478D01*
G01*
%TO.C,C6*%
X27910000Y-51813748D02*
X27910000Y-53236252D01*
X26090000Y-51813748D02*
X26090000Y-53236252D01*
%TO.C,Q3*%
X84370000Y-95895000D02*
X84370000Y-91254000D01*
X84370000Y-95895000D02*
X74130000Y-95895000D01*
X84370000Y-94385000D02*
X74130000Y-94385000D01*
X84370000Y-91254000D02*
X74130000Y-91254000D01*
X81100000Y-95895000D02*
X81100000Y-94385000D01*
X77399000Y-95895000D02*
X77399000Y-94385000D01*
X74130000Y-95895000D02*
X74130000Y-91254000D01*
%TO.C,R22*%
X45227064Y-66160000D02*
X43772936Y-66160000D01*
X45227064Y-64340000D02*
X43772936Y-64340000D01*
%TO.C,C7*%
X74020000Y-45606252D02*
X74020000Y-44183748D01*
X75840000Y-45606252D02*
X75840000Y-44183748D01*
%TO.C,U14*%
X56500000Y-87460000D02*
X58300000Y-87460000D01*
X58300000Y-84240000D02*
X55350000Y-84240000D01*
%TO.C,R24*%
X71810000Y-31335436D02*
X71810000Y-32789564D01*
X69990000Y-31335436D02*
X69990000Y-32789564D01*
%TO.C,R20*%
X101835436Y-50840000D02*
X103289564Y-50840000D01*
X101835436Y-52660000D02*
X103289564Y-52660000D01*
D12*
%TO.C,U13*%
X71825000Y-78675000D02*
X71775000Y-78675000D01*
X71825000Y-78675000D02*
X71825000Y-82825000D01*
X71775000Y-78675000D02*
X71775000Y-77275000D01*
X66675000Y-78675000D02*
X66820000Y-78675000D01*
X66675000Y-78675000D02*
X66675000Y-82825000D01*
X71825000Y-82825000D02*
X71680000Y-82825000D01*
X66675000Y-82825000D02*
X66820000Y-82825000D01*
D10*
%TO.C,R9*%
X48750000Y-24870000D02*
X48750000Y-28620000D01*
X51120000Y-22500000D02*
G75*
G03*
X51120000Y-22500000I-2370000J0D01*
G01*
%TO.C,D5*%
X80670000Y-83920000D02*
X80020000Y-83920000D01*
X80020000Y-85040000D02*
X80020000Y-82800000D01*
X80020000Y-82800000D02*
X75780000Y-82800000D01*
X79420000Y-85040000D02*
X79420000Y-82800000D01*
X79300000Y-85040000D02*
X79300000Y-82800000D01*
X79180000Y-85040000D02*
X79180000Y-82800000D01*
X75780000Y-85040000D02*
X80020000Y-85040000D01*
X75780000Y-82800000D02*
X75780000Y-85040000D01*
X75130000Y-83920000D02*
X75780000Y-83920000D01*
%TO.C,V12*%
X108725000Y-82500000D02*
X93725000Y-82500000D01*
X93725000Y-60500000D02*
X93725000Y-82500000D01*
X108725000Y-60500000D02*
X108725000Y-82500000D01*
X108725000Y-60500000D02*
X93725000Y-60500000D01*
%TO.C,C2*%
X92655000Y-88185000D02*
X92030000Y-88185000D01*
X92342500Y-88497500D02*
X92342500Y-87872500D01*
X91790000Y-88195563D02*
X91790000Y-87560000D01*
X91790000Y-88195563D02*
X90725563Y-89260000D01*
X91790000Y-84804437D02*
X91790000Y-85440000D01*
X91790000Y-84804437D02*
X90725563Y-83740000D01*
X90725563Y-89260000D02*
X86270000Y-89260000D01*
X90725563Y-83740000D02*
X86270000Y-83740000D01*
X86270000Y-89260000D02*
X86270000Y-87560000D01*
X86270000Y-83740000D02*
X86270000Y-85440000D01*
%TO.C,C11*%
X76560000Y-31338748D02*
X76560000Y-32761252D01*
X74740000Y-31338748D02*
X74740000Y-32761252D01*
%TO.C,J4*%
X97720000Y-20445000D02*
X90040000Y-20445000D01*
X97720000Y-20445000D02*
X97720000Y-23105000D01*
X90040000Y-20445000D02*
X90040000Y-23105000D01*
X100320000Y-21775000D02*
X100320000Y-23105000D01*
X100320000Y-23105000D02*
X98990000Y-23105000D01*
X97720000Y-23105000D02*
X90040000Y-23105000D01*
%TO.C,COM2*%
X69030000Y-20495000D02*
X61350000Y-20495000D01*
X69030000Y-20495000D02*
X69030000Y-23155000D01*
X61350000Y-20495000D02*
X61350000Y-23155000D01*
X71630000Y-21825000D02*
X71630000Y-23155000D01*
X71630000Y-23155000D02*
X70300000Y-23155000D01*
X69030000Y-23155000D02*
X61350000Y-23155000D01*
%TO.C,D7*%
X82665000Y-29835000D02*
X84935000Y-29835000D01*
X84935000Y-29835000D02*
X84935000Y-25950000D01*
X82665000Y-25950000D02*
X82665000Y-29835000D01*
%TO.C,C9*%
X74160000Y-31338748D02*
X74160000Y-32761252D01*
X72340000Y-31338748D02*
X72340000Y-32761252D01*
%TO.C,D3*%
X43792500Y-26450000D02*
X43142500Y-26450000D01*
X43142500Y-27570000D02*
X43142500Y-25330000D01*
X43142500Y-25330000D02*
X38902500Y-25330000D01*
X42542500Y-27570000D02*
X42542500Y-25330000D01*
X42422500Y-27570000D02*
X42422500Y-25330000D01*
X42302500Y-27570000D02*
X42302500Y-25330000D01*
X38902500Y-27570000D02*
X43142500Y-27570000D01*
X38902500Y-25330000D02*
X38902500Y-27570000D01*
X38252500Y-26450000D02*
X38902500Y-26450000D01*
%TO.C,R13*%
X77340000Y-72439564D02*
X77340000Y-70985436D01*
X79160000Y-72439564D02*
X79160000Y-70985436D01*
%TO.C,LOCONET_B1*%
X36120000Y-70430000D02*
X37650000Y-70430000D01*
X38120000Y-70900000D02*
X38120000Y-84100000D01*
D13*
X29170000Y-70900000D02*
X29100000Y-70900000D01*
D10*
X29100000Y-70900000D02*
X38120000Y-70900000D01*
X20120000Y-70900000D02*
X26900000Y-70900000D01*
X38120000Y-84100000D02*
X29100000Y-84100000D01*
D13*
X20240000Y-84100000D02*
X20120000Y-84100000D01*
X20130000Y-84100000D02*
X20120000Y-84100000D01*
D10*
X20120000Y-84100000D02*
X20120000Y-70900000D01*
X20120000Y-84100000D02*
X26900000Y-84100000D01*
%TO.C,U15*%
X56500000Y-81960000D02*
X58300000Y-81960000D01*
X58300000Y-78740000D02*
X55350000Y-78740000D01*
%TO.C,Q2*%
X34630000Y-20125000D02*
X34630000Y-24766000D01*
X34630000Y-20125000D02*
X44870000Y-20125000D01*
X34630000Y-21635000D02*
X44870000Y-21635000D01*
X34630000Y-24766000D02*
X44870000Y-24766000D01*
X37900000Y-20125000D02*
X37900000Y-21635000D01*
X41601000Y-20125000D02*
X41601000Y-21635000D01*
X44870000Y-20125000D02*
X44870000Y-24766000D01*
%TO.C,F4*%
X60350000Y-89876000D02*
X63550000Y-89876000D01*
X60350000Y-89876000D02*
X60350000Y-88314000D01*
X63550000Y-89876000D02*
X63550000Y-83213000D01*
X60350000Y-86936000D02*
X60350000Y-80275000D01*
X63550000Y-81836000D02*
X63550000Y-80275000D01*
X60350000Y-80275000D02*
X63550000Y-80275000D01*
%TO.C,U17*%
X81250000Y-26250000D02*
X77250000Y-26250000D01*
X81250000Y-29250000D02*
X78250000Y-29250000D01*
%TO.C,DCC_2*%
X60460000Y-91420000D02*
X52780000Y-91420000D01*
X60460000Y-91420000D02*
X60460000Y-94080000D01*
X52780000Y-91420000D02*
X52780000Y-94080000D01*
X63060000Y-92750000D02*
X63060000Y-94080000D01*
X63060000Y-94080000D02*
X61730000Y-94080000D01*
X60460000Y-94080000D02*
X52780000Y-94080000D01*
%TO.C,U20*%
X100500000Y-29665000D02*
X96900000Y-29665000D01*
X100500000Y-29665000D02*
X102700000Y-29665000D01*
X100500000Y-36435000D02*
X98300000Y-36435000D01*
X100500000Y-36435000D02*
X102700000Y-36435000D01*
%TO.C,CONSOLE1*%
X82280000Y-20495000D02*
X74600000Y-20495000D01*
X82280000Y-20495000D02*
X82280000Y-23155000D01*
X74600000Y-20495000D02*
X74600000Y-23155000D01*
X84880000Y-21825000D02*
X84880000Y-23155000D01*
X84880000Y-23155000D02*
X83550000Y-23155000D01*
X82280000Y-23155000D02*
X74600000Y-23155000D01*
%TO.C,C8*%
X37790000Y-46736252D02*
X37790000Y-45313748D01*
X39610000Y-46736252D02*
X39610000Y-45313748D01*
%TO.C,D2*%
X20865000Y-47285000D02*
X23135000Y-47285000D01*
X23135000Y-47285000D02*
X23135000Y-43400000D01*
X20865000Y-43400000D02*
X20865000Y-47285000D01*
%TO.C,C5*%
X94913748Y-87840000D02*
X96336252Y-87840000D01*
X94913748Y-89660000D02*
X96336252Y-89660000D01*
%TO.C,R12*%
X25410000Y-51810436D02*
X25410000Y-53264564D01*
X23590000Y-51810436D02*
X23590000Y-53264564D01*
%TD*%
M02*
