M48
; DRILL file {KiCad 7.0.6} date Mon Nov 27 23:59:32 2023
; FORMAT={-:-/ absolute / inch / decimal}
; #@! TF.CreationDate,2023-11-27T23:59:32-05:00
; #@! TF.GenerationSoftware,Kicad,Pcbnew,7.0.6
; #@! TF.FileFunction,Plated,1,2,PTH
FMAT,2
INCH
; #@! TA.AperFunction,Plated,PTH,ComponentDrill
T1C0.0118
; #@! TA.AperFunction,Plated,PTH,ComponentDrill
T2C0.0130
; #@! TA.AperFunction,Plated,PTH,ViaDrill
T3C0.0157
; #@! TA.AperFunction,Plated,PTH,ViaDrill
T4C0.0236
; #@! TA.AperFunction,Plated,PTH,ComponentDrill
T5C0.0236
; #@! TA.AperFunction,Plated,PTH,ComponentDrill
T6C0.0280
; #@! TA.AperFunction,Plated,PTH,ComponentDrill
T7C0.0295
; #@! TA.AperFunction,Plated,PTH,ComponentDrill
T8C0.0299
; #@! TA.AperFunction,Plated,PTH,ComponentDrill
T9C0.0315
; #@! TA.AperFunction,Plated,PTH,ComponentDrill
T10C0.0335
; #@! TA.AperFunction,Plated,PTH,ComponentDrill
T11C0.0394
; #@! TA.AperFunction,Plated,PTH,ComponentDrill
T12C0.0433
; #@! TA.AperFunction,Plated,PTH,ComponentDrill
T13C0.0472
; #@! TA.AperFunction,Plated,PTH,ComponentDrill
T14C0.0591
; #@! TA.AperFunction,Plated,PTH,ComponentDrill
T15C0.0709
%
G90
G05
T1
X2.7122Y-2.1356
X2.7122Y-2.1907
X2.7122Y-2.2459
X2.7673Y-2.1356
X2.7673Y-2.1907
X2.7673Y-2.2459
X2.8224Y-2.1356
X2.8224Y-2.1907
X2.8224Y-2.2459
T2
X1.6663Y-3.403
X1.6663Y-3.4541
X1.6663Y-3.5053
X1.7175Y-3.403
X1.7175Y-3.4541
X1.7175Y-3.5053
X2.6722Y-3.188
X2.6722Y-3.2392
X2.7234Y-3.188
X2.7234Y-3.2392
X2.7746Y-3.188
X2.7746Y-3.2392
T3
X1.1417Y-3.7402
X1.6348Y-2.876
X1.6682Y-3.1083
X1.6831Y-2.8937
X1.7224Y-2.3238
X1.7392Y-3.0945
X1.7677Y-2.4596
X1.7717Y-2.6919
X1.8219Y-2.3238
X1.8307Y-2.751
X1.8307Y-2.8248
X1.8465Y-2.9419
X1.8701Y-1.8701
X1.8799Y-3.4793
X1.8996Y-2.751
X1.8996Y-3.1781
X1.9213Y-2.8248
X1.9587Y-2.0374
X1.997Y-2.8602
X2.0315Y-3.4075
X2.0325Y-2.9035
X2.0325Y-3.2677
X2.0522Y-3.0709
X2.1319Y-1.689
X2.1457Y-3.0709
X2.1476Y-1.1102
X2.1594Y-3.2677
X2.1969Y-1.7795
X2.2047Y-1.5157
X2.2146Y-1.4272
X2.2165Y-3.2717
X2.2303Y-3.5039
X2.2343Y-1.25
X2.2441Y-1.7913
X2.2736Y-3.0413
X2.3031Y-3.5039
X2.313Y-3.2382
X2.3228Y-1.3563
X2.3425Y-3.4695
X2.3425Y-3.563
X2.3484Y-1.8819
X2.3622Y-3.2874
X2.3868Y-2.9035
X2.4114Y-1.7224
X2.4114Y-3.0906
X2.4311Y-2.0374
X2.4508Y-2.9862
X2.4557Y-3.0906
X2.4803Y-1.2126
X2.4803Y-1.8307
X2.5344Y-1.8307
X2.5935Y-1.8307
X2.5965Y-2.9528
X2.6083Y-3.188
X2.6083Y-3.2392
X2.6181Y-1.0138
X2.6713Y-2.6791
X2.7224Y-2.6791
X2.7717Y-2.6791
X2.7756Y-1.6339
X2.7854Y-1.5787
X2.8219Y-2.6791
X2.8445Y-3.188
X2.8445Y-3.2392
X2.9222Y-2.7106
X2.9951Y-2.9665
X3.1142Y-1.2697
X3.1398Y-1.0138
X3.1644Y-1.8701
X3.2185Y-1.8701
X3.2382Y-1.2697
X3.2874Y-1.6959
X3.622Y-2.0866
X3.7707Y-1.3317
X3.7707Y-1.376
X3.7707Y-1.4203
X3.7717Y-1.2874
X3.7913Y-1.1417
X3.8445Y-3.6693
X4.0994Y-1.1388
X4.1102Y-1.4528
X4.1437Y-3.0856
X4.1457Y-2.9183
X4.1457Y-3.3169
T4
X0.876Y-2.7539
X0.8858Y-1.9193
X0.9685Y-1.5748
X0.9843Y-1.1654
X1.2283Y-1.7717
X1.2382Y-2.6398
X1.3297Y-3.685
X1.3504Y-2.2638
X1.4331Y-1.6378
X1.4941Y-3.5079
X1.5787Y-3.3199
X1.5787Y-3.6703
X1.5906Y-2.6289
X1.6004Y-1.752
X1.6949Y-2.2175
X1.7028Y-1.9587
X1.7677Y-1.8701
X1.822Y-2.0256
X1.8268Y-3.1752
X1.8277Y-3.0453
X1.8307Y-3.3169
X1.8406Y-2.6821
X1.8583Y-1.7638
X1.8898Y-1.9587
X1.8898Y-2.3917
X1.9193Y-1.378
X1.9931Y-3.061
X2.0Y-2.628
X2.0571Y-1.5728
X2.2087Y-3.0453
X2.3051Y-2.6614
X2.3425Y-3.0512
X2.4557Y-1.9882
X2.4557Y-2.5098
X2.4606Y-1.1024
X2.5591Y-1.4941
X2.5778Y-3.061
X2.6969Y-3.5925
X2.6969Y-3.7343
X2.7953Y-3.5925
X2.7953Y-3.7343
X2.9035Y-3.0709
X2.9252Y-2.9065
X2.9528Y-3.0118
X2.9783Y-1.1142
X2.9921Y-2.4606
X3.0709Y-1.9882
X3.0709Y-2.6772
X3.0925Y-3.3287
X3.128Y-2.9203
X3.2549Y-3.7352
X3.3268Y-1.8907
X3.3268Y-2.7618
X3.3307Y-2.6831
X3.3563Y-2.4213
X3.3868Y-3.2874
X3.3868Y-3.5236
X3.4606Y-2.4459
X3.4606Y-2.5876
X3.5315Y-2.4459
X3.5315Y-2.5876
X3.5915Y-3.7008
X3.6024Y-2.4459
X3.6024Y-2.5876
X3.622Y-1.6929
X3.622Y-2.2293
X3.6309Y-1.4636
X3.6417Y-3.3219
X3.6909Y-1.063
X3.7047Y-3.7205
X3.7598Y-2.3947
X3.7598Y-2.6831
X3.8386Y-1.6929
X3.8474Y-2.3278
X3.8484Y-2.0276
X3.8484Y-2.1309
X4.0846Y-2.2736
T6
X2.4154Y-3.4498
X2.4626Y-3.249
T7
X1.5984Y-1.3996
X1.5984Y-1.4496
X1.5984Y-1.4996
T8
X1.3504Y-1.3031
X1.3504Y-1.4031
X1.3504Y-1.5031
X1.3524Y-2.3858
X1.3524Y-2.4858
X1.3524Y-2.5858
X1.3524Y-2.9764
X1.3524Y-3.0764
X1.3524Y-3.1764
X1.4504Y-1.2531
X1.4504Y-1.3531
X1.4504Y-1.4531
X1.4524Y-2.3358
X1.4524Y-2.4358
X1.4524Y-2.5358
X1.4524Y-2.9264
X1.4524Y-3.0264
X1.4524Y-3.1264
T9
X1.4651Y-1.0413
X1.7651Y-1.0413
X2.9169Y-3.3344
X3.2169Y-3.3344
T10
X2.1161Y-0.9532
X2.313Y-0.9532
T11
X1.1772Y-0.8587
X1.1772Y-0.9587
X1.2579Y-3.4075
X1.2579Y-3.5075
X1.2579Y-3.6075
X1.4075Y-3.4075
X1.4075Y-3.5075
X1.4075Y-3.6075
X1.6831Y-3.6516
X1.7831Y-3.6516
X1.8831Y-3.6516
X1.9831Y-3.6516
X2.1303Y-3.6516
X2.2303Y-3.6516
X2.3303Y-3.6516
X2.4303Y-3.6516
X2.4677Y-0.8593
X2.5677Y-0.8593
X2.6677Y-0.8593
X2.7677Y-0.8593
X2.9894Y-0.8593
X3.0894Y-0.8593
X3.1894Y-0.8593
X3.2894Y-0.8593
X3.5972Y-0.8573
X3.6972Y-0.8573
X3.7972Y-0.8573
X3.8972Y-0.8573
X4.2136Y-1.1746
X4.2136Y-1.2746
X4.2136Y-1.3746
X4.2136Y-1.4746
T12
X1.465Y-0.9211
X1.565Y-0.9211
X1.665Y-0.9211
X2.9823Y-3.6467
X3.0823Y-3.6467
X3.1823Y-3.6467
T13
X1.9193Y-0.8858
X1.9193Y-1.1858
X2.9746Y-3.486
X3.2746Y-3.486
T14
X2.6102Y-3.4744
X2.7598Y-3.4744
T15
X3.9852Y-2.628
X3.9852Y-3.002
T5
G00X2.0768Y-0.8607
M15
G01X2.0768Y-0.8332
M16
G05
G00X2.3524Y-0.8332
M15
G01X2.3524Y-0.8607
M16
G05
T0
M30
