%TF.GenerationSoftware,KiCad,Pcbnew,7.0.6*%
%TF.CreationDate,2023-12-30T19:09:07-05:00*%
%TF.ProjectId,Arch_Bridge,41726368-5f42-4726-9964-67652e6b6963,rev?*%
%TF.SameCoordinates,Original*%
%TF.FileFunction,Soldermask,Top*%
%TF.FilePolarity,Negative*%
%FSLAX46Y46*%
G04 Gerber Fmt 4.6, Leading zero omitted, Abs format (unit mm)*
G04 Created by KiCad (PCBNEW 7.0.6) date 2023-12-30 19:09:07*
%MOMM*%
%LPD*%
G01*
G04 APERTURE LIST*
G04 Aperture macros list*
%AMRoundRect*
0 Rectangle with rounded corners*
0 $1 Rounding radius*
0 $2 $3 $4 $5 $6 $7 $8 $9 X,Y pos of 4 corners*
0 Add a 4 corners polygon primitive as box body*
4,1,4,$2,$3,$4,$5,$6,$7,$8,$9,$2,$3,0*
0 Add four circle primitives for the rounded corners*
1,1,$1+$1,$2,$3*
1,1,$1+$1,$4,$5*
1,1,$1+$1,$6,$7*
1,1,$1+$1,$8,$9*
0 Add four rect primitives between the rounded corners*
20,1,$1+$1,$2,$3,$4,$5,0*
20,1,$1+$1,$4,$5,$6,$7,0*
20,1,$1+$1,$6,$7,$8,$9,0*
20,1,$1+$1,$8,$9,$2,$3,0*%
G04 Aperture macros list end*
%ADD10C,7.500000*%
%ADD11RoundRect,0.250000X0.625000X-0.375000X0.625000X0.375000X-0.625000X0.375000X-0.625000X-0.375000X0*%
%ADD12RoundRect,0.250000X0.312500X0.625000X-0.312500X0.625000X-0.312500X-0.625000X0.312500X-0.625000X0*%
%ADD13C,0.800000*%
%ADD14R,1.700000X0.900000*%
%ADD15RoundRect,0.250000X-0.625000X0.375000X-0.625000X-0.375000X0.625000X-0.375000X0.625000X0.375000X0*%
%ADD16R,1.560000X0.650000*%
%ADD17RoundRect,0.250000X-0.625000X0.312500X-0.625000X-0.312500X0.625000X-0.312500X0.625000X0.312500X0*%
%ADD18RoundRect,0.250000X1.250000X0.550000X-1.250000X0.550000X-1.250000X-0.550000X1.250000X-0.550000X0*%
%ADD19R,1.700000X1.700000*%
%ADD20O,1.700000X1.700000*%
%ADD21RoundRect,0.250000X-0.312500X-0.625000X0.312500X-0.625000X0.312500X0.625000X-0.312500X0.625000X0*%
%ADD22RoundRect,0.250000X-0.325000X-0.650000X0.325000X-0.650000X0.325000X0.650000X-0.325000X0.650000X0*%
%ADD23R,1.300000X0.800000*%
%ADD24R,0.400000X1.350000*%
%ADD25O,1.200000X1.900000*%
%ADD26R,1.200000X1.900000*%
%ADD27C,1.450000*%
%ADD28R,1.500000X1.900000*%
%ADD29C,3.000000*%
%ADD30R,2.400000X3.100000*%
%ADD31RoundRect,0.070000X1.100000X0.250000X-1.100000X0.250000X-1.100000X-0.250000X1.100000X-0.250000X0*%
%ADD32C,0.770000*%
%ADD33C,3.250000*%
%ADD34R,1.520000X1.520000*%
%ADD35C,1.520000*%
%ADD36RoundRect,0.150000X-0.512500X-0.150000X0.512500X-0.150000X0.512500X0.150000X-0.512500X0.150000X0*%
%ADD37RoundRect,0.250000X0.650000X-0.325000X0.650000X0.325000X-0.650000X0.325000X-0.650000X-0.325000X0*%
%ADD38R,1.600000X0.300000*%
%ADD39RoundRect,0.150000X0.825000X0.150000X-0.825000X0.150000X-0.825000X-0.150000X0.825000X-0.150000X0*%
%ADD40R,0.900000X1.500000*%
%ADD41R,1.500000X0.900000*%
%ADD42R,1.000000X1.000000*%
%ADD43R,0.650000X1.560000*%
%ADD44RoundRect,0.250000X-0.650000X0.412500X-0.650000X-0.412500X0.650000X-0.412500X0.650000X0.412500X0*%
%ADD45R,1.500000X2.000000*%
%ADD46R,3.800000X2.000000*%
%ADD47R,1.600000X1.600000*%
%ADD48C,1.600000*%
%ADD49RoundRect,0.250000X0.625000X-0.312500X0.625000X0.312500X-0.625000X0.312500X-0.625000X-0.312500X0*%
%ADD50C,2.400000*%
%ADD51O,2.400000X2.400000*%
%ADD52RoundRect,0.100000X-0.100000X0.637500X-0.100000X-0.637500X0.100000X-0.637500X0.100000X0.637500X0*%
%ADD53R,1.200000X3.300000*%
%ADD54RoundRect,0.250000X0.650000X-1.000000X0.650000X1.000000X-0.650000X1.000000X-0.650000X-1.000000X0*%
%ADD55RoundRect,0.250000X-0.650000X0.325000X-0.650000X-0.325000X0.650000X-0.325000X0.650000X0.325000X0*%
%ADD56RoundRect,0.225000X-0.225000X-0.375000X0.225000X-0.375000X0.225000X0.375000X-0.225000X0.375000X0*%
%ADD57R,1.500000X1.050000*%
%ADD58O,1.500000X1.050000*%
%ADD59R,1.905000X2.000000*%
%ADD60O,1.905000X2.000000*%
%ADD61R,3.100000X2.400000*%
%ADD62RoundRect,0.070000X-0.250000X1.100000X-0.250000X-1.100000X0.250000X-1.100000X0.250000X1.100000X0*%
%ADD63O,1.600000X1.600000*%
%ADD64O,6.000000X3.000000*%
%ADD65C,1.710000*%
%ADD66RoundRect,0.100000X-0.637500X-0.100000X0.637500X-0.100000X0.637500X0.100000X-0.637500X0.100000X0*%
G04 APERTURE END LIST*
D10*
%TO.C,*%
X104800000Y-92000000D03*
%TD*%
%TO.C,H4*%
X24000000Y-92000000D03*
%TD*%
D11*
%TO.C,F2*%
X32950000Y-25300000D03*
X32950000Y-22500000D03*
%TD*%
D12*
%TO.C,R3*%
X47162500Y-37550000D03*
X44237500Y-37550000D03*
%TD*%
D10*
%TO.C,H2*%
X104800000Y-24000000D03*
%TD*%
D13*
%TO.C,BOOT1*%
X106600000Y-50475000D03*
D14*
X106600000Y-48775000D03*
X106600000Y-52175000D03*
%TD*%
D15*
%TO.C,D4*%
X22000000Y-51200000D03*
X22000000Y-54000000D03*
%TD*%
D16*
%TO.C,U16*%
X56050000Y-73925000D03*
X56050000Y-74875000D03*
X56050000Y-75825000D03*
X58750000Y-75825000D03*
X58750000Y-73925000D03*
%TD*%
D17*
%TO.C,R21*%
X83800000Y-30800000D03*
X83800000Y-33725000D03*
%TD*%
%TO.C,R6*%
X42525000Y-44575000D03*
X42525000Y-47500000D03*
%TD*%
D18*
%TO.C,C4*%
X91200000Y-74530000D03*
X86800000Y-74530000D03*
%TD*%
D12*
%TO.C,R23*%
X59012500Y-71800000D03*
X56087500Y-71800000D03*
%TD*%
D19*
%TO.C,JP3*%
X31250000Y-86975000D03*
D20*
X31250000Y-89515000D03*
X31250000Y-92055000D03*
%TD*%
D21*
%TO.C,R5*%
X39925000Y-40750000D03*
X42850000Y-40750000D03*
%TD*%
D22*
%TO.C,C10*%
X55000000Y-65250000D03*
X57950000Y-65250000D03*
%TD*%
D11*
%TO.C,D1*%
X29400000Y-46375000D03*
X29400000Y-43575000D03*
%TD*%
D17*
%TO.C,R4*%
X54450000Y-35187500D03*
X54450000Y-38112500D03*
%TD*%
D23*
%TO.C,U6*%
X29500000Y-51460000D03*
X29500000Y-52730000D03*
X29500000Y-54000000D03*
X39000000Y-54000000D03*
X39000000Y-52730000D03*
X39000000Y-51460000D03*
%TD*%
D10*
%TO.C,H1*%
X24000000Y-24000000D03*
%TD*%
D11*
%TO.C,D8*%
X70900000Y-28700000D03*
X70900000Y-25900000D03*
%TD*%
D24*
%TO.C,USB1*%
X57550000Y-24212500D03*
X56900000Y-24212500D03*
X56250000Y-24212500D03*
X55600000Y-24212500D03*
X54950000Y-24212500D03*
D25*
X59750000Y-21512500D03*
D26*
X59150000Y-21512500D03*
D27*
X58750000Y-24212500D03*
D28*
X57250000Y-21512500D03*
X55250000Y-21512500D03*
D27*
X53750000Y-24212500D03*
D26*
X53350000Y-21512500D03*
D25*
X52750000Y-21512500D03*
%TD*%
D29*
%TO.C,J1*%
X66300000Y-88250000D03*
X70100000Y-88250000D03*
%TD*%
D30*
%TO.C,U7*%
X43250000Y-87000000D03*
D31*
X46125000Y-88905000D03*
X46125000Y-87635000D03*
X46125000Y-86365000D03*
X46125000Y-85095000D03*
X40375000Y-85095000D03*
X40375000Y-86365000D03*
X40375000Y-87635000D03*
X40375000Y-88905000D03*
D32*
X43900000Y-88300000D03*
X43900000Y-87000000D03*
X43900000Y-85700000D03*
X42600000Y-88300000D03*
X42600000Y-87000000D03*
X42600000Y-85700000D03*
%TD*%
D12*
%TO.C,R17*%
X103962500Y-47350000D03*
X101037500Y-47350000D03*
%TD*%
D33*
%TO.C,LOCONET_T1*%
X27950000Y-30170000D03*
X27950000Y-40330000D03*
D34*
X36840000Y-32080000D03*
D35*
X34300000Y-33350000D03*
X36840000Y-34620000D03*
X34300000Y-35890000D03*
X36840000Y-37160000D03*
X34300000Y-38430000D03*
%TD*%
D36*
%TO.C,U1*%
X94112500Y-90800000D03*
X94112500Y-91750000D03*
X94112500Y-92700000D03*
X96387500Y-92700000D03*
X96387500Y-91750000D03*
X96387500Y-90800000D03*
%TD*%
D19*
%TO.C,JP2*%
X34925000Y-92040000D03*
D20*
X34925000Y-89500000D03*
X34925000Y-86960000D03*
%TD*%
D37*
%TO.C,CU11*%
X77290000Y-46370000D03*
X77290000Y-43420000D03*
%TD*%
D16*
%TO.C,U10*%
X42022500Y-69800000D03*
X42022500Y-70750000D03*
X42022500Y-71700000D03*
X44722500Y-71700000D03*
X44722500Y-69800000D03*
%TD*%
D38*
%TO.C,U12*%
X64800000Y-26775000D03*
X64800000Y-27425000D03*
X64800000Y-28075000D03*
X64800000Y-28725000D03*
X68200000Y-28725000D03*
X68200000Y-28075000D03*
X68200000Y-27425000D03*
X68200000Y-26775000D03*
%TD*%
D39*
%TO.C,U3*%
X49900000Y-45350000D03*
X49900000Y-44080000D03*
X49900000Y-42810000D03*
X49900000Y-41540000D03*
X44950000Y-41540000D03*
X44950000Y-42810000D03*
X44950000Y-44080000D03*
X44950000Y-45350000D03*
%TD*%
D19*
%TO.C,J3*%
X107025000Y-29835000D03*
D20*
X107025000Y-32375000D03*
X107025000Y-34915000D03*
X107025000Y-37455000D03*
%TD*%
D40*
%TO.C,U11*%
X78010000Y-48395000D03*
X76740000Y-48395000D03*
X75470000Y-48395000D03*
X74200000Y-48395000D03*
X72930000Y-48395000D03*
X71660000Y-48395000D03*
X70390000Y-48395000D03*
X69120000Y-48395000D03*
X67850000Y-48395000D03*
X66580000Y-48395000D03*
X65310000Y-48395000D03*
X64040000Y-48395000D03*
X62770000Y-48395000D03*
X61500000Y-48395000D03*
D41*
X60250000Y-50160000D03*
X60250000Y-51430000D03*
X60250000Y-52700000D03*
X60250000Y-53970000D03*
X60250000Y-55240000D03*
X60250000Y-56510000D03*
X60250000Y-57780000D03*
X60250000Y-59050000D03*
X60250000Y-60320000D03*
X60250000Y-61590000D03*
X60250000Y-62860000D03*
X60250000Y-64130000D03*
D40*
X61500000Y-65895000D03*
X62770000Y-65895000D03*
X64040000Y-65895000D03*
X65310000Y-65895000D03*
X66580000Y-65895000D03*
X67850000Y-65895000D03*
X69120000Y-65895000D03*
X70390000Y-65895000D03*
X71660000Y-65895000D03*
X72930000Y-65895000D03*
X74200000Y-65895000D03*
X75470000Y-65895000D03*
X76740000Y-65895000D03*
X78010000Y-65895000D03*
D42*
X71690000Y-54245000D03*
X70290000Y-54245000D03*
X68890000Y-54245000D03*
X71690000Y-55645000D03*
X70290000Y-55645000D03*
X68890000Y-55645000D03*
X71690000Y-57045000D03*
X70290000Y-57045000D03*
X68890000Y-57045000D03*
%TD*%
D43*
%TO.C,U4*%
X50400000Y-38100000D03*
X51350000Y-38100000D03*
X52300000Y-38100000D03*
X52300000Y-35400000D03*
X50400000Y-35400000D03*
%TD*%
D44*
%TO.C,C12*%
X71500000Y-70250000D03*
X71500000Y-73375000D03*
%TD*%
%TO.C,C13*%
X80750000Y-70250000D03*
X80750000Y-73375000D03*
%TD*%
D45*
%TO.C,U2*%
X87450000Y-70150000D03*
X89750000Y-70150000D03*
D46*
X89750000Y-63850000D03*
D45*
X92050000Y-70150000D03*
%TD*%
D16*
%TO.C,U9*%
X42022500Y-75300000D03*
X42022500Y-76250000D03*
X42022500Y-77200000D03*
X44722500Y-77200000D03*
X44722500Y-76250000D03*
X44722500Y-75300000D03*
%TD*%
D19*
%TO.C,JP1*%
X29900000Y-21810000D03*
D20*
X29900000Y-24350000D03*
%TD*%
D12*
%TO.C,R10*%
X45075000Y-28900000D03*
X42150000Y-28900000D03*
%TD*%
D47*
%TO.C,CB1*%
X97500000Y-56625000D03*
D48*
X95000000Y-56625000D03*
%TD*%
D49*
%TO.C,R18*%
X74000000Y-73175000D03*
X74000000Y-70250000D03*
%TD*%
D18*
%TO.C,C1*%
X91225000Y-92500000D03*
X86825000Y-92500000D03*
%TD*%
D49*
%TO.C,R8*%
X24500000Y-46425000D03*
X24500000Y-43500000D03*
%TD*%
D21*
%TO.C,R2*%
X44237500Y-35200000D03*
X47162500Y-35200000D03*
%TD*%
D17*
%TO.C,R1*%
X26925000Y-43475000D03*
X26925000Y-46400000D03*
%TD*%
D12*
%TO.C,R15*%
X78562500Y-82275000D03*
X75637500Y-82275000D03*
%TD*%
D50*
%TO.C,R14*%
X75555000Y-88545000D03*
D51*
X83175000Y-88545000D03*
%TD*%
D43*
%TO.C,U5*%
X59400000Y-37750000D03*
X58450000Y-37750000D03*
X57500000Y-37750000D03*
X57500000Y-40450000D03*
X59400000Y-40450000D03*
%TD*%
D18*
%TO.C,C3*%
X91200000Y-80500000D03*
X86800000Y-80500000D03*
%TD*%
D49*
%TO.C,R7*%
X52400000Y-44525000D03*
X52400000Y-41600000D03*
%TD*%
D52*
%TO.C,U19*%
X53425000Y-57887500D03*
X52775000Y-57887500D03*
X52125000Y-57887500D03*
X51475000Y-57887500D03*
X50825000Y-57887500D03*
X50175000Y-57887500D03*
X49525000Y-57887500D03*
X48875000Y-57887500D03*
X48225000Y-57887500D03*
X47575000Y-57887500D03*
X47575000Y-63612500D03*
X48225000Y-63612500D03*
X48875000Y-63612500D03*
X49525000Y-63612500D03*
X50175000Y-63612500D03*
X50825000Y-63612500D03*
X51475000Y-63612500D03*
X52125000Y-63612500D03*
X52775000Y-63612500D03*
X53425000Y-63612500D03*
%TD*%
D12*
%TO.C,R16*%
X81212500Y-30650000D03*
X78287500Y-30650000D03*
%TD*%
D53*
%TO.C,L1*%
X97625000Y-85125000D03*
X94525000Y-85125000D03*
%TD*%
D54*
%TO.C,D6*%
X101750000Y-58750000D03*
X101750000Y-54750000D03*
%TD*%
D16*
%TO.C,U8*%
X42022500Y-80800000D03*
X42022500Y-81750000D03*
X42022500Y-82700000D03*
X44722500Y-82700000D03*
X44722500Y-81750000D03*
X44722500Y-80800000D03*
%TD*%
D13*
%TO.C,RESET1*%
X106600000Y-45600000D03*
D14*
X106600000Y-43900000D03*
X106600000Y-47300000D03*
%TD*%
D33*
%TO.C,LOCONET_B2*%
X28000000Y-57420000D03*
X28000000Y-67580000D03*
D34*
X36890000Y-59330000D03*
D35*
X34350000Y-60600000D03*
X36890000Y-61870000D03*
X34350000Y-63140000D03*
X36890000Y-64410000D03*
X34350000Y-65680000D03*
%TD*%
D11*
%TO.C,F3*%
X83900000Y-85100000D03*
X83900000Y-82300000D03*
%TD*%
D12*
%TO.C,R11*%
X45075000Y-31300000D03*
X42150000Y-31300000D03*
%TD*%
D55*
%TO.C,CU6*%
X41200000Y-51475000D03*
X41200000Y-54425000D03*
%TD*%
D56*
%TO.C,D9*%
X55350000Y-26500000D03*
X58650000Y-26500000D03*
%TD*%
D19*
%TO.C,DCC_1*%
X50370000Y-92750000D03*
D20*
X47830000Y-92750000D03*
X45290000Y-92750000D03*
X42750000Y-92750000D03*
%TD*%
D38*
%TO.C,U18*%
X55800000Y-42275000D03*
X55800000Y-42925000D03*
X55800000Y-43575000D03*
X55800000Y-44225000D03*
X59200000Y-44225000D03*
X59200000Y-43575000D03*
X59200000Y-42925000D03*
X59200000Y-42275000D03*
%TD*%
D21*
%TO.C,R19*%
X51837500Y-32900000D03*
X54762500Y-32900000D03*
%TD*%
D57*
%TO.C,Q1*%
X40600000Y-35550000D03*
D58*
X40600000Y-36820000D03*
X40600000Y-38090000D03*
%TD*%
D55*
%TO.C,C6*%
X27000000Y-51050000D03*
X27000000Y-54000000D03*
%TD*%
D59*
%TO.C,Q3*%
X80830000Y-92625000D03*
D60*
X78290000Y-92625000D03*
X75750000Y-92625000D03*
%TD*%
D12*
%TO.C,R22*%
X45962500Y-65250000D03*
X43037500Y-65250000D03*
%TD*%
D37*
%TO.C,C7*%
X74930000Y-46370000D03*
X74930000Y-43420000D03*
%TD*%
D16*
%TO.C,U14*%
X56050000Y-84900000D03*
X56050000Y-85850000D03*
X56050000Y-86800000D03*
X58750000Y-86800000D03*
X58750000Y-85850000D03*
X58750000Y-84900000D03*
%TD*%
D17*
%TO.C,R24*%
X70900000Y-30600000D03*
X70900000Y-33525000D03*
%TD*%
D21*
%TO.C,R20*%
X101100000Y-51750000D03*
X104025000Y-51750000D03*
%TD*%
D61*
%TO.C,U13*%
X69175000Y-81625000D03*
D62*
X71080000Y-78750000D03*
X69810000Y-78750000D03*
X68540000Y-78750000D03*
X67270000Y-78750000D03*
X67270000Y-84500000D03*
X68540000Y-84500000D03*
X69810000Y-84500000D03*
X71080000Y-84500000D03*
D32*
X70475000Y-80975000D03*
X69175000Y-80975000D03*
X67875000Y-80975000D03*
X70475000Y-82275000D03*
X69175000Y-82275000D03*
X67875000Y-82275000D03*
%TD*%
D50*
%TO.C,R9*%
X48750000Y-22500000D03*
D51*
X48750000Y-30120000D03*
%TD*%
D47*
%TO.C,D5*%
X81710000Y-84695000D03*
D63*
X74090000Y-84695000D03*
%TD*%
D64*
%TO.C,V12*%
X101225000Y-76250000D03*
X101225000Y-66750000D03*
%TD*%
D18*
%TO.C,C2*%
X91230000Y-86500000D03*
X86830000Y-86500000D03*
%TD*%
D55*
%TO.C,C11*%
X75650000Y-30575000D03*
X75650000Y-33525000D03*
%TD*%
D19*
%TO.C,J4*%
X98990000Y-21775000D03*
D20*
X96450000Y-21775000D03*
X93910000Y-21775000D03*
X91370000Y-21775000D03*
%TD*%
D19*
%TO.C,COM2*%
X70300000Y-21825000D03*
D20*
X67760000Y-21825000D03*
X65220000Y-21825000D03*
X62680000Y-21825000D03*
%TD*%
D11*
%TO.C,D7*%
X83800000Y-28950000D03*
X83800000Y-26150000D03*
%TD*%
D55*
%TO.C,C9*%
X73250000Y-30575000D03*
X73250000Y-33525000D03*
%TD*%
D47*
%TO.C,D3*%
X44832500Y-26450000D03*
D63*
X37212500Y-26450000D03*
%TD*%
D49*
%TO.C,R13*%
X78250000Y-73175000D03*
X78250000Y-70250000D03*
%TD*%
D33*
%TO.C,LOCONET_B1*%
X28000000Y-72420000D03*
X28000000Y-82580000D03*
D34*
X36890000Y-74330000D03*
D35*
X34350000Y-75600000D03*
X36890000Y-76870000D03*
X34350000Y-78140000D03*
X36890000Y-79410000D03*
X34350000Y-80680000D03*
%TD*%
D16*
%TO.C,U15*%
X56050000Y-79400000D03*
X56050000Y-80350000D03*
X56050000Y-81300000D03*
X58750000Y-81300000D03*
X58750000Y-80350000D03*
X58750000Y-79400000D03*
%TD*%
D59*
%TO.C,Q2*%
X37210000Y-23395000D03*
D60*
X39750000Y-23395000D03*
X42290000Y-23395000D03*
%TD*%
D65*
%TO.C,F4*%
X61350000Y-87625000D03*
X62550000Y-82525000D03*
%TD*%
D38*
%TO.C,U17*%
X78050000Y-26775000D03*
X78050000Y-27425000D03*
X78050000Y-28075000D03*
X78050000Y-28725000D03*
X81450000Y-28725000D03*
X81450000Y-28075000D03*
X81450000Y-27425000D03*
X81450000Y-26775000D03*
%TD*%
D19*
%TO.C,DCC_2*%
X61730000Y-92750000D03*
D20*
X59190000Y-92750000D03*
X56650000Y-92750000D03*
X54110000Y-92750000D03*
%TD*%
D66*
%TO.C,U20*%
X97637500Y-30125000D03*
X97637500Y-30775000D03*
X97637500Y-31425000D03*
X97637500Y-32075000D03*
X97637500Y-32725000D03*
X97637500Y-33375000D03*
X97637500Y-34025000D03*
X97637500Y-34675000D03*
X97637500Y-35325000D03*
X97637500Y-35975000D03*
X103362500Y-35975000D03*
X103362500Y-35325000D03*
X103362500Y-34675000D03*
X103362500Y-34025000D03*
X103362500Y-33375000D03*
X103362500Y-32725000D03*
X103362500Y-32075000D03*
X103362500Y-31425000D03*
X103362500Y-30775000D03*
X103362500Y-30125000D03*
%TD*%
D19*
%TO.C,CONSOLE1*%
X83550000Y-21825000D03*
D20*
X81010000Y-21825000D03*
X78470000Y-21825000D03*
X75930000Y-21825000D03*
%TD*%
D37*
%TO.C,C8*%
X38700000Y-47500000D03*
X38700000Y-44550000D03*
%TD*%
D11*
%TO.C,D2*%
X22000000Y-46400000D03*
X22000000Y-43600000D03*
%TD*%
D22*
%TO.C,C5*%
X94150000Y-88750000D03*
X97100000Y-88750000D03*
%TD*%
D17*
%TO.C,R12*%
X24500000Y-51075000D03*
X24500000Y-54000000D03*
%TD*%
M02*
