M48
; DRILL file {KiCad 7.0.6} date Wed Jan 10 01:11:25 2024
; FORMAT={-:-/ absolute / inch / decimal}
; #@! TF.CreationDate,2024-01-10T01:11:25-05:00
; #@! TF.GenerationSoftware,Kicad,Pcbnew,7.0.6
; #@! TF.FileFunction,Plated,1,2,PTH
FMAT,2
INCH
; #@! TA.AperFunction,Plated,PTH,ComponentDrill
T1C0.0130
; #@! TA.AperFunction,Plated,PTH,ViaDrill
T2C0.0157
; #@! TA.AperFunction,Plated,PTH,ViaDrill
T3C0.0236
; #@! TA.AperFunction,Plated,PTH,ComponentDrill
T4C0.0236
; #@! TA.AperFunction,Plated,PTH,ComponentDrill
T5C0.0280
; #@! TA.AperFunction,Plated,PTH,ComponentDrill
T6C0.0295
; #@! TA.AperFunction,Plated,PTH,ComponentDrill
T7C0.0299
; #@! TA.AperFunction,Plated,PTH,ComponentDrill
T8C0.0315
; #@! TA.AperFunction,Plated,PTH,ComponentDrill
T9C0.0335
; #@! TA.AperFunction,Plated,PTH,ComponentDrill
T10C0.0394
; #@! TA.AperFunction,Plated,PTH,ComponentDrill
T11C0.0433
; #@! TA.AperFunction,Plated,PTH,ComponentDrill
T12C0.0472
; #@! TA.AperFunction,Plated,PTH,ComponentDrill
T13C0.0709
; #@! TA.AperFunction,Plated,PTH,ComponentDrill
T14C0.1693
%
G90
G05
T1
X1.6772Y-3.374
X1.6772Y-3.4252
X1.6772Y-3.4764
X1.7283Y-3.374
X1.7283Y-3.4252
X1.7283Y-3.4764
X2.6752Y-3.1535
X2.6752Y-3.2047
X2.7264Y-3.1535
X2.7264Y-3.2047
X2.7776Y-3.1535
X2.7776Y-3.2047
T2
X1.2598Y-1.811
X1.2894Y-1.1122
X1.2894Y-3.7106
X1.3681Y-1.1909
X1.378Y-1.0236
X1.4665Y-1.6929
X1.4764Y-3.7106
X1.5059Y-3.5039
X1.5846Y-1.6929
X1.6348Y-2.876
X1.6644Y-3.3077
X1.6644Y-3.5439
X1.6682Y-3.1083
X1.6831Y-2.8937
X1.7224Y-2.3238
X1.7431Y-3.3077
X1.7431Y-3.5439
X1.7677Y-2.4596
X1.7717Y-0.9055
X1.8209Y-3.0413
X1.8209Y-3.2185
X1.8219Y-2.3238
X1.8307Y-2.6378
X1.8307Y-2.6969
X1.8307Y-2.7461
X1.8307Y-2.9528
X1.8307Y-3.2972
X1.8602Y-3.1791
X1.8701Y-1.8701
X1.8701Y-2.7953
X1.8799Y-2.0374
X1.8898Y-2.1063
X1.9193Y-2.7756
X1.9783Y-2.7756
X2.0079Y-2.5886
X2.0079Y-2.9921
X2.0079Y-3.189
X2.0079Y-3.4252
X2.0079Y-3.5433
X2.0374Y-2.9035
X2.0472Y-1.1024
X2.0669Y-2.8642
X2.0866Y-3.4547
X2.1063Y-2.9035
X2.1319Y-1.689
X2.1555Y-1.2303
X2.1732Y-3.2717
X2.1752Y-3.4744
X2.1969Y-1.7795
X2.2047Y-1.5157
X2.2067Y-3.0315
X2.2146Y-1.4272
X2.2244Y-3.4744
X2.2343Y-3.2874
X2.2441Y-1.2598
X2.2441Y-1.7913
X2.2835Y-1.8898
X2.2835Y-3.0315
X2.313Y-3.2382
X2.3228Y-1.3563
X2.3425Y-3.4695
X2.3484Y-1.8819
X2.3622Y-3.2874
X2.3819Y-2.7854
X2.4114Y-1.7224
X2.4114Y-3.0906
X2.4213Y-2.9921
X2.4311Y-2.0374
X2.4409Y-1.9783
X2.4409Y-2.7854
X2.4557Y-3.0906
X2.4705Y-2.5
X2.4803Y-1.8307
X2.5344Y-1.8307
X2.5935Y-1.8307
X2.6112Y-3.1535
X2.6112Y-3.2047
X2.6181Y-1.0138
X2.6673Y-2.1358
X2.6673Y-2.1909
X2.6673Y-2.2461
X2.6713Y-2.6791
X2.6772Y-3.6024
X2.7126Y-2.0906
X2.7126Y-2.2913
X2.7224Y-2.6791
X2.7677Y-2.0906
X2.7677Y-2.2913
X2.7717Y-2.6791
X2.7756Y-1.6339
X2.7854Y-3.6024
X2.8219Y-2.6791
X2.8228Y-2.0906
X2.8228Y-2.2913
X2.8514Y-3.1535
X2.8514Y-3.2047
X2.8681Y-2.1358
X2.8681Y-2.1909
X2.8681Y-2.2461
X2.9222Y-2.7106
X2.9823Y-2.4803
X3.0217Y-2.9665
X3.0709Y-1.9783
X3.1142Y-1.2697
X3.1398Y-1.0138
X3.1644Y-1.8701
X3.2185Y-1.8701
X3.2382Y-1.2697
X3.2874Y-1.6959
X3.622Y-2.0866
X3.7707Y-1.3317
X3.7707Y-1.376
X3.7707Y-1.4203
X3.7717Y-1.2874
X3.7913Y-1.1417
X3.8445Y-3.6693
X4.0994Y-1.1388
X4.1102Y-1.4528
X4.1437Y-3.0856
X4.1457Y-2.9183
X4.1457Y-3.3169
T3
X0.8661Y-1.9193
X0.8661Y-2.7539
X0.9843Y-1.9193
X0.9843Y-2.7539
X1.0728Y-3.4252
X1.2382Y-2.6398
X1.3504Y-2.2638
X1.5846Y-3.2677
X1.5906Y-2.6289
X1.6949Y-2.2175
X1.7028Y-1.9587
X1.7677Y-1.8701
X1.822Y-2.0256
X1.8583Y-1.7638
X1.8898Y-1.9587
X1.8898Y-2.3917
X1.9685Y-1.2992
X2.0571Y-1.5728
X2.126Y-1.0433
X2.3051Y-2.6614
X2.3425Y-3.0512
X2.4311Y-1.0039
X2.4409Y-1.1811
X2.5591Y-2.9626
X2.5984Y-1.7323
X2.6575Y-3.7402
X2.7067Y-2.8248
X2.7362Y-3.7402
X2.7953Y-1.5354
X2.9035Y-3.0709
X2.9331Y-1.0236
X2.9528Y-3.0118
X3.0709Y-2.6772
X3.0925Y-3.2982
X3.2972Y-3.7402
X3.3071Y-3.1388
X3.3268Y-1.8907
X3.3268Y-2.7618
X3.3563Y-2.4213
X3.3563Y-2.6575
X3.3868Y-3.2874
X3.3868Y-3.5236
X3.4606Y-2.4459
X3.4606Y-2.5876
X3.5315Y-2.4459
X3.5315Y-2.5876
X3.5915Y-3.7008
X3.6024Y-2.4459
X3.6024Y-2.5876
X3.622Y-1.6929
X3.6309Y-1.4636
X3.6417Y-3.3219
X3.6909Y-1.063
X3.7047Y-3.7205
X3.7402Y-2.4213
X3.7402Y-2.6575
X3.8386Y-1.6929
X3.8484Y-2.0276
X3.937Y-0.9547
X4.1043Y-2.3031
T5
X2.4154Y-3.4498
X2.4626Y-3.249
T6
X1.5984Y-1.3996
X1.5984Y-1.4496
X1.5984Y-1.4996
T7
X1.3504Y-1.313
X1.3504Y-1.413
X1.3504Y-1.513
X1.3524Y-2.3858
X1.3524Y-2.4858
X1.3524Y-2.5858
X1.3524Y-2.9764
X1.3524Y-3.0764
X1.3524Y-3.1764
X1.4504Y-1.263
X1.4504Y-1.363
X1.4504Y-1.463
X1.4524Y-2.3358
X1.4524Y-2.4358
X1.4524Y-2.5358
X1.4524Y-2.9264
X1.4524Y-3.0264
X1.4524Y-3.1264
T8
X1.4651Y-1.0413
X1.7651Y-1.0413
X2.9169Y-3.3039
X3.2169Y-3.3039
X3.7402Y-2.2293
X3.8386Y-2.2293
T9
X2.1161Y-0.9532
X2.313Y-0.9532
T10
X1.1772Y-0.8587
X1.1772Y-0.9587
X1.2303Y-3.4242
X1.2303Y-3.5242
X1.2303Y-3.6242
X1.375Y-3.4236
X1.375Y-3.5236
X1.375Y-3.6236
X1.6831Y-3.6516
X1.7831Y-3.6516
X1.8831Y-3.6516
X1.9831Y-3.6516
X2.1303Y-3.6516
X2.2303Y-3.6516
X2.3303Y-3.6516
X2.4303Y-3.6516
X2.4677Y-0.8593
X2.5677Y-0.8593
X2.6677Y-0.8593
X2.7677Y-0.8593
X2.9894Y-0.8593
X3.0894Y-0.8593
X3.1894Y-0.8593
X3.2894Y-0.8593
X3.5972Y-0.8573
X3.6972Y-0.8573
X3.7972Y-0.8573
X3.8972Y-0.8573
X4.2136Y-1.1746
X4.2136Y-1.2746
X4.2136Y-1.3746
X4.2136Y-1.4746
T11
X1.465Y-0.9211
X1.565Y-0.9211
X1.665Y-0.9211
X3.0201Y-3.6467
X3.1201Y-3.6467
X3.2201Y-3.6467
T12
X1.9193Y-0.8858
X1.9193Y-1.1858
X2.6339Y-3.4567
X2.7717Y-3.4567
X2.9907Y-3.486
X3.2907Y-3.486
T13
X3.9852Y-2.628
X3.9852Y-3.002
T14
X0.9449Y-0.9449
X0.9449Y-3.622
X4.126Y-0.9449
X4.126Y-3.622
T4
G00X2.0768Y-0.8607
M15
G01X2.0768Y-0.8332
M16
G05
G00X2.3524Y-0.8332
M15
G01X2.3524Y-0.8607
M16
G05
T0
M30
