%TF.GenerationSoftware,KiCad,Pcbnew,7.0.6*%
%TF.CreationDate,2024-01-13T19:55:40-05:00*%
%TF.ProjectId,Arch_Bridge,41726368-5f42-4726-9964-67652e6b6963,rev?*%
%TF.SameCoordinates,Original*%
%TF.FileFunction,Drillmap*%
%TF.FilePolarity,Positive*%
%FSLAX45Y45*%
G04 Gerber Fmt 4.5, Leading zero omitted, Abs format (unit mm)*
G04 Created by KiCad (PCBNEW 7.0.6) date 2024-01-13 19:55:40*
%MOMM*%
%LPD*%
G01*
G04 APERTURE LIST*
%ADD10C,0.050000*%
%ADD11C,0.200000*%
%ADD12C,0.080000*%
%ADD13C,0.325000*%
G04 APERTURE END LIST*
D10*
X2000000Y-9600000D02*
X2000000Y-2000000D01*
X10880000Y-2000000D02*
X2000000Y-2000000D01*
X2000000Y-9600000D02*
X10880000Y-9600000D01*
X10880000Y-9600000D02*
X10880000Y-2000000D01*
D11*
D12*
X10620000Y-4520000D02*
X10700000Y-4600000D01*
X10700000Y-4520000D02*
X10620000Y-4600000D01*
X10620000Y-5007500D02*
X10700000Y-5087500D01*
X10700000Y-5007500D02*
X10620000Y-5087500D01*
D13*
X2957500Y-3017000D02*
G75*
G03*
X2957500Y-3017000I-162500J0D01*
G01*
X2957500Y-4033000D02*
G75*
G03*
X2957500Y-4033000I-162500J0D01*
G01*
X2962500Y-5742000D02*
G75*
G03*
X2962500Y-5742000I-162500J0D01*
G01*
X2962500Y-6758000D02*
G75*
G03*
X2962500Y-6758000I-162500J0D01*
G01*
X2962500Y-7242000D02*
G75*
G03*
X2962500Y-7242000I-162500J0D01*
G01*
X2962500Y-8258000D02*
G75*
G03*
X2962500Y-8258000I-162500J0D01*
G01*
D11*
X2258277Y-9913984D02*
X2258277Y-9713984D01*
X2258277Y-9713984D02*
X2305896Y-9713984D01*
X2305896Y-9713984D02*
X2334467Y-9723508D01*
X2334467Y-9723508D02*
X2353515Y-9742555D01*
X2353515Y-9742555D02*
X2363039Y-9761603D01*
X2363039Y-9761603D02*
X2372563Y-9799698D01*
X2372563Y-9799698D02*
X2372563Y-9828270D01*
X2372563Y-9828270D02*
X2363039Y-9866365D01*
X2363039Y-9866365D02*
X2353515Y-9885412D01*
X2353515Y-9885412D02*
X2334467Y-9904460D01*
X2334467Y-9904460D02*
X2305896Y-9913984D01*
X2305896Y-9913984D02*
X2258277Y-9913984D01*
X2458277Y-9913984D02*
X2458277Y-9780650D01*
X2458277Y-9818746D02*
X2467801Y-9799698D01*
X2467801Y-9799698D02*
X2477324Y-9790174D01*
X2477324Y-9790174D02*
X2496372Y-9780650D01*
X2496372Y-9780650D02*
X2515420Y-9780650D01*
X2582086Y-9913984D02*
X2582086Y-9780650D01*
X2582086Y-9713984D02*
X2572563Y-9723508D01*
X2572563Y-9723508D02*
X2582086Y-9733031D01*
X2582086Y-9733031D02*
X2591610Y-9723508D01*
X2591610Y-9723508D02*
X2582086Y-9713984D01*
X2582086Y-9713984D02*
X2582086Y-9733031D01*
X2705896Y-9913984D02*
X2686848Y-9904460D01*
X2686848Y-9904460D02*
X2677324Y-9885412D01*
X2677324Y-9885412D02*
X2677324Y-9713984D01*
X2810658Y-9913984D02*
X2791610Y-9904460D01*
X2791610Y-9904460D02*
X2782086Y-9885412D01*
X2782086Y-9885412D02*
X2782086Y-9713984D01*
X3039229Y-9913984D02*
X3039229Y-9713984D01*
X3039229Y-9713984D02*
X3105896Y-9856841D01*
X3105896Y-9856841D02*
X3172562Y-9713984D01*
X3172562Y-9713984D02*
X3172562Y-9913984D01*
X3353515Y-9913984D02*
X3353515Y-9809222D01*
X3353515Y-9809222D02*
X3343991Y-9790174D01*
X3343991Y-9790174D02*
X3324943Y-9780650D01*
X3324943Y-9780650D02*
X3286848Y-9780650D01*
X3286848Y-9780650D02*
X3267801Y-9790174D01*
X3353515Y-9904460D02*
X3334467Y-9913984D01*
X3334467Y-9913984D02*
X3286848Y-9913984D01*
X3286848Y-9913984D02*
X3267801Y-9904460D01*
X3267801Y-9904460D02*
X3258277Y-9885412D01*
X3258277Y-9885412D02*
X3258277Y-9866365D01*
X3258277Y-9866365D02*
X3267801Y-9847317D01*
X3267801Y-9847317D02*
X3286848Y-9837793D01*
X3286848Y-9837793D02*
X3334467Y-9837793D01*
X3334467Y-9837793D02*
X3353515Y-9828270D01*
X3448753Y-9780650D02*
X3448753Y-9980650D01*
X3448753Y-9790174D02*
X3467801Y-9780650D01*
X3467801Y-9780650D02*
X3505896Y-9780650D01*
X3505896Y-9780650D02*
X3524943Y-9790174D01*
X3524943Y-9790174D02*
X3534467Y-9799698D01*
X3534467Y-9799698D02*
X3543991Y-9818746D01*
X3543991Y-9818746D02*
X3543991Y-9875889D01*
X3543991Y-9875889D02*
X3534467Y-9894936D01*
X3534467Y-9894936D02*
X3524943Y-9904460D01*
X3524943Y-9904460D02*
X3505896Y-9913984D01*
X3505896Y-9913984D02*
X3467801Y-9913984D01*
X3467801Y-9913984D02*
X3448753Y-9904460D01*
X3629705Y-9894936D02*
X3639229Y-9904460D01*
X3639229Y-9904460D02*
X3629705Y-9913984D01*
X3629705Y-9913984D02*
X3620182Y-9904460D01*
X3620182Y-9904460D02*
X3629705Y-9894936D01*
X3629705Y-9894936D02*
X3629705Y-9913984D01*
X3629705Y-9790174D02*
X3639229Y-9799698D01*
X3639229Y-9799698D02*
X3629705Y-9809222D01*
X3629705Y-9809222D02*
X3620182Y-9799698D01*
X3620182Y-9799698D02*
X3629705Y-9790174D01*
X3629705Y-9790174D02*
X3629705Y-9809222D01*
D12*
X1917500Y-10202500D02*
X1997500Y-10282500D01*
X1997500Y-10202500D02*
X1917500Y-10282500D01*
D11*
X2296372Y-10133984D02*
X2315420Y-10133984D01*
X2315420Y-10133984D02*
X2334467Y-10143508D01*
X2334467Y-10143508D02*
X2343991Y-10153031D01*
X2343991Y-10153031D02*
X2353515Y-10172079D01*
X2353515Y-10172079D02*
X2363039Y-10210174D01*
X2363039Y-10210174D02*
X2363039Y-10257793D01*
X2363039Y-10257793D02*
X2353515Y-10295889D01*
X2353515Y-10295889D02*
X2343991Y-10314936D01*
X2343991Y-10314936D02*
X2334467Y-10324460D01*
X2334467Y-10324460D02*
X2315420Y-10333984D01*
X2315420Y-10333984D02*
X2296372Y-10333984D01*
X2296372Y-10333984D02*
X2277324Y-10324460D01*
X2277324Y-10324460D02*
X2267801Y-10314936D01*
X2267801Y-10314936D02*
X2258277Y-10295889D01*
X2258277Y-10295889D02*
X2248753Y-10257793D01*
X2248753Y-10257793D02*
X2248753Y-10210174D01*
X2248753Y-10210174D02*
X2258277Y-10172079D01*
X2258277Y-10172079D02*
X2267801Y-10153031D01*
X2267801Y-10153031D02*
X2277324Y-10143508D01*
X2277324Y-10143508D02*
X2296372Y-10133984D01*
X2448753Y-10314936D02*
X2458277Y-10324460D01*
X2458277Y-10324460D02*
X2448753Y-10333984D01*
X2448753Y-10333984D02*
X2439229Y-10324460D01*
X2439229Y-10324460D02*
X2448753Y-10314936D01*
X2448753Y-10314936D02*
X2448753Y-10333984D01*
X2572563Y-10219698D02*
X2553515Y-10210174D01*
X2553515Y-10210174D02*
X2543991Y-10200650D01*
X2543991Y-10200650D02*
X2534467Y-10181603D01*
X2534467Y-10181603D02*
X2534467Y-10172079D01*
X2534467Y-10172079D02*
X2543991Y-10153031D01*
X2543991Y-10153031D02*
X2553515Y-10143508D01*
X2553515Y-10143508D02*
X2572563Y-10133984D01*
X2572563Y-10133984D02*
X2610658Y-10133984D01*
X2610658Y-10133984D02*
X2629705Y-10143508D01*
X2629705Y-10143508D02*
X2639229Y-10153031D01*
X2639229Y-10153031D02*
X2648753Y-10172079D01*
X2648753Y-10172079D02*
X2648753Y-10181603D01*
X2648753Y-10181603D02*
X2639229Y-10200650D01*
X2639229Y-10200650D02*
X2629705Y-10210174D01*
X2629705Y-10210174D02*
X2610658Y-10219698D01*
X2610658Y-10219698D02*
X2572563Y-10219698D01*
X2572563Y-10219698D02*
X2553515Y-10229222D01*
X2553515Y-10229222D02*
X2543991Y-10238746D01*
X2543991Y-10238746D02*
X2534467Y-10257793D01*
X2534467Y-10257793D02*
X2534467Y-10295889D01*
X2534467Y-10295889D02*
X2543991Y-10314936D01*
X2543991Y-10314936D02*
X2553515Y-10324460D01*
X2553515Y-10324460D02*
X2572563Y-10333984D01*
X2572563Y-10333984D02*
X2610658Y-10333984D01*
X2610658Y-10333984D02*
X2629705Y-10324460D01*
X2629705Y-10324460D02*
X2639229Y-10314936D01*
X2639229Y-10314936D02*
X2648753Y-10295889D01*
X2648753Y-10295889D02*
X2648753Y-10257793D01*
X2648753Y-10257793D02*
X2639229Y-10238746D01*
X2639229Y-10238746D02*
X2629705Y-10229222D01*
X2629705Y-10229222D02*
X2610658Y-10219698D01*
X2772563Y-10133984D02*
X2791610Y-10133984D01*
X2791610Y-10133984D02*
X2810658Y-10143508D01*
X2810658Y-10143508D02*
X2820182Y-10153031D01*
X2820182Y-10153031D02*
X2829705Y-10172079D01*
X2829705Y-10172079D02*
X2839229Y-10210174D01*
X2839229Y-10210174D02*
X2839229Y-10257793D01*
X2839229Y-10257793D02*
X2829705Y-10295889D01*
X2829705Y-10295889D02*
X2820182Y-10314936D01*
X2820182Y-10314936D02*
X2810658Y-10324460D01*
X2810658Y-10324460D02*
X2791610Y-10333984D01*
X2791610Y-10333984D02*
X2772563Y-10333984D01*
X2772563Y-10333984D02*
X2753515Y-10324460D01*
X2753515Y-10324460D02*
X2743991Y-10314936D01*
X2743991Y-10314936D02*
X2734467Y-10295889D01*
X2734467Y-10295889D02*
X2724944Y-10257793D01*
X2724944Y-10257793D02*
X2724944Y-10210174D01*
X2724944Y-10210174D02*
X2734467Y-10172079D01*
X2734467Y-10172079D02*
X2743991Y-10153031D01*
X2743991Y-10153031D02*
X2753515Y-10143508D01*
X2753515Y-10143508D02*
X2772563Y-10133984D01*
X2963039Y-10133984D02*
X2982086Y-10133984D01*
X2982086Y-10133984D02*
X3001134Y-10143508D01*
X3001134Y-10143508D02*
X3010658Y-10153031D01*
X3010658Y-10153031D02*
X3020182Y-10172079D01*
X3020182Y-10172079D02*
X3029705Y-10210174D01*
X3029705Y-10210174D02*
X3029705Y-10257793D01*
X3029705Y-10257793D02*
X3020182Y-10295889D01*
X3020182Y-10295889D02*
X3010658Y-10314936D01*
X3010658Y-10314936D02*
X3001134Y-10324460D01*
X3001134Y-10324460D02*
X2982086Y-10333984D01*
X2982086Y-10333984D02*
X2963039Y-10333984D01*
X2963039Y-10333984D02*
X2943991Y-10324460D01*
X2943991Y-10324460D02*
X2934467Y-10314936D01*
X2934467Y-10314936D02*
X2924943Y-10295889D01*
X2924943Y-10295889D02*
X2915420Y-10257793D01*
X2915420Y-10257793D02*
X2915420Y-10210174D01*
X2915420Y-10210174D02*
X2924943Y-10172079D01*
X2924943Y-10172079D02*
X2934467Y-10153031D01*
X2934467Y-10153031D02*
X2943991Y-10143508D01*
X2943991Y-10143508D02*
X2963039Y-10133984D01*
X3115420Y-10333984D02*
X3115420Y-10200650D01*
X3115420Y-10219698D02*
X3124943Y-10210174D01*
X3124943Y-10210174D02*
X3143991Y-10200650D01*
X3143991Y-10200650D02*
X3172563Y-10200650D01*
X3172563Y-10200650D02*
X3191610Y-10210174D01*
X3191610Y-10210174D02*
X3201134Y-10229222D01*
X3201134Y-10229222D02*
X3201134Y-10333984D01*
X3201134Y-10229222D02*
X3210658Y-10210174D01*
X3210658Y-10210174D02*
X3229705Y-10200650D01*
X3229705Y-10200650D02*
X3258277Y-10200650D01*
X3258277Y-10200650D02*
X3277324Y-10210174D01*
X3277324Y-10210174D02*
X3286848Y-10229222D01*
X3286848Y-10229222D02*
X3286848Y-10333984D01*
X3382086Y-10333984D02*
X3382086Y-10200650D01*
X3382086Y-10219698D02*
X3391610Y-10210174D01*
X3391610Y-10210174D02*
X3410658Y-10200650D01*
X3410658Y-10200650D02*
X3439229Y-10200650D01*
X3439229Y-10200650D02*
X3458277Y-10210174D01*
X3458277Y-10210174D02*
X3467801Y-10229222D01*
X3467801Y-10229222D02*
X3467801Y-10333984D01*
X3467801Y-10229222D02*
X3477324Y-10210174D01*
X3477324Y-10210174D02*
X3496372Y-10200650D01*
X3496372Y-10200650D02*
X3524943Y-10200650D01*
X3524943Y-10200650D02*
X3543991Y-10210174D01*
X3543991Y-10210174D02*
X3553515Y-10229222D01*
X3553515Y-10229222D02*
X3553515Y-10333984D01*
X3943991Y-10124460D02*
X3772563Y-10381603D01*
X4201134Y-10133984D02*
X4220182Y-10133984D01*
X4220182Y-10133984D02*
X4239229Y-10143508D01*
X4239229Y-10143508D02*
X4248753Y-10153031D01*
X4248753Y-10153031D02*
X4258277Y-10172079D01*
X4258277Y-10172079D02*
X4267801Y-10210174D01*
X4267801Y-10210174D02*
X4267801Y-10257793D01*
X4267801Y-10257793D02*
X4258277Y-10295889D01*
X4258277Y-10295889D02*
X4248753Y-10314936D01*
X4248753Y-10314936D02*
X4239229Y-10324460D01*
X4239229Y-10324460D02*
X4220182Y-10333984D01*
X4220182Y-10333984D02*
X4201134Y-10333984D01*
X4201134Y-10333984D02*
X4182086Y-10324460D01*
X4182086Y-10324460D02*
X4172563Y-10314936D01*
X4172563Y-10314936D02*
X4163039Y-10295889D01*
X4163039Y-10295889D02*
X4153515Y-10257793D01*
X4153515Y-10257793D02*
X4153515Y-10210174D01*
X4153515Y-10210174D02*
X4163039Y-10172079D01*
X4163039Y-10172079D02*
X4172563Y-10153031D01*
X4172563Y-10153031D02*
X4182086Y-10143508D01*
X4182086Y-10143508D02*
X4201134Y-10133984D01*
X4353515Y-10314936D02*
X4363039Y-10324460D01*
X4363039Y-10324460D02*
X4353515Y-10333984D01*
X4353515Y-10333984D02*
X4343991Y-10324460D01*
X4343991Y-10324460D02*
X4353515Y-10314936D01*
X4353515Y-10314936D02*
X4353515Y-10333984D01*
X4486848Y-10133984D02*
X4505896Y-10133984D01*
X4505896Y-10133984D02*
X4524944Y-10143508D01*
X4524944Y-10143508D02*
X4534468Y-10153031D01*
X4534468Y-10153031D02*
X4543991Y-10172079D01*
X4543991Y-10172079D02*
X4553515Y-10210174D01*
X4553515Y-10210174D02*
X4553515Y-10257793D01*
X4553515Y-10257793D02*
X4543991Y-10295889D01*
X4543991Y-10295889D02*
X4534468Y-10314936D01*
X4534468Y-10314936D02*
X4524944Y-10324460D01*
X4524944Y-10324460D02*
X4505896Y-10333984D01*
X4505896Y-10333984D02*
X4486848Y-10333984D01*
X4486848Y-10333984D02*
X4467801Y-10324460D01*
X4467801Y-10324460D02*
X4458277Y-10314936D01*
X4458277Y-10314936D02*
X4448753Y-10295889D01*
X4448753Y-10295889D02*
X4439229Y-10257793D01*
X4439229Y-10257793D02*
X4439229Y-10210174D01*
X4439229Y-10210174D02*
X4448753Y-10172079D01*
X4448753Y-10172079D02*
X4458277Y-10153031D01*
X4458277Y-10153031D02*
X4467801Y-10143508D01*
X4467801Y-10143508D02*
X4486848Y-10133984D01*
X4620182Y-10133984D02*
X4743991Y-10133984D01*
X4743991Y-10133984D02*
X4677325Y-10210174D01*
X4677325Y-10210174D02*
X4705896Y-10210174D01*
X4705896Y-10210174D02*
X4724944Y-10219698D01*
X4724944Y-10219698D02*
X4734468Y-10229222D01*
X4734468Y-10229222D02*
X4743991Y-10248270D01*
X4743991Y-10248270D02*
X4743991Y-10295889D01*
X4743991Y-10295889D02*
X4734468Y-10314936D01*
X4734468Y-10314936D02*
X4724944Y-10324460D01*
X4724944Y-10324460D02*
X4705896Y-10333984D01*
X4705896Y-10333984D02*
X4648753Y-10333984D01*
X4648753Y-10333984D02*
X4629706Y-10324460D01*
X4629706Y-10324460D02*
X4620182Y-10314936D01*
X4934468Y-10333984D02*
X4820182Y-10333984D01*
X4877325Y-10333984D02*
X4877325Y-10133984D01*
X4877325Y-10133984D02*
X4858277Y-10162555D01*
X4858277Y-10162555D02*
X4839229Y-10181603D01*
X4839229Y-10181603D02*
X4820182Y-10191127D01*
X5115420Y-10133984D02*
X5020182Y-10133984D01*
X5020182Y-10133984D02*
X5010658Y-10229222D01*
X5010658Y-10229222D02*
X5020182Y-10219698D01*
X5020182Y-10219698D02*
X5039229Y-10210174D01*
X5039229Y-10210174D02*
X5086849Y-10210174D01*
X5086849Y-10210174D02*
X5105896Y-10219698D01*
X5105896Y-10219698D02*
X5115420Y-10229222D01*
X5115420Y-10229222D02*
X5124944Y-10248270D01*
X5124944Y-10248270D02*
X5124944Y-10295889D01*
X5124944Y-10295889D02*
X5115420Y-10314936D01*
X5115420Y-10314936D02*
X5105896Y-10324460D01*
X5105896Y-10324460D02*
X5086849Y-10333984D01*
X5086849Y-10333984D02*
X5039229Y-10333984D01*
X5039229Y-10333984D02*
X5020182Y-10324460D01*
X5020182Y-10324460D02*
X5010658Y-10314936D01*
X5201134Y-10133984D02*
X5201134Y-10172079D01*
X5277325Y-10133984D02*
X5277325Y-10172079D01*
X5572563Y-10410174D02*
X5563039Y-10400650D01*
X5563039Y-10400650D02*
X5543991Y-10372079D01*
X5543991Y-10372079D02*
X5534468Y-10353031D01*
X5534468Y-10353031D02*
X5524944Y-10324460D01*
X5524944Y-10324460D02*
X5515420Y-10276841D01*
X5515420Y-10276841D02*
X5515420Y-10238746D01*
X5515420Y-10238746D02*
X5524944Y-10191127D01*
X5524944Y-10191127D02*
X5534468Y-10162555D01*
X5534468Y-10162555D02*
X5543991Y-10143508D01*
X5543991Y-10143508D02*
X5563039Y-10114936D01*
X5563039Y-10114936D02*
X5572563Y-10105412D01*
X5639229Y-10153031D02*
X5648753Y-10143508D01*
X5648753Y-10143508D02*
X5667801Y-10133984D01*
X5667801Y-10133984D02*
X5715420Y-10133984D01*
X5715420Y-10133984D02*
X5734468Y-10143508D01*
X5734468Y-10143508D02*
X5743991Y-10153031D01*
X5743991Y-10153031D02*
X5753515Y-10172079D01*
X5753515Y-10172079D02*
X5753515Y-10191127D01*
X5753515Y-10191127D02*
X5743991Y-10219698D01*
X5743991Y-10219698D02*
X5629706Y-10333984D01*
X5629706Y-10333984D02*
X5753515Y-10333984D01*
X5991610Y-10333984D02*
X5991610Y-10133984D01*
X6077325Y-10333984D02*
X6077325Y-10229222D01*
X6077325Y-10229222D02*
X6067801Y-10210174D01*
X6067801Y-10210174D02*
X6048753Y-10200650D01*
X6048753Y-10200650D02*
X6020182Y-10200650D01*
X6020182Y-10200650D02*
X6001134Y-10210174D01*
X6001134Y-10210174D02*
X5991610Y-10219698D01*
X6201134Y-10333984D02*
X6182087Y-10324460D01*
X6182087Y-10324460D02*
X6172563Y-10314936D01*
X6172563Y-10314936D02*
X6163039Y-10295889D01*
X6163039Y-10295889D02*
X6163039Y-10238746D01*
X6163039Y-10238746D02*
X6172563Y-10219698D01*
X6172563Y-10219698D02*
X6182087Y-10210174D01*
X6182087Y-10210174D02*
X6201134Y-10200650D01*
X6201134Y-10200650D02*
X6229706Y-10200650D01*
X6229706Y-10200650D02*
X6248753Y-10210174D01*
X6248753Y-10210174D02*
X6258277Y-10219698D01*
X6258277Y-10219698D02*
X6267801Y-10238746D01*
X6267801Y-10238746D02*
X6267801Y-10295889D01*
X6267801Y-10295889D02*
X6258277Y-10314936D01*
X6258277Y-10314936D02*
X6248753Y-10324460D01*
X6248753Y-10324460D02*
X6229706Y-10333984D01*
X6229706Y-10333984D02*
X6201134Y-10333984D01*
X6382087Y-10333984D02*
X6363039Y-10324460D01*
X6363039Y-10324460D02*
X6353515Y-10305412D01*
X6353515Y-10305412D02*
X6353515Y-10133984D01*
X6534468Y-10324460D02*
X6515420Y-10333984D01*
X6515420Y-10333984D02*
X6477325Y-10333984D01*
X6477325Y-10333984D02*
X6458277Y-10324460D01*
X6458277Y-10324460D02*
X6448753Y-10305412D01*
X6448753Y-10305412D02*
X6448753Y-10229222D01*
X6448753Y-10229222D02*
X6458277Y-10210174D01*
X6458277Y-10210174D02*
X6477325Y-10200650D01*
X6477325Y-10200650D02*
X6515420Y-10200650D01*
X6515420Y-10200650D02*
X6534468Y-10210174D01*
X6534468Y-10210174D02*
X6543991Y-10229222D01*
X6543991Y-10229222D02*
X6543991Y-10248270D01*
X6543991Y-10248270D02*
X6448753Y-10267317D01*
X6620182Y-10324460D02*
X6639230Y-10333984D01*
X6639230Y-10333984D02*
X6677325Y-10333984D01*
X6677325Y-10333984D02*
X6696372Y-10324460D01*
X6696372Y-10324460D02*
X6705896Y-10305412D01*
X6705896Y-10305412D02*
X6705896Y-10295889D01*
X6705896Y-10295889D02*
X6696372Y-10276841D01*
X6696372Y-10276841D02*
X6677325Y-10267317D01*
X6677325Y-10267317D02*
X6648753Y-10267317D01*
X6648753Y-10267317D02*
X6629706Y-10257793D01*
X6629706Y-10257793D02*
X6620182Y-10238746D01*
X6620182Y-10238746D02*
X6620182Y-10229222D01*
X6620182Y-10229222D02*
X6629706Y-10210174D01*
X6629706Y-10210174D02*
X6648753Y-10200650D01*
X6648753Y-10200650D02*
X6677325Y-10200650D01*
X6677325Y-10200650D02*
X6696372Y-10210174D01*
X6772563Y-10410174D02*
X6782087Y-10400650D01*
X6782087Y-10400650D02*
X6801134Y-10372079D01*
X6801134Y-10372079D02*
X6810658Y-10353031D01*
X6810658Y-10353031D02*
X6820182Y-10324460D01*
X6820182Y-10324460D02*
X6829706Y-10276841D01*
X6829706Y-10276841D02*
X6829706Y-10238746D01*
X6829706Y-10238746D02*
X6820182Y-10191127D01*
X6820182Y-10191127D02*
X6810658Y-10162555D01*
X6810658Y-10162555D02*
X6801134Y-10143508D01*
X6801134Y-10143508D02*
X6782087Y-10114936D01*
X6782087Y-10114936D02*
X6772563Y-10105412D01*
X7134468Y-10410174D02*
X7124944Y-10400650D01*
X7124944Y-10400650D02*
X7105896Y-10372079D01*
X7105896Y-10372079D02*
X7096372Y-10353031D01*
X7096372Y-10353031D02*
X7086849Y-10324460D01*
X7086849Y-10324460D02*
X7077325Y-10276841D01*
X7077325Y-10276841D02*
X7077325Y-10238746D01*
X7077325Y-10238746D02*
X7086849Y-10191127D01*
X7086849Y-10191127D02*
X7096372Y-10162555D01*
X7096372Y-10162555D02*
X7105896Y-10143508D01*
X7105896Y-10143508D02*
X7124944Y-10114936D01*
X7124944Y-10114936D02*
X7134468Y-10105412D01*
X7210658Y-10200650D02*
X7210658Y-10333984D01*
X7210658Y-10219698D02*
X7220182Y-10210174D01*
X7220182Y-10210174D02*
X7239230Y-10200650D01*
X7239230Y-10200650D02*
X7267801Y-10200650D01*
X7267801Y-10200650D02*
X7286849Y-10210174D01*
X7286849Y-10210174D02*
X7296372Y-10229222D01*
X7296372Y-10229222D02*
X7296372Y-10333984D01*
X7420182Y-10333984D02*
X7401134Y-10324460D01*
X7401134Y-10324460D02*
X7391611Y-10314936D01*
X7391611Y-10314936D02*
X7382087Y-10295889D01*
X7382087Y-10295889D02*
X7382087Y-10238746D01*
X7382087Y-10238746D02*
X7391611Y-10219698D01*
X7391611Y-10219698D02*
X7401134Y-10210174D01*
X7401134Y-10210174D02*
X7420182Y-10200650D01*
X7420182Y-10200650D02*
X7448753Y-10200650D01*
X7448753Y-10200650D02*
X7467801Y-10210174D01*
X7467801Y-10210174D02*
X7477325Y-10219698D01*
X7477325Y-10219698D02*
X7486849Y-10238746D01*
X7486849Y-10238746D02*
X7486849Y-10295889D01*
X7486849Y-10295889D02*
X7477325Y-10314936D01*
X7477325Y-10314936D02*
X7467801Y-10324460D01*
X7467801Y-10324460D02*
X7448753Y-10333984D01*
X7448753Y-10333984D02*
X7420182Y-10333984D01*
X7543992Y-10200650D02*
X7620182Y-10200650D01*
X7572563Y-10133984D02*
X7572563Y-10305412D01*
X7572563Y-10305412D02*
X7582087Y-10324460D01*
X7582087Y-10324460D02*
X7601134Y-10333984D01*
X7601134Y-10333984D02*
X7620182Y-10333984D01*
X7839230Y-10200650D02*
X7839230Y-10400650D01*
X7839230Y-10210174D02*
X7858277Y-10200650D01*
X7858277Y-10200650D02*
X7896373Y-10200650D01*
X7896373Y-10200650D02*
X7915420Y-10210174D01*
X7915420Y-10210174D02*
X7924944Y-10219698D01*
X7924944Y-10219698D02*
X7934468Y-10238746D01*
X7934468Y-10238746D02*
X7934468Y-10295889D01*
X7934468Y-10295889D02*
X7924944Y-10314936D01*
X7924944Y-10314936D02*
X7915420Y-10324460D01*
X7915420Y-10324460D02*
X7896373Y-10333984D01*
X7896373Y-10333984D02*
X7858277Y-10333984D01*
X7858277Y-10333984D02*
X7839230Y-10324460D01*
X8048753Y-10333984D02*
X8029706Y-10324460D01*
X8029706Y-10324460D02*
X8020182Y-10305412D01*
X8020182Y-10305412D02*
X8020182Y-10133984D01*
X8210658Y-10333984D02*
X8210658Y-10229222D01*
X8210658Y-10229222D02*
X8201134Y-10210174D01*
X8201134Y-10210174D02*
X8182087Y-10200650D01*
X8182087Y-10200650D02*
X8143992Y-10200650D01*
X8143992Y-10200650D02*
X8124944Y-10210174D01*
X8210658Y-10324460D02*
X8191611Y-10333984D01*
X8191611Y-10333984D02*
X8143992Y-10333984D01*
X8143992Y-10333984D02*
X8124944Y-10324460D01*
X8124944Y-10324460D02*
X8115420Y-10305412D01*
X8115420Y-10305412D02*
X8115420Y-10286365D01*
X8115420Y-10286365D02*
X8124944Y-10267317D01*
X8124944Y-10267317D02*
X8143992Y-10257793D01*
X8143992Y-10257793D02*
X8191611Y-10257793D01*
X8191611Y-10257793D02*
X8210658Y-10248270D01*
X8277325Y-10200650D02*
X8353515Y-10200650D01*
X8305896Y-10133984D02*
X8305896Y-10305412D01*
X8305896Y-10305412D02*
X8315420Y-10324460D01*
X8315420Y-10324460D02*
X8334468Y-10333984D01*
X8334468Y-10333984D02*
X8353515Y-10333984D01*
X8496373Y-10324460D02*
X8477325Y-10333984D01*
X8477325Y-10333984D02*
X8439230Y-10333984D01*
X8439230Y-10333984D02*
X8420182Y-10324460D01*
X8420182Y-10324460D02*
X8410658Y-10305412D01*
X8410658Y-10305412D02*
X8410658Y-10229222D01*
X8410658Y-10229222D02*
X8420182Y-10210174D01*
X8420182Y-10210174D02*
X8439230Y-10200650D01*
X8439230Y-10200650D02*
X8477325Y-10200650D01*
X8477325Y-10200650D02*
X8496373Y-10210174D01*
X8496373Y-10210174D02*
X8505896Y-10229222D01*
X8505896Y-10229222D02*
X8505896Y-10248270D01*
X8505896Y-10248270D02*
X8410658Y-10267317D01*
X8677325Y-10333984D02*
X8677325Y-10133984D01*
X8677325Y-10324460D02*
X8658277Y-10333984D01*
X8658277Y-10333984D02*
X8620182Y-10333984D01*
X8620182Y-10333984D02*
X8601135Y-10324460D01*
X8601135Y-10324460D02*
X8591611Y-10314936D01*
X8591611Y-10314936D02*
X8582087Y-10295889D01*
X8582087Y-10295889D02*
X8582087Y-10238746D01*
X8582087Y-10238746D02*
X8591611Y-10219698D01*
X8591611Y-10219698D02*
X8601135Y-10210174D01*
X8601135Y-10210174D02*
X8620182Y-10200650D01*
X8620182Y-10200650D02*
X8658277Y-10200650D01*
X8658277Y-10200650D02*
X8677325Y-10210174D01*
X8753516Y-10410174D02*
X8763039Y-10400650D01*
X8763039Y-10400650D02*
X8782087Y-10372079D01*
X8782087Y-10372079D02*
X8791611Y-10353031D01*
X8791611Y-10353031D02*
X8801135Y-10324460D01*
X8801135Y-10324460D02*
X8810658Y-10276841D01*
X8810658Y-10276841D02*
X8810658Y-10238746D01*
X8810658Y-10238746D02*
X8801135Y-10191127D01*
X8801135Y-10191127D02*
X8791611Y-10162555D01*
X8791611Y-10162555D02*
X8782087Y-10143508D01*
X8782087Y-10143508D02*
X8763039Y-10114936D01*
X8763039Y-10114936D02*
X8753516Y-10105412D01*
X1997500Y-10506500D02*
G75*
G03*
X1997500Y-10506500I-100000J0D01*
G01*
X2239229Y-10397984D02*
X2363039Y-10397984D01*
X2363039Y-10397984D02*
X2296372Y-10474174D01*
X2296372Y-10474174D02*
X2324944Y-10474174D01*
X2324944Y-10474174D02*
X2343991Y-10483698D01*
X2343991Y-10483698D02*
X2353515Y-10493222D01*
X2353515Y-10493222D02*
X2363039Y-10512270D01*
X2363039Y-10512270D02*
X2363039Y-10559889D01*
X2363039Y-10559889D02*
X2353515Y-10578936D01*
X2353515Y-10578936D02*
X2343991Y-10588460D01*
X2343991Y-10588460D02*
X2324944Y-10597984D01*
X2324944Y-10597984D02*
X2267801Y-10597984D01*
X2267801Y-10597984D02*
X2248753Y-10588460D01*
X2248753Y-10588460D02*
X2239229Y-10578936D01*
X2448753Y-10578936D02*
X2458277Y-10588460D01*
X2458277Y-10588460D02*
X2448753Y-10597984D01*
X2448753Y-10597984D02*
X2439229Y-10588460D01*
X2439229Y-10588460D02*
X2448753Y-10578936D01*
X2448753Y-10578936D02*
X2448753Y-10597984D01*
X2534467Y-10417031D02*
X2543991Y-10407508D01*
X2543991Y-10407508D02*
X2563039Y-10397984D01*
X2563039Y-10397984D02*
X2610658Y-10397984D01*
X2610658Y-10397984D02*
X2629705Y-10407508D01*
X2629705Y-10407508D02*
X2639229Y-10417031D01*
X2639229Y-10417031D02*
X2648753Y-10436079D01*
X2648753Y-10436079D02*
X2648753Y-10455127D01*
X2648753Y-10455127D02*
X2639229Y-10483698D01*
X2639229Y-10483698D02*
X2524944Y-10597984D01*
X2524944Y-10597984D02*
X2648753Y-10597984D01*
X2829705Y-10397984D02*
X2734467Y-10397984D01*
X2734467Y-10397984D02*
X2724944Y-10493222D01*
X2724944Y-10493222D02*
X2734467Y-10483698D01*
X2734467Y-10483698D02*
X2753515Y-10474174D01*
X2753515Y-10474174D02*
X2801134Y-10474174D01*
X2801134Y-10474174D02*
X2820182Y-10483698D01*
X2820182Y-10483698D02*
X2829705Y-10493222D01*
X2829705Y-10493222D02*
X2839229Y-10512270D01*
X2839229Y-10512270D02*
X2839229Y-10559889D01*
X2839229Y-10559889D02*
X2829705Y-10578936D01*
X2829705Y-10578936D02*
X2820182Y-10588460D01*
X2820182Y-10588460D02*
X2801134Y-10597984D01*
X2801134Y-10597984D02*
X2753515Y-10597984D01*
X2753515Y-10597984D02*
X2734467Y-10588460D01*
X2734467Y-10588460D02*
X2724944Y-10578936D01*
X2963039Y-10397984D02*
X2982086Y-10397984D01*
X2982086Y-10397984D02*
X3001134Y-10407508D01*
X3001134Y-10407508D02*
X3010658Y-10417031D01*
X3010658Y-10417031D02*
X3020182Y-10436079D01*
X3020182Y-10436079D02*
X3029705Y-10474174D01*
X3029705Y-10474174D02*
X3029705Y-10521793D01*
X3029705Y-10521793D02*
X3020182Y-10559889D01*
X3020182Y-10559889D02*
X3010658Y-10578936D01*
X3010658Y-10578936D02*
X3001134Y-10588460D01*
X3001134Y-10588460D02*
X2982086Y-10597984D01*
X2982086Y-10597984D02*
X2963039Y-10597984D01*
X2963039Y-10597984D02*
X2943991Y-10588460D01*
X2943991Y-10588460D02*
X2934467Y-10578936D01*
X2934467Y-10578936D02*
X2924943Y-10559889D01*
X2924943Y-10559889D02*
X2915420Y-10521793D01*
X2915420Y-10521793D02*
X2915420Y-10474174D01*
X2915420Y-10474174D02*
X2924943Y-10436079D01*
X2924943Y-10436079D02*
X2934467Y-10417031D01*
X2934467Y-10417031D02*
X2943991Y-10407508D01*
X2943991Y-10407508D02*
X2963039Y-10397984D01*
X3115420Y-10597984D02*
X3115420Y-10464650D01*
X3115420Y-10483698D02*
X3124943Y-10474174D01*
X3124943Y-10474174D02*
X3143991Y-10464650D01*
X3143991Y-10464650D02*
X3172563Y-10464650D01*
X3172563Y-10464650D02*
X3191610Y-10474174D01*
X3191610Y-10474174D02*
X3201134Y-10493222D01*
X3201134Y-10493222D02*
X3201134Y-10597984D01*
X3201134Y-10493222D02*
X3210658Y-10474174D01*
X3210658Y-10474174D02*
X3229705Y-10464650D01*
X3229705Y-10464650D02*
X3258277Y-10464650D01*
X3258277Y-10464650D02*
X3277324Y-10474174D01*
X3277324Y-10474174D02*
X3286848Y-10493222D01*
X3286848Y-10493222D02*
X3286848Y-10597984D01*
X3382086Y-10597984D02*
X3382086Y-10464650D01*
X3382086Y-10483698D02*
X3391610Y-10474174D01*
X3391610Y-10474174D02*
X3410658Y-10464650D01*
X3410658Y-10464650D02*
X3439229Y-10464650D01*
X3439229Y-10464650D02*
X3458277Y-10474174D01*
X3458277Y-10474174D02*
X3467801Y-10493222D01*
X3467801Y-10493222D02*
X3467801Y-10597984D01*
X3467801Y-10493222D02*
X3477324Y-10474174D01*
X3477324Y-10474174D02*
X3496372Y-10464650D01*
X3496372Y-10464650D02*
X3524943Y-10464650D01*
X3524943Y-10464650D02*
X3543991Y-10474174D01*
X3543991Y-10474174D02*
X3553515Y-10493222D01*
X3553515Y-10493222D02*
X3553515Y-10597984D01*
X3943991Y-10388460D02*
X3772563Y-10645603D01*
X4201134Y-10397984D02*
X4220182Y-10397984D01*
X4220182Y-10397984D02*
X4239229Y-10407508D01*
X4239229Y-10407508D02*
X4248753Y-10417031D01*
X4248753Y-10417031D02*
X4258277Y-10436079D01*
X4258277Y-10436079D02*
X4267801Y-10474174D01*
X4267801Y-10474174D02*
X4267801Y-10521793D01*
X4267801Y-10521793D02*
X4258277Y-10559889D01*
X4258277Y-10559889D02*
X4248753Y-10578936D01*
X4248753Y-10578936D02*
X4239229Y-10588460D01*
X4239229Y-10588460D02*
X4220182Y-10597984D01*
X4220182Y-10597984D02*
X4201134Y-10597984D01*
X4201134Y-10597984D02*
X4182086Y-10588460D01*
X4182086Y-10588460D02*
X4172563Y-10578936D01*
X4172563Y-10578936D02*
X4163039Y-10559889D01*
X4163039Y-10559889D02*
X4153515Y-10521793D01*
X4153515Y-10521793D02*
X4153515Y-10474174D01*
X4153515Y-10474174D02*
X4163039Y-10436079D01*
X4163039Y-10436079D02*
X4172563Y-10417031D01*
X4172563Y-10417031D02*
X4182086Y-10407508D01*
X4182086Y-10407508D02*
X4201134Y-10397984D01*
X4353515Y-10578936D02*
X4363039Y-10588460D01*
X4363039Y-10588460D02*
X4353515Y-10597984D01*
X4353515Y-10597984D02*
X4343991Y-10588460D01*
X4343991Y-10588460D02*
X4353515Y-10578936D01*
X4353515Y-10578936D02*
X4353515Y-10597984D01*
X4553515Y-10597984D02*
X4439229Y-10597984D01*
X4496372Y-10597984D02*
X4496372Y-10397984D01*
X4496372Y-10397984D02*
X4477325Y-10426555D01*
X4477325Y-10426555D02*
X4458277Y-10445603D01*
X4458277Y-10445603D02*
X4439229Y-10455127D01*
X4629706Y-10417031D02*
X4639229Y-10407508D01*
X4639229Y-10407508D02*
X4658277Y-10397984D01*
X4658277Y-10397984D02*
X4705896Y-10397984D01*
X4705896Y-10397984D02*
X4724944Y-10407508D01*
X4724944Y-10407508D02*
X4734468Y-10417031D01*
X4734468Y-10417031D02*
X4743991Y-10436079D01*
X4743991Y-10436079D02*
X4743991Y-10455127D01*
X4743991Y-10455127D02*
X4734468Y-10483698D01*
X4734468Y-10483698D02*
X4620182Y-10597984D01*
X4620182Y-10597984D02*
X4743991Y-10597984D01*
X4858277Y-10483698D02*
X4839229Y-10474174D01*
X4839229Y-10474174D02*
X4829706Y-10464650D01*
X4829706Y-10464650D02*
X4820182Y-10445603D01*
X4820182Y-10445603D02*
X4820182Y-10436079D01*
X4820182Y-10436079D02*
X4829706Y-10417031D01*
X4829706Y-10417031D02*
X4839229Y-10407508D01*
X4839229Y-10407508D02*
X4858277Y-10397984D01*
X4858277Y-10397984D02*
X4896372Y-10397984D01*
X4896372Y-10397984D02*
X4915420Y-10407508D01*
X4915420Y-10407508D02*
X4924944Y-10417031D01*
X4924944Y-10417031D02*
X4934468Y-10436079D01*
X4934468Y-10436079D02*
X4934468Y-10445603D01*
X4934468Y-10445603D02*
X4924944Y-10464650D01*
X4924944Y-10464650D02*
X4915420Y-10474174D01*
X4915420Y-10474174D02*
X4896372Y-10483698D01*
X4896372Y-10483698D02*
X4858277Y-10483698D01*
X4858277Y-10483698D02*
X4839229Y-10493222D01*
X4839229Y-10493222D02*
X4829706Y-10502746D01*
X4829706Y-10502746D02*
X4820182Y-10521793D01*
X4820182Y-10521793D02*
X4820182Y-10559889D01*
X4820182Y-10559889D02*
X4829706Y-10578936D01*
X4829706Y-10578936D02*
X4839229Y-10588460D01*
X4839229Y-10588460D02*
X4858277Y-10597984D01*
X4858277Y-10597984D02*
X4896372Y-10597984D01*
X4896372Y-10597984D02*
X4915420Y-10588460D01*
X4915420Y-10588460D02*
X4924944Y-10578936D01*
X4924944Y-10578936D02*
X4934468Y-10559889D01*
X4934468Y-10559889D02*
X4934468Y-10521793D01*
X4934468Y-10521793D02*
X4924944Y-10502746D01*
X4924944Y-10502746D02*
X4915420Y-10493222D01*
X4915420Y-10493222D02*
X4896372Y-10483698D01*
X5058277Y-10397984D02*
X5077325Y-10397984D01*
X5077325Y-10397984D02*
X5096372Y-10407508D01*
X5096372Y-10407508D02*
X5105896Y-10417031D01*
X5105896Y-10417031D02*
X5115420Y-10436079D01*
X5115420Y-10436079D02*
X5124944Y-10474174D01*
X5124944Y-10474174D02*
X5124944Y-10521793D01*
X5124944Y-10521793D02*
X5115420Y-10559889D01*
X5115420Y-10559889D02*
X5105896Y-10578936D01*
X5105896Y-10578936D02*
X5096372Y-10588460D01*
X5096372Y-10588460D02*
X5077325Y-10597984D01*
X5077325Y-10597984D02*
X5058277Y-10597984D01*
X5058277Y-10597984D02*
X5039229Y-10588460D01*
X5039229Y-10588460D02*
X5029706Y-10578936D01*
X5029706Y-10578936D02*
X5020182Y-10559889D01*
X5020182Y-10559889D02*
X5010658Y-10521793D01*
X5010658Y-10521793D02*
X5010658Y-10474174D01*
X5010658Y-10474174D02*
X5020182Y-10436079D01*
X5020182Y-10436079D02*
X5029706Y-10417031D01*
X5029706Y-10417031D02*
X5039229Y-10407508D01*
X5039229Y-10407508D02*
X5058277Y-10397984D01*
X5201134Y-10397984D02*
X5201134Y-10436079D01*
X5277325Y-10397984D02*
X5277325Y-10436079D01*
X5572563Y-10674174D02*
X5563039Y-10664650D01*
X5563039Y-10664650D02*
X5543991Y-10636079D01*
X5543991Y-10636079D02*
X5534468Y-10617031D01*
X5534468Y-10617031D02*
X5524944Y-10588460D01*
X5524944Y-10588460D02*
X5515420Y-10540841D01*
X5515420Y-10540841D02*
X5515420Y-10502746D01*
X5515420Y-10502746D02*
X5524944Y-10455127D01*
X5524944Y-10455127D02*
X5534468Y-10426555D01*
X5534468Y-10426555D02*
X5543991Y-10407508D01*
X5543991Y-10407508D02*
X5563039Y-10378936D01*
X5563039Y-10378936D02*
X5572563Y-10369412D01*
X5734468Y-10397984D02*
X5696372Y-10397984D01*
X5696372Y-10397984D02*
X5677325Y-10407508D01*
X5677325Y-10407508D02*
X5667801Y-10417031D01*
X5667801Y-10417031D02*
X5648753Y-10445603D01*
X5648753Y-10445603D02*
X5639229Y-10483698D01*
X5639229Y-10483698D02*
X5639229Y-10559889D01*
X5639229Y-10559889D02*
X5648753Y-10578936D01*
X5648753Y-10578936D02*
X5658277Y-10588460D01*
X5658277Y-10588460D02*
X5677325Y-10597984D01*
X5677325Y-10597984D02*
X5715420Y-10597984D01*
X5715420Y-10597984D02*
X5734468Y-10588460D01*
X5734468Y-10588460D02*
X5743991Y-10578936D01*
X5743991Y-10578936D02*
X5753515Y-10559889D01*
X5753515Y-10559889D02*
X5753515Y-10512270D01*
X5753515Y-10512270D02*
X5743991Y-10493222D01*
X5743991Y-10493222D02*
X5734468Y-10483698D01*
X5734468Y-10483698D02*
X5715420Y-10474174D01*
X5715420Y-10474174D02*
X5677325Y-10474174D01*
X5677325Y-10474174D02*
X5658277Y-10483698D01*
X5658277Y-10483698D02*
X5648753Y-10493222D01*
X5648753Y-10493222D02*
X5639229Y-10512270D01*
X5991610Y-10597984D02*
X5991610Y-10397984D01*
X6077325Y-10597984D02*
X6077325Y-10493222D01*
X6077325Y-10493222D02*
X6067801Y-10474174D01*
X6067801Y-10474174D02*
X6048753Y-10464650D01*
X6048753Y-10464650D02*
X6020182Y-10464650D01*
X6020182Y-10464650D02*
X6001134Y-10474174D01*
X6001134Y-10474174D02*
X5991610Y-10483698D01*
X6201134Y-10597984D02*
X6182087Y-10588460D01*
X6182087Y-10588460D02*
X6172563Y-10578936D01*
X6172563Y-10578936D02*
X6163039Y-10559889D01*
X6163039Y-10559889D02*
X6163039Y-10502746D01*
X6163039Y-10502746D02*
X6172563Y-10483698D01*
X6172563Y-10483698D02*
X6182087Y-10474174D01*
X6182087Y-10474174D02*
X6201134Y-10464650D01*
X6201134Y-10464650D02*
X6229706Y-10464650D01*
X6229706Y-10464650D02*
X6248753Y-10474174D01*
X6248753Y-10474174D02*
X6258277Y-10483698D01*
X6258277Y-10483698D02*
X6267801Y-10502746D01*
X6267801Y-10502746D02*
X6267801Y-10559889D01*
X6267801Y-10559889D02*
X6258277Y-10578936D01*
X6258277Y-10578936D02*
X6248753Y-10588460D01*
X6248753Y-10588460D02*
X6229706Y-10597984D01*
X6229706Y-10597984D02*
X6201134Y-10597984D01*
X6382087Y-10597984D02*
X6363039Y-10588460D01*
X6363039Y-10588460D02*
X6353515Y-10569412D01*
X6353515Y-10569412D02*
X6353515Y-10397984D01*
X6534468Y-10588460D02*
X6515420Y-10597984D01*
X6515420Y-10597984D02*
X6477325Y-10597984D01*
X6477325Y-10597984D02*
X6458277Y-10588460D01*
X6458277Y-10588460D02*
X6448753Y-10569412D01*
X6448753Y-10569412D02*
X6448753Y-10493222D01*
X6448753Y-10493222D02*
X6458277Y-10474174D01*
X6458277Y-10474174D02*
X6477325Y-10464650D01*
X6477325Y-10464650D02*
X6515420Y-10464650D01*
X6515420Y-10464650D02*
X6534468Y-10474174D01*
X6534468Y-10474174D02*
X6543991Y-10493222D01*
X6543991Y-10493222D02*
X6543991Y-10512270D01*
X6543991Y-10512270D02*
X6448753Y-10531317D01*
X6620182Y-10588460D02*
X6639230Y-10597984D01*
X6639230Y-10597984D02*
X6677325Y-10597984D01*
X6677325Y-10597984D02*
X6696372Y-10588460D01*
X6696372Y-10588460D02*
X6705896Y-10569412D01*
X6705896Y-10569412D02*
X6705896Y-10559889D01*
X6705896Y-10559889D02*
X6696372Y-10540841D01*
X6696372Y-10540841D02*
X6677325Y-10531317D01*
X6677325Y-10531317D02*
X6648753Y-10531317D01*
X6648753Y-10531317D02*
X6629706Y-10521793D01*
X6629706Y-10521793D02*
X6620182Y-10502746D01*
X6620182Y-10502746D02*
X6620182Y-10493222D01*
X6620182Y-10493222D02*
X6629706Y-10474174D01*
X6629706Y-10474174D02*
X6648753Y-10464650D01*
X6648753Y-10464650D02*
X6677325Y-10464650D01*
X6677325Y-10464650D02*
X6696372Y-10474174D01*
X6772563Y-10674174D02*
X6782087Y-10664650D01*
X6782087Y-10664650D02*
X6801134Y-10636079D01*
X6801134Y-10636079D02*
X6810658Y-10617031D01*
X6810658Y-10617031D02*
X6820182Y-10588460D01*
X6820182Y-10588460D02*
X6829706Y-10540841D01*
X6829706Y-10540841D02*
X6829706Y-10502746D01*
X6829706Y-10502746D02*
X6820182Y-10455127D01*
X6820182Y-10455127D02*
X6810658Y-10426555D01*
X6810658Y-10426555D02*
X6801134Y-10407508D01*
X6801134Y-10407508D02*
X6782087Y-10378936D01*
X6782087Y-10378936D02*
X6772563Y-10369412D01*
X7134468Y-10674174D02*
X7124944Y-10664650D01*
X7124944Y-10664650D02*
X7105896Y-10636079D01*
X7105896Y-10636079D02*
X7096372Y-10617031D01*
X7096372Y-10617031D02*
X7086849Y-10588460D01*
X7086849Y-10588460D02*
X7077325Y-10540841D01*
X7077325Y-10540841D02*
X7077325Y-10502746D01*
X7077325Y-10502746D02*
X7086849Y-10455127D01*
X7086849Y-10455127D02*
X7096372Y-10426555D01*
X7096372Y-10426555D02*
X7105896Y-10407508D01*
X7105896Y-10407508D02*
X7124944Y-10378936D01*
X7124944Y-10378936D02*
X7134468Y-10369412D01*
X7210658Y-10464650D02*
X7210658Y-10597984D01*
X7210658Y-10483698D02*
X7220182Y-10474174D01*
X7220182Y-10474174D02*
X7239230Y-10464650D01*
X7239230Y-10464650D02*
X7267801Y-10464650D01*
X7267801Y-10464650D02*
X7286849Y-10474174D01*
X7286849Y-10474174D02*
X7296372Y-10493222D01*
X7296372Y-10493222D02*
X7296372Y-10597984D01*
X7420182Y-10597984D02*
X7401134Y-10588460D01*
X7401134Y-10588460D02*
X7391611Y-10578936D01*
X7391611Y-10578936D02*
X7382087Y-10559889D01*
X7382087Y-10559889D02*
X7382087Y-10502746D01*
X7382087Y-10502746D02*
X7391611Y-10483698D01*
X7391611Y-10483698D02*
X7401134Y-10474174D01*
X7401134Y-10474174D02*
X7420182Y-10464650D01*
X7420182Y-10464650D02*
X7448753Y-10464650D01*
X7448753Y-10464650D02*
X7467801Y-10474174D01*
X7467801Y-10474174D02*
X7477325Y-10483698D01*
X7477325Y-10483698D02*
X7486849Y-10502746D01*
X7486849Y-10502746D02*
X7486849Y-10559889D01*
X7486849Y-10559889D02*
X7477325Y-10578936D01*
X7477325Y-10578936D02*
X7467801Y-10588460D01*
X7467801Y-10588460D02*
X7448753Y-10597984D01*
X7448753Y-10597984D02*
X7420182Y-10597984D01*
X7543992Y-10464650D02*
X7620182Y-10464650D01*
X7572563Y-10397984D02*
X7572563Y-10569412D01*
X7572563Y-10569412D02*
X7582087Y-10588460D01*
X7582087Y-10588460D02*
X7601134Y-10597984D01*
X7601134Y-10597984D02*
X7620182Y-10597984D01*
X7839230Y-10464650D02*
X7839230Y-10664650D01*
X7839230Y-10474174D02*
X7858277Y-10464650D01*
X7858277Y-10464650D02*
X7896373Y-10464650D01*
X7896373Y-10464650D02*
X7915420Y-10474174D01*
X7915420Y-10474174D02*
X7924944Y-10483698D01*
X7924944Y-10483698D02*
X7934468Y-10502746D01*
X7934468Y-10502746D02*
X7934468Y-10559889D01*
X7934468Y-10559889D02*
X7924944Y-10578936D01*
X7924944Y-10578936D02*
X7915420Y-10588460D01*
X7915420Y-10588460D02*
X7896373Y-10597984D01*
X7896373Y-10597984D02*
X7858277Y-10597984D01*
X7858277Y-10597984D02*
X7839230Y-10588460D01*
X8048753Y-10597984D02*
X8029706Y-10588460D01*
X8029706Y-10588460D02*
X8020182Y-10569412D01*
X8020182Y-10569412D02*
X8020182Y-10397984D01*
X8210658Y-10597984D02*
X8210658Y-10493222D01*
X8210658Y-10493222D02*
X8201134Y-10474174D01*
X8201134Y-10474174D02*
X8182087Y-10464650D01*
X8182087Y-10464650D02*
X8143992Y-10464650D01*
X8143992Y-10464650D02*
X8124944Y-10474174D01*
X8210658Y-10588460D02*
X8191611Y-10597984D01*
X8191611Y-10597984D02*
X8143992Y-10597984D01*
X8143992Y-10597984D02*
X8124944Y-10588460D01*
X8124944Y-10588460D02*
X8115420Y-10569412D01*
X8115420Y-10569412D02*
X8115420Y-10550365D01*
X8115420Y-10550365D02*
X8124944Y-10531317D01*
X8124944Y-10531317D02*
X8143992Y-10521793D01*
X8143992Y-10521793D02*
X8191611Y-10521793D01*
X8191611Y-10521793D02*
X8210658Y-10512270D01*
X8277325Y-10464650D02*
X8353515Y-10464650D01*
X8305896Y-10397984D02*
X8305896Y-10569412D01*
X8305896Y-10569412D02*
X8315420Y-10588460D01*
X8315420Y-10588460D02*
X8334468Y-10597984D01*
X8334468Y-10597984D02*
X8353515Y-10597984D01*
X8496373Y-10588460D02*
X8477325Y-10597984D01*
X8477325Y-10597984D02*
X8439230Y-10597984D01*
X8439230Y-10597984D02*
X8420182Y-10588460D01*
X8420182Y-10588460D02*
X8410658Y-10569412D01*
X8410658Y-10569412D02*
X8410658Y-10493222D01*
X8410658Y-10493222D02*
X8420182Y-10474174D01*
X8420182Y-10474174D02*
X8439230Y-10464650D01*
X8439230Y-10464650D02*
X8477325Y-10464650D01*
X8477325Y-10464650D02*
X8496373Y-10474174D01*
X8496373Y-10474174D02*
X8505896Y-10493222D01*
X8505896Y-10493222D02*
X8505896Y-10512270D01*
X8505896Y-10512270D02*
X8410658Y-10531317D01*
X8677325Y-10597984D02*
X8677325Y-10397984D01*
X8677325Y-10588460D02*
X8658277Y-10597984D01*
X8658277Y-10597984D02*
X8620182Y-10597984D01*
X8620182Y-10597984D02*
X8601135Y-10588460D01*
X8601135Y-10588460D02*
X8591611Y-10578936D01*
X8591611Y-10578936D02*
X8582087Y-10559889D01*
X8582087Y-10559889D02*
X8582087Y-10502746D01*
X8582087Y-10502746D02*
X8591611Y-10483698D01*
X8591611Y-10483698D02*
X8601135Y-10474174D01*
X8601135Y-10474174D02*
X8620182Y-10464650D01*
X8620182Y-10464650D02*
X8658277Y-10464650D01*
X8658277Y-10464650D02*
X8677325Y-10474174D01*
X8753516Y-10674174D02*
X8763039Y-10664650D01*
X8763039Y-10664650D02*
X8782087Y-10636079D01*
X8782087Y-10636079D02*
X8791611Y-10617031D01*
X8791611Y-10617031D02*
X8801135Y-10588460D01*
X8801135Y-10588460D02*
X8810658Y-10540841D01*
X8810658Y-10540841D02*
X8810658Y-10502746D01*
X8810658Y-10502746D02*
X8801135Y-10455127D01*
X8801135Y-10455127D02*
X8791611Y-10426555D01*
X8791611Y-10426555D02*
X8782087Y-10407508D01*
X8782087Y-10407508D02*
X8763039Y-10378936D01*
X8763039Y-10378936D02*
X8753516Y-10369412D01*
M02*
